<?xml version="1.0" encoding="iso-8859-1"?>
<!-- Generator: Adobe Illustrator 19.0.0, SVG Export Plug-In . SVG Version: 6.00 Build 0)  -->
<svg version="1.1" id="Capa_1" xmlns="http://www.w3.org/2000/svg" xmlns:xlink="http://www.w3.org/1999/xlink" x="0px" y="0px"
	 viewBox="0 0 511.999 511.999" style="enable-background:new 0 0 511.999 511.999;" xml:space="preserve">
<rect x="15.993" y="464.17" transform="matrix(-0.7071 0.7071 -0.7071 -0.7071 394.7212 795.2676)" style="fill:#46C373;" width="33.325" height="30.426"/>
<path style="fill:#D7FA91;" d="M255.641,300.034c-19.369,97.222-58.65,183.178-106.128,197.718
	c24.322-5.132,103.529-26.64,264.863-187.974c0,0-57.381-30.219-158.734-9.747L255.641,300.034z"/>
<path style="fill:#A5DC69;" d="M146.539,498.578c-34.919,8.428-73.256-0.624-100.512-27.948
	c-41.376-41.479-54.24-96.076-0.053-150.262c88.92-88.92,153.028-159.175,178.558-310.023
	C317.189,103.002,250.752,473.427,146.539,498.578z"/>
<path style="fill:#F5B955;" d="M266.773,102.522c96.585-78.62,188.786-113.652,222.835-79.209
	c38.59,39.035-17.005,160.097-117.603,271.07c0,0-82.242-13.496-116.363,5.649C274.01,238.194,266.773,102.522,266.773,102.522z"/>
<g>
	<path style="fill:#E6AA46;" d="M282.147,244.341l-10.835-10.835c-6.574-6.574-6.574-17.231,0-23.805l2.475-2.475
		c6.574-6.574,17.231-6.574,23.805,0l10.835,10.835c6.574,6.574,6.574,17.231,0,23.805l-2.474,2.475
		C299.379,250.914,288.721,250.914,282.147,244.341z"/>
	<path style="fill:#E6AA46;" d="M347.938,265.893l-10.343-10.343c-6.275-6.275-6.275-16.449,0-22.724l2.362-2.362
		c6.275-6.275,16.449-6.275,22.724,0l10.343,10.343c6.275,6.275,6.275,16.449,0,22.724l-2.362,2.362
		C364.387,272.168,354.213,272.168,347.938,265.893z"/>
	<path style="fill:#E6AA46;" d="M388.112,224.115l-10.343-10.343c-6.275-6.275-6.275-16.449,0-22.724l2.362-2.362
		c6.275-6.275,16.449-6.275,22.724,0l10.343,10.343c6.275,6.275,6.275,16.449,0,22.724l-2.362,2.362
		C404.561,230.39,394.386,230.39,388.112,224.115z"/>
	<path style="fill:#E6AA46;" d="M323.057,202.563l-10.835-10.835c-6.574-6.574-6.574-17.231,0-23.805l2.475-2.475
		c6.574-6.574,17.231-6.574,23.805,0l10.835,10.835c6.574,6.574,6.574,17.231,0,23.805l-2.474,2.475
		C340.289,209.137,329.63,209.137,323.057,202.563z"/>
	<path style="fill:#E6AA46;" d="M364.636,161.605l-10.835-10.835c-6.574-6.574-6.574-17.231,0-23.805l2.474-2.475
		c6.574-6.574,17.231-6.574,23.805,0l10.835,10.835c6.574,6.574,6.574,17.231,0,23.805l-2.475,2.475
		C381.867,168.179,371.21,168.179,364.636,161.605z"/>
	<path style="fill:#E6AA46;" d="M406.655,120.904l-10.835-10.835c-6.574-6.574-6.574-17.231,0-23.805l2.475-2.475
		c6.574-6.574,17.231-6.574,23.805,0l10.835,10.835c6.574,6.574,6.574,17.231,0,23.805l-2.474,2.475
		C423.886,127.478,413.229,127.478,406.655,120.904z"/>
	<path style="fill:#E6AA46;" d="M447.58,79.219l-10.835-10.835c-6.574-6.574-6.574-17.231,0-23.805l2.475-2.475
		c6.574-6.574,17.231-6.574,23.805,0l10.835,10.835c6.574,6.574,6.574,17.231,0,23.805l-2.475,2.475
		C464.812,85.793,454.154,85.793,447.58,79.219z"/>
	<path style="fill:#E6AA46;" d="M331.19,86.862l10.526,10.155c6.386,6.161,16.519,5.938,22.632-0.498l2.301-2.423
		c6.113-6.436,5.892-16.647-0.494-22.808l-10.526-10.155c-6.386-6.161-16.518-5.938-22.632,0.498l-2.301,2.423
		C324.583,70.489,324.804,80.701,331.19,86.862z"/>
	<path style="fill:#E6AA46;" d="M384.35,58.894l10.526,10.155c6.386,6.161,16.519,5.938,22.632-0.498l2.301-2.423
		c6.113-6.436,5.892-16.647-0.494-22.808l-10.526-10.155c-6.386-6.161-16.518-5.938-22.632,0.498l-2.301,2.423
		C377.743,42.521,377.964,52.733,384.35,58.894z"/>
	<path style="fill:#E6AA46;" d="M290.072,127.935l-10.835-10.835c-6.574-6.574-6.574-17.231,0-23.805l2.474-2.475
		c6.574-6.574,17.231-6.574,23.805,0l10.835,10.835c6.574,6.574,6.574,17.231,0,23.805l-2.475,2.475
		C307.304,134.509,296.646,134.509,290.072,127.935z"/>
</g>
<path d="M313.986,388.875l-0.463,0.387c-4.232,3.545-4.789,9.853-1.244,14.085c1.979,2.361,4.813,3.578,7.67,3.578
	c2.266,0,4.543-0.766,6.416-2.334l0.441-0.37c4.237-3.54,4.803-9.846,1.263-14.084C324.528,385.899,318.22,385.335,313.986,388.875z
	"/>
<path d="M496.718,16.283c-19.46-19.686-53.516-21.473-98.485-5.164c-36.263,13.15-77.41,37.053-119.957,69.589
	c-0.672,0.47-5.716,4.414-7.601,5.895c-6.657-31.898-18.492-62.747-39.073-83.327c-2.646-2.646-6.548-3.591-10.109-2.456
	c-3.563,1.137-6.194,4.168-6.818,7.857c-24.484,144.664-82.74,211.591-175.772,304.622c-27.615,27.615-40.641,57.086-38.717,87.595
	c1.174,18.609,8.143,37.247,20.391,54.923L3.055,473.339c-1.875,1.875-2.929,4.418-2.929,7.07s1.054,5.195,2.929,7.07l21.516,21.515
	c1.953,1.953,4.511,2.929,7.07,2.929s5.117-0.976,7.07-2.929l17.224-17.224c19.138,13.015,41.628,19.897,64.837,19.897
	c9.312,0,18.742-1.107,28.112-3.37c1.075-0.259,2.146-0.558,3.215-0.878c37.58-8.072,84.09-32.984,138.257-74.067
	c4.399-3.338,5.261-9.609,1.925-14.009c-3.338-4.399-9.609-5.262-14.009-1.925c-27.615,20.944-52.967,37.456-75.877,49.442
	c2.853-3.928,5.669-8.114,8.445-12.57c16.507-26.501,31.339-62.22,42.897-103.293c3.88-13.792,7.342-27.993,10.358-42.412
	c65.508-12.028,111.23-2.008,132.362,4.883c-16.978,16.698-33.633,32.412-49.645,46.839c-4.102,3.696-4.431,10.02-0.734,14.121
	c1.975,2.191,4.696,3.307,7.431,3.306c2.386,0,4.778-0.849,6.69-2.571c19.665-17.72,40.272-37.34,61.248-58.315
	c2.246-2.247,3.292-5.426,2.816-8.568c-0.477-3.142-2.417-5.869-5.227-7.35c-1.001-0.527-11.308-5.811-30.094-10.526
	c45.572-52.008,81.989-106.457,103.206-154.496C516.963,79.728,518.544,38.361,496.718,16.283z M402.889,102.998
	c-2.665-2.666-2.665-7.001-0.001-9.666l2.476-2.475c1.332-1.333,3.083-1.999,4.833-1.999c1.75,0,3.5,0.667,4.832,1.999
	l10.835,10.836c2.665,2.665,2.665,7,0,9.665l-2.475,2.475c-1.291,1.291-3.007,2.002-4.832,2.002s-3.541-0.711-4.832-2.002l0,0
	L402.889,102.998z M412.558,59.244l-2.3,2.422c-1.108,1.167-2.595,1.828-4.185,1.863c-1.575,0.039-3.101-0.56-4.255-1.675
	l-10.526-10.155c-2.439-2.353-2.522-6.268-0.188-8.726l2.303-2.423c1.108-1.167,2.595-1.828,4.186-1.863
	c1.59-0.036,3.1,0.56,4.254,1.675l10.525,10.155C414.81,52.87,414.894,56.784,412.558,59.244z M348.686,68.33l10.525,10.155
	c2.439,2.353,2.523,6.267,0.188,8.726l-2.303,2.424c-1.107,1.166-2.594,1.828-4.184,1.862c-1.591,0.033-3.101-0.56-4.255-1.675
	l-10.525-10.155c-2.439-2.353-2.523-6.267-0.187-8.727l2.3-2.422c1.108-1.167,2.595-1.828,4.186-1.863
	c0.044-0.001,0.087-0.001,0.131-0.001C346.103,66.654,347.563,67.246,348.686,68.33z M293.614,95.887
	c1.826,0,3.541,0.711,4.832,2.002l10.836,10.835c2.665,2.666,2.665,7.001,0.001,9.666l-2.476,2.475
	c-1.291,1.291-3.008,2.002-4.832,2.002c-1.826,0-3.541-0.711-4.832-2.002l0,0l-10.836-10.835c-2.665-2.665-2.665-7,0-9.665
	l2.475-2.475c0.047-0.047,0.098-0.087,0.146-0.132c0.368-0.283,0.737-0.568,1.104-0.85
	C291.098,96.247,292.327,95.887,293.614,95.887z M276.813,219.22c0.338-0.908,0.863-1.744,1.57-2.45l2.475-2.475
	c1.291-1.291,3.007-2.002,4.832-2.002s3.541,0.711,4.832,2.002l10.836,10.835c2.665,2.665,2.665,7.001,0,9.666l-2.475,2.475
	c-2.664,2.664-7.002,2.666-9.666,0l-10.836-10.835c-0.963-0.963-1.602-2.163-1.865-3.467
	C276.618,221.716,276.717,220.468,276.813,219.22z M31.641,487.783l-7.375-7.375l8.853-8.853c1.87,2.064,3.808,4.111,5.829,6.136
	c0.465,0.466,0.937,0.92,1.408,1.377L31.641,487.783z M193.866,443.718c-15.143,24.314-31.446,39.622-47.306,44.484
	c-0.076,0.023-0.152,0.045-0.227,0.069c-0.714,0.215-1.428,0.416-2.14,0.588c-33.241,8.023-67.291-1.433-91.088-25.289
	c-25.4-25.464-59.183-77.009-0.063-136.131c44.195-44.195,83.308-84.743,114.409-133.48c30.053-47.096,50.251-98.381,62.84-159.96
	c16.462,26.94,26.288,68.917,28.068,121.17c0.66,19.393,0.186,39.792-1.333,60.585c-0.42,1.9-0.644,3.856-0.644,5.848
	c0,0.545,0.021,1.087,0.054,1.627c-3.479,41.062-10.983,83.378-21.95,122.352C223.433,384.861,209.387,418.797,193.866,443.718z
	 M384.838,198.119l2.363-2.363c1.146-1.146,2.671-1.778,4.291-1.778s3.146,0.631,4.291,1.778l10.344,10.343
	c1.146,1.146,1.777,2.671,1.777,4.291s-0.631,3.146-1.777,4.291l-2.363,2.363c-1.146,1.146-2.671,1.778-4.291,1.778
	s-3.146-0.631-4.291-1.778l-10.343-10.342C382.473,204.336,382.473,200.485,384.838,198.119z M473.855,127.832
	c-11.201,25.361-26.877,52.652-46.044,80.458c-0.49-6.17-3.121-11.905-7.544-16.33l-10.343-10.342
	c-4.923-4.923-11.469-7.635-18.432-7.635c-1.484,0-2.947,0.131-4.381,0.372c3.053-1.305,5.913-3.193,8.401-5.68l2.475-2.475
	c10.461-10.461,10.461-27.484,0-37.945l-10.836-10.835c-5.067-5.068-11.806-7.859-18.973-7.859c-7.167,0-13.905,2.792-18.972,7.858
	l-2.476,2.475c-5.067,5.067-7.859,11.806-7.859,18.973c0,7.167,2.792,13.905,7.859,18.972l10.837,10.836l0,0
	c5.231,5.23,12.102,7.846,18.973,7.846c1.541,0,3.08-0.139,4.601-0.402c-2.977,1.289-5.716,3.136-8.078,5.498l-2.363,2.363
	c-10.162,10.163-10.162,26.7,0,36.863l10.343,10.343c4.924,4.923,11.47,7.635,18.432,7.635c2.3,0,4.552-0.302,6.718-0.876
	c-6.987,9.088-14.309,18.176-21.929,27.22c2.257-3.91,3.465-8.359,3.465-12.994c0-6.963-2.712-13.509-7.635-18.431l-10.343-10.344
	c-10.164-10.163-26.701-10.161-36.863,0l-2.362,2.363c-10.162,10.163-10.162,26.7,0,36.863l10.343,10.343
	c5.082,5.081,11.757,7.622,18.432,7.622c6.378,0,12.753-2.326,17.741-6.965c-3.558,4.108-7.179,8.203-10.854,12.281
	c-24.702-3.681-57.66-4.914-98.043,1.685c2.206-12.451,4.079-24.99,5.606-37.503l1.328,1.328l0,0
	c5.231,5.23,12.102,7.846,18.973,7.846s13.742-2.616,18.974-7.846l2.475-2.475c10.46-10.461,10.46-27.483,0-37.945l-10.836-10.835
	c-5.067-5.068-11.806-7.859-18.973-7.859c-2.549,0-5.041,0.359-7.425,1.042c0.471-13.252,0.509-26.257,0.08-38.851
	c-0.278-8.175-0.778-16.82-1.567-25.708l6.226,6.225c5.067,5.068,11.806,7.859,18.973,7.859c7.166,0,13.904-2.792,18.972-7.858
	l2.476-2.475c10.46-10.461,10.46-27.484,0-37.945l-10.836-10.835c-0.665-0.665-1.36-1.289-2.08-1.874
	c1.969-1.387,3.935-2.762,5.897-4.108c0.582,5.991,3.201,11.81,7.844,16.29l10.525,10.155c4.881,4.708,11.251,7.282,17.996,7.282
	c0.193,0,0.387-0.002,0.581-0.006c6.96-0.152,13.44-3.023,18.245-8.082l2.302-2.423c9.872-10.391,9.513-26.94-0.801-36.889
	l-10.526-10.155c-1.059-1.022-2.191-1.936-3.378-2.752c3.464-1.913,6.895-3.742,10.291-5.494c-0.43,7.379,2.224,14.896,7.924,20.396
	l10.526,10.155c0.645,0.622,1.318,1.205,2.012,1.751l-1.198,1.197c-10.46,10.461-10.46,27.484,0,37.945l10.836,10.835l0,0
	c5.067,5.068,11.806,7.859,18.973,7.859c7.167,0,13.905-2.792,18.973-7.859l2.475-2.475c10.461-10.461,10.461-27.484,0-37.944
	l-10.835-10.836c-0.979-0.98-2.017-1.867-3.101-2.663l0.988-1.041c0.086-0.09,0.165-0.185,0.249-0.276
	c0.725,0.947,1.511,1.856,2.369,2.714l10.835,10.835l0,0c5.068,5.067,11.807,7.859,18.973,7.859c7.167,0,13.905-2.792,18.973-7.859
	l2.474-2.474c5.068-5.067,7.86-11.806,7.86-18.973s-2.792-13.905-7.859-18.972L470.1,35.034c-5.068-5.067-11.807-7.859-18.973-7.859
	c-7.167,0-13.905,2.792-18.973,7.859l-2.475,2.475c-0.382,0.382-0.747,0.777-1.104,1.178c-0.708-0.891-1.475-1.75-2.315-2.56
	l-10.224-9.865c31.085-9.421,54.463-8.061,66.466,4.08C497.616,45.635,494.465,81.169,473.855,127.832z M381.371,154.535
	c-2.665,2.665-7.003,2.664-9.666,0l-10.835-10.835c-1.292-1.291-2.003-3.007-2.003-4.832c0-1.826,0.711-3.541,2.002-4.832
	l2.476-2.475c1.291-1.291,3.007-2.002,4.832-2.002s3.541,0.711,4.832,2.002l10.836,10.835c2.665,2.665,2.665,7,0,9.665
	L381.371,154.535z M344.665,248.479c-2.366-2.367-2.366-6.217,0-8.583l2.361-2.362c2.367-2.367,6.219-2.367,8.584-0.001
	l10.344,10.344c1.146,1.146,1.777,2.67,1.777,4.291s-0.631,3.146-1.779,4.292l-2.359,2.361c-2.369,2.368-6.221,2.366-8.586,0h0.001
	L344.665,248.479z M441.812,56.48c0-1.826,0.711-3.541,2.003-4.832l2.475-2.475c1.291-1.291,3.007-2.002,4.832-2.002
	c1.825,0,3.541,0.711,4.832,2.002l10.836,10.836c1.291,1.291,2.002,3.007,2.002,4.832c0,1.826-0.711,3.541-2.003,4.832l-2.475,2.475
	c-1.291,1.291-3.007,2.002-4.832,2.002c-1.825,0-3.541-0.711-4.832-2.002l-10.835-10.835
	C442.523,60.022,441.812,58.306,441.812,56.48z"/>
<path d="M307.624,158.378l-2.475,2.475c-10.46,10.461-10.46,27.483,0,37.945l10.836,10.835c5.067,5.068,11.806,7.859,18.973,7.859
	c7.167,0,13.905-2.792,18.973-7.859l2.475-2.475c10.461-10.461,10.461-27.483,0-37.945l-10.836-10.835
	c-5.067-5.068-11.806-7.859-18.973-7.859C319.432,150.519,312.694,153.311,307.624,158.378z M342.266,183.353
	c2.665,2.666,2.665,7.001,0,9.666l-2.475,2.475c-1.291,1.291-3.007,2.002-4.832,2.002s-3.541-0.711-4.832-2.002l0,0l-10.836-10.835
	c-2.665-2.665-2.665-7.001,0-9.666l2.475-2.475c1.291-1.291,3.008-2.002,4.832-2.002c1.826,0,3.541,0.711,4.832,2.002
	L342.266,183.353z"/>
<path d="M177.019,233.415c-4.42-3.309-10.686-2.405-13.995,2.016c-25.424,33.981-54.976,64.961-83.124,93.377
	c-4.191,4.232-8.432,8.485-12.718,12.771c-3.904,3.904-3.904,10.235,0,14.141c1.953,1.953,4.511,2.929,7.07,2.929
	c2.559,0,5.117-0.976,7.07-2.929c4.308-4.308,8.569-8.584,12.784-12.838c28.655-28.929,58.776-60.516,84.928-95.471
	C182.343,242.988,181.441,236.722,177.019,233.415z"/>
<path d="M198.284,201.775c-4.595-3.064-10.802-1.824-13.865,2.773c-0.021,0.032-0.08,0.122-0.102,0.155
	c-3.01,4.629-1.695,10.822,2.935,13.832c1.684,1.094,3.571,1.617,5.439,1.617c3.271,0,6.478-1.604,8.394-4.55
	c0.01-0.015,0.025-0.039,0.04-0.062C204.102,210.955,202.844,204.816,198.284,201.775z"/>
<g>
</g>
<g>
</g>
<g>
</g>
<g>
</g>
<g>
</g>
<g>
</g>
<g>
</g>
<g>
</g>
<g>
</g>
<g>
</g>
<g>
</g>
<g>
</g>
<g>
</g>
<g>
</g>
<g>
</g>
</svg>
