<svg height="512" viewBox="0 0 74 74" width="512" xmlns="http://www.w3.org/2000/svg"><g id="color_line" data-name="color line"><path d="m29.278 19.299-1.182-2.302-1.203-13.622-3.773 7.525-7.766-5.193 2.585 8.977-8.316 1.306 12.61 5.289 1.834 1.826" fill="#6fc666"/><path d="m24.066 23.605a.5.5 0 0 1 -.353-.146l-1.764-1.759-12.52-5.249a.5.5 0 0 1 .116-.955l7.755-1.218-2.427-8.433a.5.5 0 0 1 .758-.554l7.3 4.878 3.519-7.019a.493.493 0 0 1 .541-.267.5.5 0 0 1 .4.447l1.194 13.524 1.138 2.215a.5.5 0 0 1 -.89.457l-1.182-2.3a.508.508 0 0 1 -.053-.185l-1.048-11.866-2.983 5.949a.5.5 0 0 1 -.725.191l-6.63-4.433 2.207 7.664a.5.5 0 0 1 -.4.632l-6.575 1.033 10.985 4.607a.5.5 0 0 1 .16.106l1.833 1.826a.5.5 0 0 1 -.353.854z" fill="#323c6b"/><path d="m27.084 46.475c-9.968-13.646-7.309-21.058-.816-25.8s14.364-5.023 24.332 8.625 18.26 36.05 11.766 40.793-25.314-9.972-35.282-23.618z" fill="#fe7058"/><path d="m62.37 70.09a6.026 6.026 0 0 1 -4.62.78 4.7 4.7 0 0 0 1.78-.78c6.5-4.74-1.8-27.15-11.76-40.79-5.58-7.64-10.49-10.91-14.89-11.49 5.08-.66 10.91 2.16 17.72 11.49 9.97 13.64 18.26 36.05 11.77 40.79z" fill="#ea6453"/><g fill="#323c6b"><path d="m29.818 50.138a.5.5 0 0 1 -.1-.989l5.027-1.067a.5.5 0 1 1 .208.979l-5.027 1.067a.513.513 0 0 1 -.108.01z"/><path d="m37.773 58.755a.5.5 0 0 1 -.1-.989l4.885-1.037a.5.5 0 1 1 .208.979l-4.885 1.037a.513.513 0 0 1 -.108.01z"/><path d="m46.951 33.715a.5.5 0 0 1 -.451-.715l2.521-5.41a.5.5 0 0 1 .906.423l-2.527 5.413a.5.5 0 0 1 -.449.289z"/><path d="m53.387 42.525a.5.5 0 0 1 -.454-.709l2.241-4.863a.5.5 0 1 1 .908.419l-2.241 4.863a.5.5 0 0 1 -.454.29z"/><path d="m59.357 52.274a.5.5 0 0 1 -.46-.695l1.314-3.1a.5.5 0 0 1 .921.39l-1.314 3.1a.5.5 0 0 1 -.461.305z"/><path d="m47.2 66.423a.5.5 0 0 1 -.1-.989l4.5-.955a.5.5 0 1 1 .208.979l-4.5.955a.513.513 0 0 1 -.108.01z"/><path d="m47.1 69.958a.5.5 0 0 1 -.264-.076l-.259-.159c-.143-.087-.286-.174-.431-.267a.5.5 0 0 1 .543-.84c.136.088.271.17.407.252l.27.165a.5.5 0 0 1 -.265.924z"/><path d="m44.144 68a.5.5 0 0 1 -.289-.092 81.357 81.357 0 0 1 -7.755-6.289.5.5 0 1 1 .674-.738 80.6 80.6 0 0 0 7.659 6.209.5.5 0 0 1 -.29.908z"/><path d="m45.75 20a.5.5 0 0 1 -.321-.117 18.363 18.363 0 0 0 -9.264-4.525.5.5 0 1 1 .138-.99 19.586 19.586 0 0 1 9.769 4.749.5.5 0 0 1 -.322.883z"/><path d="m48.5 22.6a.5.5 0 0 1 -.363-.157c-.188-.2-.377-.4-.566-.584a.5.5 0 0 1 .706-.708c.2.2.392.4.587.606a.5.5 0 0 1 -.363.843z"/><path d="m59.235 71.5c-4.37 0-10.031-3.461-13.5-5.916a89.213 89.213 0 0 1 -19.055-18.814c-4.75-6.5-6.934-11.92-6.676-16.562.217-3.912 2.17-7.163 5.97-9.938 8.184-5.977 16.37-3.12 25.026 8.73 9.595 13.134 18.715 36.342 11.661 41.5a5.675 5.675 0 0 1 -3.426 1zm-31.747-25.32a88.13 88.13 0 0 0 18.829 18.591c7.254 5.139 12.995 6.93 15.754 4.916 6.008-4.387-1.636-26.076-11.871-40.094-11-15.065-18.758-12.076-23.632-8.516-3.547 2.588-5.368 5.593-5.568 9.187-.238 4.336 1.943 9.695 6.488 15.916z"/></g><path d="m31.87 47a.648.648 0 0 1 -.511-.248q-.794-1.009-1.53-2.015a48.219 48.219 0 0 1 -4.221-6.792.65.65 0 1 1 1.163-.58 46.957 46.957 0 0 0 4.107 6.605q.721.987 1.5 1.979a.65.65 0 0 1 -.508 1.051z" fill="#fff"/><path d="m36.1 51.958a.648.648 0 0 1 -.478-.209q-.33-.357-.655-.718a.65.65 0 1 1 .966-.87q.319.354.645.708a.65.65 0 0 1 -.478 1.09z" fill="#fff"/><path d="m23.753 41.22a.5.5 0 0 1 -.1-.989l4.363-.927a.5.5 0 0 1 .208.979l-4.363.927a.513.513 0 0 1 -.108.01z" fill="#323c6b"/></g></svg>