<?xml version="1.0" encoding="iso-8859-1"?>
<!-- Generator: Adobe Illustrator 19.0.0, SVG Export Plug-In . SVG Version: 6.00 Build 0)  -->
<svg version="1.1" id="Capa_1" xmlns="http://www.w3.org/2000/svg" xmlns:xlink="http://www.w3.org/1999/xlink" x="0px" y="0px"
	 viewBox="0 0 512 512" style="enable-background:new 0 0 512 512;" xml:space="preserve">
<path style="fill:#A5DC69;" d="M303.771,93.1C317.067,85.581,334.678,81,353.999,81c19.026,0,36.385,4.448,49.606,11.764
	c5.645-7.539,13.922-13.509,23.726-16.998v-3.405c0-13.957-18.846-25.931-45.704-31.046l-38.789-2.37
	c-36.766,2.134-65.172,16.281-65.172,33.416v0.923C288.834,77.131,298.075,84.173,303.771,93.1z"/>
<circle style="fill:#FF5A5A;" cx="345.496" cy="255.998" r="156.498"/>
<ellipse style="fill:#A5DC69;" cx="353.996" cy="127.999" rx="74.999" ry="46.999"/>
<g>
	<path style="fill:#46C373;" d="M279,128c0-13.85,9.563-26.298,24.773-34.899c-8.757-13.723-25.858-23.042-45.52-23.042
		c-28.58,0-51.747,19.686-51.747,43.97s23.169,43.97,51.747,43.97c10.994,0,21.18-2.922,29.562-7.889
		C282.195,143.519,279,135.994,279,128z"/>
	<path style="fill:#46C373;" d="M447.293,72.362c-18.373,0-34.505,8.139-43.688,20.403c15.565,8.612,25.393,21.201,25.393,35.236
		c0,8.997-4.04,17.4-11.035,24.545c8.338,4.886,18.436,7.758,29.331,7.758c28.58,0,51.747-19.686,51.747-43.97
		S475.872,72.362,447.293,72.362z"/>
</g>
<circle style="fill:#FF8C8C;" cx="166.498" cy="345.506" r="156.498"/>
<g>
	<path style="fill:#FFFFFF;" d="M131.86,285.503l34.641,59.999l34.641-59.999c10.185-17.641,5.486-40.119-10.913-52.201l0,0
		c-14.11-10.397-33.345-10.397-47.454,0l0,0C126.375,245.385,121.676,267.862,131.86,285.503z"/>
	<path style="fill:#FFFFFF;" d="M201.142,405.503l-34.641-59.999l-34.641,59.999c-10.185,17.641-5.486,40.119,10.913,52.201l0,0
		c14.11,10.397,33.345,10.397,47.454,0l0,0C206.628,445.621,211.327,423.144,201.142,405.503z"/>
	<path style="fill:#FFFFFF;" d="M201.142,285.503l-34.641,59.999h69.281c20.37,0,37.487-15.309,39.752-35.553l0,0
		c1.949-17.418-7.669-34.076-23.727-41.096l0,0C233.142,260.693,211.327,267.862,201.142,285.503z"/>
	<path style="fill:#FFFFFF;" d="M131.86,405.503l34.641-59.999H97.22c-20.37,0-37.487,15.309-39.752,35.553l0,0
		c-1.949,17.418,7.669,34.076,23.727,41.096l0,0C99.86,430.312,121.676,423.144,131.86,405.503z"/>
	<path style="fill:#FFFFFF;" d="M97.22,345.502h69.281l-34.641-59.999c-10.185-17.641-32.001-24.811-50.664-16.65l0,0
		c-16.059,7.021-25.676,23.679-23.727,41.096l0,0C59.733,330.195,76.85,345.502,97.22,345.502z"/>
	<path style="fill:#FFFFFF;" d="M235.782,345.503h-69.281l34.641,59.999c10.185,17.641,32.001,24.811,50.664,16.65l0,0
		c16.059-7.021,25.676-23.679,23.727-41.096l0,0C273.269,360.811,256.152,345.503,235.782,345.503z"/>
</g>
<path style="fill:#46C373;" d="M339.326,77.001c0,0-0.539-50.999,24.389-66.999l25.284,14.333c0,0-16.667,15.333-17.5,54.806
	L339.326,77.001z"/>
<path d="M89.257,219.364c1.679,0,3.38-0.421,4.94-1.305c0.012-0.006,0.084-0.048,0.095-0.054c4.789-2.736,6.428-8.815,3.7-13.609
	c-2.726-4.795-8.85-6.457-13.649-3.74c-0.012,0.007-0.084,0.048-0.095,0.054c-4.789,2.736-6.428,8.815-3.7,13.609
	C82.388,217.554,85.773,219.364,89.257,219.364z"/>
<path d="M482.156,160.846c16.22-9.736,26.884-26.054,26.884-44.513c0-29.76-27.7-53.97-61.747-53.97
	c-3.944,0-7.83,0.326-11.618,0.954c-4.776-12.812-19.713-23.392-41.738-29.412c0.963-1.29,1.658-2.028,1.882-2.255
	c2.425-2.125,3.563-5.189,3.246-8.402c-0.32-3.235-2.308-6.01-5.136-7.612L368.646,1.301c-3.23-1.832-7.21-1.723-10.333,0.283
	c-9.955,6.39-16.497,16.714-20.795,27.722c-34.044,2.895-59.344,15.175-67.24,31.789c-3.92-0.68-7.944-1.036-12.026-1.036
	c-34.049,0-61.748,24.211-61.748,53.97c0,15.069,7.11,28.709,18.543,38.509c-7.203,9.066-13.423,18.828-18.586,29.173
	c-9.722-1.774-19.733-2.706-29.959-2.706c-14.418,0-28.735,1.847-42.553,5.489c-5.341,1.408-8.528,6.879-7.121,12.219
	c1.408,5.341,6.886,8.527,12.219,7.121c12.155-3.204,24.757-4.829,37.455-4.829c80.779,0,146.498,65.719,146.498,146.498
	s-65.719,146.498-146.498,146.498S20.004,426.282,20.004,345.502c0-40.352,16.06-77.942,45.22-105.852
	c3.99-3.818,4.129-10.148,0.311-14.139c-3.819-3.991-10.149-4.128-14.139-0.311C18.255,256.919,0.003,299.643,0.003,345.502
	C0.003,437.31,74.693,512,166.501,512c65.13,0,121.636-37.597,148.98-92.221c10.07,1.842,20.173,2.75,30.201,2.75
	c43.685,0,85.918-17.17,117.549-48.8c29.25-29.25,46.494-68.093,48.557-109.374C513.64,227.289,503.17,190.965,482.156,160.846z
	 M489.04,116.332c0,18.731-18.729,33.971-41.748,33.971c-4.727,0-9.34-0.665-13.716-1.916c3.5-6.305,5.421-13.166,5.421-20.387
	c0-14.171-7.35-26.973-19.674-36.843c7.568-5.607,17.42-8.796,27.969-8.796C470.311,82.362,489.04,97.6,489.04,116.332z
	 M296.032,144.432c-0.384-0.556-0.814-1.062-1.285-1.516c-3.673-4.591-5.747-9.644-5.747-14.917c0-9.941,7.319-19.114,18.987-25.842
	c0.396-0.185,0.787-0.387,1.165-0.628c0.042-0.027,0.08-0.059,0.122-0.087c11.755-6.427,27.588-10.443,44.726-10.443
	c16.863,0,32.462,3.888,44.157,10.134c0.462,0.301,0.94,0.562,1.432,0.778C411.505,108.66,419,117.937,419,127.999
	c0,6.032-2.708,11.779-7.434,16.872c-0.508,0.424-0.978,0.902-1.402,1.433c-11.382,11.069-32.536,18.695-56.164,18.695
	C329.06,165,306.874,156.505,296.032,144.432z M416.6,69.49c-5.709,2.854-10.893,6.51-15.344,10.87
	c-5.997-2.647-12.551-4.786-19.533-6.353c0.544-8.688,1.911-15.854,3.596-21.666C402.576,56.508,413.746,63.561,416.6,69.49z
	 M364.754,22.085l9.491,5.38c-5.044,8.561-10.825,22.699-12.37,43.778c-2.592-0.153-5.215-0.243-7.876-0.243
	c-1.517,0-3.022,0.027-4.517,0.077C350.228,57.678,353.823,33.688,364.754,22.085z M331.781,50.074
	c-1.788,9.773-2.288,18.381-2.416,23.278c-8.203,1.61-15.856,4.004-22.769,7.069c-4.74-5.203-10.506-9.556-16.968-12.882
	C294.75,60.798,309.717,53.162,331.781,50.074z M258.252,80.059c11.824,0,22.832,4.046,30.633,10.935
	C276.436,100.885,269,113.75,269,128c0,6.228,1.435,12.188,4.07,17.756c-4.696,1.465-9.688,2.244-14.818,2.244
	c-8.598,0-16.597-2.127-23.245-5.767c-0.199-0.125-0.402-0.238-0.607-0.347c-10.808-6.146-17.896-16.337-17.896-27.856
	C216.503,95.297,235.231,80.059,258.252,80.059z M449.089,359.587c-33.148,33.15-79.535,48.24-125.559,41.26
	c6.124-17.324,9.469-35.95,9.469-55.343c0-74.421-49.081-137.589-116.573-158.848c4.508-8.378,9.833-16.287,15.903-23.66
	c7.888,3.203,16.667,5.004,25.923,5.004c9.628,0,18.989-1.937,27.488-5.633c15.37,13.83,39.999,22.633,68.259,22.633
	c26.711,0,50.174-7.866,65.645-20.405c8.545,3.744,17.968,5.708,27.649,5.708c5.437,0,10.709-0.624,15.735-1.782
	C506.453,226.621,500.872,307.804,449.089,359.587z"/>
<path d="M47.529,311.062c1.588,14.19,8.989,26.422,19.67,34.441c-10.681,8.019-18.082,20.252-19.67,34.441
	c-2.449,21.899,9.47,42.544,29.66,51.37c6.511,2.847,13.321,4.205,20.036,4.205c6.778,0,13.451-1.402,19.623-4.035
	c1.601,13.266,8.495,25.798,19.994,34.271c8.871,6.536,19.264,9.805,29.659,9.804c10.394-0.001,20.79-3.269,29.659-9.804
	c11.5-8.473,18.394-21.005,19.994-34.27c6.172,2.634,12.844,4.035,19.623,4.035c6.713,0,13.526-1.358,20.036-4.205
	c20.19-8.827,32.109-29.472,29.66-51.37c-1.588-14.19-8.989-26.422-19.67-34.441c10.681-8.019,18.082-20.252,19.67-34.441
	c2.449-21.899-9.471-42.543-29.659-51.369c-13.083-5.721-27.377-5.428-39.663-0.187c-1.604-13.26-8.497-25.785-19.992-34.254
	c-17.74-13.07-41.578-13.07-59.317,0c-11.495,8.469-18.388,20.995-19.992,34.255c-12.286-5.24-26.58-5.534-39.662,0.185
	C57,268.518,45.08,289.163,47.529,311.062z M85.201,412.991c-12.113-5.297-19.265-17.685-17.795-30.824
	c1.7-15.201,14.518-26.664,29.813-26.664h51.961l-25.98,44.999C115.554,413.749,99.217,419.117,85.201,412.991z M184.297,449.653
	c-10.645,7.843-24.947,7.845-35.592,0c-12.314-9.073-15.833-25.904-8.185-39.151l25.98-44.999l25.98,44.999
	C200.13,423.75,196.611,440.58,184.297,449.653z M265.596,382.167c1.47,13.14-5.682,25.527-17.795,30.824
	c-14.017,6.127-30.352,0.76-38-12.488l-25.98-44.999h51.961C251.078,355.502,263.895,366.965,265.596,382.167z M247.801,278.017
	c12.113,5.295,19.265,17.682,17.795,30.822c-1.7,15.201-14.518,26.664-29.813,26.664h-51.961l25.98-44.999
	C217.449,277.256,233.788,271.887,247.801,278.017z M148.705,241.353c5.322-3.921,11.559-5.882,17.796-5.882
	c6.237,0,12.474,1.961,17.796,5.882c12.314,9.073,15.833,25.904,8.185,39.151l-25.98,44.999l-25.98-44.999
	C132.872,267.256,136.391,250.426,148.705,241.353z M85.202,278.016c3.907-1.708,7.992-2.522,12.022-2.522
	c10.424,0,20.461,5.456,25.977,15.01l25.98,44.999H97.22c-15.296,0-28.113-11.463-29.813-26.664
	C65.937,295.699,73.088,283.312,85.202,278.016z"/>
<path d="M445.735,197.929c-2.772-4.776-8.892-6.403-13.668-3.629c-4.777,2.772-6.401,8.892-3.629,13.668
	c8.429,14.523,12.885,31.132,12.885,48.029c0,26.858-11.382,52.655-31.227,70.778c-4.078,3.724-4.365,10.049-0.641,14.127
	c1.973,2.16,4.675,3.257,7.387,3.257c2.407,0,4.822-0.864,6.74-2.616c23.984-21.902,37.74-53.082,37.74-85.546
	C461.323,235.578,455.934,215.498,445.735,197.929z"/>
<path d="M376.664,346.643l-0.795,0.269c-5.241,1.741-8.078,7.402-6.337,12.644c1.395,4.194,5.298,6.85,9.488,6.85
	c1.046,0,2.109-0.165,3.155-0.513c0.334-0.111,0.667-0.225,0.998-0.339c5.223-1.798,7.998-7.488,6.2-12.71
	C387.574,347.62,381.882,344.845,376.664,346.643z"/>
<g>
</g>
<g>
</g>
<g>
</g>
<g>
</g>
<g>
</g>
<g>
</g>
<g>
</g>
<g>
</g>
<g>
</g>
<g>
</g>
<g>
</g>
<g>
</g>
<g>
</g>
<g>
</g>
<g>
</g>
</svg>
