<?xml version="1.0" encoding="iso-8859-1"?>
<!-- Generator: Adobe Illustrator 19.0.0, SVG Export Plug-In . SVG Version: 6.00 Build 0)  -->
<svg version="1.1" id="Capa_1" xmlns="http://www.w3.org/2000/svg" xmlns:xlink="http://www.w3.org/1999/xlink" x="0px" y="0px"
	 viewBox="0 0 512.003 512.003" style="enable-background:new 0 0 512.003 512.003;" xml:space="preserve">
<path style="fill:#46C373;" d="M237.646,110.791c0,0,4.114-32.109-23.693-60.972l35.153-10.303
	c22.398,18.987,25.751,54.449,25.898,64.832L237.646,110.791z"/>
<path style="fill:#A5DC69;" d="M264.841,498.488l74.613-29.653c52.046-20.685,91.613-64.258,107.198-118.051l0,0
	c25.249-87.148-17.801-179.545-100.767-216.273l-18.463-8.173c-45.484-20.135-97.352-20.135-142.836,0l-18.463,8.173
	C83.155,171.239,40.105,263.636,65.354,350.784l0,0c15.585,53.794,55.153,97.366,107.198,118.051l74.613,29.653
	C252.841,500.744,259.165,500.744,264.841,498.488z"/>
<path style="fill:#46C373;" d="M361.085,142.105c-4.904-2.741-9.973-5.278-15.202-7.593l-18.463-8.173
	c-45.484-20.135-97.352-20.135-142.836,0l-18.463,8.173c-5.229,2.315-10.298,4.851-15.202,7.593l17.601,16.237
	c15.422,14.227,34.081,24.477,54.36,29.864l0,0c21.706,5.766,44.54,5.766,66.246,0l0,0c20.279-5.386,38.938-15.637,54.36-29.864
	L361.085,142.105z"/>
<path d="M354.613,400.307c-3.986,3.823-4.118,10.153-0.294,14.139c1.964,2.048,4.589,3.078,7.218,3.078
	c2.489,0,4.982-0.924,6.921-2.783c19.022-18.246,33.003-41.441,40.432-67.081c4.886-16.865,6.771-34.295,5.604-51.802
	c-0.368-5.51-5.121-9.706-10.644-9.313c-5.51,0.367-9.68,5.132-9.313,10.643c1.012,15.177-0.623,30.285-4.858,44.906
	C383.228,364.362,371.102,384.492,354.613,400.307z"/>
<path d="M396.522,268.164c1.116,0,2.251-0.188,3.363-0.586c5.201-1.857,7.912-7.579,6.054-12.78l-0.131-0.366
	c-1.878-5.194-7.613-7.879-12.805-6.004c-5.194,1.878-7.882,7.611-6.003,12.805l0.104,0.292
	C388.564,265.615,392.414,268.164,396.522,268.164z"/>
<path d="M509.072,494.93l-18.945-18.945l0.982,0.263c0.867,0.232,1.738,0.344,2.595,0.344c4.415,0,8.456-2.947,9.653-7.415
	c1.43-5.334-1.736-10.817-7.071-12.247l-34.443-9.229l-22.925-22.925l56.536,14.885c0.853,0.225,1.709,0.332,2.552,0.332
	c4.432,0,8.482-2.97,9.664-7.457c1.406-5.341-1.784-10.811-7.125-12.217l-66.526-17.515c3.45-5.446,6.615-11.073,9.505-16.836
	l30.893,7.733c0.815,0.204,1.632,0.302,2.436,0.302c4.479,0,8.556-3.031,9.693-7.573c1.341-5.357-1.915-10.788-7.272-12.129
	l-27.626-6.916c1.708-4.549,3.257-9.156,4.607-13.819c12.885-44.474,9.211-92.079-10.344-134.05
	c-16.964-36.409-44.869-66.389-79.605-85.932c-0.17-0.104-0.343-0.202-0.517-0.295c-5.143-2.872-10.432-5.52-15.859-7.922
	l-18.463-8.175c-12.767-5.651-26.036-9.783-39.536-12.426l1.431-2.92c5.836-11.911,18.178-19.607,31.442-19.607h101.036
	c18.284,0,35.474-7.12,48.404-20.05l9.672-9.673c3.905-3.905,3.905-10.237,0-14.143c-3.905-3.904-10.237-3.904-14.142,0
	l-9.672,9.673c-9.152,9.152-21.32,14.192-34.262,14.192H324.806c-16.486,0-32.06,7.572-42.39,19.997
	c-3.232-15.787-10.499-36.493-26.845-50.35c-2.565-2.174-6.052-2.913-9.279-1.969L211.14,40.222
	c-3.357,0.984-5.956,3.65-6.853,7.031c-0.897,3.381,0.037,6.984,2.464,9.504c17.344,18.002,20.622,37.102,21.068,46.655
	c-8.421,1.283-16.771,3.144-24.987,5.584L175.563,7.411c-1.432-5.334-6.919-8.498-12.25-7.065
	c-5.334,1.432-8.498,6.917-7.066,12.251l27.688,103.147c-1.135,0.476-2.27,0.952-3.397,1.451l-18.463,8.173
	c-1.508,0.667-3.001,1.36-4.487,2.063L126.675,7.507c-1.378-5.348-6.828-8.568-12.18-7.188c-5.348,1.379-8.566,6.832-7.188,12.18
	l28.005,108.643L108.744,94.58L84.802,7.356C83.339,2.03,77.833-1.102,72.511,0.36c-5.326,1.462-8.458,6.965-6.996,12.291
	L80.16,66.003L57.791,43.639L48.554,9.167c-1.429-5.335-6.912-8.501-12.248-7.071c-5.334,1.43-8.5,6.913-7.071,12.247l0.273,1.02
	L17.074,2.931C13.169-0.973,6.837-0.972,2.932,2.933S-0.972,13.17,2.934,17.076L15.321,29.46l-0.948-0.254
	c-5.335-1.432-10.819,1.736-12.248,7.071c-1.43,5.334,1.736,10.817,7.071,12.247l34.417,9.222l22.398,22.393L12.648,65.513
	C7.322,64.056,1.82,67.188,0.36,72.514c-1.459,5.326,1.675,10.828,7.001,12.288l87.227,23.908l26.753,26.747L12.466,107.798
	c-5.356-1.36-10.794,1.878-12.155,7.23c-1.359,5.353,1.877,10.794,7.23,12.154l107.911,27.414
	c-8.152,6.935-15.703,14.559-22.597,22.806c-0.238-0.08-0.475-0.16-0.722-0.223l-79.668-20.239
	c-5.356-1.362-10.794,1.876-12.154,7.23c-1.36,5.353,1.877,10.794,7.229,12.154l72.427,18.4c-1.61,2.438-3.175,4.913-4.681,7.435
	C55.182,235.825,45.954,274.22,48.6,313.191c0.375,5.51,5.157,9.667,10.654,9.3c5.51-0.375,9.674-5.145,9.3-10.655
	c-4.328-63.736,27.614-124.333,81.05-157.342l12.137,11.196c0.712,0.657,1.441,1.296,2.167,1.938
	c-25.285,21.42-43.659,50.223-52.315,82.385c-1.436,5.333,1.724,10.819,7.058,12.255c0.87,0.234,1.745,0.347,2.605,0.347
	c4.411,0,8.449-2.941,9.65-7.404c7.987-29.676,25.403-56.09,49.379-75.147c4.815,3.125,9.82,5.952,14.982,8.463
	c-11.394,10.913-19.712,24.811-23.843,40.163c-1.436,5.333,1.725,10.82,7.058,12.255c0.871,0.234,1.745,0.347,2.605,0.347
	c4.411,0,8.449-2.941,9.65-7.404c4.022-14.945,13.182-28.115,25.793-37.085c1.257,0.373,2.518,0.731,3.785,1.068
	c8.431,2.239,17.037,3.657,25.69,4.279v34.187c0,5.522,4.477,10,10,10s10-4.478,10-10v-34.187c8.653-0.622,17.259-2.04,25.69-4.279
	c1.267-0.336,2.528-0.695,3.784-1.068c19.865,14.128,34.294,34.871,40.629,58.41c1.201,4.463,5.239,7.404,9.65,7.404
	c0.86,0,1.735-0.112,2.605-0.347c5.333-1.435,8.493-6.922,7.058-12.255c-6.435-23.913-19.907-45.382-38.413-61.618
	c6.176-3.019,12.127-6.49,17.793-10.384c12.122,4.791,22.501,13.359,29.468,24.43c1.9,3.021,5.15,4.675,8.473,4.675
	c1.82,0,3.663-0.496,5.317-1.537c4.674-2.942,6.079-9.116,3.137-13.79c-7.282-11.571-17.38-21.073-29.2-27.693l10.406-9.599
	c64.44,39.812,96.207,119.086,74.647,193.505c-5.815,20.07-15.036,38.509-27.068,54.711c-0.058,0.074-0.112,0.151-0.167,0.226
	c-18.646,25.022-44.025,44.671-74.053,56.605l-73.095,29.049c-0.094-0.084-0.181-0.175-0.279-0.256l-14.435-11.969
	c-24.64-20.43-42.764-47.36-52.414-77.881c-1.665-5.266-7.282-8.185-12.549-6.521c-5.266,1.665-8.185,7.284-6.52,12.55
	c8.553,27.054,23.072,51.574,42.427,71.977l-42.65-16.95c-36.391-14.463-66.984-41.235-86.145-75.387
	c-2.703-4.815-8.798-6.53-13.614-3.827c-4.817,2.702-6.53,8.798-3.828,13.614c21.398,38.137,55.563,68.034,96.201,84.186
	l74.613,29.652c4.041,1.605,8.286,2.408,12.531,2.408c4.245,0,8.491-0.803,12.531-2.408l74.613-29.652
	c9.866-3.921,19.406-8.695,28.498-14.214l6.635,26.622c1.133,4.548,5.212,7.584,9.695,7.584c0.801,0,1.614-0.097,2.426-0.299
	c5.359-1.336,8.62-6.763,7.285-12.121l-8.438-33.854c5.234-4.029,10.255-8.328,15.042-12.87l16.056,59.657
	c1.201,4.463,5.239,7.404,9.65,7.404c0.86,0,1.735-0.112,2.605-0.347c5.333-1.436,8.493-6.922,7.057-12.255l-14.596-54.232
	l22.639,22.639l9.229,34.444c1.197,4.468,5.237,7.415,9.653,7.415c0.856,0,1.728-0.111,2.595-0.344
	c5.334-1.43,8.5-6.913,7.071-12.247l-0.264-0.984l18.946,18.946c1.953,1.952,4.512,2.929,7.071,2.929
	c2.559,0,5.119-0.977,7.071-2.929C512.977,505.166,512.977,498.834,509.072,494.93z M231.273,55.162l15.122-4.432
	c15.02,16.091,17.92,41.958,18.477,50.758c-5.72-0.271-11.45-0.276-17.17-0.022C247.031,90.687,243.778,73.092,231.273,55.162z
	 M336.704,150.991c-14.172,13.073-31.512,22.6-50.146,27.55c-19.989,5.311-41.122,5.31-61.112,0
	c-13.024-3.46-25.411-9.162-36.531-16.741c-0.061-0.092-0.112-0.187-0.177-0.277c-1.393-1.96-3.364-3.265-5.516-3.852
	c-2.735-2.11-5.382-4.336-7.923-6.68l-7.02-6.476c0.628-0.287,1.255-0.578,1.888-0.858l18.463-8.174
	c42.815-18.954,91.926-18.952,134.74-0.001l18.463,8.175c0.633,0.28,1.257,0.574,1.885,0.861L336.704,150.991z"/>
<path d="M65.572,361.407c-4,0-8.139-2.357-9.639-7.212h-0.001l-0.026-0.091c-0.008-0.025-0.016-0.052-0.023-0.078l-0.045-0.154
	c-0.006-0.021-0.013-0.043-0.019-0.064c-0.01-0.036-0.021-0.072-0.031-0.108l-0.034-0.117c-1.545-5.303,1.5-10.854,6.803-12.398
	c5.305-1.547,10.853,1.501,12.398,6.803l0.182,0.625c1.545,5.302-1.498,10.86-6.8,12.406
	C67.447,361.276,66.513,361.407,65.572,361.407z"/>
<g>
</g>
<g>
</g>
<g>
</g>
<g>
</g>
<g>
</g>
<g>
</g>
<g>
</g>
<g>
</g>
<g>
</g>
<g>
</g>
<g>
</g>
<g>
</g>
<g>
</g>
<g>
</g>
<g>
</g>
</svg>
