<svg height="512" viewBox="0 0 74 74" width="512" xmlns="http://www.w3.org/2000/svg"><g id="color_line" data-name="color line"><path d="m38.566 12.939c-.616-.021-1.19-.011-1.689-.011a23.84 23.84 0 0 0 -2.56.053 7 7 0 0 1 5.046-6.417l2.125.733a6.972 6.972 0 0 0 -2.922 5.642z" fill="#efb454"/><path d="m34.316 13.481a.5.5 0 0 1 -.5-.53 7.459 7.459 0 0 1 5.414-6.869.5.5 0 0 1 .3.009l2.125.733a.5.5 0 0 1 .133.875 6.461 6.461 0 0 0 -2.721 5.186.5.5 0 0 1 -.131.393.481.481 0 0 1 -.383.159c-.458-.015-.893-.013-1.29-.011h-.382-.532a16.81 16.81 0 0 0 -1.978.055zm5.033-6.394a6.408 6.408 0 0 0 -4.474 5.351c.529-.027 1.027-.021 1.482-.015h.52.377.8a7.616 7.616 0 0 1 2.431-4.943z" fill="#323c6b"/><path d="m57.6 61.968c-3.3 11.667-14.923 10.388-20.607 10.388s-17.293 1.279-20.593-10.388c-1.918-6.807.682-12.961 3.2-16.911a21.93 21.93 0 0 0 3.437-11.457c.1-6.267.3-13.515 3.382-16.954a10.419 10.419 0 0 1 6.981-3.665 31.889 31.889 0 0 1 3.425-.071c.668 0 1.435-.014 2.26.014a11.857 11.857 0 0 1 8.5 3.723c2.6 2.686 3.283 10.687 3.382 16.954a21.93 21.93 0 0 0 3.433 11.455c2.517 3.951 5.118 10.104 3.2 16.912z" fill="#fcd462"/><path d="m57.6 61.97c-2.19 7.72-8.02 9.77-13.36 10.28a12.94 12.94 0 0 0 10.05-9.74c1.92-6.8-.68-12.96-3.19-16.91a21.786 21.786 0 0 1 -3.44-11.45c-.1-6.27-.78-14.27-3.38-16.96a11.885 11.885 0 0 0 -8.5-3.72c-.83-.03-1.59-.01-2.26-.01-.72 0-1.52-.03-2.38 0a10.634 10.634 0 0 1 2.26-.48 31.252 31.252 0 0 1 3.42-.07c.67 0 1.44-.01 2.26.01a11.886 11.886 0 0 1 8.5 3.73c2.6 2.68 3.28 10.68 3.38 16.95a22.029 22.029 0 0 0 3.44 11.46c2.52 3.95 5.12 10.1 3.2 16.91z" fill="#f7be56"/><path d="m41.128 72.367a1.647 1.647 0 0 0 1.682-1.567v-.02c0-1.36-2.6-2.1-5.81-2.1s-5.81.74-5.81 2.1v.02a1.647 1.647 0 0 0 1.682 1.57z" fill="#efb454"/><g fill="#323c6b"><path d="m41.127 72.868h-8.254a2.139 2.139 0 0 1 -2.183-2.068c0-1.94 3.26-2.623 6.31-2.623s6.31.683 6.31 2.6a2.143 2.143 0 0 1 -2.183 2.091zm-4.127-3.69c-3.449 0-5.31.824-5.31 1.6a1.154 1.154 0 0 0 1.183 1.09h8.255a1.153 1.153 0 0 0 1.183-1.074c-.001-.794-1.862-1.616-5.311-1.616z"/><path d="m20.338 26.96h-.038a.5.5 0 0 1 -.458-.539l.022-.282c.014-.181.027-.362.044-.539a.5.5 0 0 1 1 .1c-.017.169-.029.343-.042.517l-.022.288a.5.5 0 0 1 -.506.455z"/><path d="m20.7 23.772a.529.529 0 0 1 -.078-.006.5.5 0 0 1 -.417-.571c.626-4.014 1.773-6.837 3.608-8.884a17.172 17.172 0 0 1 1.234-1.238.5.5 0 1 1 .67.742 16.236 16.236 0 0 0 -1.161 1.165c-1.7 1.9-2.768 4.555-3.363 8.37a.5.5 0 0 1 -.493.422z"/><path d="m57.658 45.147a.5.5 0 0 1 -.434-.25c-.236-.409-.474-.807-.711-1.181a19.616 19.616 0 0 1 -2.939-8.434.5.5 0 0 1 .994-.1 18.619 18.619 0 0 0 2.789 8c.246.385.49.8.734 1.217a.5.5 0 0 1 -.433.75z"/><path d="m59.279 48.4a.5.5 0 0 1 -.46-.3c-.119-.279-.242-.55-.367-.82a.5.5 0 1 1 .908-.419c.128.279.256.559.378.847a.5.5 0 0 1 -.46.7z"/></g><path d="m28.5 35.366c-.025 2.264-.081 4.513-.087 6.762s0 4.494.059 6.738c.04 2.245.144 4.486.26 6.729.062 1.121.143 2.241.258 3.359.078 1.124.235 2.235.382 3.359a35.462 35.462 0 0 1 -1.406-6.646 65.212 65.212 0 0 1 -.494-6.778c-.036-2.265 0-4.532.175-6.79a56.692 56.692 0 0 1 .853-6.733z" fill="#f7be56"/><path d="m45.5 35.366a56.692 56.692 0 0 1 .85 6.734c.178 2.258.211 4.525.175 6.79a65.212 65.212 0 0 1 -.494 6.778 35.462 35.462 0 0 1 -1.406 6.646c.146-1.124.3-2.235.382-3.359.115-1.117.2-2.238.258-3.359.116-2.242.22-4.484.26-6.729.06-2.244.053-4.49.059-6.738s-.061-4.499-.084-6.763z" fill="#f7be56"/><path d="m36.49 22.574a51.071 51.071 0 0 1 1.45 10.8 47.286 47.286 0 0 1 -.732 10.873c-.058-3.638-.134-7.232-.267-10.838-.116-3.609-.312-7.197-.451-10.835z" fill="#f7be56"/><path d="m33.419 72.9c-6.16 0-14.7-.885-17.5-10.794-1.971-6.989.683-13.274 3.256-17.316a21.435 21.435 0 0 0 3.362-11.19c.091-5.743.216-13.607 3.51-17.281a10.927 10.927 0 0 1 7.3-3.83 23.578 23.578 0 0 1 2.779-.08l.7.006h.5c.546 0 1.146-.006 1.777.016a12.312 12.312 0 0 1 8.835 3.869c2.731 2.82 3.424 10.961 3.524 17.3a21.439 21.439 0 0 0 3.361 11.194c2.577 4.036 5.228 10.321 3.258 17.306-3.125 11.057-13.4 10.879-19.544 10.771-1.1-.019-1.983-.02-3.083 0-.638.015-1.321.029-2.035.029zm1.9-59.5a18.43 18.43 0 0 0 -1.87.082 9.9 9.9 0 0 0 -6.657 3.5c-3.043 3.394-3.165 11.042-3.253 16.627a22.439 22.439 0 0 1 -3.519 11.715c-2.463 3.87-5.008 9.875-3.138 16.508 2.915 10.315 12.7 10.144 18.553 10.042 1.113-.019 2.005-.019 3.118 0 5.855.1 15.649.272 18.564-10.042 1.87-6.633-.675-12.638-3.138-16.507a22.442 22.442 0 0 1 -3.517-11.716c-.138-8.7-1.29-14.6-3.242-16.613a11.372 11.372 0 0 0 -8.162-3.572c-.612-.021-1.2-.019-1.732-.015h-.5l-.71-.006c-.259-.003-.525-.003-.799-.003z" fill="#323c6b"/><path d="m19.962 56.567h-.044a.65.65 0 0 1 -.6-.692 24.424 24.424 0 0 1 3.919-11.166.65.65 0 1 1 1.1.7 23.126 23.126 0 0 0 -3.727 10.552.65.65 0 0 1 -.648.606z" fill="#fff"/><path d="m20.375 61.812a.65.65 0 0 1 -.633-.5 18.5 18.5 0 0 1 -.334-1.881.65.65 0 0 1 1.29-.16 16.956 16.956 0 0 0 .311 1.747.65.65 0 0 1 -.486.78.667.667 0 0 1 -.148.014z" fill="#fff"/></g></svg>