<svg height="512" viewBox="0 0 74 74" width="512" xmlns="http://www.w3.org/2000/svg"><g id="color_line" data-name="color line"><path d="m50.011 44.379c-.427-1.966-.729-2.773-.189-4.5-1.894.6-4.269 2.564-4.809 4.335-.167.549-.923 1.033-1.082 1.216a11.692 11.692 0 0 0 -1.583 3.3 1 1 0 0 1 -.218.491 1.847 1.847 0 0 1 -.39.239 2.166 2.166 0 0 0 -.8 1.36c-.426 1.5-.275 5.378.623 6.674a9.32 9.32 0 0 0 1.07 2.16 5.119 5.119 0 0 0 2.994 1.978 29.825 29.825 0 0 1 3.52 1.026 6.144 6.144 0 0 0 1.011.408l-.329-.783a4.336 4.336 0 0 0 2.9.932 2.071 2.071 0 0 0 -.371-.861l1.621.355a2.7 2.7 0 0 0 1.869-.042c.037-.351-.262-.638-.534-.863a5.909 5.909 0 0 0 5.362-4.01 8.085 8.085 0 0 1 -2.139.265 1.786 1.786 0 0 1 -.88-.178 5.516 5.516 0 0 1 -.457-.35c-.645-.467-3.164-.576-3.954-.682a3.374 3.374 0 0 1 1.654-.881c1.465-.306 3.66.607 5-.051a6.159 6.159 0 0 0 -1.868-2.732c1.971-.427 3.8-.969 4.886-2.09a.59.59 0 0 0 .275-.235.892.892 0 0 0 .029-.384.859.859 0 0 1 .128-.558c1.8-2.118 1.679-4.012 2.61-5.627a18.284 18.284 0 0 1 -3.335-.176c-.531-.094-1.053-.235-1.585-.325a8.66 8.66 0 0 0 -3.779.218c.137-.559.41-1.459-.174-1.994a12.751 12.751 0 0 0 -3.079 4.245 7.02 7.02 0 0 0 -.224-1.937c-.019-.062-.046-.133-.108-.155a.211.211 0 0 0 -.179.052 7.878 7.878 0 0 0 -2.779 4.588s-.292-2.52-.707-4.428z" fill="#6fc666"/><path d="m22.961 38.35c.04-1.916.174-2.725-.646-4.239 1.88.217 4.459 1.615 5.288 3.172.257.482 1.052.8 1.234.939a11.135 11.135 0 0 1 2.083 2.8.952.952 0 0 0 .293.419 1.759 1.759 0 0 0 .408.152 2.063 2.063 0 0 1 .992 1.126 10.9 10.9 0 0 1 .892 5.022c-.077.964-.381 2.724-.381 2.724a7.751 7.751 0 0 1 -2.913 3.217 28.4 28.4 0 0 0 -3.1 1.6 5.852 5.852 0 0 1 -.87.566l.164-.792a4.129 4.129 0 0 1 -2.542 1.4 1.973 1.973 0 0 1 .189-.872l-1.45.628a2.576 2.576 0 0 1 -1.754.3 1.053 1.053 0 0 1 .341-.9 5.627 5.627 0 0 1 -5.745-2.767 7.7 7.7 0 0 0 2.048-.144 1.7 1.7 0 0 0 .79-.327c.138-.12.232-.283.363-.41a4.165 4.165 0 0 1 2.881-1.242 3.736 3.736 0 0 0 -1.719-.437c-1.425-.018-2.609 1.035-3.985.666a5.866 5.866 0 0 1 1.246-2.9c-1.92-.038-3.725-.211-4.949-1.06a.562.562 0 0 1 -.3-.169.849.849 0 0 1 -.1-.354.818.818 0 0 0 -.222-.5c-2.07-1.646-2.297-3.439-3.467-4.778a17.413 17.413 0 0 0 3.085-.775c.479-.185.942-.412 1.422-.594a8.247 8.247 0 0 1 3.572-.488c-.231-.5-.65-1.288-.2-1.9a12.144 12.144 0 0 1 3.655 3.4 6.686 6.686 0 0 1 -.145-1.851.205.205 0 0 1 .073-.164.2.2 0 0 1 .177.016c1.291.554 3.122.978 3.519 2.325a10.9 10.9 0 0 1 -.227-2.809z" fill="#6fc666"/><path d="m17.07 48.05c-1.92-.04-3.73-.21-4.95-1.06a.507.507 0 0 1 -.3-.17.711.711 0 0 1 -.1-.35.82.82 0 0 0 -.22-.5c-2.07-1.65-2.3-3.44-3.47-4.78a21.565 21.565 0 0 0 2.5-.58c.85 1.25 1.26 2.8 3.06 4.24a.8.8 0 0 1 .22.5 1.015 1.015 0 0 0 .1.35.639.639 0 0 0 .3.17c1.22.85 3.03 1.02 4.95 1.06a5.845 5.845 0 0 0 -1.25 2.89c1.38.37 2.56-.68 3.99-.66a3.747 3.747 0 0 1 1.72.43 4.162 4.162 0 0 0 -2.52.93 4.058 4.058 0 0 0 -1.29-.24c-1.43-.02-2.61 1.04-3.99.67a5.883 5.883 0 0 1 1.25-2.9z" fill="#65b54e"/><path d="m25.95 55.33a.853.853 0 0 0 .23-.05 4.113 4.113 0 0 1 -2.32 1.18 2.05 2.05 0 0 1 .19-.88c-.48.21-.97.42-1.45.63a2.538 2.538 0 0 1 -1.75.3c-.1-.32.13-.64.34-.9a5.64 5.64 0 0 1 -5.75-2.77 7.407 7.407 0 0 0 2.05-.14 2 2 0 0 0 .58-.2 5.615 5.615 0 0 0 5.21 1.98c-.21.27-.44.59-.34.91a2.586 2.586 0 0 0 1.75-.3c.49-.21.97-.42 1.45-.63a2.006 2.006 0 0 0 -.19.87z" fill="#65b54e"/><path d="m58.54 58.06a8.145 8.145 0 0 0 2.14-.26 5.915 5.915 0 0 1 -5.36 4.01c.27.22.57.51.53.86a2.639 2.639 0 0 1 -1.86.04c-.35-.08-.71-.15-1.06-.23a1.172 1.172 0 0 0 .48-.15c.04-.36-.26-.64-.53-.87a5.881 5.881 0 0 0 5.13-3.45 2.326 2.326 0 0 0 .53.05z" fill="#65b54e"/><path d="m63.36 49.92a.9.9 0 0 0 -.13.56.8.8 0 0 1 -.03.38.578.578 0 0 1 -.27.24c-1.09 1.12-2.92 1.66-4.89 2.09.4.04 1.77 2.05 1.87 2.73-1.34.66-3.54-.26-5 .05a3.569 3.569 0 0 0 -1.58.8c-.94-.14-2.04-.2-2.52-.26a3.334 3.334 0 0 1 1.65-.88c1.47-.31 3.66.6 5.01-.05a6.265 6.265 0 0 0 -1.87-2.74c1.97-.42 3.79-.97 4.88-2.09a.584.584 0 0 0 .28-.23 1.017 1.017 0 0 0 .03-.39.8.8 0 0 1 .13-.55c1.7-2 1.68-3.81 2.47-5.36a22.222 22.222 0 0 0 2.58.07c-.93 1.62-.81 3.51-2.61 5.63z" fill="#65b54e"/><path d="m29.359 20.8c-2.472-.271-3.246-1.342-4.792-2.955-.477 2.41.23 6.15 1.826 7.791.494.509.568 1.615.671 1.9a14.451 14.451 0 0 0 2.63 3.682 1.235 1.235 0 0 1 .4.528 2.283 2.283 0 0 1 .026.564 2.677 2.677 0 0 0 1 1.672c1.382 2.617 4.071 2.579 5.8 2.047 1.349 2.145 4.777 1.389 4.777 1.389a6.327 6.327 0 0 0 3.927-2.061 36.862 36.862 0 0 1 3.209-3.2 7.594 7.594 0 0 0 1.045-.851l-1.048-.106a5.359 5.359 0 0 0 2.739-2.586 2.56 2.56 0 0 0 -1.153-.112l1.35-1.543a3.343 3.343 0 0 0 1.069-2.048 1.366 1.366 0 0 0 -1.253.063 7.3 7.3 0 0 0 -1.144-8.2 9.992 9.992 0 0 1 -.989 2.474 2.207 2.207 0 0 1 -.718.847 6.818 6.818 0 0 1 -.651.286c-.891.42-2.268 2.389-2.854 3.18a3.246 3.246 0 0 1 -.008-2.13c.542-1.769 2.639-3.092 2.727-4.94-.8-.3-3.787-.006-4.072.393.713-2.388 1.214-4.687.651-6.536a.73.73 0 0 0 -.09-.438 1.1 1.1 0 0 0 -.4-.26 1.062 1.062 0 0 1 -.527-.471c-1.215-3.212-3.339-4.208-4.532-6.179a22.6 22.6 0 0 1 -2.175 3.5c-.418.519-.882 1-1.3 1.522a10.7 10.7 0 0 0 -2.018 4.221c-.523-.482-1.334-1.314-2.263-1a15.76 15.76 0 0 0 2.759 5.865 8.677 8.677 0 0 0 -2.231-.912.266.266 0 0 0 -.232.025.261.261 0 0 0 -.051.225c.174 1.815 1.1 4.4 2.613 5.423a25 25 0 0 0 -4.718-1.069z" fill="#6fc666"/><path d="m45.06 22.68a27.811 27.811 0 0 0 -1.77 2.26 3.191 3.191 0 0 1 -.01-2.13c.54-1.77 2.64-3.09 2.72-4.94-.8-.3-3.78-.01-4.07.39.72-2.39 1.22-4.68.65-6.53a.653.653 0 0 0 -.09-.44 1.069 1.069 0 0 0 -.39-.26c-.21-.12-.45-.25-.53-.47-1.02-2.7-2.68-3.84-3.9-5.3.48-.73.89-1.5 1.3-2.26 1.2 1.97 3.32 2.97 4.54 6.18a1.024 1.024 0 0 0 .53.47 1.2 1.2 0 0 1 .4.26.831.831 0 0 1 .09.44c.56 1.85.06 4.15-.66 6.54.29-.4 3.28-.69 4.08-.4-.09 1.85-2.19 3.17-2.73 4.94a3.506 3.506 0 0 0 -.16 1.25z" fill="#65b54e"/><path d="m51.77 26.96c-.45.51-.9 1.03-1.35 1.54a2.646 2.646 0 0 1 1.15.11 5.325 5.325 0 0 1 -2.74 2.59c.35.04.7.07 1.04.11a7.135 7.135 0 0 1 -1.04.85 37.277 37.277 0 0 0 -3.21 3.2 8.339 8.339 0 0 1 -2.16 1.58 2.092 2.092 0 0 0 .22-.2 34.625 34.625 0 0 1 3.21-3.2 8.562 8.562 0 0 0 1.04-.85c-.35-.04-.69-.08-1.04-.11a5.443 5.443 0 0 0 2.74-2.59 2.533 2.533 0 0 0 -1.16-.11c.45-.52.9-1.03 1.35-1.55a3.324 3.324 0 0 0 1.07-2.04 1.357 1.357 0 0 0 -1.25.06 7.3 7.3 0 0 0 -.25-6.99 1.109 1.109 0 0 0 .06-.11 10.133 10.133 0 0 0 .99-2.47 7.291 7.291 0 0 1 1.14 8.19 1.377 1.377 0 0 1 1.26-.06 3.4 3.4 0 0 1 -1.07 2.05z" fill="#65b54e"/><g fill="#323c6b"><path d="m36.189 71.5a.5.5 0 0 1 -.5-.439c-2.64-21.551 3.023-50.279 3.081-50.566a.5.5 0 1 1 .98.2c-.057.286-5.689 28.859-3.069 50.248a.5.5 0 0 1 -.435.557.443.443 0 0 1 -.057 0z"/><path d="m35.486 53.545a.5.5 0 0 1 -.434-.25c-3.341-5.8-17.962-8.465-18.109-8.492a.5.5 0 0 1 .176-.984c.62.11 15.229 2.776 18.8 8.977a.5.5 0 0 1 -.433.75z"/><path d="m35.593 64.031a.5.5 0 0 1 -.386-.817 42.971 42.971 0 0 1 18.477-12.139.5.5 0 0 1 .3.955 41.828 41.828 0 0 0 -18 11.819.5.5 0 0 1 -.391.182z"/><path d="m28.813 48.128a.5.5 0 0 1 -.5-.433 7.956 7.956 0 0 0 -2.113-4.314.5.5 0 0 1 .685-.728 8.83 8.83 0 0 1 2.42 4.908.5.5 0 0 1 -.429.563.526.526 0 0 1 -.063.004z"/><path d="m23.733 48.891a.5.5 0 0 1 -.074-.995 5.286 5.286 0 0 0 2.816-1.17.5.5 0 0 1 .7.719 6.251 6.251 0 0 1 -3.363 1.44.561.561 0 0 1 -.079.006z"/><path d="m19.134 47.188a.5.5 0 0 1 -.051-1 4.262 4.262 0 0 0 2.354-1.1.5.5 0 0 1 .729.685 5.229 5.229 0 0 1 -2.981 1.41z"/><path d="m44.458 56.332a.5.5 0 0 1 -.5-.479 9.359 9.359 0 0 1 .935-4.541.5.5 0 0 1 .878.479 8.5 8.5 0 0 0 -.814 4.019.5.5 0 0 1 -.478.521z"/><path d="m48.172 54.334h-.019a.5.5 0 0 1 -.481-.518 6.455 6.455 0 0 1 .959-2.879.5.5 0 0 1 .839.543 5.519 5.519 0 0 0 -.8 2.373.5.5 0 0 1 -.498.481z"/><path d="m53.562 54.334h-.014a7.909 7.909 0 0 1 -3.7-.932.5.5 0 0 1 .6-.8 7.013 7.013 0 0 0 3.128.735.5.5 0 0 1 -.012 1z"/><path d="m37.385 32.541a.5.5 0 0 1 -.235-.059 8.834 8.834 0 0 1 -3.755-3.98.5.5 0 0 1 .921-.388 7.961 7.961 0 0 0 3.306 3.486.5.5 0 0 1 -.236.941z"/><path d="m37.786 30.218a.5.5 0 0 1 0-1 4.7 4.7 0 0 0 3.475-1.8.5.5 0 1 1 .81.587 5.677 5.677 0 0 1 -4.285 2.213z"/><path d="m38.082 27.976a.5.5 0 0 1 -.27-.079 8.128 8.128 0 0 1 -2.388-2.88.5.5 0 0 1 .9-.44 7.22 7.22 0 0 0 2.029 2.479.5.5 0 0 1 -.271.921z"/><path d="m38.627 25.3a.5.5 0 0 1 -.088-.992 4.641 4.641 0 0 0 2.353-1.648.5.5 0 1 1 .8.6 5.7 5.7 0 0 1 -2.972 2.028.51.51 0 0 1 -.093.012z"/><path d="m29.938 9.014a.5.5 0 0 1 -.16-.974l.5-.166a.5.5 0 1 1 .28.96l-.464.153a.5.5 0 0 1 -.156.027z"/><path d="m32.375 7.753a.5.5 0 0 1 -.42-.77 13.412 13.412 0 0 1 .8-1.135c.25-.315.516-.62.783-.924.2-.225.367-.417.528-.617a33.08 33.08 0 0 0 1.962-3.052.5.5 0 0 1 .873.488 34.216 34.216 0 0 1 -2.057 3.192c-.17.211-.349.414-.528.617-.284.323-.539.615-.779.917a12.717 12.717 0 0 0 -.737 1.054.5.5 0 0 1 -.425.23z"/><path d="m66.33 50.24a.5.5 0 0 1 -.462-.691 3.42 3.42 0 0 0 .137-.4.5.5 0 0 1 .965.262 4.219 4.219 0 0 1 -.178.519.5.5 0 0 1 -.462.31z"/><path d="m61.441 55.12a.5.5 0 0 1 -.147-.978 6.928 6.928 0 0 0 3.874-2.971.5.5 0 0 1 .882.471 7.867 7.867 0 0 1 -4.462 3.458.5.5 0 0 1 -.147.02z"/><path d="m40.315 38.054a4.5 4.5 0 0 1 -3.6-1.446 5.053 5.053 0 0 1 -6-2.321 3.068 3.068 0 0 1 -1.093-1.958c0-.071 0-.142 0-.213a.965.965 0 0 0 -.008-.229.983.983 0 0 0 -.258-.3 14.757 14.757 0 0 1 -2.763-3.88 3.389 3.389 0 0 1 -.1-.441 2.914 2.914 0 0 0 -.456-1.279c-1.757-1.807-2.442-5.792-1.958-8.237a.5.5 0 0 1 .851-.249l.429.452c1.25 1.326 2 2.127 4.057 2.352a22.715 22.715 0 0 1 3.061.577 10.175 10.175 0 0 1 -1.512-4.382.722.722 0 0 1 .215-.646.745.745 0 0 1 .665-.141 5.8 5.8 0 0 1 .729.212 15.213 15.213 0 0 1 -1.85-4.592.5.5 0 0 1 .333-.556 2.24 2.24 0 0 1 2.15.563 11.079 11.079 0 0 1 1.9-3.621c.22-.278.455-.544.688-.811.207-.235.414-.471.61-.714a22.267 22.267 0 0 0 2.129-3.429.5.5 0 0 1 .868-.021 11.113 11.113 0 0 0 1.598 1.911 12 12 0 0 1 2.978 4.345 1.08 1.08 0 0 0 .3.212 1.353 1.353 0 0 1 .561.4 1.107 1.107 0 0 1 .184.657 11.116 11.116 0 0 1 -.4 5.81 9.139 9.139 0 0 1 3.5-.063.5.5 0 0 1 .326.493 5.6 5.6 0 0 1 -1.517 3.064 6.712 6.712 0 0 0 -1.232 2 3.33 3.33 0 0 0 -.136.694 8.319 8.319 0 0 1 2.307-2.343c.095-.045.192-.083.29-.121a1.917 1.917 0 0 0 .315-.141 1.79 1.79 0 0 0 .539-.662 9.52 9.52 0 0 0 .938-2.35.5.5 0 0 1 .852-.218 7.912 7.912 0 0 1 1.628 7.84 1.258 1.258 0 0 1 .687.222.5.5 0 0 1 .215.412 3.82 3.82 0 0 1 -1.192 2.376l-.679.776q.134.032.265.076a.5.5 0 0 1 .29.691 5.868 5.868 0 0 1 -1.781 2.138.5.5 0 0 1 0 .679 5.612 5.612 0 0 1 -.859.725l-.251.187a16.02 16.02 0 0 0 -2.032 1.97c-.37.4-.741.806-1.131 1.188a6.636 6.636 0 0 1 -4.252 2.2 6.81 6.81 0 0 1 -1.398.142zm-3.4-2.522a.5.5 0 0 1 .423.234c1.148 1.826 4.215 1.174 4.246 1.167a5.763 5.763 0 0 0 3.686-1.933c.377-.37.736-.76 1.094-1.15a16.985 16.985 0 0 1 2.162-2.088l.129-.1a.5.5 0 0 1 -.017-.931 4.868 4.868 0 0 0 2.144-1.758 2.378 2.378 0 0 0 -.3.018.5.5 0 0 1 -.507-.259.5.5 0 0 1 .065-.566l1.351-1.543a4.009 4.009 0 0 0 .886-1.343 2.364 2.364 0 0 0 -.511.153.5.5 0 0 1 -.625-.7 6.8 6.8 0 0 0 -.5-6.908 10.514 10.514 0 0 1 -.757 1.667 2.651 2.651 0 0 1 -.894 1.028 2.987 2.987 0 0 1 -.473.218c-.075.029-.151.058-.224.092a11.675 11.675 0 0 0 -2.467 2.756l-.2.27a.5.5 0 0 1 -.858-.094 3.75 3.75 0 0 1 -.03-2.481 7.516 7.516 0 0 1 1.4-2.321 6.128 6.128 0 0 0 1.242-2.076 9.07 9.07 0 0 0 -3.156.345.458.458 0 0 1 -.6.13.524.524 0 0 1 -.232-.622c.657-2.2 1.19-4.48.651-6.248a.493.493 0 0 1 -.021-.149.926.926 0 0 0 -.008-.163c0 .02-.053-.009-.091-.026l-.123-.061a1.5 1.5 0 0 1 -.753-.732 11 11 0 0 0 -2.767-4.008 16.934 16.934 0 0 1 -1.254-1.4 19.354 19.354 0 0 1 -1.842 2.865c-.205.254-.421.5-.637.747s-.447.508-.657.773a10.131 10.131 0 0 0 -1.923 4.022.5.5 0 0 1 -.826.256l-.1-.093a3.056 3.056 0 0 0 -1.215-.82 16.036 16.036 0 0 0 2.541 5.1.5.5 0 0 1 -.662.732 8.552 8.552 0 0 0 -1.695-.744c.256 1.734 1.117 3.834 2.348 4.671a.5.5 0 0 1 -.444.886 24.711 24.711 0 0 0 -4.614-1.045 6.233 6.233 0 0 1 -4.368-2.336c-.115 2.168.533 5.007 1.815 6.327a3.535 3.535 0 0 1 .721 1.788 2.578 2.578 0 0 0 .062.286 14.149 14.149 0 0 0 2.5 3.484 1.7 1.7 0 0 1 .545.758 1.671 1.671 0 0 1 .047.541v.147a2.3 2.3 0 0 0 .85 1.333.509.509 0 0 1 .091.123c1.436 2.72 4.348 2.067 5.207 1.8a.508.508 0 0 1 .146-.02z"/><path d="m52.521 63.724a4.863 4.863 0 0 1 -1.927-.4.537.537 0 0 1 -.052.073.5.5 0 0 1 -.5.162 4.627 4.627 0 0 1 -.867-.333l-.228-.1a12.907 12.907 0 0 0 -2.174-.666c-.432-.105-.863-.211-1.288-.339a5.53 5.53 0 0 1 -3.275-2.194 9.91 9.91 0 0 1 -1.1-2.209c-.946-1.487-1.1-5.422-.645-7.023a2.64 2.64 0 0 1 1.021-1.654c.051-.03.1-.057.156-.084a.87.87 0 0 0 .135-.078.88.88 0 0 0 .086-.255 12.079 12.079 0 0 1 1.69-3.524 2.74 2.74 0 0 1 .283-.257 2.359 2.359 0 0 0 .7-.778c.612-2.008 3.149-4.034 5.135-4.666a.5.5 0 0 1 .629.626 5.725 5.725 0 0 0 .06 3.606l.142.637c.167.766.314 1.622.431 2.379a8.122 8.122 0 0 1 2.292-2.844.674.674 0 0 1 .626-.11.682.682 0 0 1 .419.478 3.66 3.66 0 0 1 .091.366 12.114 12.114 0 0 1 2.425-2.917.5.5 0 0 1 .648.023 1.828 1.828 0 0 1 .492 1.693 9.077 9.077 0 0 1 3.208-.041c.284.048.565.11.848.173.246.054.492.109.74.153a17.942 17.942 0 0 0 3.244.168.5.5 0 0 1 .433.75 8.924 8.924 0 0 0 -.725 1.859 9.789 9.789 0 0 1 -1.937 3.842 1.89 1.89 0 0 0 -.009.235 1.183 1.183 0 0 1 -.077.6.985.985 0 0 1 -.422.423 8.87 8.87 0 0 1 -4.154 1.961 6.979 6.979 0 0 1 1.325 2.386.5.5 0 0 1 -.274.523 5.566 5.566 0 0 1 -3.09.162 6.741 6.741 0 0 0 -2.032-.07c-.062.013-.122.028-.18.044a6.487 6.487 0 0 1 2.671.625c.07.051.138.107.206.164a1.5 1.5 0 0 0 .207.158 1.381 1.381 0 0 0 .637.111 7.515 7.515 0 0 0 2.005-.249.5.5 0 0 1 .6.641 6.506 6.506 0 0 1 -4.875 4.258 1.083 1.083 0 0 1 .07.51.5.5 0 0 1 -.257.387 3.166 3.166 0 0 1 -2.216.092l-.666-.146c.005.025.01.05.015.075a.5.5 0 0 1 -.466.588c-.073.004-.155.006-.234.006zm-2.688-1.937a.5.5 0 0 1 .312.109 3.842 3.842 0 0 0 1.839.79l-.022-.03a.5.5 0 0 1 .509-.786l1.621.354a3.872 3.872 0 0 0 1.089.128c-.047-.046-.106-.1-.18-.161a.5.5 0 0 1 .313-.885 5.394 5.394 0 0 0 4.53-2.831 8.093 8.093 0 0 1 -1.306.086 2.267 2.267 0 0 1 -1.125-.245 2.522 2.522 0 0 1 -.352-.258c-.048-.041-.1-.082-.148-.119a10.608 10.608 0 0 0 -2.947-.514c-.323-.029-.6-.054-.781-.079a.5.5 0 0 1 -.3-.836 3.878 3.878 0 0 1 1.918-1.03 7.454 7.454 0 0 1 2.361.056 7.063 7.063 0 0 0 2.109.069 7.516 7.516 0 0 0 -1.37-1.938.5.5 0 0 1 .031-.97c1.8-.39 3.608-.9 4.634-1.95a.507.507 0 0 1 .122-.092.8.8 0 0 0 .092-.055c0-.009-.051-.116-.051-.125a1.306 1.306 0 0 1 .247-.879 8.828 8.828 0 0 0 1.744-3.489c.139-.451.273-.886.447-1.311a15.212 15.212 0 0 1 -2.622-.188c-.262-.046-.522-.1-.783-.161s-.531-.118-.8-.163a8.093 8.093 0 0 0 -3.559.205.5.5 0 0 1 -.623-.6l.027-.107a3.143 3.143 0 0 0 .137-.966 13.017 13.017 0 0 0 -2.47 3.635.5.5 0 0 1 -.96-.226 6.527 6.527 0 0 0 -.1-1.295 7.591 7.591 0 0 0 -2.192 3.925.5.5 0 0 1 -.492.453.489.489 0 0 1 -.5-.441c0-.025-.3-2.521-.708-4.383l-.14-.629a7.565 7.565 0 0 1 -.278-3.138 7.458 7.458 0 0 0 -3.613 3.644 2.939 2.939 0 0 1 -1.016 1.255 2.082 2.082 0 0 0 -.169.146 11.317 11.317 0 0 0 -1.472 3.087 1.461 1.461 0 0 1 -.35.728 1.432 1.432 0 0 1 -.389.263l-.1.053a1.8 1.8 0 0 0 -.57 1.067c-.423 1.494-.2 5.173.553 6.253a.5.5 0 0 1 .07.149 8.86 8.86 0 0 0 1 2.016 4.59 4.59 0 0 0 2.723 1.778c.408.123.822.224 1.237.325a13.964 13.964 0 0 1 2.329.717.5.5 0 0 1 .492-.412z"/><path d="m21.277 57.078a1.893 1.893 0 0 1 -.582-.088.5.5 0 0 1 -.326-.33 1.045 1.045 0 0 1 -.033-.473h-.023a6.224 6.224 0 0 1 -5.306-3.1.5.5 0 0 1 .012-.512.513.513 0 0 1 .456-.233 7.162 7.162 0 0 0 1.914-.134 1.288 1.288 0 0 0 .563-.215 1.134 1.134 0 0 0 .135-.154 2.464 2.464 0 0 1 .213-.239 5.119 5.119 0 0 1 1.021-.782 7.176 7.176 0 0 0 -1.115.316 4.138 4.138 0 0 1 -2.511.293.5.5 0 0 1 -.37-.46 6.967 6.967 0 0 1 .789-2.45 8.43 8.43 0 0 1 -4.214-1.071.962.962 0 0 1 -.479-.325 1.013 1.013 0 0 1 -.175-.488 1.22 1.22 0 0 0 -.071-.288 9.276 9.276 0 0 1 -2.5-3.225 8.452 8.452 0 0 0 -1.014-1.6.5.5 0 0 1 .285-.82 17.108 17.108 0 0 0 3-.75c.224-.087.444-.183.665-.279.252-.11.5-.219.761-.316a8.637 8.637 0 0 1 2.981-.55 1.745 1.745 0 0 1 .164-1.663.5.5 0 0 1 .631-.147 11.476 11.476 0 0 1 2.752 2.242c0-.111.008-.213.018-.3a.642.642 0 0 1 .945-.552c.232.1.485.2.743.294a9.816 9.816 0 0 1 1.869.865c-.018-.35-.026-.75-.017-1.2l.016-.621a5.437 5.437 0 0 0 -.6-3.37.5.5 0 0 1 .5-.735c1.978.228 4.729 1.662 5.672 3.434a2.226 2.226 0 0 0 .787.589 2.76 2.76 0 0 1 .313.19 11.527 11.527 0 0 1 2.231 2.983.886.886 0 0 0 .118.212.9.9 0 0 0 .131.044c.056.016.112.032.166.052a2.526 2.526 0 0 1 1.269 1.37 11.408 11.408 0 0 1 .939 5.284c-.078.976-.374 2.7-.387 2.769a8.133 8.133 0 0 1 -3.172 3.575c-.374.2-.759.375-1.144.553a12.274 12.274 0 0 0 -1.897 1.016l-.191.137a4.377 4.377 0 0 1 -.755.473.5.5 0 0 1 -.52-.062.516.516 0 0 1 -.051-.047 4.629 4.629 0 0 1 -1.946.76.5.5 0 0 1 -.57-.488v-.036l-.562.244a3.908 3.908 0 0 1 -1.528.408zm-.089-1.969a.5.5 0 0 1 .387.816c-.042.051-.077.1-.106.138a3.906 3.906 0 0 0 .934-.311l1.451-.628a.5.5 0 0 1 .659.654 3.63 3.63 0 0 0 1.511-1.049.5.5 0 0 1 .6-.125.5.5 0 0 1 .235.241 13.464 13.464 0 0 1 2.023-1.081c.369-.17.738-.341 1.1-.53a7.357 7.357 0 0 0 2.677-2.949c-.009 0 .278-1.679.351-2.59a10.381 10.381 0 0 0 -.839-4.756c-.2-.386-.413-.773-.715-.881l-.1-.031a1.369 1.369 0 0 1 -.417-.177 1.4 1.4 0 0 1 -.468-.626 10.717 10.717 0 0 0 -1.936-2.608c-.035-.025-.1-.059-.179-.1a2.811 2.811 0 0 1 -1.189-1 7.049 7.049 0 0 0 -3.984-2.72 7.32 7.32 0 0 1 .3 2.949l-.016.613a10.73 10.73 0 0 0 .208 2.675.5.5 0 0 1 -.962.272c-.253-.859-1.372-1.285-2.454-1.7l-.35-.134a6.173 6.173 0 0 0 .142 1.233.5.5 0 0 1 -.9.407 12.377 12.377 0 0 0 -2.923-2.909 3.212 3.212 0 0 0 .3.818l.045.1a.5.5 0 0 1 -.5.708 7.723 7.723 0 0 0 -3.353.458c-.242.091-.478.194-.715.3s-.466.2-.7.294a14.358 14.358 0 0 1 -2.386.649c.233.357.433.73.64 1.116a8.379 8.379 0 0 0 2.261 2.934 1.265 1.265 0 0 1 .4.792c0 .009.018.109.02.118-.028.007.006.015.038.025a.489.489 0 0 1 .134.065c1.146.794 2.924.936 4.675.971a.5.5 0 0 1 .221.943 7.226 7.226 0 0 0 -.912 2.03 4.455 4.455 0 0 0 1.494-.336 6.084 6.084 0 0 1 1.933-.408 4.251 4.251 0 0 1 1.969.508.5.5 0 0 1 -.209.927 3.7 3.7 0 0 0 -2.58 1.1 1.4 1.4 0 0 0 -.122.143 1.795 1.795 0 0 1 -1.279.727 8.122 8.122 0 0 1 -1.193.156 5.119 5.119 0 0 0 4.7 1.773.47.47 0 0 1 .079-.004z"/></g><path d="m31.373 29.551a.649.649 0 0 1 -.556-.313c-.443-.731-.86-1.444-1.21-2.042-.389-.665-.757-1.293-.877-1.453-.153-.2-.314-.4-.477-.6-.283-.346-.54-.663-.78-.989-.166-.225-.324-.457-.476-.694a.65.65 0 1 1 1.1-.7c.135.212.277.42.426.622.229.311.471.609.715.907.2.243.372.455.536.674s.437.685.958 1.576c.347.593.761 1.3 1.2 2.024a.65.65 0 0 1 -.555.987z" fill="#fff"/><path d="m33.4 32.584a.649.649 0 0 1 -.491-.223c-.169-.195-.366-.452-.579-.753a.65.65 0 1 1 1.062-.75c.184.26.352.482.5.65a.65.65 0 0 1 -.49 1.077z" fill="#fff"/></g></svg>