<?xml version="1.0" encoding="iso-8859-1"?>
<!-- Generator: Adobe Illustrator 19.0.0, SVG Export Plug-In . SVG Version: 6.00 Build 0)  -->
<svg version="1.1" id="Capa_1" xmlns="http://www.w3.org/2000/svg" xmlns:xlink="http://www.w3.org/1999/xlink" x="0px" y="0px"
	 viewBox="0 0 512.002 512.002" style="enable-background:new 0 0 512.002 512.002;" xml:space="preserve">
<g>
	<path style="fill:#46C373;" d="M339.738,83.863c2.709-15.583,14.705-37.286,31.853-51.519L349.246,9.998
		c-24.68,19.03-41.338,48.172-45.824,68.995L339.738,83.863z"/>
	<path style="fill:#46C373;" d="M349.001,83.663l6.163-6.43c17.016-17.753,43.646-22.279,65.572-11.142l0,0
		c21.722,11.034,35.407,33.333,35.407,57.697v54.07c0,26.532,7.752,52.484,22.305,74.668l0,0
		c24.232,36.941,30.12,82.975,15.966,124.826l-2.328,6.883c-16.518,48.835-53.617,87.971-101.501,107.071l-14.183,5.657
		L349.001,83.663z"/>
	<path style="fill:#46C373;" d="M238.41,457.916L238.41,457.916c-18.022-50.461-14.015-106.172,11.042-153.536l0,0
		c17.473-33.028,24.123-70.712,19.007-107.725l-3.804-27.523v-24.113c0-24.938,15.093-47.353,38.117-56.777l0.304-4.581l-6.163-6.43
		c-17.016-17.753-43.647-22.279-65.572-11.142l0,0c-21.722,11.033-35.407,33.332-35.407,57.696v54.07
		c0,26.531-7.752,52.484-22.305,74.668l0,0c-24.232,36.941-30.12,82.975-15.966,124.826l2.328,6.883
		c16.517,48.835,53.617,87.971,101.501,107.072l14.183,5.657l0.001-0.02C258.93,490.059,245.01,476.398,238.41,457.916z"/>
</g>
<path style="fill:#A5DC69;" d="M303.646,87.881l-0.046,0.018c-23.493,9.219-38.944,31.883-38.944,57.12v24.113l3.804,27.523
	c5.116,37.014-1.534,74.698-19.007,107.725l0,0c-25.058,47.363-29.064,103.075-11.042,153.536l0,0
	c12.73,35.643,52.654,53.426,87.665,39.046l0,0h-0.072l0,0c35.01,14.379,74.935-3.404,87.665-39.046l0,0
	c18.022-50.461,14.015-106.172-11.042-153.536l0,0c-17.473-33.028-24.123-70.712-19.007-107.725l3.804-27.523v-24.131
	c0-25.228-15.442-47.886-38.922-57.111l0,0C334.085,82.227,318.063,82.224,303.646,87.881z"/>
<path style="fill:#D7FA91;" d="M168.036,200.242l7.866,4.231c33.952,18.258,50.905,57.457,40.959,94.701l0,0l0,0
	c31.253-16.361,69.093-13.514,97.546,7.34l11.631,8.524l-3.941,11.157c-11.841,33.527-40.278,58.475-75.061,65.851l0,0l3.966,3.362
	c30.994,26.272,37.315,71.63,14.684,105.374l0,0l-3.415,0.44c-37.67,4.859-74.395-14.189-92.125-47.778l-2.112-4.001l0,0
	c-16.75,35.916-54.816,56.863-94.119,51.794l-3.532-0.456l0,0c-22.631-33.744-16.311-79.103,14.684-105.374l3.966-3.362l0,0
	c-34.783-7.376-63.22-32.323-75.061-65.851l-3.941-11.157l11.631-8.524c28.453-20.853,66.293-23.701,97.546-7.34l0,0l0,0
	c-9.946-37.245,7.007-76.443,40.959-94.701L168.036,200.242z"/>
<g>
	<path style="fill:#D9996F;" d="M168.036,335.253l13.926-47.876c1.214-4.173,0.492-8.67-1.966-12.254l0,0
		c-5.761-8.399-18.158-8.399-23.92,0l0,0c-2.458,3.584-3.18,8.081-1.966,12.254L168.036,335.253z"/>
	<path style="fill:#D9996F;" d="M137.341,357.553l-41.229-28.038c-3.594-2.444-8.093-3.148-12.262-1.917l0,0
		c-9.768,2.884-13.599,14.674-7.391,22.749l0,0c2.649,3.446,6.703,5.521,11.047,5.656L137.341,357.553z"/>
	<path style="fill:#D9996F;" d="M149.065,393.635l-39.406,30.547c-3.435,2.663-5.494,6.725-5.612,11.069l0,0
		c-0.276,10.181,9.753,17.468,19.351,14.06l0,0c4.096-1.455,7.322-4.669,8.793-8.758L149.065,393.635z"/>
	<path style="fill:#D9996F;" d="M187.005,393.635l16.874,46.918c1.471,4.09,4.698,7.303,8.793,8.758l0,0
		c9.598,3.409,19.627-3.878,19.351-14.06l0,0c-0.118-4.345-2.178-8.406-5.612-11.069L187.005,393.635z"/>
	<path style="fill:#D9996F;" d="M198.729,357.553l49.835-1.55c4.344-0.135,8.398-2.211,11.047-5.656l0,0
		c6.207-8.074,2.377-19.865-7.391-22.749l0,0c-4.168-1.231-8.668-0.527-12.262,1.917L198.729,357.553z"/>
</g>
<path d="M510.744,311.828c-2.942-22.998-11.218-45.401-23.936-64.788c-13.52-20.609-20.666-44.533-20.666-69.183v-54.07
	c0-28.28-15.664-53.804-40.877-66.611c-21.102-10.717-45.509-9.279-64.762,2.873c4.633-7.192,10.54-14.255,17.474-20.011
	c2.165-1.796,3.472-4.422,3.603-7.23s-0.929-5.544-2.918-7.533L356.317,2.928c-3.555-3.554-9.195-3.917-13.177-0.848
	c-22.658,17.471-38.245,41.849-45.731,62.119c-19.97-15.866-47.296-18.86-70.597-7.025c-25.214,12.808-40.877,38.33-40.877,66.611
	v54.07c0,6.665-0.537,13.34-1.589,19.926c-1.218-0.727-2.449-1.438-3.709-2.116l-7.866-4.231c-2.957-1.592-6.516-1.592-9.473,0
	l-7.866,4.23c-7.723,4.154-14.803,9.355-21.04,15.46c-3.947,3.863-4.016,10.193-0.153,14.141c3.862,3.947,10.193,4.015,14.14,0.153
	c4.896-4.792,10.456-8.876,16.525-12.141l3.13-1.684l3.131,1.685c30.007,16.137,44.825,50.396,36.035,83.314
	c-1.023,3.834,0.316,7.909,3.415,10.388c3.099,2.478,7.368,2.89,10.884,1.051c27.664-14.481,61.813-11.912,86.998,6.545l5.64,4.135
	l-1.467,4.153c-10.607,30.032-36.551,52.792-67.707,59.399c-3.732,0.791-6.688,3.637-7.621,7.335
	c-0.933,3.699,0.32,7.606,3.23,10.073l3.967,3.362c26.004,22.042,32.16,59.349,15.197,88.424
	c-32.92,3.723-65.244-13.316-80.744-42.681l-2.112-4.001c-1.772-3.358-5.293-5.421-9.089-5.329c-3.796,0.094-7.211,2.329-8.816,5.77
	c-14.812,31.757-47.915,50.225-82.636,46.242c-16.966-29.075-10.81-66.383,15.196-88.426l3.966-3.362
	c2.91-2.467,4.163-6.374,3.23-10.073c-0.933-3.699-3.89-6.544-7.621-7.335c-31.157-6.606-57.1-29.366-67.707-59.399l-1.467-4.153
	l5.64-4.135c25.185-18.457,59.333-21.028,86.998-6.545c3.515,1.84,7.786,1.429,10.883-1.051c3.099-2.479,4.438-6.554,3.415-10.387
	c-1.316-4.93-2.119-9.996-2.385-15.06c-0.29-5.515-4.985-9.732-10.511-9.46c-5.515,0.29-9.75,4.997-9.46,10.511
	c0.011,0.199,0.022,0.398,0.034,0.598c-12.204-3.769-25.052-5.236-37.913-4.268c-19.126,1.439-37.414,8.192-52.883,19.531
	l-11.632,8.527c-3.557,2.607-4.986,7.236-3.518,11.395l3.941,11.157c10.876,30.795,35.002,55.309,65.008,67.078
	c-26.903,30.177-30.581,75.291-7.472,109.75c1.606,2.395,4.167,3.979,7.026,4.348l3.531,0.455c4.396,0.566,8.771,0.845,13.109,0.845
	c32.94-0.001,63.567-16.01,82.374-42.793c21.348,30.147,58.192,46.739,95.431,41.934l3.415-0.44c2.637-0.34,5.01-1.725,6.624-3.814
	c8.834,3.401,18.038,5.115,27.258,5.115c8.479,0,16.97-1.441,25.191-4.329c17.604,6.18,36.473,5.711,53.809-1.333
	c0.086-0.031,0.172-0.055,0.258-0.089l14.183-5.657c50.685-20.219,89.784-61.462,107.267-113.155l2.329-6.883
	C511.313,358.591,513.685,334.826,510.744,311.828z M348.644,23.538l8.559,8.559c-11.614,12.038-20.888,27.355-25.3,41.785
	c-5.637-0.466-11.31-0.253-16.912,0.631C319.979,59.054,331.563,39.042,348.644,23.538z M201.827,211.23
	c0.31-0.662,0.56-1.364,0.723-2.108c2.245-10.251,3.384-20.77,3.384-31.266v-54.07c0-20.71,11.471-39.401,29.935-48.781
	c17.974-9.133,39.393-5.585,53.469,8.788c-21.384,12.725-34.683,35.668-34.683,61.224v24.113c0,0.458,0.031,0.915,0.094,1.369
	l3.804,27.523c3.775,27.313,0.734,55.246-8.77,81.093c-6.867,0.67-13.646,2.026-20.238,4.061
	C231.198,256.167,220.994,229.971,201.827,211.23z M283.05,489.05c12.263-31.247,6.055-67.111-16.531-92.448
	c19.739-7.742,36.934-21.001,49.485-37.936v131.208C305.138,492.94,293.771,492.659,283.05,489.05z M336.002,489.847V252.591
	c0-5.521-4.477-9.999-9.999-9.999c-5.522,0-9.999,4.478-9.999,9.999v42.881c-13.541-8.899-28.969-14.466-45.094-16.232
	c8.767-26.991,11.35-55.768,7.454-83.953l-3.71-26.843v-23.426c0-21.273,12.796-40.039,32.598-47.811
	c0.023-0.009,0.06-0.023,0.094-0.037c2.829-1.107,5.725-1.945,8.657-2.533v68.351c0,5.521,4.477,9.999,9.999,9.999
	c5.523,0,9.999-4.478,9.999-9.999V94.613c2.995,0.594,5.953,1.45,8.841,2.584c19.791,7.775,32.58,26.541,32.58,47.805v23.443
	l-3.71,26.843c-5.437,39.332,1.505,78.674,20.073,113.771c23.685,44.767,27.499,97.8,10.464,145.497
	c-5.229,14.64-15.929,26.186-30.129,32.511C361.938,492.492,348.622,493.42,336.002,489.847z M484.94,374.147l-2.329,6.883
	c-11.178,33.046-32.255,61.304-59.938,81.312c0.133-0.356,0.281-0.704,0.41-1.063C442,408.312,437.766,349.42,411.463,299.704
	c-16.595-31.366-22.799-66.527-17.94-101.679l3.804-27.523c0.063-0.454,0.094-0.911,0.094-1.369v-24.131
	c0-25.549-13.294-48.492-34.671-61.218c14.076-14.366,35.487-17.905,53.458-8.777c18.464,9.379,29.935,28.07,29.935,48.781v54.07
	c0,28.558,8.279,56.274,23.944,80.153C492.786,292.614,498.2,334.945,484.94,374.147z"/>
<path d="M118.727,255.733c1.232,0.5,2.505,0.737,3.758,0.737c3.95,0,7.691-2.356,9.268-6.241l0.285-0.692
	c2.132-5.095-0.269-10.952-5.364-13.084c-5.096-2.134-10.952,0.27-13.084,5.364c-0.125,0.297-0.247,0.594-0.367,0.892
	C111.147,247.825,113.611,253.656,118.727,255.733z"/>
<path d="M168.035,258.825c-8.081,0-15.635,3.979-20.205,10.643c-4.17,6.078-5.38,13.625-3.322,20.702l13.926,47.876
	c1.242,4.271,5.155,7.206,9.601,7.206s8.359-2.937,9.601-7.206l13.926-47.876c2.059-7.077,0.848-14.624-3.322-20.702
	C183.67,262.803,176.116,258.825,168.035,258.825z M172.36,284.584l-4.325,14.868l-4.325-14.868
	c-0.378-1.301-0.156-2.688,0.611-3.806c1.167-1.702,2.828-1.956,3.714-1.956c0.886,0,2.547,0.254,3.715,1.956
	C172.515,281.896,172.738,283.283,172.36,284.584z"/>
<path d="M101.736,321.247c-6.095-4.146-13.647-5.325-20.716-3.239c-7.75,2.288-13.869,8.241-16.366,15.928
	c-2.498,7.685-1.048,16.099,3.877,22.505c4.494,5.845,11.296,9.328,18.663,9.557l49.835,1.551c0.105,0.003,0.209,0.005,0.313,0.005
	c4.318,0,8.166-2.78,9.507-6.909c1.374-4.229-0.21-8.857-3.887-11.357L101.736,321.247z M87.816,346.009
	c-1.354-0.042-2.604-0.683-3.43-1.757c-1.258-1.637-0.987-3.294-0.713-4.137c0.273-0.843,1.029-2.344,3.009-2.928
	c0.421-0.124,0.852-0.186,1.28-0.186c0.892,0,1.771,0.266,2.528,0.78l12.803,8.707L87.816,346.009z"/>
<path d="M154.943,385.547c-3.598-2.615-8.489-2.538-12.003,0.187l-39.405,30.546c-5.827,4.516-9.283,11.332-9.483,18.702
	c-0.219,8.077,3.554,15.736,10.092,20.485c4.245,3.085,9.295,4.682,14.401,4.682c2.758,0,5.531-0.466,8.202-1.415
	c6.945-2.468,12.36-7.86,14.854-14.796l16.874-46.918C159.979,392.835,158.54,388.16,154.943,385.547z M122.783,437.168
	c-0.458,1.275-1.455,2.267-2.731,2.721c-1.947,0.688-3.438-0.08-4.155-0.601c-0.717-0.521-1.911-1.703-1.855-3.767
	c0.037-1.354,0.671-2.607,1.743-3.438l12.237-9.485L122.783,437.168z"/>
<path d="M181.127,385.547c-3.598,2.613-5.037,7.289-3.532,11.474l16.874,46.917c2.494,6.936,7.908,12.329,14.856,14.797
	c2.67,0.949,5.444,1.415,8.2,1.415c5.105,0,10.156-1.597,14.401-4.682c6.538-4.75,10.311-12.408,10.091-20.486
	c-0.2-7.37-3.657-14.187-9.481-18.7l-39.407-30.547C189.617,383.008,184.725,382.932,181.127,385.547z M220.287,432.086
	c1.07,0.829,1.705,2.082,1.742,3.437c0.056,2.063-1.139,3.245-1.855,3.767c-0.716,0.521-2.209,1.291-4.154,0.601
	c-1.278-0.454-2.273-1.445-2.732-2.721l-5.241-14.569L220.287,432.086z"/>
<path d="M267.538,356.44c4.926-6.405,6.375-14.819,3.878-22.504c-2.497-7.686-8.615-13.641-16.365-15.929
	c-7.069-2.086-14.62-0.907-20.716,3.239l-41.229,28.038c-3.677,2.5-5.261,7.128-3.887,11.357c1.342,4.13,5.189,6.909,9.507,6.909
	c0.104,0,0.208-0.002,0.313-0.005l49.834-1.551C256.243,365.768,263.046,362.284,267.538,356.44z M232.778,346.49l12.803-8.707
	c0.757-0.515,1.636-0.78,2.528-0.78c0.428,0,0.859,0.062,1.281,0.186c1.979,0.584,2.734,2.085,3.008,2.928
	c0.273,0.843,0.545,2.5-0.714,4.138c-0.825,1.073-2.075,1.714-3.43,1.756L232.778,346.49z"/>
<path d="M326.003,199.945c-2.63,0-5.21,1.07-7.069,2.93c-1.86,1.86-2.93,4.44-2.93,7.069c0,2.63,1.07,5.21,2.93,7.069
	c1.86,1.859,4.44,2.93,7.069,2.93s5.21-1.07,7.069-2.93c1.86-1.86,2.93-4.431,2.93-7.069c0-2.63-1.07-5.21-2.93-7.069
	C331.213,201.016,328.633,199.945,326.003,199.945z"/>
<g>
</g>
<g>
</g>
<g>
</g>
<g>
</g>
<g>
</g>
<g>
</g>
<g>
</g>
<g>
</g>
<g>
</g>
<g>
</g>
<g>
</g>
<g>
</g>
<g>
</g>
<g>
</g>
<g>
</g>
</svg>
