<?xml version="1.0" encoding="iso-8859-1"?>
<!-- Generator: Adobe Illustrator 19.0.0, SVG Export Plug-In . SVG Version: 6.00 Build 0)  -->
<svg version="1.1" id="Capa_1" xmlns="http://www.w3.org/2000/svg" xmlns:xlink="http://www.w3.org/1999/xlink" x="0px" y="0px"
	 viewBox="0 0 512.002 512.002" style="enable-background:new 0 0 512.002 512.002;" xml:space="preserve">
<path style="fill:#A5DC69;" d="M182.177,63.472c0,0-41.2-6.473-57.2-38.473c-14.333,29.43-4.825,52.332-4.825,52.332L182.177,63.472
	z"/>
<path style="fill:#FF5A5A;" d="M50.893,216.49c0,100.213,58.778,196.231,131.284,196.231s131.284-96.017,131.284-196.231
	S254.683,63.999,182.177,63.999S50.893,116.277,50.893,216.49z"/>
<path style="fill:#A5DC69;" d="M182.177,340.077c17.649,0,32.087,13.985,32.731,31.623c0.261,7.142-0.035,14.626-1.102,22.334
	c-6.805,49.123-31.629,62.914-31.629,107.966c0-45.052-24.824-58.843-31.629-107.966c-1.068-7.708-1.363-15.192-1.102-22.334
	C150.09,354.062,164.528,340.077,182.177,340.077L182.177,340.077z"/>
<path style="fill:#FF8C8C;" d="M476.001,299.322c0-97.707-57.308-191.323-128-191.323s-128,93.616-128,191.323
	s57.308,148.677,128,148.677S476.001,397.029,476.001,299.322z"/>
<path style="fill:#FFFFFF;" d="M348,143.999c-20.714,0-42.704,15.545-60.33,42.648C267.543,217.594,256,258.663,256,299.322
	c0,70.555,34.393,112.677,92,112.677s92-42.122,92-112.677c0-40.659-11.543-81.728-31.67-112.675
	C390.704,159.544,368.714,143.999,348,143.999z"/>
<g>
	<path style="fill:#A5DC69;" d="M458.796,207c0,0,17.205-18.668,16.178-66.001c44.028,44.497,13.027,112,1.027,137L458.796,207z"/>
	<path style="fill:#A5DC69;" d="M407.541,126.926V54.429c0,0,40.46,60.25,40.46,128.555L407.541,126.926z"/>
	<path style="fill:#A5DC69;" d="M237.205,207c0,0-17.205-18.668-16.178-66.001c-28.84,30.988-28.028,100.5,0.057,134.96L237.205,207
		z"/>
	<path style="fill:#A5DC69;" d="M288.459,126.926V54.429c0,0-40.46,60.25-40.46,128.555L288.459,126.926z"/>
	<path style="fill:#A5DC69;" d="M307.194,118.707c0,0,40.223-55.347,40.806-108.707c5.249,53.944,40.805,108.707,40.805,108.707
		H307.194z"/>
	<path style="fill:#A5DC69;" d="M197.444,106.518c5.866,0,8.049,7.699,3.054,10.775c-0.397,0.244-0.793,0.489-1.187,0.733
		c-16.111,9.973-17.134,31.455-17.134,31.455s-1.023-21.481-17.134-31.455c-0.394-0.244-0.79-0.489-1.187-0.733
		c-4.995-3.076-2.812-10.775,3.054-10.775H197.444z"/>
	<path style="fill:#A5DC69;" d="M183.834,63.472c0,0,41.2-6.473,57.2-38.473c14.333,29.43,4.825,52.332,4.825,52.332L183.834,63.472
		z"/>
	<path style="fill:#A5DC69;" d="M53.121,168.902c-10.358,22.44-26.754,52.389-43.12,59.49c26.069,7.834,57.708-20.056,74.825-38.109
		c7.232-7.627,7.016-19.643-0.442-27.048l0,0C74.825,153.744,58.767,156.671,53.121,168.902z"/>
	<path style="fill:#A5DC69;" d="M59.548,309.584c-1.652,33.6-7.248,92.984-26.199,109.829
		c40.071-11.449,63.673-100.652,95.936-140.759c3.785-4.705-0.719-11.5-6.542-9.898l-39.061,10.748
		C69.987,283.272,60.246,295.396,59.548,309.584z"/>
</g>
<path d="M348.126,437.999h-0.125c-5.523,0-10,4.478-10,10s4.477,10,10,10h0.125c5.523,0,10-4.478,10-10
	S353.649,437.999,348.126,437.999z"/>
<path d="M423.349,388.444C440.785,367.09,450,336.272,450,299.323c0-42.544-12.133-85.6-33.287-118.127
	C397.207,151.202,372.162,134,348,134s-49.208,17.202-68.713,47.196C258.133,213.723,246,256.779,246,299.323
	c0,36.949,9.216,67.767,26.651,89.121C290.575,410.396,316.63,422,348,422S405.425,410.396,423.349,388.444z M266,299.323
	c0-38.774,10.954-77.855,30.053-107.223c15.515-23.857,34.934-38.101,51.947-38.101s36.432,14.243,51.947,38.101
	C419.046,221.467,430,260.548,430,299.323C430,364.576,400.112,402,348,402S266,364.576,266,299.323z"/>
<path d="M506.658,277.137c-3.893-2.049-8.668-1.313-11.764,1.814l-9.144,9.237c-0.095-2.212-0.214-4.423-0.365-6.634
	c5.348-11.152,16.979-35.821,21.006-63.293c5.059-34.519-3.12-62.879-24.31-84.295c-2.879-2.91-7.242-3.772-11.011-2.174
	c-3.77,1.598-6.184,5.331-6.095,9.424c0.414,19.089-2.35,33.005-5.494,42.532c-0.494-1-0.994-1.994-1.5-2.982
	c-0.832-69.597-40.435-129.375-42.138-131.912c-2.453-3.652-7.006-5.273-11.216-3.991c-4.209,1.282-7.086,5.166-7.086,9.566v57.637
	c-0.569-0.335-1.139-0.663-1.71-0.987c-6.411-10.471-33.493-56.982-37.878-102.049c-0.515-5.288-5.086-9.215-10.383-9.022
	c-5.309,0.23-9.511,4.57-9.569,9.882c-0.482,44.181-30.836,91.149-37.582,101.046c-0.655,0.369-1.308,0.747-1.96,1.131V54.429
	c0-4.4-2.876-8.284-7.086-9.566c-4.21-1.281-8.763,0.339-11.216,3.991c-0.72,1.072-8.211,12.373-16.684,30.314
	c-2.106-1.523-4.251-2.985-6.442-4.374c2.344-9.894,4.635-30.268-7.008-54.174c-1.667-3.422-5.132-5.602-8.938-5.621
	c-0.018,0-0.035,0-0.053,0c-3.786,0-7.25,2.139-8.944,5.528c-12.385,24.769-43.937,31.916-49.095,32.931
	c-5.139-0.987-36.594-7.974-49.073-32.931c-1.703-3.405-5.174-5.534-8.997-5.528c-3.806,0.02-7.271,2.199-8.938,5.621
	c-11.312,23.226-9.471,43.109-7.207,53.295c-0.694,0.426-1.396,0.84-2.08,1.279c-22.801,14.629-40.083,35.693-51.366,62.607
	c-0.092,0.219-0.582,1.374-0.72,1.751c-9.883,26.938-31.815,72.386-48.592,79.665c-3.852,1.671-6.249,5.569-6.003,9.761
	c0.247,4.19,3.084,7.781,7.105,8.99c3.997,1.201,8.142,1.8,12.436,1.8c6.953,0,14.292-1.586,21.985-4.722
	c0.44,6.376,1.096,12.762,1.981,19.1c1.535,10.999,3.752,21.993,6.589,32.674c0.036,0.135,0.082,0.263,0.123,0.395
	c-0.13,40.794-6.562,109.638-23.531,124.724c-3.488,3.1-4.368,8.2-2.121,12.29c1.791,3.258,5.188,5.185,8.764,5.185
	c0.912,0,1.836-0.125,2.748-0.386c22.109-6.317,38.791-30.576,53.864-58.67c15.985,20.792,34.62,36.001,54.611,44.507
	c3.85,14.358,9.08,25.604,13.865,35.864c7.373,15.812,13.741,29.466,13.741,51.271c0,5.522,4.477,10,10,10s10-4.478,10-10
	c0-21.804,6.368-35.459,13.741-51.27c5.339-11.45,11.392-24.428,15.287-41.545c1.226-5.385-2.146-10.744-7.532-11.97
	c-5.386-1.228-10.744,2.146-11.969,7.532c-3.422,15.035-8.754,26.471-13.912,37.529c-1.896,4.067-3.81,8.17-5.615,12.437
	c-1.805-4.267-3.718-8.369-5.615-12.437c-6.459-13.852-13.139-28.175-16.109-49.615c-2.226-16.071-1.074-32.909,3.425-50.046
	c1.402-5.342-1.791-10.809-7.133-12.211c-5.343-1.403-10.809,1.79-12.212,7.133c-4.679,17.82-6.185,35.45-4.515,52.493
	c-14.476-8.928-27.997-22.37-39.808-39.612c1.362-2.729,2.718-5.462,4.071-8.189c9.636-19.433,19.6-39.527,29.954-53.608
	c3.271-4.449,2.317-10.709-2.133-13.98c-4.449-3.271-10.708-2.316-13.98,2.133c-11.385,15.484-21.743,36.371-31.759,56.57
	c-7.847,15.826-16.197,32.663-25.05,46.566c2.211-10.188,4.041-21.87,5.504-35.091c3.383-30.573,3.422-57.725,3.422-58.865
	c0-1.212-0.723-3.991-0.796-4.266c-2.631-9.905-4.687-20.102-6.111-30.306c-1.255-8.996-2.03-18.092-2.314-27.099
	c4.331-2.975,8.749-6.354,13.263-10.184c17.684-15.006,30.365-31.24,30.896-31.924c3.387-4.359,2.599-10.637-1.759-14.026
	c-4.358-3.39-10.64-2.604-14.031,1.752c-8.107,10.412-29.282,33.308-49.982,44.057c5.423-7.63,10.948-16.982,16.617-28.111
	c10.283-20.188,17.083-38.63,17.367-39.405c0.045-0.124,0.31-0.719,0.389-0.907C92.836,100.073,132.345,74,182.176,74
	c27.961,0,53.15,8.322,73.143,24.082c-8.937,22.87-16.933,51.81-17.302,82.686c-0.519,1.012-1.031,2.03-1.536,3.054
	c-3.126-9.483-5.875-23.396-5.458-42.605c0.09-4.148-2.392-7.922-6.236-9.482s-8.254-0.585-11.082,2.453
	c-15.378,16.523-24.125,43.143-23.998,73.033c0.118,27.722,7.769,53.596,21.098,71.775c-0.255,3.267-0.45,6.538-0.583,9.809
	l-10.251-9.972c-3.139-3.054-7.902-3.71-11.751-1.616c-3.848,2.094-5.886,6.448-5.027,10.744
	c0.94,4.702,23.743,115.18,92.897,150.498c6.397,3.929,13.205,7.336,20.429,10.161c5.142,2.013,10.944-0.527,12.954-5.673
	c2.011-5.144-0.529-10.943-5.673-12.954c-46.9-18.336-73.799-65.963-73.799-130.67c0-45.56,13.075-91.794,35.874-126.85
	c13.3-20.452,28.745-35.542,45.271-44.591c0.531-0.228,1.044-0.503,1.533-0.825c11.394-5.957,23.281-9.058,35.322-9.058
	c12.05,0,23.946,3.105,35.348,9.072c0.463,0.301,0.947,0.56,1.448,0.779c16.548,9.045,32.014,24.147,45.33,44.623
	c22.799,35.056,35.874,81.29,35.874,126.85c0,66.345-28.027,114.394-76.896,131.824c-5.202,1.855-7.915,7.577-6.059,12.778
	c1.459,4.092,5.311,6.644,9.419,6.644c1.115,0,2.249-0.188,3.359-0.584c8.292-2.958,16.152-6.727,23.52-11.232
	c69.645-35.023,91.579-146.173,92.479-150.892C512.649,283.539,510.552,279.186,506.658,277.137z M237.854,46.528
	c1.463,7.528,1.291,13.899,0.692,18.56c-5.365-2.286-10.911-4.229-16.619-5.816C227.422,55.854,232.901,51.666,237.854,46.528z
	 M128.188,46.56c4.815,4.988,10.125,9.079,15.462,12.44c-5.555,1.493-10.969,3.308-16.209,5.452
	C126.919,59.847,126.822,53.711,128.188,46.56z M483.015,171.493c8.959,23.641,3.975,50.292-3.121,71.345
	c-2.539-11.733-5.837-23.226-9.852-34.289C474.037,202.32,479.951,190.451,483.015,171.493z M213.732,175.695
	c3.206,16.525,8.536,27.1,12.226,32.856c-4.243,11.694-7.69,23.866-10.28,36.298C208.399,223.208,207.732,197.034,213.732,175.695z
	 M262.441,143.434c3.969-18.364,10.062-35.094,16.018-48.671v32.022C272.915,131.735,267.563,137.287,262.441,143.434z
	 M330.733,99.646c6.128-11.181,12.953-25.373,18.244-41.04c5.468,15.86,12.027,30.166,17.74,41.345
	c-6.161-1.284-12.409-1.952-18.716-1.952C342.188,97.999,336.423,98.554,330.733,99.646z M417.541,126.784V94.763
	c5.957,13.577,12.049,30.307,16.018,48.67C428.438,137.286,423.085,131.734,417.541,126.784z"/>
<path d="M346.891,188.999c2.63,0,5.21-1.07,7.07-2.931c1.86-1.859,2.93-4.439,2.93-7.069s-1.07-5.21-2.93-7.07
	c-1.87-1.86-4.44-2.93-7.07-2.93s-5.21,1.069-7.07,2.93c-1.87,1.86-2.93,4.44-2.93,7.07s1.06,5.21,2.93,7.069
	C341.681,187.929,344.261,188.999,346.891,188.999z"/>
<path d="M316.351,206.319c-2.63,0-5.21,1.07-7.07,2.931c-1.86,1.859-2.93,4.439-2.93,7.069c0,2.631,1.07,5.211,2.93,7.07
	c1.86,1.86,4.43,2.93,7.07,2.93c2.63,0,5.21-1.069,7.07-2.93c1.86-1.859,2.93-4.439,2.93-7.07c0-2.63-1.07-5.21-2.93-7.069
	C321.551,207.389,318.981,206.319,316.351,206.319z"/>
<path d="M316.351,270.589c-2.64,0-5.21,1.07-7.07,2.93c-1.87,1.86-2.93,4.44-2.93,7.07s1.06,5.21,2.93,7.07
	c1.86,1.87,4.43,2.93,7.07,2.93c2.63,0,5.2-1.06,7.07-2.93c1.86-1.86,2.93-4.44,2.93-7.07s-1.07-5.21-2.93-7.07
	C321.561,271.66,318.981,270.589,316.351,270.589z"/>
<path d="M377.481,226.319c2.64,0,5.21-1.069,7.08-2.93c1.86-1.859,2.92-4.439,2.92-7.07c0-2.63-1.06-5.21-2.92-7.069
	c-1.87-1.86-4.45-2.931-7.08-2.931s-5.2,1.07-7.07,2.931c-1.86,1.859-2.92,4.439-2.92,7.069c0,2.631,1.06,5.211,2.92,7.07
	C372.281,225.249,374.851,226.319,377.481,226.319z"/>
<path d="M377.491,290.589c2.63,0,5.2-1.06,7.07-2.93c1.86-1.86,2.93-4.44,2.93-7.07s-1.07-5.21-2.93-7.07
	c-1.86-1.859-4.44-2.93-7.07-2.93c-2.64,0-5.21,1.07-7.08,2.93c-1.86,1.86-2.92,4.44-2.92,7.07s1.06,5.21,2.92,7.07
	C372.281,289.53,374.861,290.589,377.491,290.589z"/>
<path d="M316.351,340.049c-2.64,0-5.21,1.06-7.08,2.93c-1.86,1.86-2.92,4.44-2.92,7.07s1.06,5.2,2.92,7.07
	c1.87,1.859,4.45,2.93,7.08,2.93c2.63,0,5.2-1.07,7.07-2.93c1.86-1.86,2.93-4.44,2.93-7.07c0-2.64-1.07-5.21-2.93-7.07
	C321.561,341.109,318.981,340.049,316.351,340.049z"/>
<path d="M377.491,360.049c2.63,0,5.2-1.07,7.07-2.93c1.86-1.87,2.92-4.44,2.92-7.07s-1.06-5.21-2.92-7.07
	c-1.87-1.87-4.44-2.93-7.07-2.93c-2.64,0-5.21,1.06-7.08,2.93c-1.86,1.86-2.93,4.431-2.93,7.07c0,2.63,1.07,5.21,2.93,7.07
	C372.281,358.979,374.861,360.049,377.491,360.049z"/>
<path d="M403.001,257.419c2.63,0,5.21-1.07,7.07-2.93c1.86-1.86,2.93-4.44,2.93-7.07s-1.07-5.21-2.93-7.07
	c-1.86-1.859-4.44-2.93-7.07-2.93s-5.21,1.07-7.07,2.93c-1.86,1.86-2.93,4.44-2.93,7.07s1.07,5.21,2.93,7.07
	C397.791,256.349,400.371,257.419,403.001,257.419z"/>
<path d="M293.001,237.419c-2.63,0-5.21,1.07-7.07,2.93c-1.86,1.86-2.93,4.44-2.93,7.07s1.07,5.21,2.93,7.07
	c1.86,1.859,4.44,2.93,7.07,2.93s5.21-1.07,7.07-2.93c1.86-1.86,2.93-4.44,2.93-7.07s-1.07-5.21-2.93-7.07
	C298.211,238.49,295.631,237.419,293.001,237.419z"/>
<path d="M347.271,237.419c-2.63,0-5.21,1.07-7.07,2.93c-1.86,1.86-2.93,4.44-2.93,7.07s1.07,5.21,2.93,7.07
	c1.86,1.859,4.44,2.93,7.07,2.93s5.21-1.07,7.07-2.93c1.86-1.86,2.93-4.44,2.93-7.07s-1.07-5.21-2.93-7.07
	C352.481,238.49,349.901,237.419,347.271,237.419z"/>
<path d="M403.001,326.179c2.64,0,5.21-1.07,7.07-2.93c1.86-1.851,2.93-4.431,2.93-7.07c0-2.63-1.07-5.21-2.93-7.07
	c-1.86-1.859-4.44-2.93-7.07-2.93s-5.21,1.07-7.07,2.93c-1.86,1.87-2.93,4.44-2.93,7.07s1.07,5.21,2.93,7.07
	C397.791,325.109,400.371,326.179,403.001,326.179z"/>
<path d="M293.001,306.179c-2.64,0-5.21,1.07-7.07,2.93c-1.86,1.87-2.93,4.44-2.93,7.07s1.07,5.21,2.93,7.07
	c1.86,1.859,4.43,2.93,7.07,2.93c2.63,0,5.21-1.07,7.07-2.93c1.86-1.86,2.93-4.44,2.93-7.07s-1.07-5.2-2.93-7.07
	C298.211,307.249,295.631,306.179,293.001,306.179z"/>
<path d="M347.271,306.179c-2.63,0-5.21,1.07-7.07,2.93c-1.86,1.86-2.93,4.44-2.93,7.07c0,2.64,1.07,5.21,2.93,7.07
	c1.86,1.859,4.44,2.93,7.07,2.93s5.21-1.07,7.07-2.93c1.86-1.86,2.93-4.44,2.93-7.07s-1.07-5.2-2.93-7.07
	C352.481,307.249,349.901,306.179,347.271,306.179z"/>
<path d="M357.271,376.999c0-2.63-1.07-5.21-2.93-7.07s-4.44-2.93-7.07-2.93s-5.21,1.069-7.07,2.93c-1.86,1.86-2.93,4.44-2.93,7.07
	s1.07,5.21,2.93,7.069c1.86,1.86,4.44,2.931,7.07,2.931s5.21-1.07,7.07-2.931C356.201,382.209,357.271,379.629,357.271,376.999z"/>
<path d="M142.318,264.207c1.475,4.062,5.328,6.577,9.421,6.577c1.065,0,2.146-0.17,3.206-0.527c0.054-0.018,0.107-0.036,0.161-0.054
	c5.222-1.787,7.999-7.463,6.217-12.687c-1.782-5.223-7.468-8.012-12.694-6.235v0.001c-0.123,0.04-0.245,0.082-0.367,0.126
	C143.074,253.297,140.432,259.019,142.318,264.207z"/>
<path d="M172.188,149.956c0.254,5.332,4.649,9.552,9.987,9.552s9.733-4.166,9.987-9.497c0.01-0.164,1.096-16.478,12.412-23.482
	c8.908-5.515,18.851-11.313,18.951-11.37c4.772-2.781,6.386-8.903,3.605-13.675c-2.781-4.774-8.904-6.386-13.675-3.606
	c-0.415,0.242-10.268,5.987-19.409,11.646c-5.018,3.107-8.887,7.016-11.87,11.158c-2.983-4.143-6.852-8.051-11.87-11.158
	c-9.141-5.658-18.994-11.403-19.409-11.646c-4.772-2.778-10.895-1.166-13.675,3.606c-2.781,4.771-1.167,10.894,3.605,13.675
	c0.1,0.058,10.043,5.855,18.951,11.37C171.095,133.534,172.181,149.847,172.188,149.956z"/>
<g>
</g>
<g>
</g>
<g>
</g>
<g>
</g>
<g>
</g>
<g>
</g>
<g>
</g>
<g>
</g>
<g>
</g>
<g>
</g>
<g>
</g>
<g>
</g>
<g>
</g>
<g>
</g>
<g>
</g>
</svg>
