<svg height="512" viewBox="0 0 74 74" width="512" xmlns="http://www.w3.org/2000/svg"><g id="color_line" data-name="color line"><path d="m27.983 46.206c7.438-7.083 8.179-15.941 5.007-20.927a20.512 20.512 0 0 0 -4.69-5.193c.128 1.621-.848 2-.848 2 .748-2.9-2.915-5.253-2.915-5.253a2.587 2.587 0 0 1 -.854 2c.149-2.652-2.789-3.773-2.789-3.773a1.773 1.773 0 0 1 -.717 1.7c-.145-3.358-3.753-4.814-3.753-4.814a1.514 1.514 0 0 1 -.613 1.434 6.851 6.851 0 0 0 -3.914-3.8l-.833 1.959c-1.156-2.139-7.82-4.216-7.82-4.216s-.942 6.917.5 8.866l-2.127-.076a6.851 6.851 0 0 0 1.783 5.155 1.514 1.514 0 0 1 -1.558-.052s-.21 3.885 2.771 5.439a1.773 1.773 0 0 1 -1.841-.069s-.229 3.136 2.236 4.125a2.587 2.587 0 0 1 -2.174-.074s.579 4.313 3.524 4.863c0 0-.754.724-2.167-.078a20.512 20.512 0 0 0 2.716 6.452c3.172 4.986 11.51 8.067 21.077 4.331z" fill="#6fc666"/><path d="m27.988 46.2q-.33.135-.66.24c6.09-6.8 6.53-14.8 3.58-19.44a20.538 20.538 0 0 0 -4.69-5.2c.13 1.62-.85 2-.85 2 .75-2.9-2.91-5.25-2.91-5.25a2.6 2.6 0 0 1 -.86 2c.15-2.65-2.79-3.77-2.79-3.77a1.744 1.744 0 0 1 -.71 1.69c-.15-3.36-3.76-4.81-3.76-4.81a1.5 1.5 0 0 1 -.61 1.43 6.832 6.832 0 0 0 -3.91-3.8l-.84 1.96c-.76-1.4-3.9-2.78-5.96-3.56.09-1.36.23-2.37.23-2.37s6.66 2.08 7.81 4.21l.84-1.96a6.832 6.832 0 0 1 3.91 3.8 1.5 1.5 0 0 0 .61-1.43s3.61 1.45 3.76 4.81a1.752 1.752 0 0 0 .71-1.7s2.94 1.13 2.79 3.78a2.6 2.6 0 0 0 .86-2s3.66 2.35 2.91 5.25c0 0 .98-.38.85-2a20.537 20.537 0 0 1 4.69 5.2c3.17 4.984 2.43 13.844-5 20.92z" fill="#65b54e"/><path d="m24.417 40.601-8.316-1.92 7.196-.072z" fill="#323c6b"/><path d="m21.142 35.474-9.094-2.032 8 .175z" fill="#323c6b"/><path d="m18.048 30.591-8.375-2.013 7.094-.001z" fill="#323c6b"/><path d="m22.895 38.209 1.784-8.347-3.114 6.488z" fill="#323c6b"/><path d="m19.638 33.07 2.012-9.098-3.231 7.32z" fill="#323c6b"/><path d="m16.525 28.198 1.726-8.439-3.007 6.426z" fill="#323c6b"/><path d="m46.112 61.664c9.9 2.733 17.877-1.19 20.52-6.475a20.512 20.512 0 0 0 2.038-6.7c-1.324.943-2.148.3-2.148.3 2.873-.852 3-5.2 3-5.2a2.587 2.587 0 0 1 -2.155.3c2.35-1.237 1.8-4.333 1.8-4.333a1.773 1.773 0 0 1 -1.824.258c2.8-1.852 2.2-5.695 2.2-5.695a1.514 1.514 0 0 1 -1.543.212 6.851 6.851 0 0 0 1.244-5.311l-2.108.294c1.236-2.087-.412-8.871-.412-8.871s-6.416 2.752-7.344 4.993l-1.03-1.863a6.851 6.851 0 0 0 -3.5 4.182 1.514 1.514 0 0 1 -.757-1.363s-3.439 1.819-3.238 5.174a1.773 1.773 0 0 1 -.888-1.615s-2.807 1.417-2.386 4.039a2.587 2.587 0 0 1 -1.056-1.9s-3.4 2.716-2.359 5.525c0 0-1.009-.274-1.048-1.9a20.512 20.512 0 0 0 -4.134 5.648c-2.643 5.286-.994 14.021 7.132 20.3z" fill="#6fc666"/><path d="m66.46 31.49c.74-1.25.45-4.19.09-6.34.92-.46 1.57-.74 1.57-.74s1.54 6.31.53 8.63a6.768 6.768 0 0 0 -.08-1.84z" fill="#65b54e"/><path d="m66.518 48.794s.83.64 2.15-.3a20.559 20.559 0 0 1 -2.04 6.7c-2.64 5.28-10.62 9.2-20.52 6.47a24.677 24.677 0 0 1 -2.07-1.79c9.9 2.73 17.88-1.19 20.52-6.48a20.541 20.541 0 0 0 2.042-6.694c-1.33.94-2.15.3-2.15.3 2.87-.85 3-5.2 3-5.2a2.567 2.567 0 0 1 -2.15.29c2.35-1.23 1.8-4.33 1.8-4.33a1.788 1.788 0 0 1 -1.83.26c2.81-1.85 2.2-5.7 2.2-5.7a1.513 1.513 0 0 1 -1.55.22 6.242 6.242 0 0 0 1.31-3.24l2.01-.28a6.861 6.861 0 0 1 -1.24 5.314 1.494 1.494 0 0 0 1.54-.22s.61 3.85-2.19 5.7a1.77 1.77 0 0 0 1.82-.26s.55 3.1-1.8 4.33a2.591 2.591 0 0 0 2.16-.29s-.13 4.35-3.012 5.2z" fill="#65b54e"/><path d="m68.65 33.05a1.632 1.632 0 0 1 -.02.22l-.09.01a1.625 1.625 0 0 0 .11-.23z" fill="#65b54e"/><g fill="#323c6b"><path d="m49.082 55.722-2.633-8.118 3.765 6.133z"/><path d="m51.793 50.275-2.937-8.842 3.967 6.949z"/><path d="m54.389 45.11-2.584-8.217 3.651 6.082z"/><path d="m50.351 53.186 8.074-2.765-7.165.668z"/><path d="m53.081 47.749 8.836-2.956-7.938.996z"/><path d="m55.657 42.573 8.123-2.863-7.056.729z"/><path d="m15.431 8.638a.5.5 0 0 1 -.3-.1 9.463 9.463 0 0 0 -2.444-1.338l-2.187-.727-.212.5a.5.5 0 0 1 -.7.244 25.645 25.645 0 0 0 -2.431-1.141.5.5 0 1 1 .381-.925c.737.3 1.42.616 2.039.931l.181-.425a.5.5 0 0 1 .618-.278l2.624.876a10.347 10.347 0 0 1 2.73 1.482.5.5 0 0 1 -.3.9z"/><path d="m19.472 10.756a.5.5 0 0 1 -.289-.092c-.228-.161-.454-.31-.676-.443a.5.5 0 0 1 .514-.858c.243.146.491.309.74.486a.5.5 0 0 1 -.29.908z"/><path d="m59.348 65a.5.5 0 0 1 -.153-.976 16.787 16.787 0 0 0 8.437-5.735.5.5 0 1 1 .8.6 17.774 17.774 0 0 1 -8.932 6.09.506.506 0 0 1 -.152.021z"/><path d="m71.083 60.226a.494.494 0 0 1 -.207-.045.5.5 0 0 1 -.248-.662c.084-.186.158-.366.231-.546l.076-.187a.5.5 0 1 1 .925.381l-.075.183c-.078.193-.157.386-.247.584a.5.5 0 0 1 -.455.292z"/><path d="m30.759 52.432-19.649-32.745 21.336 31.671a1 1 0 0 1 -1.659 1.118z"/><path d="m42.2 67.248 17.966-33.7-16.175 34.594a1 1 0 1 1 -1.812-.848z"/><path d="m52.521 63.067a24.581 24.581 0 0 1 -6.542-.921.488.488 0 0 1 -.173-.086c-8.4-6.49-10.016-15.437-7.274-20.92a20.83 20.83 0 0 1 4.25-5.8.5.5 0 0 1 .8.191 8.173 8.173 0 0 1 2.627-3.831.5.5 0 0 1 .805.309 3.511 3.511 0 0 0 .131.537 5.312 5.312 0 0 1 2.592-3.039.5.5 0 0 1 .724.483 1.247 1.247 0 0 0 0 .187 7.073 7.073 0 0 1 3.392-4.225.5.5 0 0 1 .733.47.913.913 0 0 0 .055.371 7.447 7.447 0 0 1 3.5-3.674.5.5 0 0 1 .644.214l.622 1.125c1.736-2.121 6.515-4.215 7.116-4.473a.5.5 0 0 1 .683.341c.154.636 1.347 5.715.692 8.377l1.274-.178a.5.5 0 0 1 .557.387 7.447 7.447 0 0 1 -.839 5 .91.91 0 0 0 .33-.179.5.5 0 0 1 .816.3 7.069 7.069 0 0 1 -1.343 5.248 1.155 1.155 0 0 0 .148-.11.5.5 0 0 1 .821.29 5.309 5.309 0 0 1 -.875 3.9 3.491 3.491 0 0 0 .508-.217.5.5 0 0 1 .5.02.5.5 0 0 1 .234.438 8.173 8.173 0 0 1 -1.49 4.4.5.5 0 0 1 .632.524 20.837 20.837 0 0 1 -2.089 6.878c-2.129 4.26-7.491 7.663-14.561 7.663zm-6.182-1.859c9.661 2.63 17.294-1.141 19.845-6.243a21 21 0 0 0 1.853-5.584 1.989 1.989 0 0 1 -1.823-.194.5.5 0 0 1 .166-.874c1.8-.533 2.378-2.746 2.563-3.95a2.667 2.667 0 0 1 -1.78-.021.5.5 0 0 1 -.025-.9 3.336 3.336 0 0 0 1.589-3.079 2.408 2.408 0 0 1 -1.591-.1.5.5 0 0 1 -.065-.871 5.2 5.2 0 0 0 2.024-4.5 2.113 2.113 0 0 1 -1.309-.115.5.5 0 0 1 -.179-.764 6.236 6.236 0 0 0 1.211-4.436l-1.615.225a.5.5 0 0 1 -.5-.75c.843-1.423.137-5.755-.334-7.913-2.008.919-5.9 2.954-6.53 4.481a.5.5 0 0 1 -.9.05l-.788-1.426a6.267 6.267 0 0 0 -2.822 3.629.5.5 0 0 1 -.719.315 2.135 2.135 0 0 1 -.878-.978 5.2 5.2 0 0 0 -2.383 4.318.5.5 0 0 1 -.735.47 2.406 2.406 0 0 1 -1.036-1.217 3.315 3.315 0 0 0 -1.508 3.123.5.5 0 0 1 -.732.519 2.663 2.663 0 0 1 -1.085-1.411c-.853.87-2.274 2.663-1.622 4.42a.5.5 0 0 1 -.6.656 2 2 0 0 1 -1.249-1.341 21.044 21.044 0 0 0 -3.356 4.832c-2.551 5.109-.99 13.476 6.913 19.629z"/><path d="m19.567 48.375c-6.016 0-10.8-2.645-13.083-6.231a20.835 20.835 0 0 1 -2.784-6.627.5.5 0 0 1 .575-.586 8.176 8.176 0 0 1 -1.936-4.231.5.5 0 0 1 .68-.531 3.55 3.55 0 0 0 .527.164 5.313 5.313 0 0 1 -1.271-3.787.5.5 0 0 1 .787-.372 1.2 1.2 0 0 0 .16.1 7.073 7.073 0 0 1 -1.877-5.083.5.5 0 0 1 .781-.387.91.91 0 0 0 .347.145 7.444 7.444 0 0 1 -1.35-4.892.5.5 0 0 1 .514-.442l1.286.045c-.923-2.581-.263-7.76-.175-8.405a.5.5 0 0 1 .645-.41c.625.195 5.593 1.787 7.539 3.718l.5-1.184a.5.5 0 0 1 .618-.278 7.441 7.441 0 0 1 3.862 3.299.911.911 0 0 0 .016-.375.5.5 0 0 1 .681-.543 7.075 7.075 0 0 1 3.809 3.853 1.179 1.179 0 0 0 -.018-.185.5.5 0 0 1 .67-.555 5.316 5.316 0 0 1 2.891 2.755 3.543 3.543 0 0 0 .075-.547.5.5 0 0 1 .769-.391 8.175 8.175 0 0 1 3.01 3.546.5.5 0 0 1 .775-.273 20.825 20.825 0 0 1 4.823 5.33c3.291 5.172 2.6 14.238-5.084 21.558a.513.513 0 0 1 -.163.1 23.652 23.652 0 0 1 -8.599 1.702zm-14.655-12.132a21.035 21.035 0 0 0 2.416 5.364c3.062 4.812 11.039 7.78 20.382 4.169 7.228-6.935 7.92-15.416 4.858-20.228a21.056 21.056 0 0 0 -3.835-4.461 2 2 0 0 1 -1.1 1.462.5.5 0 0 1 -.512-.093.5.5 0 0 1 -.152-.5c.469-1.822-1.13-3.456-2.068-4.232a2.661 2.661 0 0 1 -.934 1.517.5.5 0 0 1 -.782-.44 3.336 3.336 0 0 0 -1.823-2.946 2.406 2.406 0 0 1 -.9 1.313.5.5 0 0 1 -.78-.393 5.2 5.2 0 0 0 -2.814-4.05 2.129 2.129 0 0 1 -.772 1.063.5.5 0 0 1 -.748-.24 6.269 6.269 0 0 0 -3.18-3.32l-.638 1.5a.5.5 0 0 1 -.437.3.493.493 0 0 1 -.463-.262c-.787-1.456-4.864-3.079-6.956-3.786-.246 2.195-.5 6.577.481 7.9a.5.5 0 0 1 .041.531.49.49 0 0 1 -.46.267l-1.636-.047a6.265 6.265 0 0 0 1.66 4.287.5.5 0 0 1 -.1.779 2.172 2.172 0 0 1 -1.291.249 5.2 5.2 0 0 0 2.477 4.266.5.5 0 0 1 .025.873 2.416 2.416 0 0 1 -1.577.262 3.316 3.316 0 0 0 1.9 2.9.5.5 0 0 1 .068.895 2.668 2.668 0 0 1 -1.768.2c.308 1.179 1.113 3.32 2.956 3.666a.5.5 0 0 1 .254.852 2.011 2.011 0 0 1 -1.792.383z"/></g><path d="m19.122 44.879h-.046q-.611-.044-1.2-.129a.65.65 0 0 1 .188-1.286q.541.078 1.1.119a.65.65 0 0 1 -.045 1.3z" fill="#fff"/><path d="m15.437 44.166a.654.654 0 0 1 -.2-.033 11.832 11.832 0 0 1 -6.388-4.672c-.258-.405-.49-.806-.7-1.2a.65.65 0 0 1 1.146-.613c.194.363.41.736.649 1.112a10.537 10.537 0 0 0 5.7 4.135.65.65 0 0 1 -.2 1.268z" fill="#fff"/></g></svg>