<?xml version="1.0" encoding="iso-8859-1"?>
<!-- Generator: Adobe Illustrator 19.0.0, SVG Export Plug-In . SVG Version: 6.00 Build 0)  -->
<svg version="1.1" id="Capa_1" xmlns="http://www.w3.org/2000/svg" xmlns:xlink="http://www.w3.org/1999/xlink" x="0px" y="0px"
	 viewBox="0 0 512 512" style="enable-background:new 0 0 512 512;" xml:space="preserve">
<rect x="294.987" y="66.429" style="fill:#A5DC69;" width="31.99" height="27.869"/>
<path style="fill:#46C373;" d="M406.332,22.335c-4.035-9.923-15.221-14.789-25.263-11.063
	c-34.657,12.862-71.297,17.701-109.318,14.396c-36.882-3.205-61.414-13.307-62.008-13.554c-10.049-4.278-21.667,0.391-25.967,10.436
	c-4.306,10.06,0.359,21.704,10.418,26.01c1.184,0.507,29.488,12.455,72.43,16.431c9.156,0.849,18.299,1.27,27.413,1.27
	c34.577,0,68.663-6.069,100.849-17.926C405.364,44.478,410.537,32.678,406.332,22.335L406.332,22.335z"/>
<circle style="fill:#A5DC69;" cx="298.076" cy="298.156" r="203.856"/>
<path style="fill:#D7FA91;" d="M255.997,371.111c-83.791,0-157.671-42.392-201.385-106.894
	c-12.889-19.019-42.748-10.915-44.142,12.018c-0.28,4.609-0.414,9.256-0.396,13.94c0.46,117.248,95.312,211.711,212.561,211.71
	c92.057-0.001,170.434-58.524,199.979-140.394c7.824-21.679-16.409-40.949-35.826-28.532
	C349.026,357.109,304.148,371.111,255.997,371.111z"/>
<path style="fill:#E6AA46;" d="M394.953,338.032l-11.868-2.753c-36.979,22.724-80.501,35.832-127.088,35.832
	c-83.79,0-157.671-42.392-201.385-106.894c-1.903-2.808-4.183-5.01-6.679-6.675l-6.883-1.596l6.71,57.898
	c11.994,85.75,85.966,152.054,174.875,152.053c25.538,0,50.195-5.552,72.58-15.68c37.041-16.759,66.864-46.226,84.999-82.613
	L394.953,338.032z"/>
<path d="M449.291,146.937c-31.064-31.064-70.007-51.38-112.319-59.112V73.206c20.921-2.986,41.45-8.149,61.372-15.489
	c7.618-2.807,13.621-8.447,16.905-15.883c3.291-7.455,3.414-15.716,0.346-23.264c-6.096-14.992-22.789-22.314-38.003-16.669
	c-33.225,12.33-68.543,16.978-104.974,13.809c-35.149-3.054-58.799-12.726-58.957-12.792c-15.09-6.421-32.618,0.619-39.074,15.7
	c-6.467,15.111,0.565,32.668,15.674,39.134c1.242,0.532,30.933,13.075,75.443,17.196c6.393,0.593,12.848,0.97,19.285,1.161v8.601
	c-52.197,3.131-100.835,24.937-138.126,62.227c-37.505,37.505-59.35,86.49-62.282,139.029c-7.833-8.499-15.097-17.626-21.692-27.358
	c-8.324-12.282-22.982-17.679-37.345-13.743c-14.319,3.923-24.152,15.998-25.051,30.762c-0.294,4.83-0.434,9.737-0.414,14.584
	c0.173,44.116,13.173,86.681,37.594,123.09c3.076,4.587,9.286,5.811,13.871,2.733c4.586-3.075,5.809-9.285,2.733-13.871
	c-22.22-33.128-34.048-71.867-34.205-112.032c-0.018-4.418,0.109-8.89,0.377-13.292c0.449-7.387,5.655-11.399,10.378-12.693
	c0.351-0.096,0.714-0.177,1.083-0.249l5.922,51.094c0.009,0.078,0.02,0.156,0.03,0.234c6.168,44.101,28.152,84.698,61.902,114.312
	c34.064,29.892,77.703,46.352,122.873,46.352c26.595,0,52.4-5.574,76.701-16.569c38.577-17.453,70.478-48.444,89.826-87.262
	l14.738-29.57c0.401-0.805,0.672-1.639,0.842-2.48c1.495,0.575,2.842,1.365,3.97,2.265c3.831,3.061,7.024,8.823,4.499,15.82
	c-28.879,80.024-105.465,133.79-190.576,133.79c-42.823,0.001-83.723-13.135-118.279-37.985c-4.486-3.227-10.73-2.201-13.954,2.278
	c-3.223,4.483-2.202,10.73,2.279,13.954c37.979,27.311,82.916,41.748,129.953,41.747c12.784,0,25.417-1.08,37.802-3.192
	c12.349,2.192,25.006,3.312,37.639,3.312c57.121,0,110.823-22.244,151.214-62.634c40.39-40.391,62.634-94.093,62.634-151.214
	C511.925,241.03,489.681,187.328,449.291,146.937z M441.127,428.84c-11.519-7.085-24.922-10.164-38.173-8.974
	c8.8-12.146,16.367-25.188,22.581-38.98c9.424-0.612,18.656-2.614,27.4-5.924v39.669
	C449.222,419.554,445.282,424.296,441.127,428.84z M491.931,298.151c0,8.751-0.594,17.366-1.722,25.813l-17.281,14.931v-37.207
	c0-4.837-0.199-9.645-0.581-14.423h19.272C491.821,290.869,491.931,294.497,491.931,298.151z M472.928,364.505
	c2.902-1.988,5.714-4.124,8.398-6.443l1.553-1.343c-2.745,8.641-6.074,17.024-9.953,25.096v-17.311H472.928z M489.461,267.27
	h-19.864c-2.433-12.428-6.185-24.586-11.262-36.372c-2.185-5.069-8.067-7.411-13.137-5.225c-5.07,2.185-7.41,8.065-5.225,13.137
	c3.985,9.249,7.047,18.756,9.2,28.46h-39.741v-2.314c0-20.96-10.324-40.547-27.616-52.395l-31.128-21.325
	c6.089-9.99,13.05-19.469,20.819-28.303c9.39,5.247,18.242,11.421,26.368,18.44c1.89,1.632,4.216,2.432,6.53,2.432
	c2.805,0,5.593-1.174,7.57-3.462c3.609-4.179,3.147-10.492-1.03-14.1c-7.814-6.75-16.225-12.8-25.094-18.105l14.826-14.388
	C447.125,162.839,480.422,211.048,489.461,267.27z M201.801,354.715v-15.619h13.827c10.768,0,21.17-2.838,30.372-8.24v30.02
	C230.97,360.232,216.18,358.149,201.801,354.715z M149.446,335.325v-40.582c0-6.97,0.221-13.907,0.648-20.808
	c8.855,8.334,19.858,13.66,31.713,15.427v59.622C170.674,345.245,159.859,340.678,149.446,335.325z M104.164,304.864
	c0.086-0.571,0.134-1.154,0.119-1.751c-0.041-1.648-0.063-3.303-0.063-4.961c0-12.302,1.166-24.334,3.367-36.007h14.437
	c3.009,0,5.967,0.348,8.834,1.007c-0.933,10.452-1.407,20.985-1.407,31.59v29.031C120.627,318.066,112.181,311.747,104.164,304.864z
	 M126.773,207.489c3.979,2.165,8.044,4.149,12.177,5.963c-2.342,9.827-4.261,19.749-5.737,29.757
	c-3.653-0.697-7.394-1.059-11.187-1.059h-9.546C116.135,230.059,120.942,218.464,126.773,207.489z M298.076,104.296
	c10.034,0,19.893,0.767,29.52,2.244c-13.598,9.22-25.893,20.196-36.594,32.64c-10.536-0.362-21.069-2.855-30.624-7.278
	c-1.139-0.527-2.291-1.024-3.45-1.507c8.602-9.352,18.105-17.956,28.432-25.672C289.565,104.451,293.804,104.296,298.076,104.296z
	 M368.437,137.175c-15.178,14.729-28.01,31.313-38.356,49.496h-17.41c-10.446,0-20.798,1.009-30.967,3.008
	c5.067-10.795,11.274-21.009,18.549-30.454h36.052c5.52,0,9.997-4.477,9.997-9.997s-4.477-9.997-9.997-9.997h-17.832
	c10.971-10.226,23.452-19.061,37.236-26.19c9.211,2.874,18.128,6.421,26.697,10.578L368.437,137.175z M389.439,266.215
	c-7.006-1.65-13.437-5.206-18.653-10.424l-2.319-2.318c-10.317-10.317-23.774-16.342-38.214-17.212
	c2.951-9.37,6.57-18.522,10.832-27.369l29.432,20.164c11.849,8.117,18.923,21.538,18.923,35.9L389.439,266.215L389.439,266.215z
	 M358.179,316.297c-8.036,0-15.804-2.378-22.462-6.878l-6.29-4.252c-2.732-1.846-5.593-3.445-8.549-4.807v-3.498
	c0-13.744,1.433-27.392,4.196-40.73h1.544c10.468,0,20.309,4.076,27.711,11.477l2.318,2.317
	c9.013,9.014,20.423,14.756,32.792,16.645v29.724h-31.259V316.297z M295.77,294.863h-13.949c-5.403,0-10.714,0.715-15.828,2.108
	v-31.376c7.103-6.116,16.054-9.462,25.523-9.462h13.119c-2.378,12.786-3.626,25.794-3.729,38.956
	C299.204,294.945,297.493,294.863,295.77,294.863z M251.981,150.047c7.895,3.653,16.323,6.252,24.932,7.732
	c-1.108,1.673-2.195,3.362-3.25,5.074c-6.59,10.69-12.033,21.967-16.31,33.645l-6.216,2.236
	c-12.595,4.534-25.666,7.225-38.967,8.038c7.076-21.576,17.627-41.897,31.229-60.092
	C246.326,147.639,249.196,148.759,251.981,150.047z M318.466,210.169c-3.601,8.513-6.65,17.179-9.15,25.971h-17.799
	c-8.568,0-16.853,1.822-24.43,5.259c1.127-9.929,3.13-19.633,5.947-29.025c12.867-3.787,26.162-5.708,39.638-5.708H320
	C319.484,207.83,318.964,208.993,318.466,210.169z M244.596,258.545c-7.401,7.402-17.242,11.477-27.71,11.477h-15.064
	c0.097-14.588,1.741-28.999,4.821-43.02c14.906-0.286,29.603-2.633,43.825-6.987c-2.7,12.126-4.185,24.538-4.411,37.067
	L244.596,258.545z M201.801,290.017h15.085c10.373,0,20.33-2.666,29.114-7.647v24.307l-7.321,5.139
	c-6.787,4.766-14.758,7.284-23.052,7.284h-13.827V290.017z M235.724,124.22c-5.63-0.985-11.338-1.496-17.03-1.496h-3.056
	c10.299-4.859,21.09-8.836,32.279-11.835C243.674,115.182,239.6,119.624,235.724,124.22z M179.063,157.907l6.898-15.188h32.734
	c0.982,0,1.964,0.026,2.947,0.063c-13.316,19.523-23.566,41.027-30.327,63.709c-9.633-0.842-19.135-2.669-28.359-5.449
	C167.293,186.4,172.66,172.005,179.063,157.907z M186.402,226.105c-2.859,14.027-4.407,28.392-4.559,42.921
	c-6.935-1.585-13.329-5.033-18.542-10.106c-3.343-3.253-7.012-6.058-10.924-8.401c1.358-10.141,3.186-20.193,5.481-30.141
	C167.168,223.14,176.72,225.066,186.402,226.105z M265.994,318.11c4.967-2.138,10.326-3.254,15.828-3.254h13.949
	c1.721,0,3.426,0.131,5.113,0.347v41.575c-11.458,2.237-23.118,3.614-34.89,4.114V318.11z M320.878,323.522l3.644,2.462
	c9.977,6.743,21.616,10.307,33.657,10.307h2.578c-12.807,6.452-26.153,11.687-39.878,15.656v-28.425H320.878z M316.977,85.137
	c-3.978-0.346-7.977-0.586-11.996-0.713v-8.376c4.01-0.143,8.008-0.366,11.996-0.666V85.137z M198.129,39.372
	c-4.976-2.129-7.291-7.911-5.161-12.886c1.587-3.708,5.205-5.94,9.036-5.94c1.3,0,2.623,0.257,3.9,0.801
	c1.071,0.446,26.673,10.954,64.982,14.284c39.402,3.425,77.642-1.615,113.661-14.984c5.022-1.861,10.524,0.533,12.525,5.455
	c1.01,2.483,0.97,5.203-0.114,7.657c-1.076,2.436-3.038,4.282-5.526,5.198c-31.176,11.486-63.944,17.31-97.393,17.31
	c-8.794,0-17.706-0.413-26.491-1.227C226.135,51.205,199.255,39.855,198.129,39.372z M152.067,170.776
	c-2.895,7.642-5.514,15.355-7.857,23.137c-2.416-1.125-4.795-2.334-7.15-3.597C141.652,183.482,146.667,176.957,152.067,170.776z
	 M291.095,441.106c-21.693,9.815-44.726,14.792-68.458,14.792c-82.572,0.001-153.468-61.609-164.958-143.325l-3.723-32.115
	c21.844,28.923,49.287,52.441,80.267,69.445c0.32,0.197,0.651,0.376,0.993,0.537c16.782,9.115,34.588,16.326,53.091,21.458
	c0.557,0.208,1.136,0.37,1.734,0.477c21.248,5.731,43.397,8.731,65.956,8.731c42.874,0,84.676-10.765,121.892-31.249l-6.621,13.284
	C353.965,397.855,325.493,425.544,291.095,441.106z M409.432,320.465v-33.201h42.845c0.43,4.775,0.659,9.583,0.659,14.423v51.46
	c-6.158,3.093-12.717,5.326-19.497,6.624c2.467-12.392-2.045-24.965-12.246-33.115C417.584,323.774,413.594,321.709,409.432,320.465
	z M351.88,470.522c9.106-6.508,17.645-13.626,25.58-21.291l14.309-6.167c11.169-4.813,23.666-4.519,34.426,0.438
	c-29.819,26.315-67.762,43.618-109.537,47.61C328.911,485.385,340.695,478.514,351.88,470.522z"/>
<path d="M78.759,432.06l-0.034-0.035c-3.865-3.945-10.194-4.008-14.138-0.145c-3.943,3.864-4.009,10.192-0.146,14.137l0.141,0.143
	c1.958,1.998,4.549,3,7.142,3c2.524,0,5.05-0.95,6.996-2.855c3.943-3.864,4.009-10.192,0.146-14.137L78.759,432.06z"/>
<path d="M424.053,210.313c1.955,2.702,5.009,4.139,8.107,4.139c2.03,0,4.081-0.617,5.852-1.897
	c4.462-3.228,5.471-9.454,2.265-13.925c-3.131-4.532-9.343-5.674-13.886-2.552c-4.551,3.128-5.702,9.351-2.574,13.901
	L424.053,210.313z"/>
<path d="M205.611,389.439c-5.273-1.604-10.868,1.365-12.478,6.646l-1.361,4.463c-1.609,5.28,1.366,10.868,6.646,12.478
	c0.972,0.296,1.953,0.438,2.92,0.438c4.282,0,8.244-2.774,9.559-7.084l1.361-4.463C213.867,396.637,210.891,391.05,205.611,389.439z
	"/>
<path d="M242.769,394.235c-5.52,0-9.997,4.477-9.997,9.997v6.998c0,5.52,4.477,9.997,9.997,9.997s9.997-4.477,9.997-9.997v-6.998
	C252.766,398.71,248.289,394.235,242.769,394.235z"/>
<path d="M292.273,395.23c-3.078-4.586-9.289-5.805-13.872-2.727c-4.584,3.077-5.805,9.288-2.727,13.872l3.573,5.321
	c1.929,2.874,5.089,4.426,8.308,4.426c1.916,0,3.853-0.55,5.563-1.698c4.584-3.077,5.805-9.288,2.727-13.872L292.273,395.23z"/>
<path d="M167.623,376.24c-4.42-3.313-10.685-2.416-13.996,1.999l-3.999,5.332c-3.312,4.418-2.417,10.684,1.999,13.996
	c1.799,1.35,3.903,2,5.99,2c3.039,0,6.042-1.382,8.005-4l3.999-5.332C172.935,385.818,172.04,379.552,167.623,376.24z"/>
<path d="M129.924,355.123c-4.699-2.902-10.857-1.445-13.759,3.252l-3.081,4.988c-2.901,4.698-1.445,10.858,3.252,13.759
	c1.637,1.012,3.451,1.493,5.243,1.493c3.352,0,6.625-1.684,8.515-4.745l3.081-4.988
	C136.077,364.183,134.621,358.023,129.924,355.123z"/>
<g>
</g>
<g>
</g>
<g>
</g>
<g>
</g>
<g>
</g>
<g>
</g>
<g>
</g>
<g>
</g>
<g>
</g>
<g>
</g>
<g>
</g>
<g>
</g>
<g>
</g>
<g>
</g>
<g>
</g>
</svg>
