<svg height="512" viewBox="0 0 74 74" width="512" xmlns="http://www.w3.org/2000/svg"><g id="color_line" data-name="color line"><path d="m59.5 42.607c-5.472 4.316-13.777 12.846-14.074 25.038v.655a2.7 2.7 0 0 1 -2.7 2.7h-6.68a2.7 2.7 0 0 1 -2.7-2.7v-.655c-.3-12.192-8.6-20.722-14.074-25.038a11.954 11.954 0 0 0 5.482-2.127s8.816 5.6 11.292 14.534l.532-17.019h.44a16.363 16.363 0 0 0 2.363.164 16.607 16.607 0 0 0 2.373-.164h.45l.522 17.019c2.474-8.929 11.29-14.534 11.29-14.534a11.954 11.954 0 0 0 5.484 2.127z" fill="#79c45b"/><path d="m33.346 68v.3a2.7 2.7 0 0 0 2.7 2.7h6.679a2.7 2.7 0 0 0 2.7-2.7v-.3z" fill="#65b54e"/><path d="m40.465 55.01-.52-16.86a15.406 15.406 0 0 0 1.81-.16h.45l.37 17.02c-.856-.093-1.109.041-2.11 0z" fill="#65b54e"/><path d="m58.975 42.61c-5.47 4.31-13.77 12.84-14.07 25.04v.65a2.708 2.708 0 0 1 -2.7 2.7h-2.26a2.708 2.708 0 0 0 2.7-2.7v-.65c.28-11.51 8.58-20.89 14.12-25.53h.01a11.51 11.51 0 0 0 2.2.49z" fill="#65b54e"/><path d="m65.489 19.473a7.995 7.995 0 0 0 -11.946-9.283 17.534 17.534 0 0 0 -28.316 0 7.991 7.991 0 0 0 -11.945 9.283 12.051 12.051 0 1 0 15.8 15.33 17.49 17.49 0 0 0 20.6 0 12.049 12.049 0 1 0 15.8-15.33z" fill="#6fc666"/><path d="m70.6 37.94a11.771 11.771 0 0 0 .83-4.38 12.046 12.046 0 0 0 -7.56-11.18 8 8 0 0 0 -11.95-9.29 17.529 17.529 0 0 0 -28.31 0 7.994 7.994 0 0 0 -10.41 1.43 8 8 0 0 1 7.65-5.64 7.921 7.921 0 0 1 4.38 1.31 17.538 17.538 0 0 1 28.32 0 7.985 7.985 0 0 1 11.94 9.28 12.055 12.055 0 0 1 5.11 18.47z" fill="#65b54e"/><g fill="#323c6b"><path d="m11.925 29.074a.5.5 0 0 1 -.5-.5 4.57 4.57 0 0 1 4.564-4.564.5.5 0 1 1 0 1 3.568 3.568 0 0 0 -3.564 3.564.5.5 0 0 1 -.5.5z"/><path d="m21.435 34.61a.5.5 0 0 1 -.5-.5 4.393 4.393 0 0 1 4.388-4.388.5.5 0 1 1 0 1 3.391 3.391 0 0 0 -3.388 3.388.5.5 0 0 1 -.5.5z"/><path d="m25.858 21.212a.5.5 0 0 1 -.5-.5 4.572 4.572 0 0 1 4.566-4.566.5.5 0 0 1 0 1 3.57 3.57 0 0 0 -3.566 3.566.5.5 0 0 1 -.5.5z"/><path d="m66.846 29.074a.5.5 0 0 1 -.5-.5 3.568 3.568 0 0 0 -3.564-3.564.5.5 0 0 1 0-1 4.57 4.57 0 0 1 4.564 4.564.5.5 0 0 1 -.5.5z"/><path d="m57.336 34.61a.5.5 0 0 1 -.5-.5 3.391 3.391 0 0 0 -3.388-3.388.5.5 0 0 1 0-1 4.393 4.393 0 0 1 4.388 4.388.5.5 0 0 1 -.5.5z"/><path d="m52.912 21.212a.5.5 0 0 1 -.5-.5 3.57 3.57 0 0 0 -3.566-3.566.5.5 0 0 1 0-1 4.572 4.572 0 0 1 4.566 4.566.5.5 0 0 1 -.5.5z"/><path d="m42.754 12.489a.5.5 0 0 1 -.371-.166 4.268 4.268 0 0 0 -6.02-.315.5.5 0 0 1 -.67-.743 5.263 5.263 0 0 1 7.432.389.5.5 0 0 1 -.371.834z"/><path d="m42.345 28.44a.5.5 0 0 1 -.371-.166 3.732 3.732 0 0 0 -5.265-.274.5.5 0 0 1 -.67-.743 4.732 4.732 0 0 1 6.677.35.5.5 0 0 1 -.371.834z"/><path d="m51.24 57.417a.5.5 0 0 1 -.445-.727 34.753 34.753 0 0 1 6.342-8.625.5.5 0 0 1 .711.7 33.728 33.728 0 0 0 -6.162 8.375.5.5 0 0 1 -.446.277z"/><path d="m49.831 60.75a.5.5 0 0 1 -.472-.667l.1-.294c.052-.158.1-.315.162-.468a.5.5 0 1 1 .934.358c-.053.138-.1.28-.146.422l-.106.315a.5.5 0 0 1 -.472.334z"/><path d="m23.322 6.67a.5.5 0 0 1 -.112-.013 10.777 10.777 0 0 0 -1.076-.188.5.5 0 0 1 .127-.992c.4.051.788.117 1.174.206a.5.5 0 0 1 -.112.987z"/><path d="m26.2 5.333a.5.5 0 0 1 -.32-.884 21.092 21.092 0 0 1 11.26-4.799.511.511 0 0 1 .551.443.5.5 0 0 1 -.443.551 20.1 20.1 0 0 0 -10.73 4.573.5.5 0 0 1 -.318.116z"/><path d="m60.991 43.208a12.6 12.6 0 0 1 -11.538-7.633 17.984 17.984 0 0 1 -20.137 0 12.549 12.549 0 1 1 -16.647-16.385 8.41 8.41 0 0 1 -.324-2.307 8.5 8.5 0 0 1 12.755-7.357 18.03 18.03 0 0 1 28.565 0 8.49 8.49 0 0 1 12.435 9.664 12.552 12.552 0 0 1 -5.11 24.019zm-11.306-8.908a.512.512 0 0 1 .146.021.5.5 0 0 1 .324.306 11.549 11.549 0 1 0 15.145-14.69.5.5 0 0 1 -.286-.626 7.495 7.495 0 0 0 -11.2-8.7.5.5 0 0 1 -.678-.122 17.033 17.033 0 0 0 -27.509 0 .5.5 0 0 1 -.678.122 7.492 7.492 0 0 0 -11.2 8.7.5.5 0 0 1 -.286.626 11.551 11.551 0 1 0 15.152 14.694.5.5 0 0 1 .764-.232 16.988 16.988 0 0 0 20.012 0 .5.5 0 0 1 .294-.099z"/></g><path d="m18.25 39.275q-.384 0-.761-.027a.651.651 0 0 1 -.6-.7.666.666 0 0 1 .7-.6 9.432 9.432 0 0 0 1.227.007.67.67 0 0 1 .687.61.65.65 0 0 1 -.61.688c-.217.015-.429.022-.643.022z" fill="#fff"/><path d="m14.821 38.646a.653.653 0 0 1 -.231-.043 10.35 10.35 0 0 1 -6.148-6.545.65.65 0 0 1 1.242-.386 9.036 9.036 0 0 0 5.369 5.716.65.65 0 0 1 -.231 1.258z" fill="#fff"/><path d="m42.725 71.5h-6.679a3.2 3.2 0 0 1 -3.2-3.2v-.655c-.296-12.145-8.825-20.655-13.883-24.645a.5.5 0 0 1 .249-.889 11.5 11.5 0 0 0 5.253-2.039.5.5 0 0 1 .558-.014c.33.21 7.393 4.769 10.607 12.273l.448-14.352a.5.5 0 0 1 .5-.484h.439a16.929 16.929 0 0 0 4.663.005l.522-.005a.5.5 0 0 1 .5.485l.439 14.348c3.215-7.5 10.275-12.059 10.605-12.269a.5.5 0 0 1 .558.014 11.5 11.5 0 0 0 5.253 2.039.5.5 0 0 1 .249.889c-5.056 3.989-13.585 12.499-13.881 24.656v.643a3.2 3.2 0 0 1 -3.2 3.2zm-22.277-28.584c5.246 4.349 13.107 12.825 13.4 24.717v.667a2.2 2.2 0 0 0 2.2 2.2h6.679a2.2 2.2 0 0 0 2.2-2.2v-.655c.29-11.9 8.151-20.38 13.4-24.729a12.539 12.539 0 0 1 -4.31-1.831c-1.489 1.027-8.654 6.3-10.807 14.063a.494.494 0 0 1 -.541.363.5.5 0 0 1 -.44-.481l-.51-16.53a17.747 17.747 0 0 1 -4.656.006l-.517 16.523a.5.5 0 0 1 -.44.481.493.493 0 0 1 -.541-.363c-2.152-7.761-9.317-13.036-10.807-14.063a12.539 12.539 0 0 1 -4.31 1.832z" fill="#323c6b"/></g></svg>