<?xml version="1.0" encoding="iso-8859-1"?>
<!-- Generator: Adobe Illustrator 19.0.0, SVG Export Plug-In . SVG Version: 6.00 Build 0)  -->
<svg version="1.1" id="Capa_1" xmlns="http://www.w3.org/2000/svg" xmlns:xlink="http://www.w3.org/1999/xlink" x="0px" y="0px"
	 viewBox="0 0 511.998 511.998" style="enable-background:new 0 0 511.998 511.998;" xml:space="preserve">
<path style="fill:#A5DC69;" d="M314.198,361.908C208.81,467.295,103.762,533.117,55.423,484.776s17.481-153.387,122.869-258.775
	S388.975,55.039,437.067,103.132S419.586,256.52,314.198,361.908z"/>
<path style="fill:#46C373;" d="M160.734,204.216c0,0-43.562,18.928-55.702,45.351c6.91,9.464,39.135,12.09,39.135,12.09l0.021-0.016
	c10.793-11.822,22.192-23.727,34.104-35.639c61.241-61.241,122.446-109.029,172.418-128.889l4.98-3.967
	c0,0-49.275-73.454-162.821-83.13c-1.428,28.171,17.139,83.645,17.139,83.645s-93.377-40.16-184.07,9.114
	C78.069,192.753,160.734,204.216,160.734,204.216z"/>
<circle style="fill:#D7FA91;" cx="379.959" cy="396.05" r="106.005"/>
<g>
	<path style="fill:#46C373;" d="M368.031,343.337l11.926,20.655l11.926-20.655c3.506-6.073,1.889-13.812-3.757-17.971l0,0
		c-4.857-3.579-11.48-3.579-16.337,0l0,0C366.142,329.526,364.524,337.264,368.031,343.337z"/>
	<path style="fill:#46C373;" d="M391.882,448.759l-11.926-20.655l-11.926,20.655c-3.506,6.073-1.888,13.812,3.757,17.971l0,0
		c4.857,3.579,11.48,3.579,16.337,0l0,0C393.771,462.571,395.388,454.833,391.882,448.759z"/>
	<path style="fill:#46C373;" d="M340.27,432.732l11.926-20.655h-23.851c-7.012,0-12.906,5.27-13.685,12.24l0,0
		c-0.671,5.996,2.64,11.731,8.168,14.148l0,0C329.254,441.273,336.763,438.805,340.27,432.732z"/>
	<path style="fill:#46C373;" d="M419.643,359.365l-11.926,20.655h23.851c7.012,0,12.906-5.27,13.685-12.24l0,0
		c0.671-5.996-2.64-11.731-8.168-14.148l0,0C430.66,350.824,423.149,353.291,419.643,359.365z"/>
	<path style="fill:#46C373;" d="M431.569,412.076h-23.851l11.926,20.655c3.506,6.073,11.017,8.541,17.442,5.732l0,0
		c5.528-2.417,8.839-8.151,8.168-14.148l0,0C444.473,417.347,438.581,412.076,431.569,412.076z"/>
	<path style="fill:#46C373;" d="M328.345,380.021h23.851l-11.926-20.655c-3.506-6.073-11.017-8.541-17.442-5.732l0,0
		c-5.528,2.417-8.839,8.151-8.168,14.148l0,0C315.439,374.751,321.331,380.021,328.345,380.021z"/>
</g>
<path d="M162.886,469.954l-0.497,0.268c-4.869,2.606-6.703,8.667-4.097,13.537c1.803,3.366,5.256,5.282,8.825,5.282
	c1.593,0,3.208-0.382,4.711-1.186l0.497-0.268c4.869-2.606,6.703-8.667,4.097-13.537
	C173.816,469.183,167.757,467.349,162.886,469.954z"/>
<path d="M167.748,434.575l6.929-6.929c3.905-3.905,3.905-10.238,0-14.144c-3.906-3.904-10.237-3.904-14.144,0l-6.929,6.929
	c-3.905,3.905-3.905,10.238,0,14.144c1.953,1.952,4.512,2.929,7.071,2.929C163.235,437.504,165.795,436.527,167.748,434.575z"/>
<path d="M398.964,281.656c61.463-79.847,79.149-140.975,51.571-178.19c2.468-3.869,2.019-9.062-1.36-12.442
	c-2.446-2.444-5.841-3.358-8.997-2.741c-6.643-4.165-12.158-9.945-16-16.858c-9.471-17.048-3.308-38.622,13.738-48.093
	c6.141-3.411,13.241-4.228,19.993-2.298c6.753,1.929,12.352,6.372,15.763,12.513c2.469,4.443,3.06,9.583,1.663,14.473
	s-4.613,8.94-9.058,11.411c-3.088,1.717-6.659,2.125-10.058,1.156c-3.397-0.971-6.214-3.206-7.93-6.294
	c-2.298-4.137-0.803-9.371,3.334-11.671c4.827-2.683,6.566-8.771,3.884-13.6c-2.684-4.828-8.773-6.565-13.6-3.884
	c-13.776,7.655-18.757,25.091-11.103,38.868c4.311,7.758,11.386,13.374,19.92,15.812c8.536,2.439,17.507,1.406,25.266-2.904
	c18.814-10.455,25.617-34.267,15.163-53.081c-6.006-10.811-15.862-18.634-27.751-22.03c-11.892-3.396-24.391-1.96-35.201,4.047
	c-25.518,14.178-35.441,45.675-23.299,71.741c-4.569-0.502-9.331-0.634-14.302-0.352c-9.287,0.524-19.313,2.465-29.995,5.776
	c-5.522-7.008-17.869-21.129-37.808-35.849C297.573,28.539,254.701,5.248,193.72,0.05c-2.709-0.234-5.383,0.647-7.425,2.43
	c-2.043,1.783-3.274,4.319-3.412,7.028c-0.974,19.205,6.352,49.078,11.869,68.443c-10.484-2.982-24.771-6.263-41.655-8.152
	c-33.067-3.701-82.798-2.507-131.932,24.187c-2.372,1.289-4.122,3.482-4.853,6.081c-0.73,2.6-0.379,5.383,0.975,7.719
	c28.135,48.564,65.011,74.838,90.992,88.326c9.488,4.926,18.239,8.557,25.72,11.214c-14.034,8.862-30.697,22.057-38.053,38.065
	c-1.513,3.292-1.126,7.146,1.011,10.072c4.417,6.052,13.157,10.291,27.435,13.323c-32.922,37.559-58.128,72.676-74.059,103.391
	c-12.81,24.697-19.844,46.914-20.909,66.035c-1.216,21.814,5.152,39.858,18.929,53.635c12.725,12.725,28.901,19.106,48.311,19.106
	c9.479,0,19.729-1.522,30.723-4.572c5.322-1.476,8.439-6.986,6.963-12.31c-1.475-5.321-6.99-8.438-12.31-6.963
	c-26.415,7.326-45.89,4.25-59.544-9.404c-19.384-19.383-17.502-51.789,5.592-96.318c21.876-42.181,62.43-93.467,117.277-148.314
	c54.746-54.747,106.061-95.267,148.4-117.181c44.562-23.067,76.942-24.981,96.234-5.688c14.749,14.749,17.036,37.454,6.798,67.486
	c-9.885,28.995-30.785,63.475-62.14,102.529c-27.915,1.266-55.457,12.531-76.726,33.8c-22.52,22.52-33.823,52.071-33.919,81.651
	c-22.267,19.875-43.677,37.017-63.686,50.976c-4.529,3.16-5.64,9.394-2.479,13.924c1.944,2.787,5.052,4.279,8.21,4.279
	c1.975,0,3.971-0.584,5.713-1.8c17.381-12.126,35.741-26.537,54.744-42.955c4.472,21.263,14.94,41.505,31.417,57.982
	c22.615,22.615,52.322,33.923,82.028,33.923c29.707,0,59.413-11.308,82.028-33.923c45.231-45.231,45.231-118.826,0-164.057
	C444.211,296.246,422.056,285.461,398.964,281.656z M324.568,98.131c-11.671,6.041-23.968,13.418-36.776,22.021l-25.109-44.078
	c-2.735-4.798-8.838-6.475-13.641-3.739c-4.799,2.734-6.473,8.841-3.739,13.641l26.033,45.699
	c-11.215,8.17-22.77,17.214-34.598,27.065l-71.359-22.65c-5.258-1.669-10.887,1.241-12.558,6.506
	c-1.671,5.264,1.242,10.887,6.506,12.558l59.549,18.902c-15.533,13.692-31.464,28.681-47.658,44.877
	c-10.893,10.894-21.236,21.661-31.012,32.267c-8.16-1.003-16.36-2.819-21.653-4.697c11.922-15.691,36.477-28.883,46.164-33.11
	c4.102-1.782,6.509-6.073,5.913-10.507c-0.596-4.432-4.074-7.932-8.501-8.567c-0.196-0.028-19.927-2.977-45.414-16.357
	c-31.054-16.304-56.788-40.215-76.622-71.167c33.22-15.758,70.204-21.538,110.113-17.188c32.97,3.596,55.636,13.152,55.849,13.243
	c3.622,1.557,7.82,0.843,10.723-1.827c2.902-2.67,3.964-6.795,2.713-10.534c-4.271-12.759-14.187-46.354-16.3-69.315
	c49.981,6.422,85.504,25.823,106.992,41.543c14.463,10.58,24.568,20.866,30.565,27.721
	C335.483,92.717,330.092,95.271,324.568,98.131z M447.842,463.934c-37.432,37.434-98.339,37.434-135.771,0
	c-37.433-37.432-37.433-98.339,0-135.771c18.716-18.717,43.301-28.074,67.885-28.074s49.169,9.357,67.885,28.074
	C485.275,365.595,485.275,426.502,447.842,463.934z"/>
<path d="M371.296,368.992c1.786,3.094,5.088,5,8.66,5s6.874-1.906,8.66-5l11.926-20.655c6.061-10.497,3.271-23.833-6.485-31.023
	c-8.434-6.214-19.769-6.214-28.2,0c-9.758,7.188-12.547,20.525-6.485,31.023L371.296,368.992z M377.72,333.417
	c0.669-0.493,1.452-0.739,2.236-0.739c0.783,0,1.567,0.246,2.236,0.739c1.547,1.14,1.989,3.255,1.028,4.919l-3.265,5.654
	l-3.265-5.654C375.73,336.673,376.173,334.558,377.72,333.417z"/>
<path d="M388.617,423.104c-1.786-3.094-5.088-5-8.66-5s-6.874,1.906-8.66,5L359.37,443.76c-6.061,10.497-3.271,23.833,6.485,31.023
	c4.217,3.107,9.157,4.661,14.101,4.66c4.941,0,9.885-1.554,14.101-4.66c9.757-7.188,12.547-20.525,6.485-31.023L388.617,423.104z
	 M382.192,458.68c-1.338,0.985-3.135,0.986-4.473,0c-1.547-1.14-1.989-3.255-1.028-4.919l3.265-5.654l3.265,5.654
	C384.182,455.425,383.739,457.54,382.192,458.68z"/>
<path d="M360.855,407.076c-1.786-3.094-5.088-5-8.66-5h-23.851c-12.119,0-22.275,9.082-23.624,21.129
	c-1.163,10.411,4.504,20.225,14.102,24.421c3.095,1.354,6.333,1.999,9.525,1.999c8.26,0,16.213-4.322,20.583-11.894l11.926-20.655
	C362.642,413.983,362.642,410.17,360.855,407.076z M326.835,429.301c-1.522-0.666-2.421-2.223-2.237-3.873
	c0.214-1.91,1.825-3.351,3.747-3.351h6.529l-3.265,5.654C330.648,429.395,328.595,430.067,326.835,429.301z"/>
<path d="M410.982,354.366L410.982,354.366l-11.926,20.654c-1.786,3.094-1.786,6.906,0,10s5.088,5,8.66,5h23.851
	c12.119,0,22.275-9.082,23.623-21.127c1.165-10.412-4.501-20.227-14.1-24.423C429.987,339.614,417.043,343.868,410.982,354.366z
	 M435.315,366.669c-0.214,1.91-1.825,3.351-3.747,3.351h-6.529l3.265-5.654c0,0,0,0,0-0.001c0.961-1.665,3.014-2.335,4.775-1.568
	C434.602,363.462,435.5,365.019,435.315,366.669z"/>
<path d="M431.568,402.076h-23.851c-3.572,0-6.874,1.906-8.66,5s-1.786,6.906,0,10.001l11.926,20.655
	c4.371,7.57,12.323,11.895,20.583,11.895c3.192,0,6.431-0.646,9.525-2c9.599-4.196,15.266-14.012,14.101-24.423
	C453.844,411.158,443.687,402.076,431.568,402.076z M433.078,429.301c-1.758,0.771-3.813,0.096-4.774-1.569l-3.265-5.654h6.529
	c1.922,0,3.533,1.44,3.746,3.351C435.5,427.078,434.602,428.635,433.078,429.301z"/>
<path d="M328.345,390.021h23.851c3.572,0,6.874-1.906,8.66-5s1.786-6.906,0-10l-11.926-20.654
	c-6.059-10.498-19.005-14.752-30.11-9.895c-9.596,4.196-15.264,14.011-14.1,24.423C306.068,380.938,316.226,390.021,328.345,390.021
	z M326.833,362.796c0.491-0.215,1.005-0.316,1.512-0.316c1.31,0,2.57,0.686,3.264,1.886l3.265,5.654h-6.529
	c-1.922,0-3.533-1.44-3.746-3.349C324.413,365.019,325.311,363.462,326.833,362.796z"/>
<path d="M88.636,422.168l-6.533,6.533c-3.905,3.905-3.905,10.238,0,14.144c1.953,1.952,4.512,2.929,7.071,2.929
	s5.118-0.977,7.071-2.929l6.533-6.533c3.905-3.905,3.905-10.238,0-14.144C98.874,418.264,92.544,418.264,88.636,422.168z"/>
<path d="M160.944,338.291c3.905-3.905,3.905-10.238-0.001-14.143c-3.904-3.906-10.238-3.905-14.143,0.001l-6.928,6.929
	c-3.905,3.905-3.905,10.238,0.001,14.143c1.952,1.953,4.511,2.929,7.07,2.929c2.559,0,5.119-0.977,7.071-2.93L160.944,338.291z"/>
<path d="M215.254,243.216l-5.921,5.921c-3.905,3.905-3.905,10.238,0,14.144c1.953,1.952,4.512,2.929,7.071,2.929
	c2.559,0,5.118-0.977,7.071-2.929l5.921-5.921c3.905-3.905,3.905-10.238,0-14.144C225.49,239.311,219.16,239.311,215.254,243.216z"
	/>
<path d="M207.127,392.859c1.952,1.953,4.512,2.929,7.07,2.929c2.56,0,5.119-0.977,7.071-2.93l5.166-5.167
	c3.905-3.905,3.904-10.238-0.001-14.143c-3.905-3.907-10.239-3.904-14.143,0.001l-5.166,5.167
	C203.22,382.623,203.221,388.955,207.127,392.859z"/>
<path d="M295.214,247.843c-3.905,3.905-3.905,10.238,0,14.144c1.953,1.952,4.512,2.929,7.071,2.929s5.118-0.977,7.071-2.929
	l3.333-3.333c3.905-3.905,3.905-10.238,0-14.144c-3.906-3.904-10.237-3.904-14.144,0L295.214,247.843z"/>
<path d="M229.027,323.793c1.953,1.952,4.512,2.929,7.071,2.929c2.559,0,5.118-0.977,7.071-2.929l7.267-7.267
	c3.905-3.905,3.905-10.238,0-14.144c-3.906-3.904-10.237-3.904-14.144,0l-7.267,7.267
	C225.121,313.555,225.121,319.888,229.027,323.793z"/>
<path d="M360.853,217.959l-3.481,3.481c-3.905,3.905-3.905,10.238,0,14.144c1.953,1.952,4.512,2.929,7.071,2.929
	c2.559,0,5.118-0.977,7.071-2.929l3.481-3.481c3.905-3.905,3.905-10.238,0-14.144C371.091,214.054,364.76,214.054,360.853,217.959z"
	/>
<path d="M317.558,192.566l3.221-3.221c3.905-3.905,3.905-10.238,0-14.144c-3.906-3.904-10.237-3.904-14.144,0l-3.221,3.221
	c-3.905,3.905-3.905,10.238,0,14.144c1.953,1.952,4.512,2.929,7.071,2.929C313.045,195.495,315.604,194.518,317.558,192.566z"/>
<path d="M387.028,163.432l5.333-5.333c3.905-3.905,3.905-10.238,0-14.144c-3.906-3.904-10.237-3.904-14.144,0l-5.333,5.333
	c-3.905,3.905-3.905,10.238,0,14.144c1.953,1.952,4.512,2.929,7.071,2.929S385.074,165.385,387.028,163.432z"/>
<path d="M127.428,124.535c-2.63,0-5.21,1.07-7.07,2.93c-1.859,1.86-2.93,4.44-2.93,7.07s1.07,5.21,2.93,7.07
	c1.86,1.859,4.44,2.93,7.07,2.93c2.63,0,5.21-1.07,7.07-2.93c1.859-1.86,2.93-4.44,2.93-7.07s-1.07-5.21-2.93-7.07
	C132.639,125.605,130.069,124.535,127.428,124.535z"/>
<g>
</g>
<g>
</g>
<g>
</g>
<g>
</g>
<g>
</g>
<g>
</g>
<g>
</g>
<g>
</g>
<g>
</g>
<g>
</g>
<g>
</g>
<g>
</g>
<g>
</g>
<g>
</g>
<g>
</g>
</svg>
