<svg height="512" viewBox="0 0 74 74" width="512" xmlns="http://www.w3.org/2000/svg"><g id="color_line" data-name="color line"><path d="m43.409 66.674c15.979-.39 20.851-12.517 19.67-20.921-1.321-9.365-6.073-11.616-15.308-18.08s-5.671-24.673-5.671-24.673l-8.887 3.832s2.241 14.378-6.994 20.841-13.987 8.715-15.3 18.08c-1.181 8.4 3.682 20.521 19.66 20.921" fill="#e1e6e9"/><path d="m54.73 63.69a18.37 18.37 0 0 0 5.47-15.77c-1.32-9.37-6.07-11.62-15.3-18.08-7.74-5.42-6.74-20.58-6.2-25.37l3.4-1.47s-3.56 18.21 5.67 24.67 13.99 8.72 15.31 18.08a18.072 18.072 0 0 1 -8.35 17.94z" fill="#d5d6db"/><path d="m37 68.331a18.324 18.324 0 0 1 -5.791-.905c-14.369-4.779-14.242-17.603-12.888-24.826a.505.505 0 0 1 .583-.4.5.5 0 0 1 .4.583c-1.294 6.9-1.428 19.15 12.219 23.688a18.048 18.048 0 0 0 10.95 0c13.646-4.538 13.512-16.79 12.218-23.689a.5.5 0 0 1 .4-.583.506.506 0 0 1 .583.4c1.354 7.22 1.482 20.045-12.884 24.823a18.326 18.326 0 0 1 -5.79.909z" fill="#323c6b"/><path d="m37 68.331a8.2 8.2 0 0 1 -6.212-2.8c-2.747-3.172-4.141-7.975-4.141-14.275.039-5.985 2.044-10.821 3.507-14.353.339-.816.647-1.562.9-2.236a.5.5 0 1 1 .938.346c-.252.685-.566 1.443-.91 2.273-1.432 3.455-3.393 8.187-3.431 13.973 0 6.049 1.311 10.632 3.9 13.617a7.28 7.28 0 0 0 10.91 0c2.586-2.984 3.9-7.566 3.9-13.62-.039-5.784-2-10.517-3.432-13.972-.344-.829-.657-1.587-.909-2.271a.5.5 0 1 1 .938-.346c.248.673.558 1.418.9 2.234 1.463 3.532 3.468 8.369 3.508 14.352 0 6.3-1.394 11.107-4.142 14.278a8.2 8.2 0 0 1 -6.224 2.8z" fill="#323c6b"/><path d="m31.519 52.276a.651.651 0 0 1 -.65-.645v-.379a38.272 38.272 0 0 1 1.383-9.138.65.65 0 0 1 1.25.355 37.37 37.37 0 0 0 -1.332 8.787v.365a.651.651 0 0 1 -.646.655z" fill="#fff"/><path d="m31.711 56.191a.65.65 0 0 1 -.646-.581c-.028-.271-.056-.546-.078-.828a.65.65 0 1 1 1.295-.105q.034.406.076.8a.65.65 0 0 1 -.577.715.678.678 0 0 1 -.07-.001z" fill="#fff"/><g fill="#323c6b"><path d="m30.66 70.433a.5.5 0 0 1 -.46-.695l1.186-2.8a.5.5 0 1 1 .92.39l-1.186 2.8a.5.5 0 0 1 -.46.305z"/><path d="m43.335 70.433a.5.5 0 0 1 -.46-.305l-1.186-2.8a.5.5 0 1 1 .92-.39l1.186 2.8a.5.5 0 0 1 -.46.695z"/><path d="m37 71.5a.5.5 0 0 1 -.5-.5v-3.1a.5.5 0 0 1 1 0v3.1a.5.5 0 0 1 -.5.5z"/><path d="m62.086 61.5a.5.5 0 0 1 -.4-.8 21.146 21.146 0 0 0 4.032-11.244.506.506 0 0 1 .528-.47.5.5 0 0 1 .47.528 22.15 22.15 0 0 1 -4.229 11.786.5.5 0 0 1 -.401.2z"/><path d="m58.281 65.375a.5.5 0 0 1 -.307-.9c.286-.222.563-.444.823-.669a.5.5 0 0 1 .654.757c-.273.236-.564.47-.864.7a.5.5 0 0 1 -.306.112z"/><path d="m21.876 27.874a.5.5 0 0 1 -.284-.912l.792-.545a.5.5 0 0 1 .566.824l-.79.544a.5.5 0 0 1 -.284.089z"/><path d="m24.5 25.715a.5.5 0 0 1 -.287-.91c2.559-1.791 4.291-4.622 5.15-8.416a.5.5 0 1 1 .975.221c-.916 4.044-2.783 7.077-5.551 9.015a.5.5 0 0 1 -.287.09z"/></g><ellipse cx="37" cy="65.447" fill="#e7aa6c" rx="6.879" ry="2.384"/><path d="m37 68.331c-3.667 0-7.379-.991-7.379-2.884 0-3.787 14.758-3.787 14.758 0 0 1.893-3.712 2.884-7.379 2.884zm0-4.769c-3.894 0-6.379 1.116-6.379 1.884s2.485 1.885 6.379 1.885 6.379-1.116 6.379-1.884-2.485-1.884-6.379-1.884z" fill="#323c6b"/><path d="m43.408 67.174a.5.5 0 0 1 -.012-1c6.529-.159 11.791-2.378 15.216-6.417a17.966 17.966 0 0 0 3.972-13.935c-1.148-8.146-4.87-10.7-12.286-15.794-.888-.609-1.825-1.253-2.814-1.945-8.295-5.806-6.638-20.4-6.035-24.259l-7.689 3.317c.3 2.4 1.388 14.894-7.253 20.942-.988.691-1.926 1.335-2.812 1.944-7.416 5.093-11.139 7.649-12.278 15.795a17.968 17.968 0 0 0 3.965 13.93c3.423 4.038 8.684 6.258 15.214 6.421a.5.5 0 0 1 .487.513.479.479 0 0 1 -.513.487c-6.824-.173-12.34-2.513-15.952-6.773a18.981 18.981 0 0 1 -4.192-14.715c1.2-8.583 5.286-11.388 12.7-16.48.885-.608 1.819-1.25 2.8-1.939 8.884-6.216 6.815-20.216 6.793-20.357a.5.5 0 0 1 .3-.536l8.881-3.832a.5.5 0 0 1 .689.555c-.035.179-3.392 17.966 5.469 24.168.986.69 1.921 1.333 2.807 1.94 7.415 5.092 11.5 7.9 12.71 16.479a18.981 18.981 0 0 1 -4.2 14.721c-3.614 4.262-9.132 6.6-15.955 6.77z" fill="#323c6b"/></g></svg>