<?xml version="1.0" encoding="iso-8859-1"?>
<!-- Generator: Adobe Illustrator 19.0.0, SVG Export Plug-In . SVG Version: 6.00 Build 0)  -->
<svg version="1.1" id="Capa_1" xmlns="http://www.w3.org/2000/svg" xmlns:xlink="http://www.w3.org/1999/xlink" x="0px" y="0px"
	 viewBox="0 0 512.001 512.001" style="enable-background:new 0 0 512.001 512.001;" xml:space="preserve">
<path style="fill:#C88C64;" d="M198.105,451.469L198.105,451.469c-18.657,4.148-37.998,4.148-56.655,0l0,0
	C81.738,438.193,39.257,385.229,39.257,324.06V200.992c0-56.582,36.457-106.72,90.282-124.163l0,0
	c26.156-8.476,54.32-8.476,80.476,0l0,0c53.826,17.444,90.282,67.581,90.282,124.163V324.06
	C300.298,385.229,257.816,438.193,198.105,451.469z"/>
<path style="fill:#D9996F;" d="M200.077,73.873c-19.927-4.631-40.67-4.516-60.556,0.348c1.846,15.074,14.683,26.75,30.256,26.75
	C185.47,100.971,198.388,89.115,200.077,73.873z"/>
<path style="fill:#A5DC69;" d="M211.603,361.398c0,0-25.494-42.185-59.65-12.224c-3.595-31.16-35.627-32.718-51.207-12.943
	c-20.374-17.378-40.747-5.877-44.942,6.349c-22.771-8.147-40.148-0.956-45.541,18.818c-3.157,11.577,22.771,49.736,62.919,52.132
	c-2.397,30.56,37.745,43.743,56.926,25.767c14.981,25.767,50.934,20.973,68.312,13.183c0,0,34.744,29.484,77.166-8.043
	L211.603,361.398z"/>
<circle style="fill:#D7FA91;" cx="354.01" cy="318.911" r="148"/>
<path style="fill:#A5DC69;" d="M299.542,181.262c16.859-6.677,35.235-10.348,54.47-10.348c20.553,0,40.126,4.193,57.915,11.765
	h0.003c22.329-8.637,31.319-23.576,34.521-43.346c1.793-11.07-6.941-20.989-18.154-20.809c-11.794,0.189-14.786-3.052-14.786-3.052
	s24.935-11.688,24.35-52.627c-0.151-10.591-9.367-18.797-19.897-17.659c-41.032,4.432-54.452,34.615-54.452,34.615
	s-1.766-3.741-3.841-9.43c-4.216-11.559-18.464-15.632-28.112-7.996c-21.48,17.001-34.541,41.096-34.541,41.096
	s-0.012-0.043-0.037-0.126c-4.248-14.161-22.839-17.323-31.677-5.472c-1.973,2.646-3.747,5.339-5.342,8.049v0.025
	C280.935,125.7,295.096,152.122,299.542,181.262z"/>
<path style="fill:#F5C86E;" d="M375.025,282.519L375.025,282.519L375.025,282.519c-1.676,15.414,6.825,30.139,21.012,36.395l0,0l0,0
	c-14.187,6.256-22.689,20.98-21.012,36.395l0,0l0,0c-12.511-9.159-29.514-9.159-42.025,0l0,0l0,0
	c1.676-15.414-6.825-30.139-21.012-36.395l0,0l0,0c14.187-6.256,22.689-20.98,21.012-36.395l0,0l0,0
	C345.511,291.678,362.514,291.678,375.025,282.519z"/>
<path d="M465.735,207.191c-9.801-9.801-20.669-18.146-32.333-24.947c12.547-9.558,19.962-23.04,22.922-41.313
	c1.321-8.158-1.025-16.427-6.439-22.686c-3.97-4.589-9.243-7.715-15.039-9.027c6.963-9.613,13.331-24.47,13.016-46.517
	c-0.112-7.872-3.559-15.38-9.455-20.598c-5.879-5.202-13.715-7.703-21.516-6.861c-25.768,2.784-42.033,14.599-51.495,24.761
	c-3.636-5.029-8.858-8.707-15.051-10.459c-8.749-2.477-17.856-0.656-24.991,4.989c-12.755,10.095-22.668,22.369-29.033,31.421
	c-3.375-2.462-7.329-4.174-11.635-4.934c-10.15-1.791-20.264,2.039-26.698,10.001c-13.11-10.431-28.028-18.487-44.133-23.706
	c-28.342-9.186-58.301-9.186-86.643,0c-58.138,18.841-97.199,72.562-97.199,133.676v129.094c-3.622,0.712-7.044,1.889-10.224,3.545
	c-9.394,4.896-16.023,13.588-19.173,25.136c-2.792,10.235,4.55,22.575,9.174,29.02c5.137,7.157,23.228,29.249,53.769,34.662
	c2.016,12.99,10.299,23.889,23.341,30.157c13.543,6.509,28.845,6.42,40.935,0.331c18.326,19.617,49.207,17.923,69.272,10.822
	c4.66,2.89,12.252,6.705,22.106,8.593c3.538,0.678,7.525,1.128,11.888,1.127c12.681,0,28.5-3.807,45.429-16.855
	c13.094,7.378,27.217,12.883,42.001,16.275c11.697,2.685,23.604,4.021,35.496,4.021c16.625,0,33.219-2.615,49.147-7.815
	c7.148-2.334,14.184-5.205,20.909-8.533c4.95-2.449,6.978-8.447,4.528-13.397c-2.449-4.951-8.448-6.977-13.397-4.528
	c-5.869,2.904-12.009,5.409-18.248,7.447c-39.471,12.885-81.53,7.415-115.686-13.866c-0.258-0.179-0.522-0.345-0.793-0.498
	c-8.579-5.427-16.659-11.84-24.054-19.235c-5.794-5.794-10.961-11.981-15.507-18.474c-0.049-0.074-0.104-0.144-0.155-0.217
	c-37.505-53.782-32.285-128.524,15.662-176.47c13.425-13.426,29.133-23.735,46.244-30.585c0.441-0.145,0.872-0.311,1.28-0.512
	c15.746-6.12,32.654-9.323,50.056-9.323c18.626,0,36.687,3.671,53.363,10.66c0.404,0.207,0.821,0.385,1.249,0.535
	c15.841,6.826,30.404,16.66,42.968,29.224c41.325,41.324,52.149,104.486,26.935,157.171c-2.384,4.982-0.278,10.953,4.703,13.338
	c4.982,2.381,10.953,0.279,13.338-4.703C525.437,326.817,513.047,254.501,465.735,207.191z M281.21,100.716
	c1.442,0.255,4.934,1.3,6.22,5.588c1.146,3.882,4.52,6.689,8.545,7.112c4.019,0.429,7.907-1.622,9.837-5.181
	c0.12-0.223,12.31-22.472,31.954-38.02c2.038-1.614,4.636-2.134,7.133-1.428c2.518,0.712,4.478,2.538,5.379,5.01
	c2.206,6.048,4.112,10.102,4.192,10.271c1.652,3.503,5.162,5.768,9.028,5.768c0.037,0,0.074,0,0.111,0
	c3.91-0.045,7.42-2.328,9.009-5.901c0.475-1.023,12.015-25.09,46.421-28.808c2.246-0.248,4.415,0.451,6.113,1.954
	c1.716,1.519,2.679,3.615,2.711,5.905c0.467,32.642-17.166,42.669-18.656,43.457c-2.944,1.294-4.949,3.866-5.617,7.017
	c-0.673,3.173,0.375,6.411,2.575,8.794c2.251,2.438,8.108,6.493,22.294,6.268c2.405-0.074,4.722,0.983,6.299,2.808
	c0.9,1.04,2.334,3.256,1.824,6.404c-2.808,17.332-10.056,27.457-24.657,34.094c-13.198-5.193-27.114-8.59-41.45-10.065l21.888-3.21
	c5.464-0.802,9.244-5.881,8.443-11.346c-0.802-5.465-5.878-9.236-11.346-8.443l-20.21,2.964l11.258-13.596
	c3.522-4.255,2.93-10.559-1.324-14.08c-4.256-3.522-10.56-2.928-14.08,1.324l-28.23,34.096v-20c0-5.522-4.478-10-10-10
	s-10,4.478-10,10v35.818c-3.295,0.79-6.558,1.683-9.784,2.682c-5.117-21.178-15.092-40.937-29.253-57.698
	c-1.635-1.935-3.333-3.807-5.063-5.644c0.186-0.256,0.359-0.526,0.548-0.779C276.089,100.14,280.059,100.51,281.21,100.716z
	 M258.56,444.824c-11.516,7.313-23.165,10.025-34.753,8.037c-11.48-1.974-18.899-7.992-18.916-8.006
	c-2.938-2.491-7.042-3.076-10.562-1.5c-13.017,5.836-43.729,11.293-55.575-9.085c-1.532-2.634-4.181-4.426-7.195-4.868
	c-3.017-0.438-6.066,0.516-8.289,2.599c-6.6,6.187-17.992,7.248-27.706,2.579c-4.057-1.95-13.388-7.828-12.411-20.268
	c0.21-2.677-0.665-5.325-2.429-7.35c-1.763-2.024-4.266-3.255-6.945-3.415c-19.261-1.149-33.182-11.939-39.766-18.27
	c-10.496-10.092-13.909-19.235-14.007-21.587c1.688-5.936,4.725-10.081,9.027-12.323c5.684-2.962,13.996-2.738,23.402,0.627
	c2.519,0.901,5.293,0.757,7.704-0.403c2.41-1.159,4.256-3.236,5.124-5.767c0.958-2.792,4.363-6.447,9.576-7.874
	c6.198-1.692,12.913,0.34,19.418,5.888c2.068,1.765,4.766,2.616,7.475,2.343c2.706-0.268,5.187-1.626,6.87-3.763
	c5.637-7.156,14.703-10.698,22.052-8.618c8.082,2.291,10.642,10.248,11.364,16.52c0.427,3.694,2.868,6.847,6.338,8.185
	c3.47,1.336,7.396,0.639,10.191-1.813c7.345-6.443,14.219-9.079,21.016-8.051c11.262,1.7,20.772,13.527,23.495,17.953
	c0.195,0.321,0.408,0.623,0.632,0.914c2.399,7.462,5.369,14.779,8.903,21.884l-15.638-3.096c-0.232-1.019-0.621-2.019-1.192-2.962
	l-6.292-10.394c-2.859-4.724-9.009-6.235-13.733-3.376c-4.063,2.46-5.741,7.35-4.314,11.677l-32.72-6.477l-7.834-9.952
	c-3.414-4.339-9.702-5.088-14.043-1.672c-2.136,1.681-3.396,4.058-3.724,6.556l-27.149-5.374c-5.418-1.073-10.68,2.45-11.751,7.868
	c-1.072,5.417,2.45,10.679,7.868,11.751l34.656,6.86l-1.821,0.742c-5.114,2.084-7.571,7.919-5.487,13.034
	c1.58,3.879,5.318,6.229,9.265,6.229c1.256,0,2.534-0.239,3.77-0.742l26.749-10.898c0.91-0.371,1.732-0.865,2.464-1.449
	l15.792,3.126l-4.956,2.063c-5.099,2.122-7.511,7.977-5.388,13.075c1.6,3.842,5.318,6.159,9.235,6.159
	c1.281,0,2.583-0.248,3.84-0.771l32.535-13.545l24.035,4.758c4.649,6.308,9.824,12.348,15.531,18.054
	C247.409,435.756,252.849,440.488,258.56,444.824z M242.29,207.191c-34.578,34.578-49.745,81.327-45.506,126.585
	c-4.212-2.298-8.922-4.09-14.089-4.889c-8.472-1.308-16.813,0.11-24.934,4.226c-4.41-9.271-11.879-15.782-21.653-18.553
	c-12.297-3.488-26.053-0.052-36.51,8.607c-9.638-5.631-20.052-7.237-30.037-4.507c-7.387,2.021-13.981,6.451-18.469,12.119
	c-0.362-0.083-0.72-0.153-1.08-0.229V200.992c0-50.826,31.501-95.687,78.873-113.095c8.881,14.096,24.625,23.074,41.647,23.074
	c5.522,0,10-4.478,10-10s-4.478-10-10-10c-7.902,0-15.327-3.276-20.713-8.702c19.26-3.39,38.982-2.048,57.868,4.072
	c16.964,5.498,32.067,14.453,44.614,25.995c0.533,0.636,1.146,1.215,1.846,1.715c16.94,16.256,28.927,37.37,34.093,61.122
	C271.36,182.909,255.812,193.668,242.29,207.191z"/>
<path d="M452.354,415.727l-0.762,0.768c-3.905,3.905-3.905,10.237,0,14.143c1.953,1.952,4.512,2.929,7.071,2.929
	s5.118-0.977,7.071-2.929c0.297-0.298,0.592-0.595,0.887-0.895c3.87-3.939,3.814-10.271-0.126-14.142
	C462.558,411.732,456.225,411.787,452.354,415.727z"/>
<path d="M375.026,365.308c1.721,0,3.447-0.443,4.999-1.34c3.432-1.981,5.37-5.803,4.941-9.741
	c-1.211-11.131,4.859-21.646,15.105-26.164c3.625-1.599,5.965-5.188,5.965-9.149c0-3.963-2.34-7.552-5.966-9.15
	c-10.245-4.517-16.315-15.031-15.104-26.163c0.429-3.939-1.51-7.76-4.941-9.741c-3.433-1.981-7.71-1.749-10.907,0.591
	c-9.035,6.615-21.176,6.615-30.211,0c-3.198-2.341-7.476-2.573-10.907-0.591c-3.432,1.981-5.37,5.802-4.941,9.741
	c1.211,11.132-4.859,21.646-15.104,26.163c-3.626,1.599-5.966,5.188-5.966,9.15s2.34,7.551,5.965,9.149
	c10.246,4.519,16.316,15.033,15.105,26.164c-0.429,3.938,1.51,7.76,4.941,9.741c3.431,1.98,7.709,1.749,10.906-0.591
	c9.035-6.613,21.178-6.613,30.213,0C370.87,364.659,372.944,365.308,375.026,365.308z M354.012,338.4
	c-4.111,0-8.222,0.56-12.219,1.678c-2.059-8.041-6.284-15.36-12.219-21.164c5.936-5.804,10.16-13.122,12.219-21.164
	c7.994,2.238,16.443,2.238,24.438,0c2.059,8.042,6.283,15.36,12.219,21.164c-5.935,5.804-10.16,13.123-12.219,21.164
	C362.234,338.959,358.124,338.4,354.012,338.4z"/>
<path d="M364.481,248.909v-4.122c0-5.522-4.478-10-10-10s-10,4.478-10,10v4.122c0,5.522,4.478,10,10,10
	S364.481,254.431,364.481,248.909z"/>
<path d="M385.667,243.42c1.25,0.517,2.544,0.762,3.817,0.762c3.927,0,7.651-2.328,9.245-6.182l1.424-3.443
	c2.11-5.104-0.316-10.952-5.42-13.063c-5.104-2.109-10.952,0.316-13.063,5.42l-1.424,3.443
	C378.136,235.461,380.563,241.31,385.667,243.42z"/>
<path d="M343.544,388.919v4.122c0,5.522,4.478,10,10,10s10-4.478,10-10v-4.122c0-5.522-4.478-10-10-10
	S343.544,383.397,343.544,388.919z"/>
<path d="M313.292,416.333c1.25,0.517,2.544,0.762,3.817,0.762c3.927,0,7.651-2.328,9.245-6.182l1.424-3.443
	c2.11-5.104-0.316-10.952-5.42-13.063c-5.105-2.11-10.952,0.316-13.063,5.42l-1.424,3.443
	C305.761,408.374,308.188,414.223,313.292,416.333z"/>
<path d="M421.072,312.311c-1.87,1.86-2.93,4.44-2.93,7.07s1.06,5.21,2.93,7.069c1.86,1.86,4.431,2.931,7.07,2.931
	c2.63,0,5.21-1.07,7.07-2.931c1.859-1.859,2.93-4.43,2.93-7.069c0-2.63-1.07-5.21-2.93-7.07c-1.86-1.86-4.44-2.93-7.07-2.93
	S422.932,310.451,421.072,312.311z"/>
<path d="M451.432,359.632c2.109-5.104-0.319-10.952-5.423-13.062l-3.443-1.423c-5.108-2.107-10.953,0.319-13.062,5.423
	s0.319,10.952,5.423,13.062l3.443,1.423c1.25,0.516,2.543,0.761,3.815,0.761C446.113,365.816,449.84,363.487,451.432,359.632z"/>
<path d="M286.952,325.521c1.87-1.87,2.931-4.45,2.931-7.08c0-2.62-1.061-5.2-2.931-7.07c-1.859-1.859-4.439-2.93-7.069-2.93
	s-5.21,1.07-7.07,2.93c-1.86,1.86-2.93,4.44-2.93,7.07s1.069,5.21,2.93,7.08c1.87,1.86,4.44,2.93,7.07,2.93
	S285.092,327.381,286.952,325.521z"/>
<path d="M262.015,291.257l3.443,1.423c1.25,0.516,2.543,0.761,3.815,0.761c3.927,0,7.653-2.329,9.246-6.184
	c2.109-5.104-0.319-10.952-5.423-13.062l-3.443-1.423c-5.107-2.107-10.953,0.319-13.062,5.423
	C254.483,283.3,256.912,289.148,262.015,291.257z"/>
<path d="M413.832,259.761c-1.859-1.86-4.439-2.931-7.069-2.931s-5.21,1.07-7.07,2.931c-1.87,1.859-2.93,4.439-2.93,7.069
	c0,2.631,1.06,5.2,2.93,7.07c1.86,1.86,4.44,2.93,7.07,2.93s5.21-1.069,7.069-2.93c1.86-1.86,2.931-4.439,2.931-7.07
	C416.762,264.201,415.692,261.621,413.832,259.761z"/>
<path d="M439.018,294.085c1.278,0,2.577-0.247,3.831-0.768l3.44-1.429c5.101-2.118,7.519-7.97,5.4-13.07s-7.971-7.518-13.07-5.4
	l-3.44,1.429c-5.101,2.118-7.519,7.97-5.4,13.07C431.377,291.764,435.097,294.085,439.018,294.085z"/>
<path d="M294.192,378.071c1.86,1.86,4.44,2.92,7.07,2.92c2.64,0,5.22-1.06,7.069-2.92c1.87-1.87,2.931-4.439,2.931-7.069
	c0-2.631-1.061-5.211-2.931-7.07c-1.859-1.87-4.43-2.93-7.069-2.93c-2.63,0-5.21,1.06-7.07,2.93c-1.86,1.85-2.93,4.43-2.93,7.07
	C291.262,373.631,292.332,376.211,294.192,378.071z"/>
<path d="M256.335,359.008c1.598,3.847,5.318,6.168,9.239,6.168c1.278,0,2.577-0.247,3.831-0.768l3.44-1.429
	c5.101-2.118,7.519-7.97,5.4-13.07s-7.97-7.518-13.07-5.4l-3.44,1.429C256.634,348.056,254.216,353.908,256.335,359.008z"/>
<path d="M413.162,378.731c1.87-1.86,2.931-4.44,2.931-7.07s-1.061-5.21-2.931-7.069c-1.859-1.86-4.43-2.931-7.069-2.931
	c-2.63,0-5.21,1.07-7.07,2.931c-1.86,1.859-2.93,4.439-2.93,7.069s1.069,5.21,2.93,7.07s4.44,2.93,7.07,2.93
	S411.302,380.591,413.162,378.731z"/>
<path d="M381.037,411.191c1.597,3.848,5.318,6.169,9.239,6.169c1.277,0,2.577-0.247,3.83-0.768c5.101-2.117,7.52-7.969,5.401-13.069
	l-1.429-3.441c-2.117-5.101-7.97-7.519-13.069-5.401c-5.101,2.117-7.52,7.969-5.401,13.069L381.037,411.191z"/>
<path d="M294.852,259.091c-1.86,1.87-2.93,4.439-2.93,7.08c0,2.63,1.069,5.199,2.93,7.069c1.86,1.86,4.439,2.92,7.08,2.92
	c2.63,0,5.21-1.06,7.06-2.92c1.87-1.87,2.94-4.439,2.94-7.069c0-2.641-1.07-5.221-2.94-7.08c-1.859-1.86-4.43-2.931-7.06-2.931
	C299.292,256.161,296.722,257.231,294.852,259.091z"/>
<path d="M319.185,243.915c1.277,0,2.577-0.247,3.83-0.768c5.101-2.117,7.52-7.969,5.401-13.069l-1.429-3.441
	c-2.117-5.102-7.97-7.519-13.069-5.401c-5.101,2.117-7.52,7.969-5.401,13.069l1.429,3.441
	C311.543,241.594,315.264,243.915,319.185,243.915z"/>
<path d="M113.984,117.845l-0.264,0.181c-4.546,3.137-5.688,9.365-2.551,13.91c1.94,2.813,5.063,4.321,8.239,4.321
	c1.958,0,3.938-0.574,5.671-1.771l0.156-0.106c4.566-3.107,5.748-9.328,2.642-13.894C124.77,115.92,118.549,114.74,113.984,117.845z
	"/>
<path d="M99.151,144.343c-4.679-2.937-10.851-1.523-13.787,3.152c-10.043,15.998-15.352,34.496-15.352,53.496v61.479
	c0,5.522,4.478,10,10,10s10-4.478,10-10v-61.479c0-15.233,4.25-30.055,12.291-42.861C105.24,153.453,103.828,147.281,99.151,144.343
	z"/>
<g>
</g>
<g>
</g>
<g>
</g>
<g>
</g>
<g>
</g>
<g>
</g>
<g>
</g>
<g>
</g>
<g>
</g>
<g>
</g>
<g>
</g>
<g>
</g>
<g>
</g>
<g>
</g>
<g>
</g>
</svg>
