<?xml version="1.0" encoding="iso-8859-1"?>
<!-- Generator: Adobe Illustrator 19.0.0, SVG Export Plug-In . SVG Version: 6.00 Build 0)  -->
<svg version="1.1" id="Capa_1" xmlns="http://www.w3.org/2000/svg" xmlns:xlink="http://www.w3.org/1999/xlink" x="0px" y="0px"
	 viewBox="0 0 512.003 512.003" style="enable-background:new 0 0 512.003 512.003;" xml:space="preserve">
<path style="fill:#A5DC69;" d="M411.472,294.091c0,6.978-1.711,13.585-4.254,19.479c5.894-2.543,12.501-4.254,19.479-4.254
	c5.573,0,10.906,1.224,15.831,3.128c0.912-1.613,1.66-3.344,2.208-5.181l13.289-44.499l-44.499,13.289
	c-1.837,0.548-3.569,1.296-5.181,2.208C410.248,283.185,411.472,288.518,411.472,294.091z"/>
<path style="fill:#D7FA91;" d="M486.487,268.483c0.912-1.613,1.66-3.345,2.208-5.181l13.289-44.499l-44.499,13.289
	c-1.837,0.548-3.569,1.296-5.181,2.208l-9.776,31.37l17.123-4.769l-4,17.358L486.487,268.483z"/>
<g>
	<path style="fill:#A5DC69;" d="M393.657,255.75c0,0,10.82-29.286,58.921-35.547c-8.782,21.314-12.554,46.592-12.554,46.592
		l-31.679,11.464L393.657,255.75"/>
	<path style="fill:#A5DC69;" d="M465.037,327.13c0,0,29.286-10.82,35.547-58.921c-21.314,8.782-46.592,12.554-46.592,12.554
		l-11.464,31.679L465.037,327.13"/>
</g>
<g>
	<path style="fill:#46C373;" d="M339.303,352.199l17.675-17.675c6.652-6.652,9.129-16.499,6.144-25.42
		c-1.571-4.695-2.545-9.747-2.545-15.012c0-24.853,23.806-45,25.447-45c1.221,0,25.447,20.147,25.447,45
		c0,6.978-1.711,13.585-4.254,19.479c5.894-2.543,12.501-4.254,19.479-4.254c24.853,0,45,24.225,45,25.447
		c0,1.641-20.147,25.447-45,25.447c-5.949,0-11.629-1.243-16.826-3.186c-9.326-3.486-19.813-1.404-26.853,5.636
		c0,0-63.591,63.591-58.23,58.23c22.423-13.128,35.743-1.501,35.743-1.501s-20.062,36.369-67.345,33.102l-49.458,49.511
		l-53.41-0.668l105.904-106.054"/>
	<path style="fill:#46C373;" d="M327.731,374.313c0,0,17.493-15.801,6.772-37.809c-30.755,18.904-39.219,40.912-34.141,58.406"/>
</g>
<g>
	<path style="fill:#A5DC69;" d="M119.503,121.359c3.489,6.043,5.311,12.62,6.055,18.996c3.833-5.15,8.699-9.935,14.742-13.424
		c4.826-2.787,10.057-4.393,15.274-5.207c-0.016-1.853-0.235-3.726-0.678-5.591l-10.741-45.182l-31.893,33.758
		c-1.316,1.393-2.443,2.906-3.383,4.503C112.99,112.526,116.717,116.533,119.503,121.359z"/>
	<path style="fill:#A5DC69;" d="M87.093,232.703c0,0,7.25-22.43-13.04-36.129c-17.182,31.749-13.509,55.041-0.364,67.651"/>
</g>
<path style="fill:#D7FA91;" d="M171.665,61.675c-0.016-1.853-0.235-3.726-0.678-5.591l-10.741-45.182L128.353,44.66
	c-1.316,1.393-2.443,2.906-3.383,4.503l5.613,27.174l14.402-9.396l3.333,14.73L171.665,61.675z"/>
<path style="fill:#A5DC69;" d="M182.411,123.189c0,0,19.952-24.013,1.324-68.8c-14.068,18.263-34.073,34.168-34.073,34.168
	l5.912,33.167L182.411,123.189"/>
<path style="fill:#46C373;" d="M73.732,398.306l22.532-80.626c42.582-20.812,41.771-62.339,41.771-62.339
	s-17.349-3.409-30.204,19.171c-1.962,7.323,21.314-79.543,21.314-79.543c2.577-9.617,10.618-16.664,20.438-18.308
	c5.473-0.916,11.013-2.679,16.165-5.654c21.523-12.426,27.068-43.116,26.247-44.538c-0.611-1.058-30.171-11.964-51.694,0.462
	c-6.043,3.489-10.909,8.274-14.742,13.424c-0.745-6.376-2.566-12.953-6.055-18.996c-12.426-21.523-43.48-26.858-44.538-26.247
	c-1.421,0.821-11.964,30.171,0.462,51.694c2.632,4.56,6.002,8.448,9.71,11.729c7.045,6.233,9.824,16,7.389,25.087l-6.47,24.145
	l-15.769,58.852l-60.263,225.47l37.001,9.914l9.292-36"/>
<g>
	<path style="fill:#A5DC69;" d="M130.582,83.445c0,0-9.372-23.777-12.424-46.627C79.632,66.29,84.905,97.063,84.905,97.063
		l22.717,8.591L130.582,83.445z"/>
	<path style="fill:#A5DC69;" d="M388.567,104.343c0,8.744-2.144,17.022-5.331,24.408c7.386-3.187,15.664-5.331,24.408-5.331
		c6.983,0,13.666,1.533,19.838,3.919c1.143-2.021,2.08-4.191,2.767-6.492l16.652-55.76l-55.76,16.652
		c-2.301,0.687-4.472,1.623-6.492,2.767C387.033,90.678,388.567,97.36,388.567,104.343z"/>
</g>
<path style="fill:#D7FA91;" d="M439.732,29.422c2.021-1.143,4.191-2.08,6.492-2.767l55.76-16.652l-16.652,55.76
	c-0.687,2.301-1.623,4.472-2.767,6.492l-40.719,15.388l10.457-25.969l-24.822,8.466L439.732,29.422z"/>
<path style="fill:#A5DC69;" d="M366.244,56.3c0,0,13.558-36.697,73.831-44.542c-11.004,26.708-15.731,58.382-15.731,58.382"/>
<g>
	<path style="fill:#46C373;" d="M366.244,56.3c0,0,13.558-36.697,73.831-44.542c-11.004,26.708-15.731,58.382-15.731,58.382
		l-39.696,14.365L366.244,56.3"/>
	<path style="fill:#46C373;" d="M455.687,145.743c0,0,36.697-13.558,44.542-73.831c-26.708,11.004-58.382,15.731-58.382,15.731
		l-14.365,39.696L455.687,145.743"/>
</g>
<g>
	<path style="fill:#A5DC69;" d="M244.151,231.141L35.386,439.906l33.941,33.941l171.021-171.021
		c59.248,4.094,84.386-41.479,84.386-41.479s-16.691-14.57-44.788,1.881c-6.718,6.718,72.965-72.965,72.965-72.965
		c8.822-8.822,21.963-11.431,33.649-7.062c6.513,2.435,13.629,3.993,21.084,3.993c31.142,0,56.387-29.83,56.387-31.886
		c0-1.531-25.245-31.886-56.387-31.886c-8.744,0-17.022,2.144-24.408,5.331c3.187-7.386,5.331-15.664,5.331-24.408
		c0-31.142-30.356-56.387-31.886-56.387c-2.057,0-31.886,25.245-31.886,56.387c0,6.597,1.221,12.929,3.189,18.811
		c3.74,11.178,0.636,23.518-7.699,31.853l-22.148,22.148"/>
	<path style="fill:#A5DC69;" d="M283.636,204.866c0,0,21.92-19.799,8.485-47.376c-38.537,23.688-49.144,51.265-42.78,73.186
		L283.636,204.866z"/>
</g>
<path d="M162.644,370.534c-2.641,0-5.21,1.069-7.07,2.93c-1.87,1.859-2.93,4.439-2.93,7.07c0,2.63,1.06,5.21,2.93,7.069
	c1.86,1.86,4.43,2.931,7.07,2.931c2.63,0,5.21-1.07,7.069-2.931c1.86-1.859,2.931-4.439,2.931-7.069c0-2.631-1.07-5.211-2.931-7.07
	C167.843,371.603,165.274,370.534,162.644,370.534z"/>
<path d="M126.339,402.692l-57.012,57.013l-19.799-19.799l199.25-199.25c0.185,0.01,0.371,0.023,0.557,0.023
	c0.924,0,1.862-0.129,2.793-0.399c5.304-1.54,8.355-7.088,6.815-12.392c-5.217-17.969,4.724-37.392,27.452-54.449
	c1.06,13.645-8.165,22.792-9.512,24.05c-4.054,3.707-4.358,9.998-0.671,14.081c3.7,4.099,10.025,4.419,14.124,0.718
	c5.627-5.083,12.996-15.359,15.337-28.528l21.678-21.68c11.015-11.013,14.984-27.537,10.112-42.096
	c-1.772-5.301-2.672-10.563-2.672-15.64c0-19.018,14.107-36.078,21.781-43.587c7.814,7.674,21.991,24.81,21.991,43.587
	c0,6.629-1.519,13.508-4.513,20.445c-1.624,3.764-0.787,8.136,2.11,11.034c2.899,2.897,7.27,3.733,11.034,2.11
	c6.938-2.994,13.816-4.513,20.445-4.513c18.777,0,35.913,14.177,43.587,21.991c-7.509,7.674-24.569,21.781-43.587,21.781
	c-5.704,0-11.62-1.13-17.582-3.359c-15.414-5.762-32.774-2.091-44.222,9.358l-72.543,72.543c-0.083,0.083-0.165,0.167-0.244,0.249
	c-0.06,0.057-0.119,0.114-0.177,0.173l-0.395,0.394l0.025,0.026c-6.539,7.451-0.313,13.846-0.034,14.124
	c2.519,2.52,8.121,4.679,13.247,0.741c10.076-5.724,17.981-6.521,23.484-5.792c-10.135,11.562-32.025,29.707-68.167,27.199
	c-2.883-0.193-5.715,0.86-7.761,2.905l-48.276,48.277c-3.905,3.905-3.905,10.237,0,14.143c1.953,1.952,4.512,2.929,7.071,2.929
	s5.118-0.977,7.071-2.929l45.139-45.141c1.236,0.039,2.458,0.058,3.666,0.058c58.953-0.002,84.441-44.916,85.543-46.914
	c2.273-4.121,1.365-9.269-2.18-12.364c-0.51-0.444-7.596-6.45-19.762-8.046c21.27-21.27,48.434-48.433,48.434-48.434
	c5.924-5.921,14.982-7.793,23.075-4.766c8.211,3.068,16.482,4.625,24.586,4.625c19.141,0,35.526-9.351,45.902-17.194
	c6.184-4.675,10.698-9.135,13.396-12.053c5.959-6.444,7.089-9.414,7.089-12.639c0-2.211-0.495-4.165-2.697-7.216
	c13.214-9.744,33.137-31.306,38.81-74.888c0.461-3.537-0.997-7.052-3.827-9.224c-2.743-2.104-6.367-2.624-9.594-1.416l14.842-49.699
	c1.051-3.521,0.087-7.334-2.511-9.933c-2.599-2.597-6.41-3.563-9.933-2.511l-49.69,14.845c1.208-3.224,0.69-6.85-1.416-9.593
	c-2.172-2.829-5.682-4.293-9.224-3.827c-43.582,5.673-65.144,25.596-74.888,38.81c-3.051-2.202-5.005-2.697-7.216-2.697
	c-3.225,0-6.194,1.13-12.639,7.089c-2.918,2.698-7.378,7.213-12.053,13.396c-7.844,10.376-17.194,26.762-17.194,45.902
	c0,7.237,1.246,14.634,3.705,21.984c2.486,7.43,0.411,15.911-5.287,21.608l-10.018,10.018c-0.601-1.6-1.29-3.215-2.083-4.845
	c-1.236-2.537-3.486-4.434-6.196-5.222s-5.626-0.396-8.03,1.082c-19.735,12.131-33.808,25.956-41.828,41.093
	c-5.791,10.931-8.217,22.278-7.213,33.317c-0.263,0.215-0.519,0.444-0.764,0.689L92.365,368.784l12.36-44.226
	c43.677-23.905,43.346-67.514,43.309-69.413c-0.092-4.705-3.452-8.709-8.069-9.617c-0.49-0.097-6.456-1.179-14.32,1.141
	l13.159-49.111c1.525-5.694,6.404-10.025,12.429-11.033c7.14-1.195,13.705-3.502,19.516-6.856
	c13.714-7.918,21.552-21.317,25.713-31.163c2.466-5.835,3.84-10.842,4.559-14.016c1.507-6.651,1.415-9.936-0.363-13.018
	c-0.928-1.609-2.083-2.802-3.923-3.868c5.116-12.81,9.322-35.592-3.764-67.054c-1.37-3.293-4.391-5.607-7.926-6.073
	c-2.198-0.29-4.384,0.163-6.247,1.221l-8.825-37.11c-0.85-3.574-3.592-6.395-7.141-7.346c-3.551-0.953-7.334,0.121-9.857,2.792
	l-26.193,27.725c-1.085-1.849-2.752-3.334-4.798-4.181c-3.296-1.366-7.067-0.87-9.901,1.297
	C85.019,49.579,77.27,71.413,75.296,85.065c-2.127,0.003-3.724,0.459-5.33,1.387c-3.081,1.778-4.804,4.578-6.825,11.093
	c-0.965,3.107-2.278,8.131-3.06,14.417c-1.319,10.607-1.23,26.131,6.687,39.846c2.998,5.191,6.95,9.976,11.744,14.217
	c4.114,3.64,5.824,9.531,4.356,15.01l-2.147,8.014c-0.356-0.254-0.702-0.512-1.071-0.761c-2.34-1.58-5.239-2.099-7.977-1.424
	c-2.741,0.672-5.07,2.471-6.414,4.952c-8.973,16.58-13.264,32.099-12.753,46.126c0.36,9.894,3.137,18.779,8.104,26.166
	L0.364,489.507c-1.425,5.333,1.74,10.813,7.073,12.241l37.001,9.914c0.852,0.229,1.721,0.341,2.588,0.341
	c1.756,0,3.497-0.463,5.04-1.363c2.305-1.345,3.976-3.555,4.643-6.138l5.985-23.188c1.825,1.621,4.179,2.533,6.635,2.533
	c2.652,0,5.195-1.054,7.071-2.929l64.083-64.084c3.905-3.905,3.905-10.237,0-14.143
	C136.576,398.788,130.246,398.788,126.339,402.692z M397.819,114.168c0.498-3.289,0.748-6.567,0.748-9.825
	c0-4.82-0.607-9.469-1.638-13.897l35.091-10.479l-10.479,35.091c-4.427-1.031-9.076-1.638-13.896-1.638
	C404.386,113.42,401.108,113.67,397.819,114.168z M457.139,133.678c-1.124-0.933-2.3-1.881-3.559-2.841
	c-3.719-2.836-8.216-5.861-13.314-8.585l7.607-25.474c7.412-1.309,22.851-4.356,39.238-9.526
	C479.632,115.814,464.899,128.675,457.139,133.678z M475.75,62.901c-0.458,1.534-1.094,3.025-1.89,4.432
	c-0.599,1.059-0.971,2.181-1.156,3.316c-6.762,1.876-13.109,3.36-18.366,4.477l2.143-7.176c1.051-3.521,0.087-7.334-2.511-9.933
	c-2.599-2.597-6.411-3.563-9.933-2.511l-7.177,2.143c1.117-5.258,2.601-11.605,4.477-18.367c1.134-0.184,2.257-0.557,3.315-1.155
	c1.406-0.796,2.897-1.432,4.431-1.89l38.019-11.354L475.75,62.901z M424.736,24.876c-5.17,16.387-8.217,31.826-9.526,39.238
	l-25.474,7.607c-2.725-5.098-5.75-9.594-8.585-13.314c-0.96-1.259-1.908-2.435-2.841-3.559
	C383.312,47.088,396.173,32.355,424.736,24.876z M177.441,112.034c-0.708-0.109-1.433-0.212-2.176-0.308
	c-3.353-0.431-7.19-0.724-11.3-0.681l-4.241-17.838c4.438-3.769,12.127-10.582,20.012-18.894
	C184.045,93.025,180.395,105.644,177.441,112.034z M138.708,91.278l5.467,22.995c-3,1.027-5.981,2.327-8.874,3.998
	c-1.585,0.915-3.129,1.917-4.63,3.002c-0.757-1.69-1.593-3.329-2.508-4.914c-1.671-2.894-3.602-5.51-5.688-7.9L138.708,91.278z
	 M135.621,51.527l19.178-20.299l6.458,27.163c0.262,1.102,0.399,2.234,0.408,3.367c0.006,0.749,0.102,1.475,0.264,2.175
	c-2.606,2.624-5.14,5.046-7.455,7.186l-0.59-2.48c-0.85-3.575-3.591-6.396-7.141-7.347c-3.547-0.951-7.334,0.121-9.857,2.792
	l-1.754,1.857c-0.935-3.01-1.917-6.374-2.863-9.951c0.491-0.526,0.937-1.107,1.317-1.752
	C134.163,53.258,134.848,52.345,135.621,51.527z M111.66,56.073c2.673,11.139,5.925,20.884,7.884,26.367l-12.593,13.329
	c-3.537-2.093-7.007-3.758-10.125-5.061c-0.691-0.289-1.371-0.561-2.039-0.821C95.424,82.876,98.573,70.122,111.66,56.073z
	 M76.731,214.627c3,7.136,1.142,14.014,0.817,15.092l0.028-0.091l19.031,6.15c1.918-5.933,2.953-16.191-0.597-26.525l6.175-23.044
	c3.413-12.739-0.678-26.542-10.422-35.165c-3.177-2.81-5.76-5.918-7.677-9.238c-6.725-11.649-4.744-26.903-2.661-35.337
	c8.493,2.452,22.763,8.364,29.417,19.889c2.506,4.343,4.115,9.442,4.782,15.156c0.476,4.07,3.386,7.439,7.344,8.5
	c3.958,1.058,8.163-0.4,10.61-3.688c3.437-4.616,7.38-8.228,11.721-10.733c11.525-6.654,26.841-4.64,35.42-2.518
	c-2.412,8.346-8.324,22.547-19.973,29.272c-3.732,2.154-8.044,3.652-12.816,4.45c-13.732,2.299-24.897,12.341-28.446,25.583
	c0,0-19.566,73.024-21.307,79.516c-0.002,0.009-0.005,0.019-0.007,0.027c-0.003,0.01-0.006,0.021-0.008,0.03
	c-0.065,0.244-0.103,0.381-0.107,0.4l0.007,0.002c-1.471,6.34,2.483,11.026,7.063,12.253c0.087,0.025,8.102,2.064,11.62-5.54
	c3.113-5.356,6.383-8.675,9.344-10.72c-3.214,11.907-11.722,29.352-34.216,40.346c-2.565,1.254-4.472,3.543-5.24,6.293
	l-22.532,80.626c-0.163,0.583-0.261,1.169-0.317,1.752l-24.689,24.689l39.926-149.381c0.672-0.425,1.309-0.926,1.883-1.526
	c3.824-3.985,3.692-10.315-0.293-14.139C71.154,247.935,69.897,232.885,76.731,214.627z M39.866,489.732l-17.6-4.715l9.299-34.79
	l14.702,14.702L39.866,489.732z"/>
<path d="M499.123,209.221l-36.548,10.914c-0.015-2.144-0.716-4.264-2.065-6.021c-2.172-2.83-5.688-4.292-9.224-3.827
	c-33.789,4.398-51.416,19.432-59.952,30.267c-1.843-1.06-3.453-1.463-5.31-1.463c-3.559,0-6.449,1.563-11.458,6.194
	c-2.389,2.208-6.038,5.902-9.858,10.955c-6.446,8.526-14.131,22.015-14.131,37.851c0,5.993,1.03,12.111,3.062,18.186
	c1.743,5.208,0.278,11.166-3.731,15.176l-5.867,5.867c-0.181-0.398-0.352-0.795-0.547-1.195c-1.236-2.537-3.486-4.434-6.196-5.222
	c-2.709-0.787-5.625-0.396-8.03,1.082c-16.062,9.872-27.537,21.167-34.108,33.569c-4.635,8.749-6.672,17.832-6.065,26.711
	l-80.05,80.139c-3.903,3.908-3.899,10.239,0.008,14.143c1.952,1.95,4.51,2.925,7.067,2.925c2.562,0,5.122-0.978,7.075-2.933
	l77.569-77.656c0.793-0.032,1.592-0.14,2.387-0.371c5.304-1.54,8.355-7.088,6.815-12.392c-3.654-12.587,2.782-26.249,17.829-38.644
	c-0.969,7.679-6.018,12.707-6.838,13.479l0.07-0.064l13.406,14.842c4.627-4.179,10.653-12.545,12.746-23.269l16.871-16.871
	c9.326-9.327,12.685-23.326,8.556-35.663c-1.346-4.024-2.028-8.008-2.028-11.84c0-13.452,9.343-25.672,15.363-31.934
	c6.129,6.37,15.53,18.625,15.53,31.934c0,5.012-1.156,10.232-3.436,15.518c-1.624,3.763-0.787,8.135,2.111,11.032
	c2.897,2.897,7.27,3.733,11.033,2.11c5.281-2.279,10.502-3.436,15.516-3.436c13.309-0.001,25.563,9.401,31.934,15.53
	c-6.262,6.021-18.481,15.363-31.934,15.363c-4.308,0-8.791-0.859-13.324-2.554c-13.042-4.871-27.731-1.762-37.426,7.932
	c0,0-53.334,53.334-58.191,58.191c-0.013,0.013-0.026,0.025-0.039,0.039c-0.015,0.015-0.029,0.028-0.043,0.043
	c-0.16,0.159-0.251,0.25-0.269,0.268l0.005,0.006c-4.447,4.756-3.367,10.793-0.014,14.146c0.065,0.064,5.987,5.839,12.834,1.011
	c5.354-3.07,9.83-4.311,13.409-4.606c-8.756,8.684-24.881,19.548-49.763,17.828c-2.887-0.203-5.72,0.861-7.765,2.909l-49.459,49.514
	c-3.903,3.907-3.899,10.239,0.008,14.143c1.953,1.95,4.51,2.925,7.067,2.925c2.561,0,5.122-0.978,7.075-2.933l46.341-46.393
	c0.71,0.016,1.413,0.023,2.111,0.023c48.222-0.002,69.129-36.845,70.032-38.483c2.273-4.121,1.365-9.269-2.18-12.363
	c-0.376-0.329-4.999-4.25-12.972-6.173l35.953-35.952c4.167-4.168,10.558-5.479,16.281-3.34c6.782,2.534,13.62,3.819,20.326,3.819
	c15.836,0,29.324-7.685,37.851-14.131c5.053-3.82,8.747-7.47,10.955-9.858c4.632-5.009,6.194-7.899,6.194-11.458
	c0-1.857-0.404-3.468-1.463-5.31c10.835-8.536,25.869-26.163,30.267-59.952c0.461-3.537-0.998-7.052-3.827-9.224
	c-1.756-1.349-3.876-2.05-6.021-2.065l10.915-36.548c1.051-3.521,0.087-7.334-2.511-9.933
	C506.457,209.134,502.641,208.17,499.123,209.221z M479.112,260.444c-0.321,1.077-0.768,2.125-1.328,3.114
	c-0.368,0.651-0.649,1.326-0.858,2.013c-3.569,0.969-6.974,1.8-10.049,2.496l0.73-2.444c1.051-3.521,0.087-7.334-2.511-9.933
	c-2.599-2.597-6.415-3.563-9.933-2.511l-2.443,0.729c0.696-3.075,1.526-6.479,2.495-10.047c0.687-0.21,1.363-0.491,2.014-0.859
	c0.989-0.561,2.037-1.007,3.117-1.329l26.758-7.991L479.112,260.444z M437.322,233.629c-3.254,10.983-5.311,21.048-6.355,26.777
	l-17.57,5.247c-2.017-3.581-4.188-6.757-6.237-9.445c-0.455-0.596-0.907-1.172-1.355-1.731
	C409.86,248.724,418.964,239.253,437.322,233.629z M421.187,299.6c0.189-1.842,0.284-3.679,0.284-5.509
	c0-3.341-0.364-6.573-0.975-9.685l22.648-6.764l-6.763,22.649c-3.113-0.611-6.344-0.975-9.685-0.975
	C424.866,299.316,423.029,299.411,421.187,299.6z M466.31,314.984c-0.559-0.449-1.135-0.901-1.731-1.355
	c-2.687-2.049-5.864-4.221-9.445-6.238l5.247-17.57c5.729-1.045,15.793-3.101,26.777-6.356
	C481.534,301.823,472.063,310.927,466.31,314.984z"/>
<path d="M190.314,491.333c-2.63,0-5.21,1.069-7.07,2.93s-2.93,4.44-2.93,7.07s1.069,5.21,2.93,7.069
	c1.86,1.87,4.44,2.931,7.07,2.931s5.21-1.061,7.069-2.931c1.87-1.859,2.931-4.439,2.931-7.069s-1.061-5.21-2.931-7.07
	C195.524,492.403,192.944,491.333,190.314,491.333z"/>
<g>
</g>
<g>
</g>
<g>
</g>
<g>
</g>
<g>
</g>
<g>
</g>
<g>
</g>
<g>
</g>
<g>
</g>
<g>
</g>
<g>
</g>
<g>
</g>
<g>
</g>
<g>
</g>
<g>
</g>
</svg>
