<svg height="512" viewBox="0 0 74 74" width="512" xmlns="http://www.w3.org/2000/svg"><g id="color_line" data-name="color line"><path d="m37 5.185c21.668-.439 36.244 19.485 33.715 29.159-2.354 9.008-15.095 7.974-33.715 7.974s-31.361 1.034-33.715-7.974c-2.529-9.674 12.047-29.598 33.715-29.159z" fill="#fe7058"/><path d="m70.72 34.34c-2.36 9.01-15.1 7.98-33.72 7.98-18 0-30.51.96-33.45-7.12 5.05 4.37 16.2 3.71 31.12 3.71 18.62 0 31.36 1.03 33.71-7.97.85-3.23-.22-7.61-2.83-11.99 4.26 5.43 6.23 11.32 5.17 15.39z" fill="#ea6453"/><path d="m31.5 5.529a36.157 36.157 0 0 0 -24.74 15.771 36.01 36.01 0 0 1 24.74-13.239z" fill="#ea6453"/><path d="m59.956 14.905a4.822 4.822 0 0 1 1.25-.566 35.544 35.544 0 0 0 -20.238-9 8.857 8.857 0 0 0 .078 3.017 35.69 35.69 0 0 1 17.6 8.243 4.905 4.905 0 0 1 1.31-1.694z" fill="#ea6453"/><path d="m66.882 20.787a3.551 3.551 0 0 1 -.321.408 12.177 12.177 0 0 1 -1.085.921 3.426 3.426 0 0 1 -1.163.61c3.721 5.131 5.4 10.548 4.408 14.37a8.662 8.662 0 0 1 -.49 1.41 8.206 8.206 0 0 0 2.49-4.16c.942-3.621-.521-8.674-3.839-13.559z" fill="#ea6453"/><path d="m47.28 66.026a3.867 3.867 0 0 1 -3.924 3.974h-12.71a3.867 3.867 0 0 1 -3.925-3.97 8.478 8.478 0 0 1 2.109-4.737 10.677 10.677 0 0 0 2.47-6.169l.823-12.761c1.568 0 3.191-.011 4.872-.011s3.3.011 4.872.011l.833 12.758a10.6 10.6 0 0 0 2.47 6.169 8.478 8.478 0 0 1 2.11 4.736z" fill="#e1e6e9"/><path d="m43.355 70.5h-12.709a4.524 4.524 0 0 1 -3.276-1.411 4.121 4.121 0 0 1 -1.148-3.089 9.041 9.041 0 0 1 2.223-5.026 10.124 10.124 0 0 0 2.355-5.881l.823-12.766a.5.5 0 0 1 .5-.468l4.877-.011 4.872.011a.5.5 0 0 1 .5.467l.828 12.762a10.062 10.062 0 0 0 2.356 5.883 9.03 9.03 0 0 1 2.223 5.029 4.123 4.123 0 0 1 -1.147 3.086 4.524 4.524 0 0 1 -3.277 1.414zm-10.763-27.642-.792 12.295a11.116 11.116 0 0 1 -2.582 6.454 8.072 8.072 0 0 0 -2 4.447 3.137 3.137 0 0 0 .882 2.346 3.522 3.522 0 0 0 2.55 1.1h12.71a3.522 3.522 0 0 0 2.55-1.1 3.137 3.137 0 0 0 .876-2.344 8.059 8.059 0 0 0 -2-4.445 11.053 11.053 0 0 1 -2.583-6.46l-.8-12.29-4.4-.01z" fill="#323c6b"/><g fill="#e1e6e9"><path d="m59.776 38.31a5.742 5.742 0 0 1 -1.229 3.575 85.8 85.8 0 0 1 -8.864.451 5.851 5.851 0 1 1 10.093-4.026z"/><path d="m14.023 21.484a4.128 4.128 0 0 1 -8.086 1.162 31.668 31.668 0 0 1 3.834-5.267.462.462 0 0 1 .124-.011 4.12 4.12 0 0 1 4.128 4.116z"/><circle cx="32.879" cy="27.269" r="5.188"/><path d="m40.164 5.267a5.127 5.127 0 0 1 1.06 3.133 5.193 5.193 0 0 1 -10.387 0 5.118 5.118 0 0 1 .9-2.921 34.944 34.944 0 0 1 5.263-.291c1.066-.023 2.115.012 3.164.079z"/><path d="m66.835 20.705a4.433 4.433 0 1 1 -5.335-6.112 35.538 35.538 0 0 1 5.335 6.112z"/></g><path d="m59.78 38.307a5.787 5.787 0 0 1 -1.23 3.58c-.24.03-.48.05-.72.07a5.963 5.963 0 0 0 .28-1.81 5.845 5.845 0 0 0 -9.23-4.77 5.842 5.842 0 0 1 10.9 2.93z" fill="#d5d6db"/><path d="m14.02 21.487a4.067 4.067 0 0 1 -2.03 3.53 3.979 3.979 0 0 0 .37-1.69 4.125 4.125 0 0 0 -4.11-4.12c.48-.62.98-1.23 1.52-1.83a.569.569 0 0 1 .13-.01 4.121 4.121 0 0 1 4.12 4.12z" fill="#d5d6db"/><path d="m38.07 27.267a5.18 5.18 0 0 1 -2.29 4.3 5.1 5.1 0 0 0 .62-2.46 5.185 5.185 0 0 0 -8.09-4.29 5.187 5.187 0 0 1 9.76 2.45z" fill="#d5d6db"/><path d="m10.75 12.667a.5.5 0 0 1 -.334-.873l.235-.213c.152-.139.3-.278.461-.412a.5.5 0 1 1 .65.76c-.148.127-.293.259-.437.391l-.241.219a.5.5 0 0 1 -.334.128z" fill="#323c6b"/><path d="m13.542 10.545a.5.5 0 0 1 -.308-.895 38.186 38.186 0 0 1 9.134-5.286.5.5 0 1 1 .367.93 37.152 37.152 0 0 0 -8.885 5.146.5.5 0 0 1 -.308.105z" fill="#323c6b"/><path d="m49.314 70.17a.5.5 0 0 1 -.426-.761 6.05 6.05 0 0 0 .888-3.52 9.616 9.616 0 0 0 -1.276-4.154.5.5 0 1 1 .873-.487 10.6 10.6 0 0 1 1.4 4.586 7.04 7.04 0 0 1 -1.034 4.1.5.5 0 0 1 -.425.236z" fill="#323c6b"/><path d="m47.167 72.351a.5.5 0 0 1 -.266-.924c.13-.082.257-.168.38-.261a.5.5 0 0 1 .6.8c-.146.111-.3.214-.452.312a.5.5 0 0 1 -.262.073z" fill="#323c6b"/><path d="m27.171 42.854c-13.521 0-22.364-.709-24.37-8.383-1.11-4.248.921-10.337 5.3-15.893a36.239 36.239 0 0 1 28.22-13.9q.338 0 .678.007a36.259 36.259 0 0 1 28.901 13.893c4.381 5.556 6.412 11.645 5.3 15.893-2.226 8.513-12.867 8.453-28.977 8.366-3.367-.019-7.078-.019-10.445 0-1.59.008-3.128.017-4.607.017zm9.151-37.176a35.231 35.231 0 0 0 -27.434 13.522c-4.19 5.314-6.152 11.07-5.12 15.02 2.03 7.763 12.371 7.705 28 7.619 3.371-.019 7.086-.019 10.457 0 15.636.088 25.974.144 28-7.619 1.032-3.95-.93-9.706-5.12-15.02a35.151 35.151 0 0 0 -28.095-13.515h-.02c-.222-.004-.446-.007-.668-.007z" fill="#323c6b"/><path d="m18.966 37.978h-.061c-6.025-.555-9.688-1.91-11.876-4.394a.65.65 0 1 1 .971-.862c1.952 2.216 5.351 3.437 11.021 3.958a.65.65 0 0 1 -.059 1.3z" fill="#fff"/><path d="m24.312 38.266h-.012c-.675-.015-.937-.023-1.583-.049a.65.65 0 0 1 .053-1.3c.636.025.895.033 1.56.048a.65.65 0 0 1 -.015 1.3z" fill="#fff"/><path d="m49.683 42.836a.5.5 0 0 1 -.363-.156 6.351 6.351 0 1 1 10.956-4.37 6.235 6.235 0 0 1 -1.336 3.884.5.5 0 0 1 -.336.188 84.617 84.617 0 0 1 -8.916.455zm4.251-9.879a5.356 5.356 0 0 0 -4.034 8.876c3.548-.041 6.151-.172 8.375-.421a5.246 5.246 0 0 0 1-3.1 5.354 5.354 0 0 0 -5.341-5.355z" fill="#323c6b"/><path d="m9.9 26.1a4.656 4.656 0 0 1 -4.438-3.313.5.5 0 0 1 .038-.387 32.181 32.181 0 0 1 3.9-5.35.5.5 0 0 1 .252-.152.931.931 0 0 1 .245-.026 4.616 4.616 0 1 1 0 9.233zm-3.419-3.4a3.625 3.625 0 1 0 3.519-4.831 31.115 31.115 0 0 0 -3.519 4.831z" fill="#323c6b"/><path d="m32.879 32.957a5.688 5.688 0 1 1 5.688-5.687 5.694 5.694 0 0 1 -5.688 5.687zm0-10.375a4.688 4.688 0 1 0 4.688 4.688 4.693 4.693 0 0 0 -4.688-4.688z" fill="#323c6b"/><path d="m66.3 21.567c.3-.255.317-.47.58-.78a57.99 57.99 0 0 0 -5.38-6.194 3.977 3.977 0 0 0 -1.1.516 5.689 5.689 0 0 0 -1.759 1.486 64.394 64.394 0 0 1 5.67 6.132 4.367 4.367 0 0 0 1.989-1.16z" fill="#d5d6db"/><path d="m39.962 5.268c-.973-.068-1.962-.102-2.962-.081a37.972 37.972 0 0 0 -5.26.294l-.893 2.64c.986-.066 3.136-.205 4.154-.184a52.122 52.122 0 0 1 6.224.465 6.3 6.3 0 0 0 -1.263-3.134z" fill="#d5d6db"/><path d="m36.025 14.089a5.694 5.694 0 0 1 -5.687-5.689 5.618 5.618 0 0 1 .989-3.2.5.5 0 0 1 .347-.212 36.039 36.039 0 0 1 5.326-.3c.98-.02 2.034.006 3.191.08a.5.5 0 0 1 .364.195 5.608 5.608 0 0 1 1.169 3.437 5.7 5.7 0 0 1 -5.699 5.689zm-3.994-8.142a4.634 4.634 0 0 0 -.693 2.453 4.693 4.693 0 0 0 9.386 0 4.611 4.611 0 0 0 -.824-2.649c-1.036-.062-1.984-.082-2.893-.063a34.246 34.246 0 0 0 -4.976.259z" fill="#323c6b"/><path d="m62.82 23.754a4.931 4.931 0 0 1 -1.466-9.639.5.5 0 0 1 .483.109 35.9 35.9 0 0 1 5.41 6.2.5.5 0 0 1 .039.495 4.953 4.953 0 0 1 -4.466 2.835zm-1.438-8.591a3.932 3.932 0 1 0 4.871 5.58 34.874 34.874 0 0 0 -4.871-5.579z" fill="#323c6b"/></g></svg>