<?xml version="1.0" encoding="iso-8859-1"?>
<!-- Generator: Adobe Illustrator 19.0.0, SVG Export Plug-In . SVG Version: 6.00 Build 0)  -->
<svg version="1.1" id="Capa_1" xmlns="http://www.w3.org/2000/svg" xmlns:xlink="http://www.w3.org/1999/xlink" x="0px" y="0px"
	 viewBox="0 0 511.999 511.999" style="enable-background:new 0 0 511.999 511.999;" xml:space="preserve">
<path style="fill:#46C373;" d="M276.138,126.514c12.314-42.058,48.815-73.888,93.35-79.34c7.805-0.956,13.623-7.672,13.623-15.536
	l0,0c0-9.424-8.258-16.718-17.612-15.562c-61.345,7.578-110.761,54.22-122.516,114.191L276.138,126.514z"/>
<path style="fill:#A5DC69;" d="M253.708,90.832c0,0-7.194-75.835-101.148-75.835C168.163,108.339,253.708,90.832,253.708,90.832z"/>
<path style="fill:#FF5A5A;" d="M265.914,473.519L265.914,473.519C280.572,488.533,300.669,497,321.652,497l0,0
	c23.764,0,46.227-10.847,61.005-29.458l9.627-12.124c1.359-1.712,2.71-3.429,4.052-5.153
	c34.172-43.882,62.102-92.286,83.717-143.533l11.288-26.762c21.971-52.092,9.228-112.353-31.949-151.091l0,0
	c-48.664-45.78-123.463-49.171-176.07-7.983l-7.225,5.657c-11.804,9.242-28.39,9.242-40.195,0l-7.225-5.657
	c-52.608-41.188-127.406-37.796-176.07,7.983l0,0c-41.18,38.737-53.922,98.998-31.95,151.09l11.288,26.762
	c21.615,51.247,49.545,99.651,83.717,143.533c1.342,1.724,2.693,3.442,4.052,5.153l9.627,12.124
	c14.777,18.61,37.241,29.458,61.005,29.458l0,0c20.984,0,41.081-8.466,55.738-23.481l0,0
	C251.521,467.95,260.476,467.95,265.914,473.519z"/>
<path d="M72.963,387.854c-4.713,2.88-6.197,9.034-3.318,13.747c0.023,0.038,0.095,0.153,0.119,0.191
	c1.898,3.015,5.137,4.662,8.45,4.662c1.823,0,3.669-0.498,5.328-1.542c4.666-2.937,6.064-9.108,3.143-13.779
	C83.795,386.451,77.661,384.985,72.963,387.854z"/>
<path d="M508.83,197.348c-6.163-29.145-20.889-55.34-42.587-75.752c-25.276-23.778-58.287-37.739-92.954-39.311
	c-25.021-1.135-49.767,4.239-71.874,15.359c16.249-22.092,41.075-37.091,69.291-40.546c12.774-1.564,22.406-12.511,22.406-25.461
	c0-7.353-3.161-14.364-8.67-19.235c-5.514-4.874-12.863-7.146-20.165-6.25c-32.128,3.97-61.68,17.826-85.459,40.07
	c-7.636,7.143-14.438,14.946-20.375,23.288c-2.568-6.78-6.359-14.6-11.938-22.407c-13.721-19.207-41.157-42.104-93.942-42.104
	c-2.94,0-5.732,1.294-7.631,3.538c-1.9,2.244-2.716,5.211-2.231,8.109c5.284,31.606,18.681,54.992,39.822,69.507
	c0.726,0.498,1.455,0.977,2.187,1.446c-14.839-4.185-30.36-6.023-45.996-5.314c-34.667,1.572-67.679,15.533-92.954,39.311
	c-21.698,20.411-36.424,46.606-42.588,75.752s-3.301,59.058,8.276,86.507l11.288,26.764c8.756,20.758,18.598,41.168,29.254,60.659
	c2.649,4.846,8.725,6.625,13.57,3.978c4.846-2.649,6.626-8.725,3.978-13.57c-10.333-18.902-19.88-38.698-28.375-58.838
	l-11.288-26.764c-20.244-47.997-8.354-104.226,29.588-139.922c45.4-42.709,113.975-45.819,163.055-7.393l7.225,5.657
	c15.463,12.104,37.06,12.104,52.523,0l7.225-5.657c49.079-38.426,117.654-35.315,163.055,7.393
	c37.942,35.694,49.832,91.924,29.588,139.922l-11.288,26.763c-21.657,51.348-49.379,98.879-82.392,141.274
	c-1.324,1.699-2.656,3.394-3.995,5.08l-9.627,12.124c-12.957,16.318-32.337,25.677-53.174,25.677
	c-18.177,0-35.885-7.459-48.584-20.467c-4.527-4.637-10.589-7.189-17.07-7.189c-6.48,0-12.542,2.554-17.07,7.19
	c-12.699,13.007-30.406,20.466-48.584,20.466c-20.836,0-40.218-9.358-53.174-25.677l-9.626-12.122
	c-1.34-1.688-2.672-3.383-3.995-5.08c-5.43-6.973-10.787-14.181-15.923-21.422c-3.195-4.505-9.436-5.568-13.941-2.371
	c-4.505,3.194-5.566,9.436-2.372,13.94c5.308,7.483,10.844,14.933,16.458,22.141c1.361,1.748,2.731,3.489,4.109,5.227l9.627,12.124
	C138.283,494.885,163.373,507,190.346,507c23.531,0,46.454-9.656,62.893-26.494c0.988-1.013,2.153-1.163,2.76-1.163
	c0.607,0,1.772,0.15,2.76,1.162C275.197,497.344,298.12,507,321.651,507c26.974,0,52.063-12.115,68.835-33.238l9.628-12.126
	c1.377-1.735,2.747-3.477,4.11-5.227c34.091-43.778,62.703-92.829,85.041-145.791l11.288-26.762
	C512.131,256.406,514.993,226.493,508.83,197.348z M165.043,25.506c54.599,4.602,71.538,39.226,76.629,56.566
	c-11.506,0.492-30.97-0.83-47.833-12.407C180.032,60.187,170.375,45.365,165.043,25.506z M214.526,99.709
	c8.567,1.854,16.586,2.433,23.23,2.433c1.064,0,2.083-0.018,3.073-0.044c-1.577,4.031-2.983,8.136-4.216,12.312l-1.773-1.388
	C228.419,107.995,221.617,103.553,214.526,99.709z M254.838,123.448c13.872-52.083,57.797-90.766,111.887-97.449
	c2.215-0.273,3.751,0.75,4.469,1.385c0.717,0.634,1.918,2.028,1.918,4.254c0,2.861-2.081,5.273-4.839,5.611
	c-46.946,5.747-86.07,38.16-100.65,82.996C263.701,122.607,259.248,123.675,254.838,123.448z"/>
<path d="M434.734,287.615c-5.255,12.457-10.964,24.837-16.971,36.796c-2.479,4.936-0.487,10.944,4.448,13.424
	c1.44,0.723,2.972,1.065,4.48,1.065c3.662,0,7.187-2.019,8.943-5.514c6.204-12.353,12.101-25.137,17.526-37.999l11.288-26.762
	c17.144-40.645,7.074-88.262-25.056-118.487c-4.023-3.786-10.35-3.591-14.135,0.432c-3.784,4.022-3.591,10.35,0.432,14.134
	c26.073,24.528,34.244,63.168,20.332,96.149L434.734,287.615z"/>
<path d="M405.271,377.901c3.412,0,6.736-1.747,8.606-4.892c2.88-4.713,1.395-10.867-3.318-13.747
	c-4.712-2.877-10.867-1.394-13.746,3.318l-0.127,0.212c-2.823,4.747-1.262,10.88,3.485,13.703
	C401.773,377.448,403.534,377.901,405.271,377.901z"/>
<g>
</g>
<g>
</g>
<g>
</g>
<g>
</g>
<g>
</g>
<g>
</g>
<g>
</g>
<g>
</g>
<g>
</g>
<g>
</g>
<g>
</g>
<g>
</g>
<g>
</g>
<g>
</g>
<g>
</g>
</svg>
