<svg height="512" viewBox="0 0 74 74" width="512" xmlns="http://www.w3.org/2000/svg"><g id="color_line" data-name="color line"><path d="m61.25 45.58a3.307 3.307 0 0 1 .1 1.36 3.9 3.9 0 0 1 -.84 1.46 11.266 11.266 0 0 0 -1.78 3.69 8.263 8.263 0 0 1 -.8 2.35 5.977 5.977 0 0 1 -2.81 1.94c-1.58.68-2.679 1.871-4.389 2.051-.91.09-1.84.04-2.75.15-1.97.25-4.581.059-6.291 1.059h-.01c-.58-.18-6.01.14-6.92 1.15l-.02.02a2.462 2.462 0 0 1 -2.6.77c-.34-.14-.62-.38-.95-.53a4.1 4.1 0 0 0 -1.47-.3c-1.18-.1-2.36-.2-3.54-.29a9.311 9.311 0 0 1 -1.3-1.14c-1.34-1.37-2.46-3.05-4.16-3.93-1.5-.78-3.5-.99-4.35-2.47a8.4 8.4 0 0 1 -.59-1.88 6.536 6.536 0 0 0 -2.54-3.56 2.671 2.671 0 0 1 -1.04-1.66c-.28-1.24-1.15-2.4-1.57-3.66-.86-2.59-1.55-4.65-1.07-7.34.17-.97 1.32-2.7 1.51-3.66a2.748 2.748 0 0 0 .5-1.44 2.163 2.163 0 0 0 -.09-.62c.49-2.31 1.04-4.6 1.69-6.9a18.451 18.451 0 0 1 1.65-1.54 16.882 16.882 0 0 0 4.62-5.38 20.244 20.244 0 0 1 4.33.04c2.79.13 5.57-.3 8.36-.22s5.71.75 7.71 2.69a6.028 6.028 0 0 0 1.15 1 5 5 0 0 0 2.18.38 11.366 11.366 0 0 1 6.74 2.8 2.551 2.551 0 0 0 1.4.83 2.415 2.415 0 0 0 1.07-.29 8.722 8.722 0 0 1 4.72-.18 3.006 3.006 0 0 1 .42.63c.01.03.03.05.04.08.73 1.45 1.79 2.85 2.65 4.33a11.106 11.106 0 0 0 1.34 7.65 3.793 3.793 0 0 1 .71 1.59c.09.98-.68 1.79-1.12 2.66-.97 1.92-.36 4.21.11 6.31z" fill="#eeefee"/><g fill="#e1e6e9"><path d="m46.68 20-.03-.03a10.14 10.14 0 0 1 1.68.84 1.058 1.058 0 0 1 -.25.02 2.551 2.551 0 0 1 -1.4-.83z"/><path d="m61.25 45.33a3.307 3.307 0 0 1 .1 1.36 3.9 3.9 0 0 1 -.84 1.46 11.266 11.266 0 0 0 -1.78 3.69 8.263 8.263 0 0 1 -.8 2.35 5.977 5.977 0 0 1 -2.81 1.94c-1.58.68-2.679 1.871-4.389 2.051-.91.09-1.84.04-2.75.15-1.97.25-4.581.059-6.291 1.059h-.01c-.58-.18-6.01.14-6.92 1.15l-.02.02a2.462 2.462 0 0 1 -2.6.77c-.34-.14-.62-.38-.95-.53a4.1 4.1 0 0 0 -1.47-.3c-1.18-.1-2.36-.2-3.54-.29a9.311 9.311 0 0 1 -1.3-1.14c.7.05 1.39.12 2.09.17a4.1 4.1 0 0 1 1.47.3c.33.15.61.39.95.53a2.463 2.463 0 0 0 2.6-.77l.02-.03a5.156 5.156 0 0 1 3.57-1.58h.03a9.321 9.321 0 0 1 1.56-.18 9.447 9.447 0 0 1 1.76.62h.01a15.285 15.285 0 0 1 5.79-1.56c.91-.11 1.84-.06 2.75-.15a17.1 17.1 0 0 0 4.89-1.55 5.977 5.977 0 0 0 2.81-1.94 8.263 8.263 0 0 0 .8-2.35 11.265 11.265 0 0 1 1.78-3.69 3.9 3.9 0 0 0 .84-1.46 3.306 3.306 0 0 0 -.1-1.36c-.47-2.1-1.08-4.39-.11-6.31.44-.87 1.21-1.68 1.12-2.66a3.793 3.793 0 0 0 -.71-1.59 11.106 11.106 0 0 1 -1.34-7.65c-.66-1.13-1.43-2.21-2.09-3.31a7.084 7.084 0 0 1 2.19.24c.73 1.45 1.79 2.85 2.65 4.33a11.106 11.106 0 0 0 1.34 7.65 3.793 3.793 0 0 1 .71 1.59c.09.98-.68 1.79-1.12 2.66-.97 1.92-.36 4.21.11 6.31z"/><path d="m26.507 22.1a3 3 0 0 1 1.023 3.289 1.307 1.307 0 0 1 -.251.465c-.476.524-1.383.278-1.981.657-.758.481-.684 1.718-1.416 2.238a2.227 2.227 0 0 1 -.9.308l-3.069.57c-.557.1-1.236.164-1.586-.281a1.552 1.552 0 0 1 -.243-.865c-.152-2.077-.819-4.97 1.442-6.037 1.849-.874 5.228-1.644 6.981-.344z"/><path d="m19.245 30.2a1.6 1.6 0 0 1 -1.314-.546 2 2 0 0 1 -.348-1.138c-.021-.278-.05-.572-.081-.874-.207-2.04-.465-4.579 1.808-5.651 1.939-.916 5.536-1.749 7.5-.293a3.5 3.5 0 0 1 1.19 3.853 1.8 1.8 0 0 1 -.354.639 2.09 2.09 0 0 1 -1.365.559 1.9 1.9 0 0 0 -.719.185 1.773 1.773 0 0 0 -.528.887 2.691 2.691 0 0 1 -.865 1.336 2.662 2.662 0 0 1 -1.1.392l-3.069.57a4.1 4.1 0 0 1 -.755.081zm4.712-8.3a10.813 10.813 0 0 0 -4.221 1c-1.516.715-1.47 2.377-1.24 4.646.031.312.062.614.083.9a1.193 1.193 0 0 0 .137.592c.14.178.5.21 1.1.1l3.069-.57a1.859 1.859 0 0 0 .7-.223 1.925 1.925 0 0 0 .512-.882 2.561 2.561 0 0 1 .925-1.371 2.69 2.69 0 0 1 1.119-.332 1.31 1.31 0 0 0 .76-.24.837.837 0 0 0 .148-.29 2.511 2.511 0 0 0 -.848-2.727 3.763 3.763 0 0 0 -2.243-.603z"/><path d="m39.1 37.066a3 3 0 0 1 -1.98 2.818 1.307 1.307 0 0 1 -.521.085c-.706-.057-1.065-.926-1.73-1.167-.844-.307-1.778.507-2.637.246a2.227 2.227 0 0 1 -.8-.528l-2.325-2.083c-.422-.378-.885-.879-.746-1.428a1.552 1.552 0 0 1 .537-.72c1.552-1.388 3.435-3.683 5.661-2.544 1.823.934 4.498 3.138 4.541 5.321z"/><path d="m36.664 40.473c-.036 0-.072 0-.109 0a2.092 2.092 0 0 1 -1.275-.74 1.913 1.913 0 0 0 -.585-.457 1.775 1.775 0 0 0 -1.025.123 2.71 2.71 0 0 1 -1.586.131 2.675 2.675 0 0 1 -.983-.634l-2.328-2.086c-.309-.276-1.128-1.01-.9-1.923a2 2 0 0 1 .689-.971c.208-.186.422-.389.642-.6 1.489-1.41 3.342-3.164 5.58-2.02 1.909.978 4.766 3.318 4.809 5.758a3.5 3.5 0 0 1 -2.319 3.3 1.9 1.9 0 0 1 -.61.119zm-2.217-2.241a1.705 1.705 0 0 1 .588.1 2.676 2.676 0 0 1 .946.684c.238.235.444.438.654.455a.823.823 0 0 0 .32-.06 2.511 2.511 0 0 0 1.645-2.336c-.035-1.986-2.634-4.05-4.265-4.885-1.489-.762-2.78.288-4.437 1.855-.227.215-.448.424-.663.616a1.191 1.191 0 0 0 -.386.47c-.056.22.139.525.595.933l2.325 2.083a1.865 1.865 0 0 0 .608.422 1.917 1.917 0 0 0 1.01-.133 3.75 3.75 0 0 1 1.06-.204z"/><path d="m44.192 26.2c.542.293 1.137.81.967 1.4-.164.571-.926.742-1.223 1.257-.089.153-.131.331-.23.478a1.488 1.488 0 0 1 -.633.456 2.9 2.9 0 0 1 -2.39.372c-.673-.313-1-1.087-1.581-1.547-.662-.522-1.588-.588-2.282-1.066a4.556 4.556 0 0 1 -1.47-2.566c-.586-1.911 3.576-3.466 5.188-3.24 2.794.389 1.762 3.428 3.654 4.456z"/><path d="m41.358 30.8a2.071 2.071 0 0 1 -.885-.188 3.259 3.259 0 0 1 -1.123-1.006 3.773 3.773 0 0 0 -.557-.6 3.632 3.632 0 0 0 -1.049-.493 4.952 4.952 0 0 1 -1.207-.554 5.011 5.011 0 0 1 -1.664-2.831 1.908 1.908 0 0 1 .475-1.864 7.325 7.325 0 0 1 5.261-2.018c1.891.265 2.337 1.618 2.7 2.706a2.8 2.8 0 0 0 1.125 1.8c.964.521 1.417 1.261 1.21 1.98a1.867 1.867 0 0 1 -.827.973 1.564 1.564 0 0 0 -.443.4 1.278 1.278 0 0 0 -.072.158 2.055 2.055 0 0 1 -.175.348 1.938 1.938 0 0 1 -.833.629 4.644 4.644 0 0 1 -1.936.56zm-1.158-8.579a6.591 6.591 0 0 0 -4.092 1.693c-.414.485-.313.814-.28.922a4.091 4.091 0 0 0 1.275 2.3 4.128 4.128 0 0 0 .972.435 4.443 4.443 0 0 1 1.336.651 4.586 4.586 0 0 1 .717.759 2.451 2.451 0 0 0 .766.727 2.541 2.541 0 0 0 1.963-.37 1.175 1.175 0 0 0 .434-.283.982.982 0 0 0 .082-.174 1.875 1.875 0 0 1 .859-.986c.217-.154.4-.288.446-.434.074-.258-.324-.608-.725-.825a3.682 3.682 0 0 1 -1.6-2.37c-.341-1.034-.61-1.851-1.884-2.029a1.971 1.971 0 0 0 -.269-.016z"/><path d="m56.584 37.535c.388.479.738 1.185.354 1.666-.371.464-1.14.33-1.612.69-.141.108-.248.255-.4.353a1.488 1.488 0 0 1 -.76.177 2.9 2.9 0 0 1 -2.349-.575c-.5-.548-.5-1.387-.865-2.036-.411-.736-1.24-1.153-1.7-1.861a4.556 4.556 0 0 1 -.371-2.934c.193-1.989 4.633-1.825 6.035-1 2.436 1.438.313 3.846 1.668 5.52z"/><path d="m53.635 40.94a2.875 2.875 0 0 1 -2.182-.755 3.256 3.256 0 0 1 -.65-1.36 3.793 3.793 0 0 0 -.283-.77 3.635 3.635 0 0 0 -.779-.858 4.936 4.936 0 0 1 -.9-.976 5.012 5.012 0 0 1 -.448-3.253 1.905 1.905 0 0 1 1.155-1.538 7.327 7.327 0 0 1 5.632.159c1.644.971 1.536 2.392 1.449 3.534a2.8 2.8 0 0 0 .346 2.1c.689.852.822 1.708.356 2.293a1.867 1.867 0 0 1 -1.138.58 1.577 1.577 0 0 0 -.561.2 1.394 1.394 0 0 0 -.127.119 1.971 1.971 0 0 1 -.3.253 1.919 1.919 0 0 1 -1.011.261c-.157.001-.349.011-.559.011zm-1.591-9a4.73 4.73 0 0 0 -2.044.381c-.568.289-.6.631-.613.744a4.1 4.1 0 0 0 .293 2.614 4.15 4.15 0 0 0 .73.775 4.42 4.42 0 0 1 .983 1.114 4.579 4.579 0 0 1 .37.977 2.443 2.443 0 0 0 .428.965 2.518 2.518 0 0 0 1.955.413 1.172 1.172 0 0 0 .508-.094 1.007 1.007 0 0 0 .144-.13 2.293 2.293 0 0 1 .226-.2 2.337 2.337 0 0 1 .946-.376 1.108 1.108 0 0 0 .579-.229c.167-.209-.065-.686-.352-1.04a3.679 3.679 0 0 1 -.565-2.8c.083-1.085.148-1.942-.96-2.6a5.986 5.986 0 0 0 -2.628-.514z"/><path d="m48.993 48.7c.388.479.738 1.185.354 1.666-.371.464-1.14.33-1.612.69-.141.108-.248.255-.4.353a1.488 1.488 0 0 1 -.76.177 2.9 2.9 0 0 1 -2.349-.575c-.5-.548-.5-1.387-.865-2.036-.411-.736-1.24-1.153-1.7-1.861a4.556 4.556 0 0 1 -.371-2.934c.193-1.989 4.633-1.825 6.035-1 2.436 1.441.312 3.849 1.668 5.52z"/><path d="m46.046 52.107a2.88 2.88 0 0 1 -2.185-.755 3.256 3.256 0 0 1 -.65-1.36 3.793 3.793 0 0 0 -.283-.77 3.651 3.651 0 0 0 -.779-.859 4.954 4.954 0 0 1 -.9-.975 5.014 5.014 0 0 1 -.448-3.253 1.907 1.907 0 0 1 1.154-1.535 7.333 7.333 0 0 1 5.632.159c1.644.971 1.536 2.393 1.449 3.535a2.8 2.8 0 0 0 .346 2.1c.689.851.823 1.708.356 2.292a1.869 1.869 0 0 1 -1.138.581 1.577 1.577 0 0 0 -.561.2 1.373 1.373 0 0 0 -.126.118 1.974 1.974 0 0 1 -.3.254 1.937 1.937 0 0 1 -1.01.261c-.157 0-.348.007-.557.007zm-1.594-9a4.73 4.73 0 0 0 -2.044.381c-.568.289-.6.631-.613.744a4.1 4.1 0 0 0 .293 2.614 4.158 4.158 0 0 0 .73.774 4.435 4.435 0 0 1 .983 1.115 4.579 4.579 0 0 1 .37.977 2.443 2.443 0 0 0 .428.965 2.52 2.52 0 0 0 1.955.413 1.184 1.184 0 0 0 .509-.09.99.99 0 0 0 .143-.129 1.862 1.862 0 0 1 1.171-.581 1.108 1.108 0 0 0 .58-.229c.167-.209-.065-.686-.352-1.039a3.679 3.679 0 0 1 -.565-2.8c.083-1.085.148-1.943-.96-2.6a5.988 5.988 0 0 0 -2.628-.515z"/><path d="m36.225 52.3c.388.479.738 1.185.354 1.666-.371.464-1.14.33-1.612.69-.141.108-.248.255-.4.353a1.488 1.488 0 0 1 -.76.177 2.9 2.9 0 0 1 -2.349-.575c-.5-.548-.5-1.387-.865-2.036-.411-.736-1.24-1.153-1.7-1.861a4.556 4.556 0 0 1 -.371-2.934c.193-1.989 4.633-1.825 6.035-1 2.436 1.438.313 3.847 1.668 5.52z"/><path d="m33.276 55.705a2.875 2.875 0 0 1 -2.182-.755 3.256 3.256 0 0 1 -.65-1.36 3.793 3.793 0 0 0 -.283-.77 3.629 3.629 0 0 0 -.779-.858 4.947 4.947 0 0 1 -.9-.976 5.012 5.012 0 0 1 -.448-3.253 1.906 1.906 0 0 1 1.153-1.533 7.337 7.337 0 0 1 5.632.158c1.644.971 1.536 2.393 1.449 3.535a2.8 2.8 0 0 0 .346 2.1c.689.851.823 1.708.356 2.293a1.867 1.867 0 0 1 -1.138.58 1.577 1.577 0 0 0 -.561.2 1.394 1.394 0 0 0 -.127.119 1.971 1.971 0 0 1 -.3.253 1.937 1.937 0 0 1 -1.01.261c-.156.001-.348.006-.558.006zm-1.591-9a4.725 4.725 0 0 0 -2.045.381c-.568.289-.6.631-.613.743a4.1 4.1 0 0 0 .293 2.614 4.148 4.148 0 0 0 .73.774 4.44 4.44 0 0 1 .983 1.114 4.579 4.579 0 0 1 .37.977 2.443 2.443 0 0 0 .428.965 2.524 2.524 0 0 0 1.955.413 1.184 1.184 0 0 0 .509-.094 1.02 1.02 0 0 0 .143-.129 2.293 2.293 0 0 1 .226-.2 2.337 2.337 0 0 1 .946-.376 1.108 1.108 0 0 0 .579-.229c.167-.209-.065-.686-.352-1.04a3.679 3.679 0 0 1 -.565-2.8c.083-1.085.148-1.943-.96-2.6a5.985 5.985 0 0 0 -2.627-.512z"/><path d="m24.034 38.849c.594-.164 1.381-.2 1.669.342.277.525-.154 1.177-.012 1.753.042.172.134.33.165.5a1.488 1.488 0 0 1 -.141.767c-.294.781-.677 1.653-1.467 1.923-.7.24-1.473-.093-2.212-.021-.839.082-1.553.675-2.385.811a4.556 4.556 0 0 1 -2.837-.834c-1.746-.973.181-4.977 1.5-5.93 2.286-1.648 3.644 1.261 5.72.689z"/><path d="m19.267 45.458a5.73 5.73 0 0 1 -2.7-.928 1.908 1.908 0 0 1 -.948-1.675 7.331 7.331 0 0 1 2.4-5.1c1.547-1.119 2.806-.451 3.819.086a2.8 2.8 0 0 0 2.06.522c1.058-.293 1.9-.071 2.244.59a1.867 1.867 0 0 1 .077 1.275 1.564 1.564 0 0 0 -.045.593 1.215 1.215 0 0 0 .057.163 1.591 1.591 0 0 1 -.051 1.4 3.4 3.4 0 0 1 -1.774 2.22 3.274 3.274 0 0 1 -1.506.051 3.8 3.8 0 0 0 -.818-.048 3.644 3.644 0 0 0 -1.1.371 4.971 4.971 0 0 1 -1.255.436 2.9 2.9 0 0 1 -.46.044zm.481-7.306a1.911 1.911 0 0 0 -1.14.417 6.44 6.44 0 0 0 -1.986 4.231c.037.637.337.8.437.859a4.085 4.085 0 0 0 2.513.777 4.129 4.129 0 0 0 1-.359 4.438 4.438 0 0 1 1.414-.455 4.444 4.444 0 0 1 1.043.052 2.466 2.466 0 0 0 1.056-.006c.581-.2.9-.943 1.162-1.626a1.193 1.193 0 0 0 .117-.5.989.989 0 0 0 -.062-.184 2.316 2.316 0 0 1 -.1-.288 2.34 2.34 0 0 1 .034-1.018 1.1 1.1 0 0 0 .021-.623c-.125-.237-.655-.214-1.093-.093a3.678 3.678 0 0 1 -2.794-.6 3.627 3.627 0 0 0 -1.622-.584z"/><path d="m10.411 36.757a.5.5 0 0 1 -.152-.977 3.694 3.694 0 0 0 1.353-1 6.215 6.215 0 0 1 1.207-1.006 6.121 6.121 0 0 1 3.7-.468 5.267 5.267 0 0 0 3.135-.345.5.5 0 0 1 .516.856 6.062 6.062 0 0 1 -3.729.486 5.345 5.345 0 0 0 -3.121.333 5.426 5.426 0 0 0 -1.01.854 4.486 4.486 0 0 1 -1.752 1.243.5.5 0 0 1 -.147.024z"/><path d="m31.178 22.538a.5.5 0 0 1 -.407-.79 1.689 1.689 0 0 0 -.307-2.181c-.1-.078-.2-.146-.309-.214a3.225 3.225 0 0 1 -.6-.46 3.2 3.2 0 0 1 -.651-1.225 3.364 3.364 0 0 0 -.316-.725 3.241 3.241 0 0 0 -2.111-1.021.5.5 0 1 1 .2-.979 4.033 4.033 0 0 1 2.745 1.451 4.157 4.157 0 0 1 .424.944 2.382 2.382 0 0 0 .429.862 2.41 2.41 0 0 0 .419.313c.133.086.267.174.391.272a2.671 2.671 0 0 1 .5 3.542.5.5 0 0 1 -.407.211z"/><path d="m50.173 28.419a.5.5 0 0 1 -.5-.571 1.912 1.912 0 0 0 -.11-.718 3.071 3.071 0 0 1 -.152-.982 3.161 3.161 0 0 1 1.189-1.981c.425-.413.815-.857.792-1.3a.5.5 0 1 1 1-.05 2.792 2.792 0 0 1 -1.092 2.067c-.4.392-.859.835-.884 1.316a2.243 2.243 0 0 0 .118.666 2.716 2.716 0 0 1 .136 1.124.5.5 0 0 1 -.497.429z"/><path d="m59.432 50.623a.5.5 0 0 1 -.491-.41.583.583 0 0 0 -.095-.252 1 1 0 0 0 -.5-.239 3.179 3.179 0 0 0 -.792-.116c-.164.009-.282.013-.423.026s-.272.024-.409.028a3.775 3.775 0 0 1 -2.983-1.4.5.5 0 1 1 .786-.617 2.639 2.639 0 0 0 2.168 1.016c.116 0 .232-.014.349-.024a4.073 4.073 0 0 0 .513-.03 4.127 4.127 0 0 1 1.039.147 1.857 1.857 0 0 1 1.045.593 1.544 1.544 0 0 1 .29.688.5.5 0 0 1 -.4.582.475.475 0 0 1 -.097.008z"/><path d="m23.7 58.456h-.053a.5.5 0 0 1 -.445-.549 4.019 4.019 0 0 1 1.362-2.6l.135-.112a2.3 2.3 0 0 0 .247-.22.957.957 0 0 0 .134-1.05 2.609 2.609 0 0 0 -.3-.406 2.327 2.327 0 0 1 -.553-.946.5.5 0 1 1 .972-.234 1.539 1.539 0 0 0 .349.54 3.381 3.381 0 0 1 .415.579 1.947 1.947 0 0 1 -.281 2.194 3.366 3.366 0 0 1 -.35.317l-.117.1a3.011 3.011 0 0 0 -1.02 1.95.5.5 0 0 1 -.495.437z"/></g><path d="m72.767 41.083h-.009a.5.5 0 0 1 -.491-.509c0-.26 0-.516-.008-.772v-.124a.5.5 0 0 1 .488-.512.485.485 0 0 1 .512.488v.123c.007.271.013.541.008.816a.5.5 0 0 1 -.5.49z" fill="#323c6b"/><path d="m69.322 53.785a.5.5 0 0 1 -.451-.716 34.742 34.742 0 0 0 3.129-9.48.5.5 0 1 1 .988.155 35.747 35.747 0 0 1 -3.21 9.756.5.5 0 0 1 -.456.285z" fill="#323c6b"/><path d="m32.829 62.213a2.322 2.322 0 0 1 -.876-.169 3.883 3.883 0 0 1 -.587-.32 3.343 3.343 0 0 0 -.383-.219 3.679 3.679 0 0 0 -1.3-.256c-1.187-.1-2.366-.2-3.544-.291a.5.5 0 0 1 -.25-.09 14.687 14.687 0 0 1 -2.459-2.393 10.774 10.774 0 0 0 -2.943-2.642 12.092 12.092 0 0 0 -1.422-.586 5.347 5.347 0 0 1 -3.13-2.078 5.551 5.551 0 0 1 -.508-1.479c-.041-.172-.082-.345-.13-.515a6.059 6.059 0 0 0 -2.349-3.283 3.206 3.206 0 0 1 -1.238-1.961 14.347 14.347 0 0 0 -1.41-3.319l-.115-.22c-1.716-3.28-1.74-6.1-.074-8.618a3.31 3.31 0 0 0 .352-1.622 8.078 8.078 0 0 1 .114-1.089.5.5 0 0 1 .066-.167 2.222 2.222 0 0 0 .424-1.176 1.638 1.638 0 0 0 -.067-.476.506.506 0 0 1 -.01-.248c.528-2.489 1.083-4.756 1.7-6.932a.5.5 0 0 1 .118-.208 18.816 18.816 0 0 1 1.692-1.581 16.442 16.442 0 0 0 4.493-5.221.5.5 0 0 1 .362-.267 14.31 14.31 0 0 1 3.426-.031c.339.024.678.048 1.013.064a40.729 40.729 0 0 0 4.322-.1c1.316-.077 2.679-.156 4.027-.118 3.5.1 6.211 1.053 8.044 2.831l.227.226a4.081 4.081 0 0 0 .822.7 3.762 3.762 0 0 0 1.644.3l.316.015a11.817 11.817 0 0 1 7.046 2.926 2.23 2.23 0 0 0 1.1.706 2.034 2.034 0 0 0 .829-.248 9.273 9.273 0 0 1 5.057-.206.5.5 0 0 1 .241.149 3.454 3.454 0 0 1 .491.732 25.613 25.613 0 0 0 1.55 2.592c.385.591.772 1.187 1.128 1.8a.5.5 0 0 1 .06.34 10.642 10.642 0 0 0 1.276 7.3l.08.128a3.832 3.832 0 0 1 .7 1.677 3.675 3.675 0 0 1 -.779 2.257c-.139.223-.277.445-.392.672-.83 1.642-.375 3.647.064 5.586l.087.389a3.709 3.709 0 0 1 .1 1.566 3.891 3.891 0 0 1 -.828 1.528l-.1.136a10.706 10.706 0 0 0 -1.7 3.519c-.048.177-.092.354-.136.531a6.272 6.272 0 0 1 -.726 1.959 6.408 6.408 0 0 1 -3.031 2.128 11.878 11.878 0 0 0 -1.539.849 6.985 6.985 0 0 1 -3 1.241c-.439.043-.881.056-1.322.068-.493.013-.958.025-1.42.082-.555.07-1.164.107-1.789.144a10.121 10.121 0 0 0 -4.311.85.531.531 0 0 1 -.411.046c-.7-.166-5.713.248-6.4 1.007a3.272 3.272 0 0 1 -2.292 1.085zm-6.47-2.241c1.134.087 2.269.184 3.4.28a4.555 4.555 0 0 1 1.643.347 4.352 4.352 0 0 1 .492.278 2.908 2.908 0 0 0 .434.241 1.974 1.974 0 0 0 2.043-.648c1.042-1.148 5.957-1.44 7.209-1.343a11.472 11.472 0 0 1 4.61-.9c.6-.036 1.188-.07 1.725-.138.511-.062 1.022-.075 1.517-.089.417-.011.834-.022 1.247-.062a6.121 6.121 0 0 0 2.572-1.1 12.677 12.677 0 0 1 1.668-.917 5.649 5.649 0 0 0 2.588-1.753 5.45 5.45 0 0 0 .6-1.656c.046-.186.092-.372.142-.555a11.707 11.707 0 0 1 1.858-3.852l.112-.147a3.052 3.052 0 0 0 .643-1.123 2.874 2.874 0 0 0 -.1-1.146l-.087-.387c-.456-2.013-.973-4.3.019-6.258.128-.252.281-.5.436-.749a2.862 2.862 0 0 0 .632-1.64 3 3 0 0 0 -.552-1.235l-.085-.137a11.647 11.647 0 0 1 -1.439-7.818c-.322-.542-.667-1.073-1.011-1.6a26.7 26.7 0 0 1 -1.6-2.685 2.768 2.768 0 0 0 -.253-.408 8.378 8.378 0 0 0 -4.3.217 2.563 2.563 0 0 1 -1.234.308 2.856 2.856 0 0 1 -1.654-.909 10.85 10.85 0 0 0 -6.492-2.721l-.3-.014a4.62 4.62 0 0 1 -2.09-.428 4.892 4.892 0 0 1 -1.042-.866l-.215-.213c-1.647-1.6-4.129-2.456-7.375-2.548-1.307-.039-2.646.041-3.94.116a42.455 42.455 0 0 1 -4.429.1c-.344-.017-.689-.041-1.036-.066a15 15 0 0 0 -2.944-.018 17.6 17.6 0 0 1 -4.625 5.308 17.852 17.852 0 0 0 -1.523 1.412c-.586 2.084-1.118 4.255-1.624 6.631a2.661 2.661 0 0 1 .076.634 3.151 3.151 0 0 1 -.525 1.623 8.05 8.05 0 0 0 -.081.867 4.084 4.084 0 0 1 -.517 2.116c-1.467 2.218-1.427 4.634.125 7.6l.115.22a15.069 15.069 0 0 1 1.5 3.564 2.215 2.215 0 0 0 .833 1.359 7.075 7.075 0 0 1 2.74 3.834c.051.183.1.368.14.553a4.738 4.738 0 0 0 .4 1.217 4.567 4.567 0 0 0 2.6 1.633 12.931 12.931 0 0 1 1.541.639 11.675 11.675 0 0 1 3.233 2.868 14.413 14.413 0 0 0 2.18 2.164z" fill="#323c6b"/><path d="m13.353 21.554c-.98-.4-5.2.483-6.058 4.458-.879 4.059-.109 7.258-1.048 11.3a11.115 11.115 0 0 1 -.821 2.534c-.259.511-.591.984-.817 1.51-.673 1.564-.335 3.356.015 5.022l1.6 7.64a9.327 9.327 0 0 0 1.291 3.6 14.73 14.73 0 0 0 3.519 2.856c2.23 1.655 3.847 3.983 5.75 6.006a12.937 12.937 0 0 0 8.094 3.763 24.5 24.5 0 0 0 4.255-.413c4.022-.836 6.633-6.287 10.647-7.144a.01.01 0 0 0 0-.019c-2.412-.887-5.511-.273-8.839-2.078-.891-.484-3.6-.352-4.506-.8-2.528-1.24-3.214-3.1-5.713-4.4-1.509-.784-3.507-.991-4.351-2.467a8.079 8.079 0 0 1 -.591-1.881 6.549 6.549 0 0 0 -2.549-3.561 2.707 2.707 0 0 1 -1.031-1.663c-.278-1.246-1.145-2.394-1.565-3.653-.864-2.594-1.622-5.839-.106-8.114 2.829-4.25 2.509-8.35 2.824-12.496z" fill="#6fc666"/><path d="m39.79 62.668a.008.008 0 0 1 0 .016c-4.022.856-6.626 6.3-10.656 7.143a24.2 24.2 0 0 1 -4.25.42 12.972 12.972 0 0 1 -8.094-3.767c-1.91-2.02-3.52-4.35-5.75-6a14.9 14.9 0 0 1 -3.52-2.86 9.2 9.2 0 0 1 -1.29-3.6c-.54-2.54-1.07-5.09-1.61-7.64-.35-1.66-.68-3.46-.01-5.02.23-.51.55-.98.8-1.48a11.167 11.167 0 0 0 .33 3.97c.53 2.54 1.07 5.09 1.6 7.64a9.214 9.214 0 0 0 1.29 3.59 14.856 14.856 0 0 0 3.52 2.86c2.23 1.65 3.85 3.98 5.75 6.01a11.994 11.994 0 0 0 7.906 3.335 24.388 24.388 0 0 0 4.26-.41 4.139 4.139 0 0 0 2.834-1.736c1.687-1.844 4.554-3.356 6.892-2.471z" fill="#65b54e"/><path d="m20.993 63.375a.5.5 0 0 1 -.292-.094c-12.142-8.758-15.725-23.169-15.761-23.313a.5.5 0 0 1 .973-.234c.034.141 3.539 14.2 15.373 22.736a.5.5 0 0 1 -.293.906z" fill="#5fa348"/><path d="m25.1 70.748c-.084 0-.164 0-.238 0a13.4 13.4 0 0 1 -8.442-3.919c-.6-.644-1.182-1.317-1.758-1.991a25.12 25.12 0 0 0 -3.926-3.957c-.32-.237-.653-.461-.987-.685a9.721 9.721 0 0 1 -2.639-2.285 9.763 9.763 0 0 1 -1.374-3.785l-1.6-7.64c-.408-1.945-.688-3.688.015-5.322a8.9 8.9 0 0 1 .5-.947c.114-.2.228-.391.33-.592a10.7 10.7 0 0 0 .78-2.425 21.509 21.509 0 0 0 .4-5.193 19.068 19.068 0 0 1 .659-6.148 7.351 7.351 0 0 1 3.866-4.459 4.028 4.028 0 0 1 2.856-.312.5.5 0 0 1 .31.5c-.052.689-.087 1.377-.122 2.065-.174 3.45-.354 7.018-2.788 10.669-1.43 2.146-.591 5.41.165 7.678a11.455 11.455 0 0 0 .7 1.552 9.287 9.287 0 0 1 .879 2.15 2.219 2.219 0 0 0 .835 1.363 7 7 0 0 1 2.744 3.835c.051.183.1.369.139.555a4.56 4.56 0 0 0 .4 1.214 4.544 4.544 0 0 0 2.6 1.63 13.074 13.074 0 0 1 1.548.641 11.7 11.7 0 0 1 2.921 2.266 10.217 10.217 0 0 0 2.781 2.13 7.993 7.993 0 0 0 2.016.33 7.493 7.493 0 0 1 2.509.479 13.556 13.556 0 0 0 5.54 1.449 13.2 13.2 0 0 1 3.232.6.51.51 0 0 1 -.07.977c-1.863.4-3.419 1.876-5.066 3.441-1.685 1.6-3.426 3.254-5.582 3.7a26.15 26.15 0 0 1 -4.133.436zm-12.427-48.8a4.026 4.026 0 0 0 -1.584.37 6.36 6.36 0 0 0 -3.325 3.868 18.012 18.012 0 0 0 -.604 5.814 22.316 22.316 0 0 1 -.425 5.426 11.545 11.545 0 0 1 -.862 2.646c-.111.219-.235.432-.358.645a7.7 7.7 0 0 0 -.446.838c-.588 1.365-.328 2.946.044 4.722l1.6 7.64a9.01 9.01 0 0 0 1.208 3.408 8.842 8.842 0 0 0 2.385 2.034c.347.233.693.466 1.025.712a25.834 25.834 0 0 1 4.09 4.109c.566.662 1.132 1.324 1.727 1.955a12.5 12.5 0 0 0 7.752 3.61 24.27 24.27 0 0 0 4.137-.4c1.876-.39 3.44-1.875 5.1-3.448a17.824 17.824 0 0 1 3.962-3.123c-.472-.073-.965-.124-1.472-.175a14.566 14.566 0 0 1 -5.927-1.569 7.654 7.654 0 0 0 -2.123-.361 7.855 7.855 0 0 1 -2.364-.428 11.182 11.182 0 0 1 -3.041-2.313 10.714 10.714 0 0 0 -2.683-2.093 12.121 12.121 0 0 0 -1.43-.589 5.324 5.324 0 0 1 -3.125-2.073 5.375 5.375 0 0 1 -.509-1.48c-.041-.172-.081-.345-.129-.514a6.085 6.085 0 0 0 -2.353-3.286 3.207 3.207 0 0 1 -1.238-1.966 8.459 8.459 0 0 0 -.794-1.914 12.387 12.387 0 0 1 -.757-1.69c-.891-2.676-1.7-6.066-.047-8.549 2.281-3.422 2.446-6.7 2.621-10.165.028-.551.056-1.1.092-1.655-.043-.005-.092-.006-.145-.006z" fill="#323c6b"/><path d="m11.333 49.5a.507.507 0 0 1 -.148-.022l-2.62-.815a.5.5 0 0 1 .3-.955l2.62.815a.5.5 0 0 1 -.148.978z" fill="#5fa348"/><path d="m14.792 54.875a.52.52 0 0 1 -.1-.01l-2.668-.553a.5.5 0 1 1 .2-.979l2.668.553a.5.5 0 0 1 -.1.99z" fill="#5fa348"/><path d="m18.708 59.146h-2.59a.5.5 0 1 1 0-1h2.591a.5.5 0 1 1 0 1z" fill="#5fa348"/><path d="m10.282 54.6a.5.5 0 0 1 -.5-.5v-3.095a.5.5 0 1 1 1 0v3.095a.5.5 0 0 1 -.5.5z" fill="#5fa348"/><path d="m15.041 59.917a.5.5 0 0 1 -.486-.383l-.639-2.66a.5.5 0 1 1 .973-.233l.639 2.66a.5.5 0 0 1 -.37.6.508.508 0 0 1 -.117.016z" fill="#5fa348"/><path d="m57.63 25.537c-.157 4.031 1.333 5.146 3.617 8.922a4 4 0 0 1 .731 1.644c.088 1.012-.708 1.854-1.165 2.761-1 1.992-.372 4.37.115 6.547a3.359 3.359 0 0 1 .1 1.412 4.119 4.119 0 0 1 -.863 1.512 11.538 11.538 0 0 0 -1.85 3.825 8.385 8.385 0 0 1 -.836 2.438 6.185 6.185 0 0 1 -2.913 2.011 17.522 17.522 0 0 1 -5.066 1.608c-.95.1-1.912.042-2.859.162-2.035.259-4.654.276-6.427 1.309.556 1.438 3.353 3.592 4.778 3.912a27.677 27.677 0 0 0 2.793.526c3.677.435 7.676-1.643 11-3.266a15.1 15.1 0 0 0 5.8-4.459 17.161 17.161 0 0 0 1.321-2.258c2.765-5.415 4.867-12.527 3.359-18.417-.385-1.5-1-2.94-1.432-4.43-.864-2.952-5.672-9.1-5.859-10.653-.1-.858-.645-3.68-1.913-3.6-1.21.083-2.371 6.974-2.431 8.494z" fill="#6fc666"/><path d="m65.91 54.142a16.92 16.92 0 0 1 -1.317 2.258 15.094 15.094 0 0 1 -5.8 4.461c-3.33 1.618-7.335 3.692-11.007 3.267a28.14 28.14 0 0 1 -2.786-.528 12.816 12.816 0 0 1 -2.044-.726c.643.135 1.3.259 1.961.342 3.683.436 7.677-1.648 11.007-3.267a15.094 15.094 0 0 0 5.8-4.461 18.053 18.053 0 0 0 1.328-2.251c2.759-5.415 4.865-12.53 3.351-18.422-.384-1.5-1-2.936-1.432-4.429-.861-2.956-5.129-2.508-4.932-5.568.1-1.566-.734-3.534-.921-5.09a10.2 10.2 0 0 0 -.27-1.359c.3-.716.695-1.3 1.224-1.328 1.266-.083 1.815 2.739 1.919 3.6.187 1.556 4.992 7.7 5.853 10.658.436 1.483 1.048 2.925 1.432 4.429 1.51 5.883-.596 12.999-3.366 18.414z" fill="#65b54e"/><path d="m48.815 64.685a9.3 9.3 0 0 1 -1.087-.062 13.97 13.97 0 0 1 -2.9-.55 10.334 10.334 0 0 1 -5.061-4.155.5.5 0 0 1 .192-.662 13.24 13.24 0 0 1 5.263-1.23c.468-.045.924-.088 1.353-.143.529-.067 1.059-.081 1.571-.1.434-.012.868-.023 1.3-.068a17.123 17.123 0 0 0 4.921-1.57 5.869 5.869 0 0 0 2.692-1.824 5.752 5.752 0 0 0 .637-1.762c.044-.179.088-.358.136-.535a11.961 11.961 0 0 1 1.93-3.991l.133-.177a3.135 3.135 0 0 0 .644-1.14 2.926 2.926 0 0 0 -.1-1.2l-.089-.393c-.473-2.089-1.008-4.456.016-6.488.133-.264.293-.523.453-.782a3.015 3.015 0 0 0 .66-1.71 3.056 3.056 0 0 0 -.545-1.239l-.116-.189c-.567-.937-1.1-1.692-1.577-2.357-1.454-2.046-2.415-3.4-2.11-6.867.008-.092.8-8.808 2.9-8.946 1.877-.1 2.391 3.61 2.442 4.036a21.413 21.413 0 0 0 2.366 4.223 32.41 32.41 0 0 1 3.477 6.349c.188.642.409 1.273.63 1.9.288.823.585 1.673.807 2.542 1.87 7.289-1.753 15.558-3.393 18.775a17.744 17.744 0 0 1 -1.36 2.323 15.282 15.282 0 0 1 -5.989 4.616l-.519.253c-3.01 1.473-6.382 3.123-9.677 3.123zm-7.884-4.8a9.523 9.523 0 0 0 4.223 3.243 13 13 0 0 0 2.643.5c3.392.4 7.038-1.384 10.255-2.958l.52-.254a14.348 14.348 0 0 0 5.617-4.3 16.918 16.918 0 0 0 1.281-2.193c1.591-3.116 5.1-11.113 3.32-18.065-.211-.828-.5-1.658-.783-2.46-.226-.647-.453-1.3-.646-1.954a32.134 32.134 0 0 0 -3.361-6.102c-1.5-2.354-2.418-3.837-2.515-4.639-.182-1.507-.783-3.159-1.364-3.159h-.021c-.628.263-1.654 4.4-1.973 8.036-.272 3.1.51 4.2 1.93 6.2.483.68 1.031 1.45 1.617 2.419l.112.182a3.882 3.882 0 0 1 .69 1.677 3.831 3.831 0 0 1 -.806 2.324c-.145.233-.29.467-.411.705-.862 1.711-.39 3.8.067 5.817l.089.4a3.757 3.757 0 0 1 .1 1.624 3.96 3.96 0 0 1 -.815 1.532l-.127.17a10.978 10.978 0 0 0 -1.773 3.66c-.046.169-.088.341-.13.513a6.573 6.573 0 0 1 -.768 2.066 6.615 6.615 0 0 1 -3.134 2.2 17.865 17.865 0 0 1 -5.215 1.648c-.457.047-.917.06-1.376.072-.51.014-.992.027-1.472.088-.439.056-.9.1-1.383.146a14.786 14.786 0 0 0 -4.39.86z" fill="#323c6b"/><path d="m47.481 8.334a8.261 8.261 0 0 1 1.9-.122 5.7 5.7 0 0 1 2.467 1.2 6.344 6.344 0 0 1 1.576 1.4 6.338 6.338 0 0 1 .746 1.613 20.281 20.281 0 0 1 2.93 9.906 8.77 8.77 0 0 0 -4.727.175 2.271 2.271 0 0 1 -1.068.29 2.542 2.542 0 0 1 -1.4-.823 11.28 11.28 0 0 0 -6.736-2.8 5.1 5.1 0 0 1 -2.181-.385 5.729 5.729 0 0 1 -1.147-1c-2-1.94-4.929-2.609-7.716-2.689s-5.573.344-8.358.217c-1.775-.081-3.73 2.1-5.417 2.658-1.582.525-7.343 1.67-8.8.857 4.344-1.838 7.366-5.871 11.45-8.221 3.935-2.263 8.747-2.9 12.305-5.719a8.622 8.622 0 0 1 2.595-1.736 5.457 5.457 0 0 1 3.766.539 6.219 6.219 0 0 1 3.473 3.1c.314.818.233 1.067 1.157 1.313a8.827 8.827 0 0 0 3.185.227z" fill="#6fc666"/><path d="m57.1 22.33a7.263 7.263 0 0 0 -.95-.19 23.968 23.968 0 0 0 -2.71-7.19 6.228 6.228 0 0 0 -.75-1.61 6.57 6.57 0 0 0 -1.57-1.4 5.811 5.811 0 0 0 -2.47-1.2 8.681 8.681 0 0 0 -1.9.13 9.035 9.035 0 0 1 -3.19-.23c-.92-.25-.84-.5-1.15-1.32a6.233 6.233 0 0 0 -3.48-3.09 5.4 5.4 0 0 0 -3.76-.54 8.52 8.52 0 0 0 -2.59 1.73c-3.56 2.82-8.37 3.46-12.31 5.72-4.23 2.433-5.413 4.211-7.28 5.67a3.933 3.933 0 0 1 -3.43.03c4.33-1.85 7.36-5.88 11.44-8.23 3.94-2.26 8.75-2.9 12.31-5.72a8.74 8.74 0 0 1 2.59-1.74 5.523 5.523 0 0 1 3.76.54 6.25 6.25 0 0 1 3.48 3.1c.31.82.23 1.07 1.15 1.31a8.574 8.574 0 0 0 3.19.23 8.676 8.676 0 0 1 1.9-.12 5.775 5.775 0 0 1 2.46 1.2 6.235 6.235 0 0 1 1.58 1.4 6.225 6.225 0 0 1 .75 1.61c1.92 3.51 2.99 6.83 2.93 9.91z" fill="#65b54e"/><path d="m16.868 10.313a.5.5 0 0 1 -.308-.894l.135-.107c.119-.094.237-.187.36-.277a.5.5 0 1 1 .591.807c-.113.083-.222.169-.331.255l-.141.111a.5.5 0 0 1 -.306.105z" fill="#323c6b"/><path d="m19.667 8.417a.5.5 0 0 1 -.236-.941 45.565 45.565 0 0 1 5.692-2.448c1.04-.38 2.143-.8 3.158-1.263a.5.5 0 1 1 .417.909c-1.047.481-2.172.906-3.232 1.293a45.25 45.25 0 0 0 -5.566 2.39.5.5 0 0 1 -.233.06z" fill="#323c6b"/><path d="m57.1 22.83a.5.5 0 0 1 -.4-.2c-8.405-11.236-22.187-11.38-22.325-11.38a.5.5 0 0 1 0-1c.143 0 14.414.135 23.125 11.781a.5.5 0 0 1 -.4.8z" fill="#5fa348"/><path d="m51.386 23.3c-.037 0-.073 0-.111 0a2.8 2.8 0 0 1 -1.621-.879l-.077-.069a10.735 10.735 0 0 0 -6.436-2.673l-.328-.017a4.637 4.637 0 0 1 -2.062-.429 4.535 4.535 0 0 1 -1.028-.849l-.226-.225c-1.649-1.6-4.133-2.456-7.382-2.549-1.311-.036-2.653.04-3.952.115a43.15 43.15 0 0 1 -4.415.1 5.982 5.982 0 0 0 -2.979 1.364 10.089 10.089 0 0 1 -2.258 1.268c-1.373.455-7.468 1.786-9.2.819a.5.5 0 0 1 .049-.9 25.322 25.322 0 0 0 6.35-4.408 34.4 34.4 0 0 1 5.041-3.792 34.444 34.444 0 0 1 5.4-2.331 23.8 23.8 0 0 0 6.849-3.345c.163-.129.324-.263.485-.4a6.807 6.807 0 0 1 2.266-1.423 5.991 5.991 0 0 1 4.119.559 6.538 6.538 0 0 1 3.73 3.376c.054.142.1.267.136.378.167.485.17.494.683.631a8.354 8.354 0 0 0 3.007.215c.146-.016.293-.035.439-.054a6.086 6.086 0 0 1 1.572-.067 6.176 6.176 0 0 1 2.695 1.285 6.819 6.819 0 0 1 1.695 1.517 6.848 6.848 0 0 1 .811 1.738 20.36 20.36 0 0 1 2.962 10.084.5.5 0 0 1 -.2.392.491.491 0 0 1 -.432.082 8.315 8.315 0 0 0 -4.459.174 2.6 2.6 0 0 1 -1.123.313zm-19.986-8.706q.371 0 .74.01c3.507.1 6.215 1.053 8.049 2.831l.241.24a3.748 3.748 0 0 0 .8.676 3.791 3.791 0 0 0 1.629.306l.341.018a11.74 11.74 0 0 1 7.041 2.925l.08.071a1.986 1.986 0 0 0 1.02.627 1.874 1.874 0 0 0 .826-.246 9.871 9.871 0 0 1 4.433-.352 20.655 20.655 0 0 0 -2.871-9.043 6.564 6.564 0 0 0 -.714-1.563 5.981 5.981 0 0 0 -1.458-1.282 5.34 5.34 0 0 0 -2.241-1.109 5.351 5.351 0 0 0 -1.316.071c-.155.021-.309.041-.463.057a9.337 9.337 0 0 1 -3.371-.244 1.6 1.6 0 0 1 -1.371-1.272c-.035-.1-.074-.216-.124-.345a5.608 5.608 0 0 0 -3.209-2.82 4.874 4.874 0 0 0 -3.414-.519 5.973 5.973 0 0 0 -1.926 1.239c-.168.14-.335.279-.5.413a24.924 24.924 0 0 1 -7.123 3.5 33.68 33.68 0 0 0 -5.244 2.258 33.608 33.608 0 0 0 -4.89 3.686 32.655 32.655 0 0 1 -5.23 3.892 29.125 29.125 0 0 0 7.065-1.119 9.278 9.278 0 0 0 2.013-1.148c1.16-.782 2.378-1.582 3.584-1.534a42.445 42.445 0 0 0 4.312-.1c1.076-.059 2.185-.124 3.291-.124z" fill="#323c6b"/><path d="m26.58 12.805a.65.65 0 0 1 -.009-1.3c.251 0 .5-.01.754-.019a.65.65 0 1 1 .045 1.3q-.391.014-.781.02z" fill="#fff"/><path d="m39.208 14.31a.648.648 0 0 1 -.353-.1 11.916 11.916 0 0 0 -6.187-1.638c-.977-.027-1.939.009-2.669.045a.65.65 0 0 1 -.063-1.3c.753-.037 1.75-.073 2.77-.046a13.18 13.18 0 0 1 6.856 1.847.65.65 0 0 1 -.354 1.2z" fill="#fff"/><path d="m40.776 12.208a.5.5 0 0 1 -.384-.179l-2.213-2.646a.5.5 0 1 1 .767-.642l2.212 2.646a.5.5 0 0 1 -.383.821z" fill="#5fa348"/><path d="m47.571 14.792a.5.5 0 0 1 -.474-.34l-1.008-2.979a.5.5 0 0 1 .947-.32l1.008 2.979a.5.5 0 0 1 -.474.66z" fill="#5fa348"/><path d="m52.486 18.017a.5.5 0 0 1 -.5-.445l-.3-2.7a.5.5 0 1 1 .994-.109l.3 2.7a.5.5 0 0 1 -.442.552z" fill="#5fa348"/><path d="m41.812 14.563a.5.5 0 0 1 -.11-.988l3.558-.805a.5.5 0 1 1 .221.976l-3.558.805a.507.507 0 0 1 -.111.012z" fill="#5fa348"/><path d="m47.425 17.571a.5.5 0 0 1 -.125-.984l3.322-.866a.5.5 0 0 1 .252.968l-3.322.866a.51.51 0 0 1 -.127.016z" fill="#5fa348"/></g></svg>