<svg height="512" viewBox="0 0 74 74" width="512" xmlns="http://www.w3.org/2000/svg"><g id="color_line" data-name="color line"><path d="m71 41.445a1.434 1.434 0 0 1 -1.3 1.532 20.609 20.609 0 0 0 -7.735 2.569c-3.172 1.683-6.152 3.776-9.512 5.034a42.324 42.324 0 0 1 -10.361 2.013 44.2 44.2 0 0 1 -7.566.387 31.638 31.638 0 0 1 -6.283-1.145c-7.193-1.956-14.09-5.345-18.945-11.379a22.915 22.915 0 0 1 -3.069-5.056c-.137-.306-.264-.618-.387-.933.009.024.024.042.033.066.311.594 1.061.669 1.211.014l.74-3.87 3.418 2.762a.621.621 0 0 0 .933-.782l-2.164-3.912a23.851 23.851 0 0 0 5.251-.184.622.622 0 0 0 .283-1.1 26.293 26.293 0 0 1 8.787 5.322 55.362 55.362 0 0 0 5.436 4.717 27.779 27.779 0 0 0 4.544 2.263 33.715 33.715 0 0 0 4.667 1.706c6.628 1.711 13.524-.717 20.321-1.49a41.948 41.948 0 0 1 10.455.123 1.456 1.456 0 0 1 1.243 1.343z" fill="#6fc666"/><path d="m71 41.44a1.445 1.445 0 0 1 -1.3 1.54 20.524 20.524 0 0 0 -7.74 2.57c-3.17 1.68-6.15 3.77-9.51 5.03a42.327 42.327 0 0 1 -10.36 2.01 43.662 43.662 0 0 1 -7.57.39 31.856 31.856 0 0 1 -6.28-1.15c-7.2-1.95-14.09-5.34-18.95-11.38a22.759 22.759 0 0 1 -3.06-5.05c-.14-.3-.27-.62-.39-.93.01.02.03.04.04.06.31.6 1.06.67 1.21.02l.15-.78a20.946 20.946 0 0 0 2.05 3.06c4.86 6.03 12.132 10.048 19.332 12.008a31.843 31.843 0 0 0 6.28 1.14 43.662 43.662 0 0 0 7.57-.39 42.33 42.33 0 0 0 10.36-2.01c3.36-1.26 6.34-3.35 9.51-5.03 1.63-.86 2.968-2.258 4.748-2.718q1.335.09 2.67.27a1.467 1.467 0 0 1 1.24 1.34z" fill="#65b54e"/><path d="m15.265 28.562a23.851 23.851 0 0 1 -5.251.184l2.164 3.912a.621.621 0 0 1 -.933.782l-3.418-2.762-.74 3.87c-.151.655-.9.58-1.211-.014-.009-.024-.024-.042-.033-.066-1.122-2.234-.643-5.85-1.343-8.72a11.755 11.755 0 0 0 -1.409-3.46.583.583 0 0 1 .189-.806l.693-.424a.582.582 0 0 1 .806.207 11.3 11.3 0 0 0 3.945 3.606 41.638 41.638 0 0 0 6.626 2.489.738.738 0 0 1 .193.094 0 0 0 0 1 0 0 .622.622 0 0 1 -.278 1.108z" fill="#65b54e"/><g fill="#323c6b"><path d="m6.566 35.51a1.319 1.319 0 0 1 -1.134-.744c-.007-.013-.046-.092-.052-.105a13.485 13.485 0 0 1 -.915-5.016 22.368 22.368 0 0 0 -.453-3.779 11.309 11.309 0 0 0 -1.347-3.312 1.063 1.063 0 0 1 -.139-.814 1.091 1.091 0 0 1 .488-.683l.695-.426a1.066 1.066 0 0 1 .826-.125 1.078 1.078 0 0 1 .673.507 10.835 10.835 0 0 0 3.776 3.433 41.69 41.69 0 0 0 6.516 2.435 1.222 1.222 0 0 1 .324.156.538.538 0 0 1 .046.035 1.122 1.122 0 0 1 -.521 1.983 23.78 23.78 0 0 1 -4.454.242l1.725 3.118a1.121 1.121 0 0 1 -1.682 1.416l-2.771-2.24-.583 3.051a1.048 1.048 0 0 1 -.877.86 1.027 1.027 0 0 1 -.141.008zm-2.6-14.453.261.426-.693.424-.027.113a12.183 12.183 0 0 1 1.473 3.608 23.142 23.142 0 0 1 .479 3.952 12.872 12.872 0 0 0 .825 4.663c.007.013.046.092.051.106a.3.3 0 0 0 .234.16l.761-3.925a.5.5 0 0 1 .806-.295l3.417 2.762a.108.108 0 0 0 .155 0 .1.1 0 0 0 .027-.146l-2.158-3.917a.5.5 0 0 1 .483-.74 23.409 23.409 0 0 0 5.126-.179.1.1 0 0 0 .1-.086.124.124 0 0 0 -.022-.113 47.133 47.133 0 0 1 -6.8-2.572 11.8 11.8 0 0 1 -4.114-3.778z"/><path d="m57.75 51.906a.5.5 0 0 1 -.251-.933l.95-.551a.5.5 0 0 1 .5.863l-.949.554a.5.5 0 0 1 -.25.067z"/><path d="m46.375 55.6a.5.5 0 0 1 -.07-1 32.525 32.525 0 0 0 7.02-1.68c.684-.256 1.391-.564 2.292-1a.5.5 0 1 1 .435.9c-.93.449-1.662.768-2.375 1.035a33.473 33.473 0 0 1 -7.229 1.733.5.5 0 0 1 -.073.012z"/><path d="m24 29.181a.5.5 0 0 1 -.3-.1l-.126-.1c-.232-.175-.464-.351-.694-.512a.5.5 0 0 1 .575-.818c.239.168.48.351.722.533l.125.095a.5.5 0 0 1 -.3.9z"/><path d="m32.523 35.91a.5.5 0 0 1 -.218-.05 15.845 15.845 0 0 1 -1.823-1.018 25.339 25.339 0 0 1 -3.319-2.815c-.545-.517-1.097-1.027-1.663-1.527a.5.5 0 1 1 .662-.75c.573.506 1.132 1.025 1.687 1.55a24.654 24.654 0 0 0 3.182 2.707 15.025 15.025 0 0 0 1.709.953.5.5 0 0 1 -.219.95z"/><path d="m36.08 53.527c-.529 0-1.06-.015-1.59-.048a31.821 31.821 0 0 1 -6.384-1.162c-8.536-2.317-14.817-6.099-19.206-11.549a23.434 23.434 0 0 1 -3.131-5.162c-.14-.314-.271-.633-.4-.957a.5.5 0 0 1 .928-.373c.109.208.242.238.271.234l.761-3.925a.5.5 0 0 1 .806-.295l3.417 2.762a.108.108 0 0 0 .155 0 .1.1 0 0 0 .027-.146l-2.157-3.918a.5.5 0 0 1 .483-.74 23.41 23.41 0 0 0 5.126-.179.1.1 0 0 0 .1-.086.118.118 0 0 0 -.029-.12.5.5 0 0 1 .449-.879 26.249 26.249 0 0 1 8.96 5.42c.613.531 1.2 1.09 1.792 1.648a27.261 27.261 0 0 0 3.591 3.031 27.238 27.238 0 0 0 4.46 2.217 33.341 33.341 0 0 0 4.6 1.683c4.626 1.194 9.527.3 14.264-.564 1.926-.352 3.917-.715 5.875-.937a42.436 42.436 0 0 1 10.58.124 1.959 1.959 0 0 1 1.67 1.8 1.943 1.943 0 0 1 -1.758 2.063 19.736 19.736 0 0 0 -7.543 2.513c-1.041.552-2.082 1.161-3.089 1.75a42.737 42.737 0 0 1 -6.482 3.311 42.712 42.712 0 0 1 -10.485 2.047 56.043 56.043 0 0 1 -6.061.437zm-29.266-18.046a22.3 22.3 0 0 0 2.868 4.66c4.249 5.28 10.361 8.947 18.687 11.211a30.856 30.856 0 0 0 6.185 1.129 43.843 43.843 0 0 0 7.479-.385 41.97 41.97 0 0 0 10.239-1.984 41.992 41.992 0 0 0 6.328-3.237c1.016-.594 2.066-1.209 3.125-1.771a20.683 20.683 0 0 1 7.927-2.625.939.939 0 0 0 .844-1 .955.955 0 0 0 -.81-.882 41.483 41.483 0 0 0 -10.33-.121c-1.926.219-3.9.58-5.809.928-4.844.885-9.853 1.8-14.694.549a34.071 34.071 0 0 1 -4.736-1.73 28.455 28.455 0 0 1 -4.625-2.306 28.022 28.022 0 0 1 -3.728-3.139c-.579-.548-1.158-1.1-1.759-1.619a26.577 26.577 0 0 0 -7.758-4.922 1.1 1.1 0 0 1 -.906.82 23.726 23.726 0 0 1 -4.453.242l1.725 3.118a1.121 1.121 0 0 1 -1.682 1.416l-2.771-2.24-.583 3.051a1.062 1.062 0 0 1 -.763.837z"/></g><path d="m48.812 45.334a.65.65 0 0 1 -.1-1.292c.908-.142 1.843-.3 2.789-.453 2.331-.384 4.741-.782 6.988-1.038a.65.65 0 0 1 .147 1.292c-2.215.252-4.609.647-6.923 1.028-.95.157-1.888.312-2.8.454a.651.651 0 0 1 -.101.009z" fill="#fff"/><path d="m45.05 45.865a.65.65 0 0 1 -.059-1.3c.283-.026.564-.055.848-.087a.65.65 0 0 1 .146 1.292q-.438.05-.875.09z" fill="#fff"/></g></svg>