<?xml version="1.0" encoding="iso-8859-1"?>
<!-- Generator: Adobe Illustrator 19.0.0, SVG Export Plug-In . SVG Version: 6.00 Build 0)  -->
<svg version="1.1" id="Capa_1" xmlns="http://www.w3.org/2000/svg" xmlns:xlink="http://www.w3.org/1999/xlink" x="0px" y="0px"
	 viewBox="0 0 512 512" style="enable-background:new 0 0 512 512;" xml:space="preserve">
<path style="fill:#C88C64;" d="M204.983,37.019h-35.934c-41.869,0-82.239,15.573-113.263,43.688l0,0
	C26.63,107.132,9.999,144.649,9.999,183.999l0,0c0,30.634,11.341,60.184,31.837,82.952l1.298,1.442
	c13.278,14.75,32.191,23.171,52.037,23.171l0,0c12.958,0,25.661-3.596,36.696-10.387l0.906-0.558
	c21.714-13.363,46.711-20.438,72.208-20.438l0,0l0,0c25.497,0,50.494,7.075,72.208,20.438l0.906,0.558
	c11.035,6.791,23.739,10.387,36.696,10.387l0,0c19.845,0,38.759-8.422,52.037-23.171l1.298-1.442
	c20.496-22.768,31.837-52.318,31.837-82.952l0,0c0-39.35-16.631-76.867-45.787-103.292l0,0
	c-31.022-28.117-71.394-43.688-113.263-43.688L204.983,37.019L204.983,37.019z"/>
<path style="fill:#FFE6C3;" d="M269.094,360.061c-8.637-18.422-13.115-38.52-13.115-58.866v-31.226
	c-16.159-6.438-33.458-9.785-50.996-9.785l0,0l0,0c-17.454,0-34.67,3.319-50.763,9.696v31.315c0,20.347-4.478,40.445-13.116,58.867
	l0,0c-8.637,18.422-13.115,38.519-13.115,58.866l0,0c0,30.958,25.096,56.054,56.054,56.054h42.112
	c30.958,0,56.054-25.096,56.054-56.054l0,0C282.21,398.581,277.732,378.484,269.094,360.061L269.094,360.061z"/>
<path style="fill:#FFCDAC;" d="M476.348,244.772L476.348,244.772c-19.718-19.718-46.462-30.795-74.348-30.795h-23.01h-27.584
	c-24.958,0-48.894,9.915-66.542,27.563l-3.234,3.234c-16.425,16.425-25.652,38.701-25.652,61.929l0,0
	c0,19.325,7.154,37.967,20.083,52.33l0.82,0.911c8.377,9.306,20.309,14.62,32.83,14.62l0,0c0.111,0,0.222,0,0.333-0.001
	c6.605-0.05,11.549-5.874,11.002-12.456c-0.084-1.011-0.126-2.028-0.126-3.05l0,0c0-11.719,4.953-22.891,13.636-30.761l0,0
	c5.447-4.937,11.865-8.562,18.767-10.717v28.883c0,15.936-2.413,31.747-6.721,47.089c-4.32,15.381-6.509,31.282-6.509,47.259l0,0
	c0,18.873,15.3,34.174,34.174,34.174h9.443c18.873,0,34.174-15.3,34.174-34.174l0,0c0-16.107-2.226-32.137-6.615-47.634l0,0
	c-4.39-15.498-6.615-31.527-6.615-47.634v-27.963c6.902,2.155,13.321,5.781,18.768,10.717l0,0
	c8.683,7.869,13.636,19.042,13.636,30.761l0,0c0,1.072-0.047,2.139-0.139,3.199c-0.566,6.496,4.3,12.226,10.821,12.305
	c0.529,0.006,1.057,0.003,1.591-0.01c12.253-0.298,23.812-5.771,32.012-14.881l0.574-0.637
	c12.929-14.364,20.083-33.005,20.083-52.331l0,0C502,283.474,492.773,261.197,476.348,244.772z"/>
<path d="M112.349,79.12l-0.908,0.411c-5.022,2.297-7.23,8.23-4.934,13.252c1.681,3.674,5.307,5.843,9.099,5.843
	c1.391,0,2.805-0.292,4.153-0.909l0.779-0.353c5.039-2.262,7.289-8.179,5.028-13.217S117.386,76.859,112.349,79.12z"/>
<path d="M89.361,117.752c4.092-3.709,4.403-10.032,0.694-14.124c-3.709-4.093-10.033-4.402-14.124-0.694
	c-22.836,20.697-35.934,50.244-35.934,81.064c0,23.261,8.571,45.593,24.134,62.883c1.975,2.193,4.7,3.31,7.435,3.31
	c2.383,0,4.776-0.847,6.686-2.567c4.104-3.695,4.437-10.017,0.742-14.122c-12.252-13.612-18.999-31.192-18.999-49.504
	C59.995,158.812,70.698,134.667,89.361,117.752z"/>
<path d="M448.903,236.339c0.019,0.011,0.039,0.022,0.058,0.033c1.552,0.863,3.242,1.274,4.911,1.274
	c3.517,0,6.938-1.825,8.763-5.091c2.689-4.816,0.889-10.946-3.922-13.644c-4.813-2.698-10.981-1.035-13.687,3.771
	C442.321,227.489,444.102,233.625,448.903,236.339z"/>
<path d="M492.505,248.181c-3.313-4.419-9.58-5.319-13.998-2.005c-4.419,3.312-5.317,9.579-2.005,13.998
	c9.995,13.336,15.499,29.86,15.499,46.528c0,16.884-6.221,33.092-17.519,45.642l-0.572,0.636
	c-6.416,7.128-15.464,11.347-24.818,11.574c-0.417,0.011-0.831,0.011-1.231,0.008c-0.12-0.002-0.37-0.005-0.631-0.293
	c-0.154-0.17-0.404-0.545-0.352-1.143c0.118-1.343,0.177-2.713,0.177-4.071c0-14.513-6.166-28.425-16.92-38.171
	c-6.509-5.898-14.08-10.223-22.503-12.853c-3.034-0.946-6.34-0.395-8.903,1.49c-2.563,1.884-4.076,4.875-4.076,8.055v27.963
	c0,17.03,2.354,33.974,6.994,50.358c4.139,14.613,6.238,29.724,6.238,44.91c0,13.33-10.845,24.175-24.175,24.175h-9.443
	c-13.33,0-24.175-10.845-24.175-24.175c0-15.064,2.065-30.055,6.138-44.556c4.708-16.764,7.094-33.516,7.094-49.792v-28.884
	c0-3.181-1.513-6.172-4.076-8.055c-2.563-1.885-5.868-2.439-8.903-1.49c-8.422,2.63-15.994,6.953-22.503,12.853
	c-10.753,9.745-16.921,23.658-16.921,38.171c0,1.289,0.054,2.594,0.161,3.877c0.059,0.705-0.268,1.146-0.411,1.302
	c-0.298,0.326-0.572,0.328-0.627,0.329l-0.333,0.001c-9.671,0-18.928-4.123-25.397-11.309l-0.821-0.913
	c-11.295-12.546-17.516-28.755-17.516-45.638c0-20.723,8.07-40.206,22.722-54.859l3.235-3.234
	c15.885-15.886,37.006-24.634,59.471-24.634H402c2.249,0,4.527,0.081,6.77,0.241c5.518,0.407,10.292-3.755,10.684-9.263
	c0.393-5.509-3.755-10.292-9.263-10.684c-2.714-0.193-5.47-0.292-8.19-0.292h-50.594c-27.808,0-53.951,10.829-73.612,30.492
	l-3.235,3.234c-6.697,6.697-12.296,14.201-16.717,22.286c-16.961-6.502-34.739-9.805-52.861-9.805
	c-27.364,0-54.145,7.58-77.449,21.922l-0.907,0.558c-9.464,5.825-20.341,8.903-31.455,8.903c-16.984,0-33.242-7.239-44.605-19.862
	l-1.299-1.442c-18.874-20.968-29.27-48.052-29.27-76.264c0-36.454,15.492-71.402,42.503-95.882
	c29.243-26.503,67.081-41.099,106.548-41.099h71.868c39.466,0,77.306,14.596,106.548,41.099
	c24.496,22.201,39.443,52.573,42.088,85.52c0.441,5.505,5.265,9.608,10.767,9.166c5.505-0.442,9.609-5.263,9.166-10.767
	c-3.054-38.04-20.311-73.106-48.592-98.738c-32.928-29.844-75.537-46.279-119.977-46.279h-71.868
	c-44.44,0-87.049,16.436-119.977,46.279C17.886,101.563,0,141.911,0,183.999c0,33.161,12.219,64.997,34.405,89.642l1.299,1.442
	c15.15,16.83,36.826,26.481,59.469,26.481c14.817,0,29.319-4.105,41.936-11.87l0.907-0.558c2.036-1.253,4.111-2.43,6.206-3.563
	v15.621c0,18.753-4.208,37.642-12.17,54.623c-9.199,19.618-14.062,41.443-14.062,63.112c0,36.422,29.632,66.054,66.054,66.054
	h42.112c36.422,0,66.054-29.632,66.054-66.054c0-13.275-1.833-26.606-5.363-39.455c7.093,3.304,14.888,5.089,22.866,5.089
	l0.409-0.001c5.89-0.046,11.329-2.475,15.317-6.84c4.042-4.427,6.075-10.419,5.575-16.444c-0.062-0.735-0.092-1.483-0.092-2.222
	c0-8.878,3.773-17.391,10.352-23.352c0.668-0.605,1.353-1.187,2.054-1.742v12.499c0,14.449-2.136,29.383-6.349,44.385
	c-4.567,16.262-6.882,33.07-6.882,49.963c0,24.357,19.815,44.173,44.173,44.173h9.443c24.357,0,44.173-19.815,44.173-44.173
	c0-17.03-2.354-33.974-6.994-50.36c-4.139-14.612-6.237-29.722-6.237-44.908v-11.578c0.701,0.556,1.386,1.137,2.054,1.741
	c6.578,5.963,10.351,14.475,10.351,23.352c0,0.778-0.034,1.562-0.102,2.331c-0.52,5.964,1.467,11.906,5.451,16.306
	c3.945,4.356,9.346,6.794,15.222,6.866c0.646,0.008,1.289,0.004,1.946-0.012c14.833-0.36,29.122-6.989,39.203-18.189l0.572-0.636
	C503.956,349.494,512,328.535,512,306.702C512,285.739,505.077,264.955,492.505,248.181z M226.155,464.984h-42.112
	c-25.395,0-46.055-20.66-46.055-46.055c0-18.754,4.208-37.643,12.17-54.622c9.199-19.619,14.062-41.444,14.062-63.112v-24.319
	c13.074-4.403,26.829-6.693,40.764-6.693c15.461,0,30.636,2.785,45.131,8.264c-2.723,9.047-4.135,18.543-4.135,28.257
	c0,6.326,0.696,12.574,2.011,18.659c2.228,13.46,6.28,26.637,12.051,38.945c7.961,16.98,12.169,35.868,12.169,54.623
	C272.211,444.324,251.55,464.984,226.155,464.984z"/>
<g>
</g>
<g>
</g>
<g>
</g>
<g>
</g>
<g>
</g>
<g>
</g>
<g>
</g>
<g>
</g>
<g>
</g>
<g>
</g>
<g>
</g>
<g>
</g>
<g>
</g>
<g>
</g>
<g>
</g>
</svg>
