<?xml version="1.0" encoding="iso-8859-1"?>
<!-- Generator: Adobe Illustrator 19.0.0, SVG Export Plug-In . SVG Version: 6.00 Build 0)  -->
<svg version="1.1" id="Capa_1" xmlns="http://www.w3.org/2000/svg" xmlns:xlink="http://www.w3.org/1999/xlink" x="0px" y="0px"
	 viewBox="0 0 512 512" style="enable-background:new 0 0 512 512;" xml:space="preserve">
<path style="fill:#A5DC69;" d="M140.84,350.685c0,0-51.208-15.755-84.183-32.817c20.139,79.436,86.513,111.738,123.013,123.746
	c14.64,4.816,24.592,18.408,24.592,33.82V502h103.474v-26.567c0-15.412,9.952-29.003,24.592-33.82
	c36.5-12.008,102.874-44.31,123.013-123.746c-32.976,17.062-84.183,32.817-84.183,32.817l59.745-24.403
	c0,0,26.101-33.932,26.101-122.838c-24.238,22.209-50.464,42.892-50.464,42.892l17.639-16.898c0,0,13.011-81.122-32.772-156.275
	c-36.281,32.825-59.56,56.633-59.56,56.633l27.614-26.803c0,0-36.112-57.748-103.462-92.993
	c-67.35,35.246-103.462,92.993-103.462,92.993l27.614,26.803c0,0-23.279-23.808-59.56-56.633
	c-45.782,75.153-32.772,156.276-32.772,156.276l17.639,16.898c0,0-26.227-20.683-50.464-42.892
	c0,88.906,26.101,122.838,26.101,122.838L140.84,350.685z"/>
<g>
	<path style="fill:#46C373;" d="M301.605,396.086c0,0-1.612-56.368-45.606-90.126c-43.994,33.758-45.606,90.126-45.606,90.126
		H301.605z"/>
	<path style="fill:#46C373;" d="M296.806,212.051c0,0-1.438-41.25-40.674-65.955c-39.236,24.704-40.674,65.955-40.674,65.955
		H296.806z"/>
	<path style="fill:#46C373;" d="M204.893,288.952l-40.172-46.347c-17.161,25.414-22.485,60.23-22.485,60.23L204.893,288.952z"/>
	<path style="fill:#46C373;" d="M173.564,190.878l-29.214-33.705c-12.48,18.481-16.351,43.8-16.351,43.8L173.564,190.878z"/>
	<path style="fill:#46C373;" d="M383.999,200.974c0,0-3.872-25.319-16.351-43.8l-29.214,33.705L383.999,200.974z"/>
	<path style="fill:#46C373;" d="M369.762,302.835c0,0-5.324-34.816-22.485-60.23l-40.172,46.347L369.762,302.835z"/>
</g>
<path d="M210.107,406.082c5.516,0.152,10.124-4.189,10.282-9.71c0.014-0.489,1.736-46.583,35.606-77.387
	c33.671,30.672,35.597,76.919,35.613,77.409c0.166,5.413,4.606,9.692,9.989,9.692c0.098,0,0.194-0.001,0.292-0.004
	c5.521-0.158,9.868-4.761,9.71-10.282c-0.071-2.496-2.291-61.537-49.514-97.773c-3.592-2.755-8.584-2.755-12.176,0
	c-47.223,36.236-49.442,95.278-49.514,97.773C200.239,401.321,204.587,405.924,210.107,406.082z"/>
<path d="M261.46,137.634c-3.256-2.05-7.4-2.05-10.656,0c-43.221,27.213-45.273,72.169-45.34,74.069
	c-0.191,5.501,4.101,10.1,9.601,10.317c5.495,0.231,10.144-4.076,10.386-9.575c0.062-1.397,1.78-32.717,30.682-54.236
	c28.857,21.486,30.615,52.741,30.683,54.229c0.208,5.383,4.637,9.613,9.986,9.613c0.117,0,0.235-0.002,0.354-0.006
	c5.52-0.193,9.838-4.823,9.646-10.343C306.734,209.802,304.68,164.847,261.46,137.634z"/>
<path d="M192.566,65.957c2.478,0,4.96-0.916,6.896-2.76l0.344-0.328c4.014-3.794,4.191-10.123,0.397-14.137
	c-3.793-4.013-10.122-4.192-14.136-0.397l-0.402,0.382c-3.998,3.81-4.151,10.14-0.342,14.138
	C187.29,64.918,189.926,65.957,192.566,65.957z"/>
<path d="M140.724,312.72c0.513,0.078,1.021,0.116,1.524,0.116c4.855,0,9.116-3.543,9.872-8.49
	c0.042-0.274,3.678-23.403,14.22-44.604l30.995,35.76c3.618,4.173,9.935,4.623,14.106,1.007c4.173-3.617,4.624-9.933,1.007-14.106
	l-40.172-46.347c-2.037-2.351-5.052-3.624-8.157-3.432c-3.104,0.187-5.946,1.808-7.687,4.386
	c-18.21,26.966-23.852,62.802-24.082,64.315C131.516,306.783,135.265,311.885,140.724,312.72z"/>
<path d="M137.883,202.497c0.027-0.179,2.243-14.064,8.338-27.898l19.787,22.83c3.618,4.173,9.935,4.623,14.106,1.007
	c4.173-3.617,4.624-9.933,1.007-14.106l-29.214-33.705c-2.038-2.351-5.06-3.622-8.157-3.432c-3.105,0.187-5.946,1.808-7.687,4.386
	c-13.581,20.113-17.777,46.761-17.949,47.885c-0.835,5.455,2.908,10.549,8.362,11.389c0.516,0.08,1.027,0.118,1.534,0.118
	C132.857,210.969,137.115,207.435,137.883,202.497z"/>
<path d="M345.99,197.428l19.787-22.83c6.095,13.834,8.311,27.719,8.338,27.898c0.762,4.942,5.02,8.479,9.871,8.479
	c0.503,0,1.013-0.038,1.524-0.116c5.459-0.835,9.208-5.938,8.373-11.397c-0.172-1.125-4.368-27.772-17.949-47.885
	c-1.74-2.578-4.581-4.199-7.687-4.386c-3.105-0.189-6.12,1.081-8.157,3.432l-29.214,33.705c-3.617,4.173-3.166,10.489,1.007,14.106
	C336.056,202.052,342.372,201.602,345.99,197.428z"/>
<path d="M300.555,296.509c4.174,3.616,10.487,3.167,14.106-1.007l30.991-35.755c10.485,21.125,14.172,44.272,14.225,44.607
	c0.759,4.944,5.018,8.483,9.871,8.483c0.503,0,1.013-0.038,1.524-0.116c5.459-0.835,9.208-5.937,8.373-11.396
	c-0.23-1.513-5.872-37.349-24.082-64.315c-1.74-2.578-4.582-4.199-7.687-4.386c-3.113-0.19-6.12,1.082-8.157,3.432l-40.172,46.347
	C295.931,286.576,296.383,292.892,300.555,296.509z"/>
<path d="M461.556,310.034c-3.082-2.446-7.313-2.857-10.812-1.048c-0.022,0.012-0.045,0.023-0.068,0.035
	c7.709-20.079,16.327-54.046,16.327-105.578c0-3.965-2.343-7.556-5.973-9.153c-3.63-1.598-7.86-0.899-10.783,1.78
	c-4.786,4.385-9.664,8.719-14.407,12.851c0.896-30.222-2.876-86.761-35.895-140.961c-1.551-2.545-4.155-4.266-7.104-4.694
	s-5.936,0.482-8.145,2.481c-8.688,7.86-16.647,15.221-23.742,21.883c-13.786-18.637-47.687-58.947-100.319-86.49
	c-2.902-1.519-6.367-1.52-9.273,0c-11.399,5.965-22.668,12.95-33.494,20.76c-4.479,3.231-5.49,9.481-2.26,13.96
	c3.231,4.479,9.48,5.491,13.961,2.259c8.581-6.19,17.451-11.817,26.43-16.768c48.061,26.502,79.104,64.825,90.306,80.198
	c-13.562,13.044-21.473,21.117-21.608,21.255c-3.86,3.949-3.79,10.28,0.159,14.141s10.28,3.79,14.142-0.159
	c0.148-0.151,9.798-9.999,26.116-25.56c0.906-0.621,1.679-1.365,2.311-2.199c6.304-5.989,13.507-12.737,21.482-20.057
	c33.999,64.016,26.557,130.198,25.508,138.103c-8.333,6.878-13.946,11.314-14.066,11.408c-4.337,3.42-5.079,9.708-1.659,14.044
	c3.42,4.337,9.709,5.08,14.044,1.66c0.202-0.159,15.614-12.334,33.646-27.928c-3.745,66.437-23.051,93.444-23.445,93.983
	c-0.424,0.559-0.778,1.15-1.068,1.76c-26.7,10.789-53.282,19.013-53.648,19.126c-5.278,1.625-8.24,7.221-6.616,12.499
	c1.626,5.278,7.22,8.243,12.498,6.616c1.706-0.524,34.438-10.648,64.556-23.551c-6.089,14.882-14.371,28.515-24.752,40.709
	c-3.579,4.206-3.072,10.517,1.134,14.097c1.882,1.602,4.185,2.385,6.477,2.385c2.83,0,5.642-1.195,7.62-3.518
	c17.148-20.146,29.228-43.711,35.901-70.04C466.001,316.509,464.64,312.481,461.556,310.034z"/>
<path d="M387.742,401.935l-0.221,0.167c-4.384,3.358-5.187,9.613-1.828,13.998c1.964,2.564,4.937,3.906,7.943,3.906
	c2.134,0,4.285-0.676,6.105-2.07c4.418-3.313,5.313-9.582,2-14C398.429,399.517,392.161,398.621,387.742,401.935z"/>
<path d="M353.413,422.492c-7.818,3.672-15.964,6.91-24.21,9.623c-18.822,6.192-31.468,23.601-31.468,43.319V492h-83.473v-16.566
	c0-19.718-12.646-37.126-31.468-43.319c-31.808-10.465-85.263-36.273-109.455-95.425c30.119,12.905,62.854,23.029,64.561,23.553
	c5.279,1.625,10.875-1.339,12.498-6.617c1.624-5.279-1.338-10.875-6.617-12.499c-0.365-0.113-26.925-8.326-53.625-19.115
	c-0.294-0.612-0.655-1.204-1.086-1.764c-0.217-0.292-19.688-27.241-23.449-93.989c18.032,15.594,33.444,27.769,33.646,27.928
	c4.337,3.419,10.625,2.676,14.044-1.66c3.42-4.336,2.678-10.624-1.659-14.044c-0.12-0.095-5.735-4.531-14.069-11.411
	c-1.06-7.847-8.638-73.87,25.509-138.103c7.982,7.327,15.194,14.084,21.506,20.08c0.622,0.814,1.378,1.542,2.262,2.152
	c16.325,15.567,25.995,25.433,26.144,25.585c3.861,3.948,10.192,4.019,14.141,0.158c3.949-3.861,4.02-10.192,0.159-14.141
	c-0.136-0.138-8.052-8.217-21.622-21.268c2.361-3.255,5.602-7.528,9.688-12.477c3.516-4.259,2.914-10.562-1.346-14.078
	c-4.258-3.517-10.562-2.913-14.078,1.345c-3.556,4.307-6.509,8.129-8.88,11.324c-7.101-6.666-15.067-14.034-23.763-21.902
	c-2.208-1.999-5.193-2.908-8.145-2.481c-2.949,0.428-5.554,2.149-7.104,4.694c-33.019,54.201-36.791,110.739-35.895,140.961
	c-4.743-4.132-9.621-8.465-14.407-12.851c-2.923-2.679-7.154-3.378-10.783-1.78c-3.63,1.597-5.973,5.188-5.973,9.153
	c0,51.532,8.617,85.498,16.327,105.578c-0.022-0.012-0.045-0.023-0.068-0.035c-3.498-1.81-7.729-1.399-10.812,1.048
	c-3.084,2.447-4.445,6.475-3.478,10.291c21.216,83.685,90.293,117.863,129.581,130.787c10.598,3.487,17.718,13.26,17.718,24.321V502
	c0,5.523,4.478,10,10,10h103.473c5.522,0,10-4.477,10-10v-26.566c0-11.061,7.12-20.834,17.718-24.32
	c9.011-2.964,17.915-6.503,26.464-10.519c4.998-2.348,7.147-8.304,4.799-13.303C364.369,422.294,358.417,420.144,353.413,422.492z"
	/>
<g>
</g>
<g>
</g>
<g>
</g>
<g>
</g>
<g>
</g>
<g>
</g>
<g>
</g>
<g>
</g>
<g>
</g>
<g>
</g>
<g>
</g>
<g>
</g>
<g>
</g>
<g>
</g>
<g>
</g>
</svg>
