<?xml version="1.0" encoding="iso-8859-1"?>
<!-- Generator: Adobe Illustrator 19.0.0, SVG Export Plug-In . SVG Version: 6.00 Build 0)  -->
<svg version="1.1" id="Capa_1" xmlns="http://www.w3.org/2000/svg" xmlns:xlink="http://www.w3.org/1999/xlink" x="0px" y="0px"
	 viewBox="0 0 512.001 512.001" style="enable-background:new 0 0 512.001 512.001;" xml:space="preserve">
<path style="fill:#46C373;" d="M382.95,47.038l8.109-23.704c2.235-6.533-2.621-13.324-9.525-13.324h-10.885h-10.885
	c-6.905,0-11.759,6.792-9.525,13.324l8.109,23.704H382.95z"/>
<path style="fill:#F5B955;" d="M370.648,47.039h2.693c31.281-0.002,56.641,25.357,56.641,56.638v2.413
	c0,34.354,8.713,67.852,25.315,97.603c8.185,14.667,17.18,30.788,25.073,44.931C494.556,274.045,502,302.669,502,331.78l0,0
	c0,57.594-30.484,110.887-80.13,140.082l-51.224,30.124l-51.224-30.124c-49.646-29.196-80.13-82.488-80.13-140.082l0,0
	c0-29.112,7.447-57.738,21.633-83.159l25.069-44.924c16.602-29.751,25.317-63.254,25.317-97.323v-1.029
	c0-32.201,26.105-58.306,58.306-58.306L370.648,47.039"/>
<path style="fill:#FF6E37;" d="M39.697,107.997l1.441-0.832c27.582-15.926,62.853-6.477,78.778,21.107l0.692,1.198
	c17.177,29.752,41.471,54.405,70.726,71.869c14.421,8.609,30.271,18.071,44.177,26.373c24.996,14.922,45.758,35.99,60.313,61.201
	l0,0c28.798,49.879,29.044,111.273,0.647,161.38l-29.299,51.699l-59.423-0.476c-57.592-0.461-110.639-31.371-139.436-81.25l0,0
	c-14.555-25.211-22.42-53.726-22.845-82.835l-0.752-51.439c-0.498-34.065-9.702-67.438-26.736-96.942l0,0
	C1.595,160.67,11.318,124.381,39.697,107.997L39.697,107.997"/>
<path style="fill:#FFB487;" d="M139.589,235.517c-17.506-12.109-41.13,1.527-39.401,22.743c0.537,6.59,0.856,13.202,0.952,19.827
	l0.851,58.213c0.298,20.399,5.848,40.52,16.048,58.188c19.523,33.814,55.904,55.013,94.947,55.326l24.172,0.194l11.916-21.028
	c19.252-33.97,19.083-76.076-0.44-109.891c-10.201-17.668-24.851-32.533-42.368-42.993l-49.992-29.844
	C150.591,242.859,145.026,239.278,139.589,235.517z"/>
<path d="M211.393,267.511l-49.991-29.843c-5.461-3.261-10.886-6.752-16.125-10.374c-11.307-7.823-25.716-8.421-37.6-1.563
	c-11.884,6.86-18.572,19.636-17.455,33.342c0.518,6.352,0.827,12.797,0.92,19.161l0.852,58.212
	c0.323,22.1,6.335,43.899,17.386,63.042c21.287,36.869,60.957,59.984,103.527,60.325l24.172,0.194c0.026,0,0.054,0,0.08,0
	c3.6,0,6.924-1.935,8.7-5.07l11.916-21.028c20.99-37.038,20.807-82.951-0.479-119.821
	C246.244,294.949,230.372,278.843,211.393,267.511z M240.375,424.05l-9.018,15.912l-18.291-0.147
	c-35.515-0.284-68.609-19.568-86.368-50.327c-9.35-16.195-14.436-34.638-14.708-53.335l-0.852-58.212
	c-0.1-6.806-0.431-13.701-0.984-20.494c-0.49-6.014,2.321-11.395,7.521-14.396c2.408-1.39,5.002-2.081,7.587-2.081
	c2.994,0,5.977,0.928,8.64,2.77c5.604,3.876,11.407,7.611,17.25,11.099l49.991,29.843c16.056,9.587,29.485,23.213,38.834,39.406
	C257.733,354.847,257.887,393.15,240.375,424.05z"/>
<path d="M135.403,265.537c-2.63,0-5.21,1.07-7.07,2.93c-1.859,1.86-2.93,4.44-2.93,7.07c0,2.63,1.07,5.21,2.93,7.07
	c1.86,1.86,4.44,2.93,7.07,2.93c2.64,0,5.21-1.07,7.08-2.93c1.86-1.86,2.93-4.44,2.93-7.07c0-2.63-1.069-5.21-2.93-7.07
	S138.043,265.537,135.403,265.537z"/>
<path d="M130.273,305.065c-2.64,0-5.21,1.07-7.07,2.93c-1.87,1.86-2.93,4.44-2.93,7.07c0,2.63,1.06,5.21,2.93,7.07
	c1.86,1.86,4.431,2.93,7.07,2.93c2.63,0,5.21-1.07,7.07-2.93c1.859-1.86,2.93-4.44,2.93-7.07c0-2.63-1.07-5.21-2.93-7.07
	C135.483,306.135,132.903,305.065,130.273,305.065z"/>
<path d="M157.532,352.293c-2.63,0-5.21,1.06-7.069,2.93c-1.86,1.86-2.931,4.43-2.931,7.07c0,2.63,1.07,5.21,2.931,7.07
	c1.869,1.86,4.439,2.93,7.069,2.93s5.21-1.07,7.07-2.93c1.87-1.86,2.93-4.44,2.93-7.07c0-2.64-1.06-5.21-2.93-7.07
	C162.742,353.353,160.173,352.293,157.532,352.293z"/>
<path d="M172.252,300.825c2.63,0,5.21-1.06,7.069-2.93c1.86-1.86,2.931-4.44,2.931-7.07s-1.07-5.21-2.931-7.07
	c-1.87-1.86-4.439-2.93-7.069-2.93c-2.631,0-5.211,1.07-7.07,2.93c-1.87,1.86-2.93,4.44-2.93,7.07s1.06,5.21,2.93,7.07
	C167.042,299.766,169.622,300.825,172.252,300.825z"/>
<path d="M199.511,328.054c-2.63,0-5.21,1.07-7.07,2.93s-2.93,4.44-2.93,7.07c0,2.63,1.069,5.21,2.93,7.07s4.44,2.93,7.07,2.93
	c2.64,0,5.21-1.07,7.069-2.93c1.87-1.86,2.931-4.44,2.931-7.07c0-2.63-1.061-5.21-2.931-7.07
	C204.721,329.124,202.15,328.054,199.511,328.054z"/>
<path d="M187.002,403.32c-2.631,0-5.211,1.07-7.07,2.93c-1.86,1.86-2.93,4.44-2.93,7.07s1.069,5.21,2.93,7.07
	c1.859,1.86,4.439,2.93,7.07,2.93c2.63,0,5.21-1.07,7.069-2.93c1.86-1.86,2.931-4.44,2.931-7.07s-1.07-5.21-2.931-7.07
	C192.211,404.391,189.632,403.32,187.002,403.32z"/>
<path d="M228.979,379.082c-2.63,0-5.21,1.07-7.07,2.93c-1.859,1.86-2.93,4.44-2.93,7.07c0,2.64,1.07,5.21,2.93,7.07
	c1.86,1.87,4.44,2.93,7.07,2.93c2.63,0,5.21-1.06,7.07-2.93c1.859-1.86,2.93-4.44,2.93-7.07s-1.07-5.21-2.93-7.07
	C234.188,380.152,231.609,379.082,228.979,379.082z"/>
<path d="M202.961,313.565c2.63,0,5.21-1.07,7.069-2.93c1.86-1.86,2.931-4.44,2.931-7.07s-1.07-5.21-2.931-7.07
	c-1.859-1.86-4.439-2.93-7.069-2.93c-2.631,0-5.21,1.07-7.07,2.93s-2.93,4.44-2.93,7.07s1.069,5.21,2.93,7.07
	C197.751,312.495,200.33,313.565,202.961,313.565z"/>
<path d="M127.435,337.174c-2.641,0-5.21,1.07-7.07,2.93c-1.859,1.86-2.93,4.43-2.93,7.07c0,2.63,1.07,5.21,2.93,7.07
	c1.86,1.86,4.43,2.93,7.07,2.93c2.63,0,5.21-1.07,7.07-2.93c1.859-1.86,2.93-4.44,2.93-7.07s-1.07-5.21-2.93-7.07
	C132.644,338.244,130.064,337.174,127.435,337.174z"/>
<path d="M164.702,315.655c-2.64,0-5.22,1.07-7.08,2.93c-1.859,1.86-2.92,4.44-2.92,7.07c0,2.64,1.061,5.21,2.92,7.07
	c1.86,1.87,4.44,2.93,7.08,2.93c2.63,0,5.2-1.06,7.061-2.93c1.87-1.86,2.939-4.43,2.939-7.07c0-2.63-1.069-5.21-2.939-7.07
	C169.912,316.725,167.332,315.655,164.702,315.655z"/>
<path d="M232.129,344.093c-2.63,0-5.21,1.06-7.07,2.93c-1.86,1.86-2.93,4.43-2.93,7.07c0,2.63,1.069,5.21,2.93,7.07
	c1.861,1.86,4.44,2.93,7.07,2.93s5.21-1.07,7.069-2.93c1.87-1.87,2.931-4.44,2.931-7.07c0-2.64-1.061-5.21-2.931-7.07
	C237.339,345.154,234.759,344.093,232.129,344.093z"/>
<path d="M156.603,387.701c-2.63,0-5.21,1.06-7.07,2.92c-1.859,1.87-2.93,4.44-2.93,7.08c0,2.63,1.07,5.21,2.93,7.07
	c1.86,1.86,4.44,2.93,7.07,2.93s5.21-1.07,7.07-2.93c1.859-1.86,2.93-4.44,2.93-7.07c0-2.64-1.07-5.21-2.93-7.08
	C161.813,388.761,159.232,387.701,156.603,387.701z"/>
<path d="M193.87,366.182c-2.64,0-5.21,1.07-7.08,2.93c-1.859,1.86-2.92,4.44-2.92,7.07c0,2.63,1.061,5.21,2.92,7.07
	c1.87,1.86,4.44,2.93,7.08,2.93c2.631,0,5.2-1.07,7.07-2.93c1.86-1.86,2.93-4.44,2.93-7.07c0-2.63-1.069-5.21-2.93-7.07
	C199.07,367.252,196.49,366.182,193.87,366.182z"/>
<path d="M219.67,410.87c-2.641,0-5.221,1.07-7.07,2.93c-1.87,1.86-2.93,4.43-2.93,7.07c0,2.63,1.06,5.21,2.93,7.07
	c1.85,1.86,4.43,2.93,7.07,2.93c2.63,0,5.21-1.07,7.069-2.93c1.86-1.86,2.931-4.44,2.931-7.07c0-2.64-1.07-5.21-2.931-7.07
	C224.88,411.94,222.3,410.87,219.67,410.87z"/>
<path d="M489.102,243.751l-25.073-44.932c-15.731-28.192-24.048-60.257-24.048-92.73v-2.413c0-17.8-6.933-34.535-19.519-47.122
	c-7.131-7.13-15.594-12.44-24.827-15.709l4.883-14.275c2.092-6.116,1.097-12.905-2.662-18.163s-9.862-8.397-16.324-8.397h-21.77
	c-6.464,0-12.566,3.14-16.325,8.398s-4.753,12.048-2.661,18.162l5.046,14.752c-25.965,9.683-44.509,34.724-44.509,64.022v1.029
	c0,32.287-8.316,64.256-24.05,92.45l-18.324,32.837c-5.831-4.54-11.938-8.735-18.304-12.535l-44.177-26.373
	c-27.721-16.548-50.955-40.16-67.193-68.287l-0.69-1.195c-9.038-15.653-23.63-26.851-41.09-31.528
	c-17.457-4.679-35.693-2.276-51.346,6.762l-1.441,0.832h-0.001c-16.038,9.26-27.512,24.211-32.304,42.1
	c-4.794,17.889-2.334,36.573,6.927,52.612c16.143,27.962,24.926,59.805,25.397,92.089l0.751,51.439
	c0.45,30.742,8.813,61.064,24.185,87.689c14.999,25.979,36.627,47.694,62.546,62.796s55.474,23.213,85.471,23.453l59.422,0.476
	c0.027,0,0.054,0,0.08,0c3.599,0,6.924-1.935,8.7-5.069l21.465-37.876c5.457,4.156,11.149,7.983,17.019,11.435l51.224,30.124
	c1.564,0.92,3.317,1.38,5.069,1.38s3.505-0.46,5.069-1.38l51.224-30.124c25.858-15.207,47.398-37.008,62.293-63.046
	c14.895-26.039,22.768-55.658,22.768-85.656C512.001,301.033,504.082,270.594,489.102,243.751z M359.685,20.078l0.077-0.069
	l21.793-0.006l0.041,0.095l-5.815,17c-0.813-0.029-8.894-0.006-10.245,0.074L359.685,20.078z M261.37,491.946l-53.541-0.429
	c-53.809-0.431-103.951-29.649-130.857-76.25c-13.67-23.677-21.107-50.643-21.507-77.981l-0.751-51.44
	c-0.521-35.686-10.229-70.888-28.075-101.796c-6.589-11.412-8.34-24.708-4.929-37.436c2.658-9.923,8.216-18.564,15.938-25.019
	l29.176,53.178c1.819,3.316,5.243,5.192,8.776,5.192c1.626,0,3.275-0.397,4.801-1.235c4.843-2.656,6.614-8.735,3.958-13.576
	l-29.266-53.342c8.734-2.889,18.124-3.187,27.217-0.751c12.299,3.295,22.579,11.183,28.948,22.213l0.69,1.195
	c17.938,31.07,43.617,57.163,74.259,75.455l44.177,26.373c23.475,14.014,43.108,33.937,56.779,57.615
	c26.906,46.602,27.139,104.634,0.606,151.45L261.37,491.946z M416.801,463.243l-46.154,27.143l-46.155-27.143
	c-5.979-3.517-11.752-7.474-17.237-11.81l-0.026,0.013c13.439-25.166,20.479-53.406,20.365-81.969
	c-0.12-29.998-8.112-59.585-23.111-85.564c-8.251-14.29-18.448-27.349-30.194-38.832l0.059,0.008l20.379-36.52
	c17.392-31.166,26.585-66.505,26.585-102.196v-1.029c0-26.637,21.67-48.307,48.307-48.307h3.724c12.457,0,24.17,4.851,32.979,13.659
	s13.66,20.521,13.66,32.979v2.413c0,35.877,9.192,71.313,26.583,102.476l25.073,44.931l0,0
	c13.321,23.871,20.363,50.941,20.363,78.283C492.002,385.591,463.186,435.964,416.801,463.243z"/>
<path d="M96.867,208.642c4.829-2.679,6.572-8.767,3.893-13.595l-0.042-0.076c-2.68-4.83-8.745-6.535-13.574-3.855
	c-4.829,2.68-6.551,8.805-3.871,13.633c1.827,3.292,5.237,5.15,8.753,5.15C93.666,209.9,95.33,209.495,96.867,208.642z"/>
<path d="M401.588,447.4c-3.396,0-6.705-1.735-8.582-4.862c-2.841-4.736-1.292-10.886,3.444-13.727
	c0.028-0.018,0.116-0.069,0.146-0.086c4.736-2.842,10.862-1.297,13.705,3.438c2.841,4.736,1.292,10.886-3.444,13.727
	c-0.028,0.018-0.116,0.069-0.146,0.086C405.103,446.941,403.334,447.4,401.588,447.4z"/>
<path d="M432.576,421.346c-2.293,0-4.598-0.784-6.48-2.388c-4.204-3.582-4.708-9.894-1.126-14.096
	c17.433-20.461,27.034-46.415,27.034-73.081c0-20.535-5.288-40.864-15.292-58.79c-2.691-4.822-0.964-10.913,3.859-13.604
	c4.822-2.689,10.913-0.963,13.604,3.859c11.662,20.898,17.827,44.598,17.827,68.537c0,31.415-11.297,61.976-31.811,86.052
	C438.214,420.153,435.404,421.346,432.576,421.346z"/>
<g>
</g>
<g>
</g>
<g>
</g>
<g>
</g>
<g>
</g>
<g>
</g>
<g>
</g>
<g>
</g>
<g>
</g>
<g>
</g>
<g>
</g>
<g>
</g>
<g>
</g>
<g>
</g>
<g>
</g>
</svg>
