<?xml version="1.0" encoding="iso-8859-1"?>
<!-- Generator: Adobe Illustrator 19.0.0, SVG Export Plug-In . SVG Version: 6.00 Build 0)  -->
<svg version="1.1" id="Capa_1" xmlns="http://www.w3.org/2000/svg" xmlns:xlink="http://www.w3.org/1999/xlink" x="0px" y="0px"
	 viewBox="0 0 512.003 512.003" style="enable-background:new 0 0 512.003 512.003;" xml:space="preserve">
<path style="fill:#A5DC69;" d="M109.811,468.657c36.119,35.037,110.934,52.37,163.399,1.477s88.032-145.767,118.143-151.848
	c30.111-6.081,62.86-32.476,68.115-46.985s0.809-28.233,12.128-33.331c11.319-5.098,23.405-18.653,11.771-38.213
	c-11.636-19.561,15.439-20.485,18.341-31.264c2.902-10.779-16.502-32.738-11.92-42.41c4.581-9.673,13.351-28.876-1.617-43.396
	c-14.968-14.519-34.36,21.567-49.318,11.764c-14.957-9.803-20.626,17.636-27.493,18.818s-29.504-2.74-25.461,15.299
	c4.043,18.039-11.723,6.666-19.807,13.725s-33.148-7.058-33.552,11.372s-16.684,4.992-22.288,16.809s-19.753,41.227-38.348,46.717
	c-18.596,5.49-39.211,15.293-44.467,37.644c-5.255,22.351-31.396,19.737-52.417,47.448s-16.709,48.624-17.248,64.832
	c-0.539,16.208-23.325,29.926-37.534,28.557c-14.209-1.369-0.195,20.589-12.053,28.955
	C96.325,432.989,89.938,449.381,109.811,468.657z"/>
<path style="fill:#D7FA91;" d="M108.183,424.625c11.858-8.366-2.156-30.324,12.053-28.955c14.209,1.369,36.995-12.349,37.534-28.557
	c0.539-16.208-3.773-37.121,17.248-64.832s47.162-25.096,52.417-47.448s25.871-32.154,44.466-37.644
	c18.596-5.49,32.743-34.899,38.348-46.717c5.605-11.817,21.883,1.622,22.288-16.809c0.404-18.431,25.467-4.314,33.552-11.372
	c8.085-7.058,23.85,4.314,19.807-13.725c-4.042-18.038,18.595-14.117,25.461-15.299c6.746-1.161,12.344-27.637,26.72-19.274
	l0.27-0.308c4.509-12.084,18.032-26.319,6.233-34.924c-16.581-12.093-34.586-1.199-43.632,4.443
	c-9.046,5.642-33.679-9.604-44.062-5.391c-10.384,4.213-7.587,29.824-28.753,21.56c-21.166-8.264-33.064,4.977-36.608,16.332
	s-17.884,9.056-31.675,15.997c-13.792,6.941-31.17,42.015-37.638,70.573c-16.822,74.276-91.961,75.698-135.66,132.077
	c-41.88,54.033-18.25,118.771,19.013,149.755C91.009,446.821,97.271,432.322,108.183,424.625z"/>
<path style="fill:#A5DC69;" d="M86.554,314.352c43.699-56.379,118.838-57.801,135.66-132.077
	c6.468-28.559,23.846-63.632,37.638-70.573c13.792-6.941,28.131-4.642,31.675-15.997s15.442-24.595,36.608-16.332
	s18.37-17.348,28.753-21.56c10.383-4.213,35.016,11.033,44.062,5.391c4.649-2.9,11.668-7.18,19.64-9.021l0,0
	c0,0-1.557-21.964-12.996-33.06c-14.638-14.199-34.606-11.14-44.129-1.902c-14.275,13.847-18.841-9.213-35.417-9.213
	c-20.762,0-20.762,43.629-40.748,24.242c-14.898-14.451-38.918-3.571-46.544,35.456c-5.153,26.37-32.018,51.466-63.372,53.822
	c-51.545,3.873-22.589,44.87-53.163,74.527c-24.164,23.44-49.451,27.017-87.054,67.049
	c-49.112,52.283-23.276,110.504,12.046,144.769l54.697,53.058l0.109-0.141C67.66,431.321,45.257,367.634,86.554,314.352z"/>
<path style="fill:#D7FA91;" d="M115.018,473.358L115.018,473.358c71.277-50.85,138.485-106.859,201.049-167.548l106.099-102.92
	L268.628,392.757c-31.443,38.883-68.376,73.277-109.709,102.166l0,0L115.018,473.358z"/>
<path d="M504.491,143.284c-1.996-4.097-5.285-10.848-5.408-13.468c4.726-10,16.005-34.948-3.951-54.306
	c-13.769-13.357-29.311-2.535-38.635,3.989c1.019-2.408,1.861-4.868,2.345-7.404c1.653-8.667-1.319-16.272-8.368-21.413
	c-7.184-5.24-14.505-7.245-21.431-7.388c-1.858-8.709-5.885-21.005-14.485-29.348c-18.536-17.979-44.566-14.987-58.056-1.901
	c-0.758,0.735-1.315,1.16-1.676,1.398c-1.051-0.64-2.797-2.128-4.021-3.171C346.011,6.185,338.764,0.01,328.048,0.01
	c-15.058,0-22.681,13.045-27.727,21.677c-1.269,2.171-3.041,5.203-4.364,6.867c-0.44-0.335-1.005-0.811-1.694-1.479
	c-8.398-8.146-19.321-10.904-29.981-7.563c-16.184,5.074-28.334,22.67-33.338,48.278c-4.559,23.329-28.921,43.86-54.308,45.768
	c-37.97,2.853-41.849,25.415-44.965,43.543c-2.1,12.218-4.084,23.758-14.413,33.778c-9.266,8.988-18.792,14.859-29.822,21.656
	c-16.258,10.019-34.684,21.373-57.559,45.724c-53.251,56.692-26.615,120.972,12.373,158.793c0,0,59.075,57.307,60.597,58.783
	c20.588,19.971,51.148,33.337,81.746,35.753c3.42,0.271,6.818,0.404,10.198,0.404c32.111-0.001,62.118-12.115,85.381-34.68
	c11.203-10.868,22.545-24.481,34.673-41.62c3.19-4.508,2.121-10.749-2.387-13.939c-4.508-3.19-10.749-2.121-13.939,2.387
	c-11.407,16.121-21.963,28.817-32.272,38.817c-26.185,25.401-57.244,31.992-85.322,28.331c35.568-26.841,67.626-57.799,95.48-92.243
	l104.839-129.646c10.508-3.914,22.882-1.777,31.342,6.429c3.964,3.845,10.296,3.75,14.141-0.215
	c3.846-3.964,3.749-10.295-0.215-14.141c-7.854-7.619-17.73-12.103-27.967-13.467l31.399-38.829
	c3.326-4.113,2.874-10.104-1.03-13.671c-3.905-3.567-9.912-3.478-13.708,0.205l-62.069,60.209
	c-0.864-14.449-7.057-27.909-17.679-38.214c-3.965-3.846-10.295-3.75-14.141,0.215s-3.749,10.295,0.215,14.141
	c7.559,7.332,11.721,17.047,11.721,27.355c0,9.247-3.358,18.01-9.502,25.009l-14.645,14.206
	c-6.827,6.622-13.728,13.185-20.678,19.706c0.115-1.659,0.195-3.325,0.195-5.004c0-19.438-7.796-37.704-21.95-51.436
	c-3.964-3.845-10.295-3.75-14.141,0.215c-3.846,3.964-3.749,10.295,0.215,14.141c10.238,9.932,15.877,23.1,15.877,37.08
	c0,13.98-5.639,27.147-15.877,37.079c-0.545,0.528-1.009,1.107-1.407,1.716c-43.071,38.105-88.2,74.195-134.841,107.837
	c-0.04-0.03-0.074-0.063-0.114-0.092c-1.268-0.924-2.513-1.89-3.739-2.887c-3.976-4.915-5.896-9.567-5.577-13.646
	c0.409-5.242,4.487-8.858,6.882-10.547c10.152-7.162,9.682-18.943,9.4-25.981c-0.013-0.328-0.027-0.69-0.041-1.066
	c10.299-0.314,22.121-5.245,31.174-13.196c8.27-7.264,12.986-16.181,13.283-25.107c0.094-2.802,0.056-5.587,0.016-8.535
	c-0.19-14.065-0.406-30.006,15.205-50.586c8.729-11.508,18.306-16.95,27.565-22.212c11.237-6.387,22.856-12.992,26.618-28.99
	c3.318-14.115,15.255-23.756,37.564-30.342c12.156-3.589,22.056-13.825,30.183-25.951c0.155-0.227,0.302-0.459,0.453-0.689
	c5.33-8.065,9.893-16.915,13.819-25.18c0.752-0.153,2.121-0.244,3.084-0.307c5.425-0.358,19.836-1.31,20.263-20.769
	c0.001-0.056,0.002-0.109,0.005-0.161c1.966-0.199,5.523,0.107,7.813,0.304c7.433,0.637,15.852,1.362,22.22-4.121
	c0.79-0.317,3.211-0.308,4.673-0.3c4.534,0.018,11.346,0.048,15.957-5.688c4.474-5.563,3.542-12.673,2.451-17.537
	c-0.171-0.764-0.225-1.297-0.235-1.639c2.214-1.002,8.274-1.119,10.668-1.166c2.624-0.051,4.891-0.094,6.968-0.452
	c6.839-1.176,10.497-7.071,14.035-12.771c1.465-2.361,4.089-6.589,5.75-7.854c0.141,0.074,0.318,0.176,0.532,0.316
	c12.753,8.359,25.336-0.449,34.522-6.88c3.85-2.694,7.829-5.48,10.8-6.447c1.595-0.519,1.751-0.363,2.514,0.377
	c8.342,8.092,5.85,18.62-0.458,31.937c-4.421,9.336,0.756,19.962,5.763,30.24c1.996,4.095,5.253,10.781,5.485,13.592
	c-1.022,0.991-3.595,2.55-5.363,3.623c-4.623,2.803-9.862,5.98-13.198,11.392c-3.034,4.923-5.267,13.122,1.336,24.22
	c3.098,5.207,4.035,9.851,2.789,13.804c-1.53,4.85-6.205,8.438-10.071,10.179c-12.345,5.56-13.728,16.952-14.839,26.104
	c-0.521,4.294-1.061,8.733-2.584,12.938c-3.693,10.195-32.524,34.9-60.692,40.589c-15.269,3.083-29.031,19.982-44.999,44.405
	c-3.022,4.623-1.725,10.82,2.898,13.842c4.621,3.021,10.819,1.724,13.842-2.898c5.447-8.332,22.022-33.687,32.218-35.745
	c32.656-6.595,68.83-34.864,75.538-53.382c2.298-6.346,3.038-12.441,3.633-17.338c0.994-8.188,1.575-9.549,3.198-10.28
	c10.271-4.626,17.901-12.791,20.931-22.398c2.087-6.615,2.97-17.197-4.673-30.044c-1.277-2.146-1.455-3.253-1.479-3.542
	c0.706-1.217,4.476-3.503,6.523-4.745c5.457-3.309,12.249-7.428,14.358-15.265C513.739,162.266,509.038,152.616,504.491,143.284z
	 M44.456,271.953c21.052-22.412,38.276-33.026,53.473-42.391c11.53-7.105,22.42-13.817,33.256-24.327
	c15.01-14.56,17.887-31.296,20.197-44.745c2.987-17.375,4.351-25.305,26.752-26.988c34.343-2.581,66.161-29.759,72.437-61.875
	c4.122-21.092,12.876-30.892,19.692-33.03c3.588-1.124,6.976-0.171,10.073,2.834c2.268,2.2,9.168,8.896,18.382,7.635
	c9.528-1.303,14.491-9.794,18.87-17.286c3.897-6.669,7.143-11.77,10.46-11.77c3.188,0,5.796,2.084,9.786,5.484
	c5.795,4.937,17.849,15.208,32.594,0.906c5.92-5.743,19.71-8.277,30.204,1.902c4.73,4.589,7.425,12.689,8.808,19.061
	c-5.645,2.343-10.299,5.187-13.374,7.102c-2.62,0.362-10.087-1.888-14.609-3.249c-9.854-2.965-20.043-6.03-28.33-2.668
	c-7.5,3.043-10.711,10.056-13.291,15.691c-0.987,2.155-2.824,6.167-3.859,6.735c-0.267,0.085-1.609,0.101-4.207-0.914
	c-14.063-5.489-24.546-3.021-30.867,0.016c-8.863,4.26-15.761,12.516-18.924,22.651c-0.512,1.638-2.802,2.466-9.893,4.281
	c-4.79,1.226-10.751,2.752-16.733,5.762c-19.549,9.839-37.152,51.941-42.895,77.296c-9.047,39.945-36.486,56.491-68.259,75.648
	c-22.936,13.831-46.654,28.131-65.55,52.511c-19.488,25.144-27.503,54.584-23.177,85.139c0.503,3.553,1.189,7.097,2.029,10.62
	l-1.327-1.287C44.422,391.295-11.388,331.403,44.456,271.953z M310.696,324.833l-49.843,61.637
	c-30.262,37.422-65.687,70.567-105.307,98.581c-8.563-3.122-16.507-7.099-23.532-11.61
	C194.748,427.933,254.744,378.04,310.696,324.833z M410.095,99.807c-0.703,1.132-1.648,2.656-2.397,3.728
	c-0.664,0.021-1.381,0.034-1.999,0.046c-7.81,0.151-19.613,0.379-26.28,8.874c-2.507,3.194-5.084,8.72-3.517,17.15
	c-4.511,0.023-10.607,0.426-15.881,4.726c-1.56,0.32-5.526-0.021-7.958-0.23c-7.436-0.64-16.686-1.433-23.396,4.592
	c-3.929,3.528-5.99,8.492-6.128,14.753c-0.01,0.448-0.032,0.825-0.062,1.14c-0.518,0.045-1.073,0.082-1.524,0.112
	c-2.801,0.185-7.372,0.49-11.682,2.813c-2.986-7.033-7.747-13.259-14.005-18.153c-4.352-3.402-10.635-2.632-14.038,1.717
	c-3.401,4.351-2.633,10.636,1.718,14.038c5.572,4.357,9.045,10.54,9.78,17.411c0.559,5.231-0.522,10.407-3.064,14.979
	c-0.742,1.164-1.48,2.282-2.213,3.348c-0.197,0.254-0.393,0.508-0.599,0.757c-0.439,0.527-0.813,1.086-1.126,1.668
	c-5.862,7.983-11.429,12.783-16.654,14.326c-10.845,3.202-43.847,12.944-51.37,44.946c-1.689,7.183-6.721,10.319-17.033,16.18
	c-9.982,5.674-22.405,12.735-33.616,27.513c-19.769,26.06-19.48,47.378-19.27,62.943c0.037,2.708,0.071,5.265-0.006,7.599
	c-0.11,3.301-2.477,7.219-6.494,10.747c-6.747,5.927-15.399,8.64-20.086,8.19c-6.633-0.636-10.723,1.774-12.985,3.912
	c-5.362,5.07-5.076,12.23-4.847,17.985c0.127,3.166,0.318,7.95-0.945,8.841c-5.595,3.948-9.798,8.878-12.387,14.401
	c-7.558-12.331-12.768-26.242-14.757-40.292c-3.551-25.077,3.083-49.312,19.184-70.083c16.61-21.431,38.704-34.752,60.069-47.636
	c32.697-19.717,66.509-40.104,77.437-88.358c6.546-28.904,23.275-59.267,32.38-63.849c4.048-2.037,8.447-3.163,12.701-4.252
	c8.959-2.293,20.108-5.147,24.024-17.698c0.56-1.794,2.827-7.86,8.496-10.584c3.992-1.918,9.017-1.72,14.931,0.588
	c22.173,8.66,30.127-8.708,33.522-16.125c0.833-1.819,2.053-4.482,2.874-5.503c2.774-0.303,10.254,1.937,14.802,3.305
	c10.833,3.259,22.034,6.63,30.546,1.322c5.856-3.652,11.22-6.434,16.229-7.69c0.295-0.056,0.586-0.121,0.871-0.202
	c5.476-1.185,10.532-0.469,15.348,3.044c0.361,0.264,0.537,0.449,0.609,0.534c0.282,2.082-3.269,8.629-4.987,11.798
	c-0.567,1.046-1.136,2.106-1.698,3.173c-1.461,0.003-2.767,0.178-3.879,0.424C419.386,84.837,414.016,93.489,410.095,99.807z"/>
<path d="M336.312,384.464c-4.68-2.938-10.851-1.526-13.786,3.151l-0.106,0.171c-2.913,4.692-1.444,10.816,3.248,13.729
	c1.631,1.013,3.442,1.494,5.235,1.494c3.364,0,6.66-1.696,8.561-4.757C342.401,393.572,340.99,387.399,336.312,384.464z"/>
<path d="M70.693,296.6c17.777-18.924,30.911-27.018,46.14-36.402c2.459-1.516,4.936-3.042,7.427-4.613
	c4.671-2.947,6.069-9.122,3.123-13.793c-2.947-4.672-9.122-6.068-13.793-3.123c-2.432,1.534-4.85,3.023-7.268,4.514
	c-15.741,9.7-30.608,18.863-50.206,39.724c-11.129,11.849-17.658,24.798-19.404,38.491c-0.698,5.479,3.177,10.486,8.655,11.185
	c0.43,0.055,0.855,0.082,1.277,0.082c4.959,0,9.263-3.687,9.907-8.736C57.753,314.504,62.512,305.311,70.693,296.6z"/>
<path d="M149.112,234.066c2.503,0,5.008-0.934,6.949-2.81l0.176-0.17c3.971-3.838,4.078-10.169,0.239-14.14
	c-3.839-3.972-10.169-4.078-14.14-0.24l-0.176,0.17c-3.971,3.838-4.078,10.169-0.239,14.14
	C143.884,233.046,146.496,234.066,149.112,234.066z"/>
<g>
</g>
<g>
</g>
<g>
</g>
<g>
</g>
<g>
</g>
<g>
</g>
<g>
</g>
<g>
</g>
<g>
</g>
<g>
</g>
<g>
</g>
<g>
</g>
<g>
</g>
<g>
</g>
<g>
</g>
</svg>
