<?xml version="1.0" encoding="iso-8859-1"?>
<!-- Generator: Adobe Illustrator 19.0.0, SVG Export Plug-In . SVG Version: 6.00 Build 0)  -->
<svg version="1.1" id="Capa_1" xmlns="http://www.w3.org/2000/svg" xmlns:xlink="http://www.w3.org/1999/xlink" x="0px" y="0px"
	 viewBox="0 0 511.998 511.998" style="enable-background:new 0 0 511.998 511.998;" xml:space="preserve">
<path style="fill:#F5B955;" d="M63.8,283.946h411.845c6.03-30.14,6.179-60.86,0.33-90.269c0,0-7.321-74.617,6.851-108.199
	c10.078-23.883,18.969-47.767,1.206-65.53c-17.762-17.762-41.358-8.096-65.53,1.206c-29.326,11.286-105.903,6.004-135.219,3.457
	c-15.796-1.373-31.705-1.25-47.427,0.791c-51.683,6.712-102.65,30.656-143.495,71.501c-63.42,63.42-86.096,151.248-66.777,228.263
	c0,0,7.47,61.824-4.193,97.024c-8.537,25.765-19.907,50.13-1.266,68.77c18.64,18.64,43.809,9.569,68.77-1.266
	c36.935-16.033,79.174-12.427,98.278-9.554C114.14,444.787,63.8,370.222,63.8,283.946z"/>
<path style="fill:#E6AA46;" d="M282.852,501.998c120.979,0,219.052-97.625,219.052-218.052H63.8
	C63.8,404.373,161.873,501.998,282.852,501.998z"/>
<path style="fill:#FAE196;" d="M282.852,459.618c97.466,0,176.478-78.651,176.478-175.672H106.375
	C106.375,380.967,185.387,459.618,282.852,459.618z"/>
<g>
	<path style="fill:#E6AA46;" d="M307.338,334.955v63.257c0,12.549,12.8,20.955,24.362,16.077c4.466-1.884,9.254-4.182,14.1-6.964
		c9.809-5.63,11.832-18.924,4.091-27.169C308.807,336.386,307.338,334.955,307.338,334.955z"/>
	<path style="fill:#E6AA46;" d="M333.382,313.688l46.693,44.06c7.836,7.394,20.448,6.03,26.473-2.901
		c3.284-4.868,6.627-10.712,9.275-17.299c4.599-11.443-3.864-23.916-16.196-23.957C340.002,313.397,333.382,313.688,333.382,313.688
		z"/>
	<path style="fill:#E6AA46;" d="M261.661,336.956v63.257c0,12.549-12.8,20.955-24.362,16.077c-4.466-1.884-9.254-4.182-14.1-6.964
		c-9.809-5.63-11.832-18.924-4.091-27.169C260.192,338.386,261.661,336.956,261.661,336.956z"/>
	<path style="fill:#E6AA46;" d="M235.617,315.689l-46.693,44.06c-7.836,7.394-20.448,6.03-26.473-2.901
		c-3.284-4.868-6.627-10.712-9.275-17.299c-4.599-11.443,3.864-23.916,16.196-23.957
		C228.997,315.398,235.617,315.689,235.617,315.689z"/>
</g>
<path d="M501.905,273.944h-14.354c4.148-27.527,3.596-54.955-1.663-81.705c-0.569-6.255-6.31-73.33,6.154-102.871
	c9.463-22.423,22.422-53.133-0.936-76.491c-21.956-21.959-49.898-11.191-74.549-1.69l-1.646,0.633
	c-18.839,7.251-67.722,8.306-130.76,2.827c-17.149-1.49-33.829-1.207-49.583,0.837c-55.532,7.212-108.547,33.615-149.28,74.348
	c-63.47,63.471-90.091,154.275-69.569,237.123c0.702,6.294,6.412,61.2-3.824,92.092c-0.891,2.687-1.812,5.357-2.727,8.008
	c-8.066,23.385-17.21,49.89,3.882,70.982c10.177,10.176,21.775,13.734,33.429,13.734c16.684,0,33.485-7.293,46.399-12.899
	c34.037-14.776,73.901-11.514,91.123-9.083c30.47,14.532,64.067,22.21,98.852,22.21c44.199,0,87.102-12.56,124.073-36.323
	c4.647-2.987,5.992-9.175,3.006-13.822c-2.987-4.647-9.172-5.994-13.822-3.006c-33.737,21.684-72.901,33.147-113.256,33.147
	c-111.901,0-203.548-87.956-208.812-198.047h22.603c5.237,97.748,86.753,175.672,186.208,175.672
	c99.455,0,180.97-77.924,186.207-175.672h22.608c-1.979,42.135-16.471,81.944-42.207,115.682c-3.352,4.392-2.507,10.67,1.885,14.019
	c4.393,3.352,10.669,2.505,14.019-1.885c30.448-39.914,46.542-87.57,46.542-137.818
	C511.908,278.422,507.428,273.944,501.905,273.944z M120.903,445.221c8.248,8.21,17.017,15.712,26.227,22.485
	c-19.41,0.561-41.466,3.809-62.217,12.817c-27.624,11.989-45.005,16.081-57.716,3.369c-11.656-11.656-7.258-26.712,0.883-50.313
	c0.94-2.728,1.889-5.475,2.805-8.24c12.227-36.9,4.945-98.755,4.629-101.369c-0.05-0.416-0.126-0.828-0.229-1.234
	c-19.125-76.241,5.455-160.064,64.149-218.758c37.627-37.627,86.534-62.009,137.711-68.655c14.326-1.86,29.56-2.111,45.274-0.746
	c39.318,3.418,109.747,7.432,139.678-4.086l1.653-0.637c25.081-9.666,41.069-14.975,53.21-2.831
	c11.769,11.768,8.297,26.971-3.349,54.568c-14.986,35.512-7.899,109.914-7.591,113.064c0.032,0.327,0.08,0.652,0.145,0.974
	c5.09,25.593,5.451,51.899,1.119,78.315H63.801c-5.523,0-10.002,4.478-10.002,10.002C53.798,344.87,77.63,402.145,120.903,445.221z
	 M282.853,449.616c-88.422,0-160.965-68.953-166.177-155.667h332.351C443.816,380.662,371.274,449.616,282.853,449.616z"/>
<path d="M424.386,437.063l-0.668,0.609c-4.092,3.711-4.399,10.037-0.688,14.128c1.974,2.177,4.688,3.282,7.411,3.282
	c2.397,0,4.803-0.856,6.718-2.595l0.719-0.655c4.079-3.726,4.365-10.052,0.639-14.131
	C434.79,433.624,428.464,433.338,424.386,437.063z"/>
<path d="M309.606,421.089c4.59,3.046,9.886,4.599,15.224,4.599c3.637,0,7.293-0.721,10.759-2.184
	c5.301-2.237,10.412-4.762,15.192-7.505c7.358-4.224,12.295-11.454,13.544-19.838c1.247-8.36-1.355-16.69-7.141-22.853
	c-25.821-27.51-41.846-44.526-42.866-45.52c-2.883-2.807-7.162-3.614-10.868-2.05c-3.705,1.563-6.113,5.194-6.113,9.215v63.257
	C297.335,407.44,301.922,415.992,309.606,421.089z M317.34,360.115c6.045,6.427,14.215,15.122,25.257,26.884
	c2.153,2.294,2.141,4.877,1.94,6.212c-0.342,2.296-1.696,4.278-3.717,5.437c-4.077,2.34-8.454,4.501-13.01,6.424
	c-3.399,1.432-6.13,0.02-7.147-0.654c-1-0.663-3.325-2.596-3.325-6.207L317.34,360.115L317.34,360.115z"/>
<path d="M373.211,365.024c5.14,4.85,11.883,7.504,18.866,7.504c1.012,0,2.029-0.056,3.047-0.168
	c8.022-0.889,15.208-5.232,19.718-11.917c4.203-6.23,7.656-12.678,10.263-19.163c3.392-8.436,2.379-17.982-2.709-25.537
	c-5.104-7.58-13.603-12.123-22.734-12.153c-59.191-0.194-66.439,0.093-66.719,0.105c-4.015,0.176-7.534,2.739-8.935,6.505
	s-0.413,8.005,2.51,10.763L373.211,365.024z M399.596,323.595c3.592,0.012,5.537,2.328,6.207,3.322
	c0.661,0.982,2.059,3.623,0.74,6.901c-2.082,5.179-4.869,10.372-8.285,15.436c-1.669,2.474-4.062,3.081-5.338,3.222
	c-1.289,0.143-3.781,0.073-5.979-2.001l-28.555-26.944C368.004,323.523,381.292,323.535,399.596,323.595z"/>
<path d="M204.674,398.163c1.249,8.384,6.187,15.615,13.545,19.838c4.777,2.743,9.889,5.268,15.192,7.506
	c3.465,1.461,7.121,2.183,10.758,2.183c5.338,0,10.635-1.553,15.226-4.6c7.683-5.097,12.27-13.649,12.27-22.876v-63.257
	c0-4.022-2.409-7.652-6.113-9.215s-7.987-0.756-10.868,2.05c-1.021,0.994-17.045,18.01-42.866,45.52
	C206.03,381.473,203.427,389.803,204.674,398.163z M226.401,389.001c11.042-11.764,19.213-20.459,25.258-26.884v38.096
	c0,3.611-2.325,5.543-3.325,6.207c-1.017,0.674-3.749,2.089-7.147,0.654c-4.557-1.922-8.934-4.084-13.01-6.424
	c-2.02-1.16-3.376-3.142-3.718-5.438C224.261,393.877,224.248,391.295,226.401,389.001z"/>
<path d="M143.894,343.28c2.607,6.485,6.06,12.932,10.264,19.164c4.509,6.684,11.696,11.027,19.717,11.916
	c1.018,0.113,2.034,0.168,3.047,0.168c6.983,0,13.727-2.654,18.867-7.504l46.693-44.06c2.923-2.758,3.911-6.997,2.51-10.763
	c-1.401-3.766-4.92-6.328-8.935-6.505c-0.28-0.013-7.535-0.3-66.718-0.105c-9.132,0.03-17.631,4.573-22.734,12.153
	C141.515,325.298,140.502,334.844,143.894,343.28z M163.195,328.918c0.67-0.995,2.617-3.311,6.208-3.323
	c15.044-0.049,26.693-0.068,35.706-0.068c1.955,0,3.787,0.001,5.502,0.002l-28.555,26.944c-2.198,2.074-4.695,2.145-5.979,2.001
	c-1.277-0.142-3.67-0.748-5.338-3.222c-3.417-5.064-6.204-10.257-8.286-15.436C161.137,332.54,162.534,329.9,163.195,328.918z"/>
<path d="M282.858,323.524c2.631,0,5.2-1.06,7.071-2.931c1.86-1.86,2.932-4.431,2.932-7.072c0-2.631-1.07-5.211-2.932-7.072
	c-1.87-1.86-4.44-2.931-7.071-2.931c-2.642,0-5.222,1.07-7.082,2.931c-1.86,1.87-2.932,4.441-2.932,7.072
	c0,2.631,1.07,5.211,2.932,7.072C277.636,322.463,280.216,323.524,282.858,323.524z"/>
<path d="M297.082,79.966h0.251c5.523,0,10.002-4.478,10.002-10.002c0-5.524-4.479-10.002-10.002-10.002h-0.251
	c-5.523,0-10.002,4.478-10.002,10.002C287.08,75.488,291.559,79.966,297.082,79.966z"/>
<path d="M329.052,139.647h0.251c5.523,0,10.002-4.478,10.002-10.002c0-5.524-4.479-10.002-10.002-10.002h-0.251
	c-5.523,0-10.002,4.478-10.002,10.002C319.05,135.169,323.529,139.647,329.052,139.647z"/>
<path d="M376.708,91.992h0.251c5.523,0,10.002-4.478,10.002-10.002c0-5.524-4.479-10.002-10.002-10.002h-0.251
	c-5.523,0-10.002,4.478-10.002,10.002C366.706,87.513,371.184,91.992,376.708,91.992z"/>
<path d="M74.104,219.919c1.075,0.369,2.171,0.544,3.248,0.544c4.154,0,8.036-2.609,9.46-6.759l0.342-0.99
	c1.821-5.215-0.929-10.92-6.144-12.741c-5.22-1.823-10.921,0.929-12.741,6.144l-0.379,1.092
	C66.097,212.437,68.879,218.127,74.104,219.919z"/>
<path d="M90.595,179.743c1.623,0.987,3.416,1.457,5.187,1.457c3.378,0,6.674-1.71,8.557-4.807
	c8.131-13.373,17.903-25.804,29.047-36.947c28.467-28.467,65.356-47.67,103.871-54.072c5.449-0.906,9.133-6.057,8.227-11.507
	c-0.904-5.448-6.054-9.134-11.507-8.227c-42.596,7.08-83.344,28.268-114.736,59.66C106.97,137.571,96.206,151.265,87.246,166
	C84.375,170.72,85.875,176.874,90.595,179.743z"/>
<g>
</g>
<g>
</g>
<g>
</g>
<g>
</g>
<g>
</g>
<g>
</g>
<g>
</g>
<g>
</g>
<g>
</g>
<g>
</g>
<g>
</g>
<g>
</g>
<g>
</g>
<g>
</g>
<g>
</g>
</svg>
