<?xml version="1.0" encoding="iso-8859-1"?>
<!-- Generator: Adobe Illustrator 19.0.0, SVG Export Plug-In . SVG Version: 6.00 Build 0)  -->
<svg version="1.1" id="Capa_1" xmlns="http://www.w3.org/2000/svg" xmlns:xlink="http://www.w3.org/1999/xlink" x="0px" y="0px"
	 viewBox="0 0 512 512" style="enable-background:new 0 0 512 512;" xml:space="preserve">
<path style="fill:#46C373;" d="M418.233,101.764c22.11-29.799,49.571-56.272,83.725-56.286V9.998
	c-52.468,0-87.672,37.195-111.326,68.888L418.233,101.764z"/>
<path style="fill:#FF5A5A;" d="M406.212,218.169c0,0-128.564,283.832-396.172,283.832
	c164.972-164.972,173.971-250.958,274.188-383.449l14.266-18.28c24.031-30.793,67.632-38.072,100.361-16.753l0,0
	c31.988,20.834,43.299,62.326,26.31,96.512L406.212,218.169z"/>
<path style="fill:#A5DC69;" d="M398.856,83.52L398.856,83.52c-32.729-21.318-76.33-14.04-100.361,16.753l-7.677,9.837l0.3,1.12
	h16.703c24.298,0,43.996,19.698,43.996,43.997v5.259h12.595c24.298,0,43.997,19.698,43.997,43.997v6.48c0,0,0.403,0.169,1.153,0.471
	l15.605-31.402C442.154,145.845,430.843,104.354,398.856,83.52z"/>
<g>
	<path style="fill:#FF8C8C;" d="M501.957,502.002c-76.23-76.229-119.156-135.594-153.168-190.475
		c-23.56,31.555-54.446,66.748-92.79,98.217C318.177,460.773,399.967,502.002,501.957,502.002z"/>
	<path style="fill:#FF8C8C;" d="M105.785,218.169c0,0,18.946,41.822,57.424,93.356c32.044-51.704,56.178-99.43,92.79-153.529
		c-8.629-12.749-17.948-25.852-28.229-39.443l-14.268-18.28C189.472,69.48,145.871,62.202,113.142,83.52l0,0
		c-31.988,20.834-43.299,62.326-26.31,96.512L105.785,218.169z"/>
</g>
<path style="fill:#46C373;" d="M93.765,101.764C71.655,71.965,44.194,45.492,10.04,45.478V9.998
	c52.468,0,87.672,37.195,111.326,68.888L93.765,101.764z"/>
<path style="fill:#A5DC69;" d="M113.142,83.52L113.142,83.52c32.729-21.318,76.33-14.04,100.361,16.753l7.677,9.837l-0.3,1.12
	h-16.703c-24.298,0-43.996,19.698-43.996,43.997v5.259h-12.595c-24.298,0-43.997,19.698-43.997,43.997v6.48
	c0,0-0.403,0.169-1.153,0.471l-15.605-31.402C69.844,145.845,81.154,104.354,113.142,83.52z"/>
<path d="M501.961,55.477c5.52-0.002,9.994-4.478,9.994-9.998V9.998c0-5.522-4.476-9.998-9.998-9.998
	c-54.386,0-90.943,36.337-114.561,66.64c-13.827-5.131-28.823-6.619-43.63-4.146c-21.11,3.523-39.987,14.757-53.154,31.629
	l-14.267,18.28c-0.031,0.04-0.062,0.08-0.092,0.12c-7.177,9.488-13.899,18.759-20.254,27.846
	c-6.589-9.42-13.278-18.619-20.258-27.846c-0.03-0.04-0.061-0.08-0.092-0.12l-14.266-18.281
	c-13.167-16.872-32.045-28.105-53.155-31.629c-14.808-2.474-29.803-0.985-43.63,4.146C100.983,36.337,64.426,0,10.04,0
	C4.518,0,0.042,4.476,0.042,9.998v35.48c0,5.52,4.474,9.996,9.994,9.998c23.845,0.01,46.661,14.879,71.441,46.654
	c-14.834,24.316-17.021,55.342-3.598,82.351l18.877,37.986c1.501,3.281,19.239,41.414,54.357,89.503
	C118.038,364.554,75.539,422.364,2.97,494.932c-2.86,2.86-3.714,7.16-2.167,10.896C2.351,509.564,5.997,512,10.041,512
	c62.705,0,123.104-15.319,179.52-45.533c22.834-12.229,45.029-26.906,66.439-43.888C330.773,481.916,413.48,512,501.959,512
	c4.043,0,7.69-2.437,9.237-6.172c1.548-3.735,0.692-8.037-2.167-10.895c-18.515-18.515-35.921-36.921-51.735-54.707
	c-3.668-4.127-9.989-4.497-14.116-0.829c-4.126,3.668-4.498,9.988-0.829,14.116c10.955,12.321,22.654,24.928,34.943,37.657
	c-73.314-4.996-142.296-32.401-205.525-81.639c15.132-13.053,29.84-27.278,44.056-42.657c11.802-12.767,22.518-25.499,32.176-37.82
	c13.196,20.703,26.138,39.463,40.14,58.203c1.964,2.628,4.971,4.014,8.018,4.014c2.082,0,4.181-0.648,5.977-1.99
	c4.423-3.305,5.33-9.57,2.025-13.994c-15.097-20.207-28.947-40.451-43.268-63.258c34.969-47.827,52.734-86.017,54.353-89.563
	l18.877-37.986c13.423-27.009,11.236-58.035-3.598-82.351C455.3,70.356,478.116,55.487,501.961,55.477z M20.038,36.137V20.515
	c38.895,4.059,67.073,31.257,86.441,55.453c-4.452,3.008-8.538,6.372-12.242,10.035C76.743,64.222,52.102,40.361,20.038,36.137z
	 M101.808,107.704c0.017-0.023,0.035-0.045,0.051-0.068c4.495-6.049,10.097-11.411,16.74-15.738
	c2.227-1.451,4.511-2.732,6.833-3.882c0.196-0.087,0.388-0.186,0.579-0.287c25.394-12.283,55.593-6.9,75.188,13.593
	c-26.815,1.466-48.487,22.585-50.81,49.168h-2.803c-21.562,0-40.206,12.71-48.853,31.028l-2.949-5.933
	C84.597,153.066,87.578,126.904,101.808,107.704z M113.569,211.366c0.005-0.135,0.02-0.268,0.02-0.404v-6.48
	c0-18.747,15.251-33.997,33.997-33.997h12.595c5.522,0,9.998-4.476,9.998-9.998v-5.259c0-18.747,15.251-33.998,33.998-33.998h12.996
	l2.668,3.418c8.339,11.026,16.257,22.007,24.089,33.403c-20.887,31.346-37.805,60.636-54.335,89.261
	c-8.781,15.205-17.627,30.523-27.12,46.22C130.981,249.163,113.569,211.366,113.569,211.366z M397.106,214.044
	c-0.315,0.695-32.212,70.282-95.968,139.255c-54.854,59.341-144.45,129.37-266.415,137.852
	c65.836-68.206,105.319-123.383,136.757-174.021c0.161-0.237,0.313-0.478,0.451-0.727c12.543-20.236,23.815-39.753,34.982-59.092
	c23.955-41.484,48.728-84.383,85.246-132.669l2.665-3.414h12.997c18.747,0,33.998,15.251,33.998,33.998v5.259
	c0,5.522,4.476,9.998,9.998,9.998h12.595c18.747,0,33.997,15.251,33.997,33.997v6.48c0,0.136,0.015,0.269,0.02,0.404l-1.17,2.354
	C397.206,213.827,397.155,213.935,397.106,214.044z M416.212,175.583l-2.949,5.933c-8.647-18.318-27.289-31.028-48.853-31.028
	h-2.803c-2.324-26.583-23.994-47.701-50.81-49.168c19.6-20.497,49.81-25.877,75.207-13.583c0.183,0.096,0.366,0.19,0.553,0.274
	c2.324,1.152,4.611,2.435,6.841,3.886c6.643,4.326,12.245,9.688,16.74,15.736c0.017,0.024,0.036,0.047,0.053,0.071
	C424.42,126.905,427.401,153.067,416.212,175.583z M417.76,86.003c-3.704-3.663-7.79-7.027-12.242-10.035
	c19.369-24.196,47.546-51.393,86.441-55.453v15.622C459.896,40.361,435.255,64.223,417.76,86.003z"/>
<path d="M416.447,407.56c-4.262,3.511-4.871,9.812-1.361,14.075l0.367,0.446c1.977,2.408,4.843,3.654,7.733,3.654
	c2.233,0,4.478-0.745,6.339-2.272c4.268-3.504,4.887-9.804,1.383-14.072l-0.386-0.47C427.01,404.658,420.709,404.049,416.447,407.56
	z"/>
<path d="M310.05,296.437c-4.3-3.464-10.595-2.786-14.059,1.516c-31.44,39.037-65.989,71.368-102.687,96.093
	c-4.58,3.085-5.791,9.299-2.706,13.879c1.932,2.867,5.087,4.413,8.302,4.413c1.922,0,3.864-0.553,5.577-1.708
	c38.361-25.846,74.39-59.535,107.087-100.134C315.029,306.195,314.351,299.901,310.05,296.437z"/>
<path d="M162.116,412.936l-0.709,0.381c-4.868,2.607-6.702,8.666-4.095,13.534c1.803,3.365,5.255,5.281,8.824,5.281
	c1.593,0,3.208-0.382,4.71-1.186l0.777-0.418c4.858-2.625,6.668-8.692,4.042-13.55C173.042,412.12,166.976,410.311,162.116,412.936z
	"/>
<g>
</g>
<g>
</g>
<g>
</g>
<g>
</g>
<g>
</g>
<g>
</g>
<g>
</g>
<g>
</g>
<g>
</g>
<g>
</g>
<g>
</g>
<g>
</g>
<g>
</g>
<g>
</g>
<g>
</g>
</svg>
