<?xml version="1.0" encoding="iso-8859-1"?>
<!-- Generator: Adobe Illustrator 19.0.0, SVG Export Plug-In . SVG Version: 6.00 Build 0)  -->
<svg version="1.1" id="Capa_1" xmlns="http://www.w3.org/2000/svg" xmlns:xlink="http://www.w3.org/1999/xlink" x="0px" y="0px"
	 viewBox="0 0 512 512" style="enable-background:new 0 0 512 512;" xml:space="preserve">
<circle style="fill:#46C373;" cx="225.989" cy="285.996" r="215.989"/>
<g>
	<path style="fill:#A5DC69;" d="M125.645,285.992c0-119.287,44.926-215.989,100.344-215.989s100.344,96.701,100.344,215.989
		s-44.926,215.989-100.344,215.989S125.645,405.28,125.645,285.992z"/>
	<path style="fill:#A5DC69;" d="M235.604,384.149l-61.352,61.352c74.977,74.977,196.538,74.977,271.516,0s74.977-196.538,0-271.516
		l-5.813,5.813L282.402,337.351"/>
</g>
<path style="fill:#D7FA91;" d="M247.772,371.982l-51.32,51.32c62.717,62.717,164.401,62.717,227.118,0s62.717-164.401,0-227.118
	l-4.863,4.863l-131.79,131.79"/>
<path style="fill:#FF5A5A;" d="M260.428,359.325l-40.883,40.883c49.963,49.963,130.968,49.963,180.93,0s49.963-130.968,0-180.93
	l-3.874,3.874L291.613,328.141"/>
<path d="M84.929,436.106c-4.024-3.77-10.303-3.535-14.081,0.479c-3.778,4.015-3.559,10.363,0.447,14.151l0,0
	c1.935,1.84,4.414,2.753,6.889,2.753c2.643,0,5.28-1.041,7.246-3.106c3.807-4.001,3.65-10.33-0.351-14.137L84.929,436.106z"/>
<path d="M122.029,209.157c-4.236,24.57-6.384,50.421-6.384,76.834c0,50.039,7.609,97.33,22.003,136.764
	c1.48,4.057,5.313,6.574,9.395,6.574c1.138,0,2.297-0.196,3.428-0.609c5.188-1.894,7.858-7.635,5.964-12.822
	c-13.601-37.26-20.791-82.181-20.791-129.906c0-25.278,2.05-49.986,6.093-73.436c0.938-5.442-2.713-10.614-8.156-11.552
	C128.136,200.062,122.967,203.716,122.029,209.157z"/>
<path d="M138.61,179.124c0.952,0.283,1.913,0.418,2.857,0.418c4.309,0,8.288-2.808,9.581-7.149l0.287-0.951
	c1.616-5.281-1.354-10.871-6.636-12.487c-5.281-1.617-10.872,1.355-12.487,6.636l-0.332,1.097
	C130.305,171.979,133.317,177.547,138.61,179.124z"/>
<path d="M452.839,166.914c-3.905-3.905-10.237-3.905-14.142,0l-13.079,13.079c-18.169-34.17-44.806-63.147-77.518-84.191
	c-27.582-17.744-58.505-29.144-90.782-33.63c3.431-4.287,6.055-9.226,7.699-14.637c5.928-19.518-5.128-40.22-24.646-46.149
	c-16.671-5.064-34.351,4.38-39.414,21.049c-1.605,5.285,1.378,10.869,6.662,12.474c5.284,1.606,10.869-1.378,12.474-6.662
	c1.858-6.119,8.349-9.583,14.466-7.726c8.967,2.724,14.046,12.234,11.322,21.201c-3.805,12.527-17.092,19.624-29.62,15.818
	c-11.583-3.518-20.135-13.108-22.317-25.029c-0.994-5.433-6.203-9.028-11.636-8.036c-5.433,0.994-9.031,6.204-8.036,11.636
	c1.909,10.429,6.833,19.755,13.91,27.03c-45.988,7.702-88.359,29.417-121.992,63.05C23.507,168.877,0,225.628,0,285.992
	c0,47.931,14.814,93.72,42.841,132.42c1.956,2.701,5.01,4.135,8.107,4.135c2.033,0,4.085-0.618,5.857-1.901
	c4.473-3.24,5.473-9.492,2.233-13.964c-25.539-35.265-39.038-76.998-39.038-120.689c0-95.236,64.971-175.571,152.913-199.044
	c-8.345,9.184-16.092,20.61-23.043,34.12c-2.527,4.911-0.594,10.939,4.317,13.466c4.91,2.526,10.939,0.594,13.466-4.317
	c16.66-32.381,37.378-50.216,58.337-50.216c22.36,0,44.916,20.949,61.886,57.475c18.352,39.503,28.459,92.246,28.459,148.515
	c0,0.996,0.15,1.957,0.422,2.865L167.181,438.43c-1.875,1.875-2.929,4.419-2.929,7.071s1.054,5.196,2.929,7.071
	c16.654,16.654,35.521,29.772,55.658,39.382c-37.551-0.568-74.068-11.292-105.801-31.108c-4.684-2.924-10.852-1.5-13.778,3.185
	c-2.925,4.685-1.5,10.853,3.185,13.778c35.799,22.356,77.137,34.172,119.543,34.172c14.83,0,29.659-1.453,44.089-4.308
	c13.169,2.636,26.55,3.966,39.933,3.966c51.725,0,103.451-19.689,142.829-59.067C490.989,414.42,512,363.697,512,309.743
	S490.99,205.066,452.839,166.914z M219.803,414.091c25.812,22.345,58.008,33.523,90.208,33.523
	c35.322,0,70.645-13.445,97.536-40.336c51.404-51.404,53.67-133.614,6.813-187.743l9-9c51.796,59.103,49.527,149.368-6.831,205.725
	c-56.357,56.358-146.623,58.628-205.725,6.83L219.803,414.091z M400.176,233.719c17.972,21.244,27.771,47.881,27.771,76.024
	c0,31.502-12.267,61.119-34.543,83.394c-43.602,43.602-113.127,45.854-159.414,6.768L400.176,233.719z M279.161,87.076
	c56.446,15.239,105.111,54.188,131.603,107.772l-74.711,74.711C333.375,189.737,311.311,122.554,279.161,87.076z M438.698,438.43
	c-68.585,68.586-178.745,70.876-250.112,6.879l8.049-8.049c32.225,28.687,72.798,43.041,113.376,43.041
	c43.697,0,87.394-16.633,120.66-49.899c64.157-64.158,66.437-167.109,6.859-234.036l8.051-8.051
	c30.012,33.422,46.423,76.162,46.423,121.427C492.001,358.355,473.071,404.057,438.698,438.43z"/>
<path d="M334.107,347.982c1.953,1.953,4.512,2.929,7.071,2.929c2.559,0,5.119-0.976,7.071-2.929c3.905-3.905,3.905-10.237,0-14.142
	l-3.091-3.091c-3.905-3.905-10.236-3.905-14.142,0c-3.905,3.905-3.905,10.236,0,14.142L334.107,347.982z"/>
<path d="M296.789,379.119l3.091,3.09c1.953,1.952,4.511,2.928,7.07,2.928s5.119-0.977,7.072-2.93
	c3.905-3.905,3.904-10.236-0.001-14.141l-3.091-3.09c-3.905-3.904-10.237-3.905-14.141,0.001
	C292.883,368.883,292.884,375.214,296.789,379.119z"/>
<path d="M340.327,377.379c-3.905,3.905-3.905,10.237,0,14.142l3.091,3.091c1.953,1.953,4.512,2.929,7.071,2.929
	s5.119-0.976,7.071-2.929c3.905-3.905,3.905-10.236,0-14.142l-3.091-3.091C350.565,373.474,344.233,373.474,340.327,377.379z"/>
<path d="M373.626,342.455c-3.905,3.905-3.904,10.236,0.001,14.141l3.091,3.09c1.953,1.952,4.511,2.928,7.07,2.928
	s5.119-0.977,7.072-2.93c3.905-3.905,3.904-10.236-0.001-14.141l-3.091-3.09C383.862,338.549,377.531,338.548,373.626,342.455z"/>
<path d="M365.86,316.227c1.953,1.953,4.512,2.929,7.071,2.929s5.119-0.976,7.071-2.929c3.905-3.905,3.905-10.237,0-14.142
	l-3.091-3.091c-3.905-3.905-10.236-3.905-14.142,0c-3.905,3.905-3.905,10.237,0,14.142L365.86,316.227z"/>
<g>
</g>
<g>
</g>
<g>
</g>
<g>
</g>
<g>
</g>
<g>
</g>
<g>
</g>
<g>
</g>
<g>
</g>
<g>
</g>
<g>
</g>
<g>
</g>
<g>
</g>
<g>
</g>
<g>
</g>
</svg>
