<svg id="Capa_1" enable-background="new 0 0 511.635 511.635" height="512" viewBox="0 0 511.635 511.635" width="512" xmlns="http://www.w3.org/2000/svg"><g><g><g clip-rule="evenodd" fill-rule="evenodd"><path d="m8.862 9.561c18.711 129.375 26.328 237.201 138.712 256.256 28.699-7.963 66.144-9.008 115.546-1.587-6.949-46.265-5.217-80.453 3.451-106.066-17.801-122.13-125.057-129.22-257.709-148.603z" fill="#aae79a"/><path d="m263.119 264.229c45.417 6.822 79.196 5.277 104.649-2.981 71.667-23.253 77.321-99.734 90.884-192.551-92.202 13.472-168.283 19.142-192.082 89.466-8.667 25.613-10.4 59.801-3.451 106.066z" fill="#aae79a"/><path d="m263.017 376.281c22.664 101.543 120.379 108.349 239.741 125.79-17.96-122.917-24.545-222.341-134.99-240.823-25.453 8.258-59.232 9.803-104.649 2.981-6.924 46.63-6.548 83.173-.102 112.052z" fill="#aae79a"/><path d="m37.746 489.602c111.318-16.266 201.876-21.757 225.27-113.321-6.446-28.88-6.822-65.422.102-112.052-49.401-7.42-86.846-6.376-115.545 1.587-87.984 24.415-93.764 113.859-109.827 223.786z" fill="#aae79a"/><path d="m8.862 9.561c18.711 129.375 26.328 237.201 138.712 256.256 3.351-.93 6.824-1.764 10.418-2.503-99.974-24.391-108.472-127.345-126.157-250.457-7.564-1.074-15.223-2.164-22.973-3.296z" fill="#8edf78"/><path d="m37.746 489.602c7.766-1.135 15.427-2.217 22.976-3.279 15.62-107.809 18.196-221.525 153.314-226.896-26.272-.955-48.148 1.308-66.463 6.39-87.984 24.414-93.764 113.858-109.827 223.785z" fill="#8edf78"/><path d="m263.119 264.229c7.891 1.185 15.43 2.118 22.636 2.806-5.229-42.499-4.595-85.501 3.314-108.872 9.911-29.287 29.937-51.726 56.586-68.921-37.892 11.664-66.179 30.783-79.086 68.921-8.666 25.613-10.399 59.801-3.45 106.066z" fill="#8edf78"/><path d="m263.017 376.281c11.666 52.267 43.218 79.432 87.37 95.869-32.338-22.655-55.387-53.382-64.87-95.869-6.318-28.308-6.803-63.981-.299-109.298-7.043-.683-14.403-1.598-22.098-2.754-6.925 46.63-6.549 83.173-.103 112.052z" fill="#8edf78"/></g><g><path d="m348.424 443.386-12.448-8.368 8.369-12.449 12.448 8.368zm-24.898-16.736c-18.719-12.585-25.637-33.916-30.323-55.092l14.645-3.242c4.639 20.957 10.503 36.78 24.048 45.885zm-214.137-71.726-13.354-6.834 6.833-13.353 13.354 6.834zm13.665-26.706-13.354-6.834c11.262-22.007 32.76-28.984 47.95-32.317l3.215 14.65c-19.69 4.323-31.352 11.878-37.811 24.501zm211.556-83.054-1.572-14.918c22.407-2.36 37.758-9.554 48.31-22.638l11.676 9.416c-13.039 16.167-32.146 25.372-58.414 28.14zm67.527-40.443-12.057-8.924 8.916-12.045 12.057 8.924zm-185.323-79.277-9.708-11.434 11.434-9.709 9.708 11.434zm-19.417-22.867c-11.532-13.581-30.398-20.381-52.057-27.26l4.541-14.297c18.438 5.857 43.691 13.878 58.949 31.848z" fill="#fff"/></g></g><g><path d="m19.787 33.16c-.686-4.876-1.377-9.791-2.08-14.74 5.08.729 10.119 1.444 15.114 2.153 103.96 14.757 186.074 26.413 216.15 99.987l13.885-5.676c-15.389-37.645-43.306-63.054-87.857-79.962-39.216-14.884-88.205-21.839-140.069-29.201-8.214-1.166-16.548-2.348-24.985-3.581l-9.945-1.453 1.438 9.947c1.2 8.3 2.355 16.511 3.495 24.615 6.388 45.422 12.422 88.325 23.483 124.562l14.346-4.379c-10.717-35.112-16.671-77.449-22.975-122.272z"/><path d="m61.688 478.613c-4.979.701-10.008 1.409-15.085 2.134.69-4.833 1.366-9.623 2.035-14.365 8.092-57.338 15.079-106.856 35.133-142.295 21.561-38.101 55.899-55.76 111.342-57.259l-.406-14.994c-17.546.474-33.306 2.558-47.446 6.301-49.881-8.915-80.73-36.372-99.874-88.855l-14.092 5.141c17.913 49.109 46.472 79.139 88.885 92.924-21.922 10.682-38.803 26.981-51.464 49.356-21.454 37.913-28.626 88.737-36.931 147.586-1.122 7.951-2.263 16.034-3.46 24.232l-1.456 9.961 9.961-1.456c8.442-1.233 16.765-2.405 24.947-3.557 78.141-10.999 145.625-20.498 182.687-66.263l-11.656-9.439c-33.345 41.173-98.119 50.29-173.12 60.848z"/><path d="m510.179 500.987c-1.169-8.002-2.29-15.904-3.395-23.691-6.768-47.705-13.159-92.764-26.558-129.107-15.249-41.362-38.004-67.648-71.612-82.725l-6.139 13.686c65.199 29.248 75.904 104.713 89.457 200.254.647 4.564 1.301 9.169 1.966 13.809-4.604-.659-9.172-1.308-13.702-1.951-40.738-5.78-79.216-11.24-111.315-20.845l-4.299 14.371c33.177 9.927 72.196 15.463 113.507 21.325 7.754 1.101 15.621 2.217 23.585 3.38l9.961 1.456z"/><path d="m362.857 406.035 2.81-29.28 85.142 84.645 10.576-10.637-34.024-33.825 23.848-2.836-1.771-14.895-35.647 4.239-77.937-77.483 33.809-4.268-1.879-14.881-45.423 5.735-38.365-38.142c11.133 1.107 21.603 1.669 31.436 1.669 36.837 0 64.842-7.81 86.21-23.732 43.057-32.083 51.676-92.838 61.655-163.186.903-6.369 1.82-12.833 2.776-19.378l1.456-9.96-9.961 1.455c-6.505.95-12.929 1.861-19.259 2.76-30.582 4.341-59.469 8.44-84.725 15.146l3.85 14.498c24.396-6.478 52.854-10.517 82.982-14.792 3.104-.44 6.231-.885 9.38-1.334-.456 3.188-.905 6.354-1.352 9.499-9.509 67.027-17.721 124.915-55.766 153.265-24.589 18.323-61.821 24.398-113.515 18.474l98.045-98.045 34.739 5.514 2.352-14.814-23.983-3.807 29.196-29.196-10.606-10.607-81.897 81.897-2.404-34.402-14.963 1.045 3.313 47.41-44.404 44.404c-5.107-44.366-1.422-77.791 11.187-101.877 11.835-22.608 32.091-38.019 63.746-48.497l-4.713-14.24c-35.587 11.78-58.567 29.505-72.322 55.781-13.383 25.568-17.829 59.76-13.481 104.07l-33.807-33.902 11.801-46.687-14.543-3.676-9.601 37.984-79.782-80.006 2.833-39.142-14.961-1.082-1.894 26.163-48.784-48.919-10.621 10.591 101.389 101.674-57.146 16.419 4.143 14.416 65.1-18.705 75.227 75.438c-11.32-1.202-22.108-1.934-32.238-2.175l-.357 14.996c11.604.276 24.139 1.228 37.398 2.821l-23.155 23.197-31.635-5.18-2.424 14.803 21.018 3.442-81.14 81.289-39.348-5.357-2.023 14.863 28.068 3.821-38.915 38.986 10.617 10.598 80.142-80.29 6.212 40.963 14.83-2.248-7.872-51.909 71.401-71.533c-5.716 53.925-.902 95.617 14.612 126.974 15.667 31.666 41.856 53.245 82.42 67.908l5.1-14.105c-36.694-13.266-60.232-32.476-74.075-60.454-14.828-29.971-18.91-71.039-12.412-125.205l83.365 82.879-3.984 41.523z"/></g></g></svg>