<svg id="Capa_1" enable-background="new 0 0 501.795 501.795" height="512" viewBox="0 0 501.795 501.795" width="512" xmlns="http://www.w3.org/2000/svg"><g><g><g><path d="m371.741 10.066c-14.305-2.072-33.913-3.584-50.562 12.475-11.372 10.969-13.748 33.005-24.903 49.684-9.475 14.167-29.006 23.92-37.615 40.718-8.083 15.773-4.729 37.367-11.491 54.292-6.779 16.968-24.095 30.338-29.003 47.324-5.251 18.17 2.425 38.56-.041 55.401-1.407 9.605-14.158 17.467-14.441 25.785-.334 9.808 12.022 18.187 13.088 26.365 1.272 9.761-8.064 21.369-5.072 29.079 3.483 8.976 18.285 10.713 23.661 17.342 5.787 7.135 4.53 21.808 11.944 26.784 7.403 4.969 21.053-1.542 29.494 1.853 4.104 1.65 4.214 14.424 8.398 15.738 4.213 1.323 11.602-9.097 15.883-8.116 4.297.984 6.416 13.581 10.77 14.219s9.996-10.822 14.395-10.533c4.383.288 8.474 12.389 12.889 12.329 4.385-.059 8.153-12.265 12.558-12.669 9.06-.832 20.271 9.32 28.789 6.682 8.53-2.642 11.533-17.059 19.123-22.236 7.052-4.81 21.73-2.231 27.641-9.832 5.076-6.528-.541-20.324 3.476-29.309 3.366-7.529 17.606-12.011 20.098-21.502 2.114-8.051-7.847-19.239-6.44-28.845 2.466-16.841 15.667-34.174 15.847-53.087.168-17.679-12.586-35.452-14.215-53.65-1.625-18.153 7.781-37.879 4.56-55.308-3.43-18.563-19.345-33.507-24.359-49.797-5.903-19.177-1.861-40.968-9.609-54.737-11.346-20.157-30.564-24.332-44.863-26.449z" fill="#95c9a6"/></g></g><g><g><path d="m321.692 408.137c-3.36.308-6.35 7.48-9.526 10.892 4.278.069 9.708-10.676 13.987-10.551-1.528-.326-3.022-.473-4.461-.341z" fill="#68b181"/></g></g><g><g><path d="m444.379 303.096c2.466-16.841 15.667-34.174 15.847-53.087.168-17.679-12.586-35.452-14.215-53.65-1.625-18.153 7.781-37.879 4.56-55.308-3.43-18.562-19.345-33.508-24.359-49.797-5.903-19.177-1.861-40.968-9.609-54.737-11.345-20.159-30.563-24.334-44.861-26.451-8.244-1.194-18.248-2.194-28.432.239 14.109 2.201 32.358 6.78 43.294 26.212 7.749 13.769 3.706 35.56 9.609 54.737 5.015 16.29 20.929 31.235 24.359 49.797 3.22 17.429-6.185 37.155-4.56 55.308 1.629 18.198 14.383 35.971 14.215 53.65-.18 18.913-13.38 36.246-15.847 53.087-1.407 9.606 8.555 20.795 6.44 28.846-2.492 9.491-16.732 13.973-20.098 21.502-4.017 8.984 1.6 22.781-3.476 29.309-5.911 7.601-20.589 5.022-27.641 9.832-5.007 3.415-8.019 10.85-11.936 16.274 7.695 2.165 16.092 8.043 22.813 5.962 8.53-2.642 11.533-17.059 19.123-22.236 7.052-4.81 21.73-2.231 27.641-9.832 5.076-6.528-.541-20.324 3.476-29.309 3.366-7.529 17.605-12.011 20.098-21.502 2.113-8.051-7.848-19.24-6.441-28.846z" fill="#7fbd93"/></g></g><g><g><path d="m327.221 408.736c4.019 1.774 7.827 12.126 11.913 12.071 2.086-.028 4.031-2.804 5.973-5.751-5.688-.917-12.006-4.773-17.886-6.32z" fill="#68b181"/></g></g><g><g><path d="m359.603 206.598c.377-5.707-3.695-10.745-9.353-11.573l-5.479-.802-5.479-.802c-5.659-.829-11.004 2.83-12.279 8.405l-60.67 265.23c-2.258 9.872 4.382 19.572 14.402 21.04l20.547 3.009 20.547 3.009c10.02 1.467 19.163-5.921 19.83-16.026z" fill="#abd4b9"/></g></g><g><g><path d="m350.249 195.025-5.479-.803-5.479-.802c-4.908-.719-9.576 1.942-11.561 6.297 1.331 1.958 2.04 4.353 1.873 6.881l-17.934 271.489c-.376 5.69-3.44 10.519-7.834 13.39l18.004 2.637c10.02 1.467 19.163-5.921 19.83-16.026l17.934-271.489c.377-5.707-3.695-10.745-9.354-11.574z" fill="#95c9a6"/></g></g><g><g><path d="m130.053 10.066c14.305-2.072 33.913-3.584 50.562 12.475 11.372 10.969 13.749 33.005 24.903 49.684 9.475 14.167 29.006 23.92 37.615 40.718 8.083 15.773 4.729 37.367 11.491 54.292 6.779 16.968 24.095 30.338 29.004 47.324 5.251 18.17-2.425 38.56.042 55.401 1.407 9.605 14.158 17.467 14.441 25.785.334 9.808-12.022 18.187-13.088 26.365-1.272 9.761 8.064 21.369 5.072 29.079-3.483 8.976-18.285 10.713-23.661 17.342-5.787 7.135-4.53 21.808-11.944 26.784-7.403 4.969-21.053-1.542-29.494 1.853-4.104 1.65-4.214 14.424-8.398 15.738-4.213 1.323-11.602-9.097-15.883-8.116-4.297.984-6.416 13.581-10.77 14.219s-9.996-10.822-14.395-10.533c-4.383.288-8.473 12.389-12.889 12.329-4.385-.059-8.153-12.265-12.558-12.669-9.06-.832-20.271 9.32-28.789 6.682-8.53-2.642-11.533-17.059-19.123-22.236-7.052-4.81-21.73-2.231-27.641-9.832-5.076-6.528.541-20.324-3.476-29.309-3.366-7.529-17.606-12.011-20.098-21.502-2.114-8.051 7.847-19.239 6.44-28.845-2.466-16.841-15.667-34.174-15.847-53.087-.168-17.679 12.586-35.452 14.215-53.65 1.625-18.153-7.781-37.879-4.56-55.308 3.43-18.563 19.345-33.507 24.359-49.797 5.903-19.177 1.861-40.968 9.609-54.737 11.345-20.157 30.562-24.332 44.861-26.449z" fill="#95c9a6"/></g></g><g><g><path d="m142.192 206.598c-.377-5.707 3.695-10.745 9.353-11.573l5.479-.802 5.479-.802c5.659-.829 11.004 2.83 12.279 8.405l60.67 265.23c2.258 9.872-4.382 19.572-14.402 21.04l-20.547 3.009-20.547 3.009c-10.02 1.467-19.163-5.921-19.83-16.026z" fill="#abd4b9"/></g></g><g><g><path d="m250.897 7.5c-14.455.023-34.074 1.368-48.22 19.67-9.663 12.501-8.821 34.649-17.441 52.768-7.322 15.39-25.234 27.87-31.317 45.739-5.712 16.778.736 37.658-3.502 55.384-4.249 17.771-19.445 33.509-21.84 51.027-2.562 18.739 7.987 37.802 7.987 54.823 0 9.708-11.478 19.334-10.553 27.605 1.091 9.753 14.531 16.253 16.771 24.19 2.673 9.473-4.883 22.312-.805 29.507 4.747 8.377 19.644 7.95 25.924 13.731 6.76 6.221 7.642 20.921 15.699 24.771 8.045 3.844 20.608-4.576 29.451-2.441 4.3 1.038 6.26 13.661 10.59 14.355 4.36.699 10.161-10.682 14.54-10.332 4.394.351 8.316 12.508 12.717 12.508 4.4 0 8.322-12.157 12.717-12.508 4.379-.35 10.179 11.031 14.54 10.332 4.33-.694 6.29-13.317 10.589-14.355 8.844-2.136 21.408 6.284 29.453 2.44 8.057-3.85 8.94-18.55 15.699-24.772 6.28-5.781 21.178-5.356 25.924-13.733 4.077-7.195-3.48-20.031-.807-29.503 2.24-7.937 15.679-14.436 16.77-24.187.925-8.272-10.552-17.899-10.552-27.608 0-17.021 10.549-36.083 7.987-54.823-2.395-17.517-17.591-33.254-21.839-51.024-4.238-17.726 2.21-38.607-3.502-55.385-6.083-17.87-23.996-30.351-31.318-45.742-8.62-18.119-7.778-40.266-17.44-52.767-14.147-18.301-33.767-19.647-48.222-19.67z" fill="#7fbd93"/></g></g><g><g><path d="m183.051 404.275c-.951-.23-1.947-.331-2.974-.345 1.013 1.174 2.164 2.137 3.523 2.786.86.411 1.773.674 2.726.833-.97-1.685-2.023-2.971-3.275-3.274z" fill="#518f60"/></g></g><g><g><path d="m233.614 408.299c-3.214.257-6.175 6.825-9.256 10.337 3.517-.416 7.816-7.395 11.539-9.647-.791-.479-1.557-.748-2.283-.69z" fill="#518f60"/></g></g><g><g><path d="m375.783 314.519c.925-8.272-10.552-17.899-10.552-27.608 0-17.021 10.549-36.083 7.987-54.823-2.395-17.517-17.591-33.254-21.839-51.024-4.238-17.726 2.21-38.606-3.502-55.385-6.083-17.87-23.996-30.351-31.318-45.742-8.62-18.119-7.778-40.266-17.44-52.767-14.147-18.301-33.767-19.647-48.222-19.67-4.592.007-9.706.151-15 .926 11.369 1.666 23.569 6.257 33.221 18.745 9.662 12.501 8.82 34.648 17.44 52.767 7.322 15.391 25.235 27.872 31.318 45.742 5.712 16.778-.736 37.659 3.502 55.385 4.249 17.77 19.444 33.507 21.839 51.024 2.563 18.74-7.987 37.802-7.987 54.823 0 9.709 11.477 19.336 10.552 27.608-1.091 9.752-14.53 16.251-16.77 24.187-2.673 9.472 4.884 22.309.807 29.503-4.747 8.377-19.644 7.952-25.924 13.733-5.62 5.173-7.181 16.201-12.177 21.987 8.522-.115 19.298 6.216 26.478 2.785 8.057-3.85 8.94-18.55 15.699-24.772 6.28-5.781 21.178-5.356 25.924-13.733 4.077-7.194-3.48-20.031-.807-29.503 2.24-7.937 15.68-14.436 16.771-24.188z" fill="#68b181"/></g></g><g><g><path d="m258.743 404.275c-4.3 1.038-6.259 13.661-10.589 14.355-.235.038-.474.034-.717.005 1.132 1.29 2.279 2.171 3.461 2.171 4.4 0 8.322-12.156 12.716-12.508 4.379-.35 10.179 11.031 14.54 10.332 3.07-.492 4.949-6.978 7.315-11.082-7.965 1.325-18.827-5.18-26.726-3.273z" fill="#518f60"/></g></g><g><g><path d="m267.366 203.717c-.454-5.701-5.213-10.096-10.932-10.096h-5.537-5.537c-5.719 0-10.478 4.395-10.932 10.096l-21.596 271.223c-.804 10.095 7.172 18.731 17.299 18.731h20.766 20.766c10.127 0 18.103-8.636 17.299-18.731z" fill="#abd4b9"/></g></g><g><g><path d="m288.962 474.939-21.596-271.222c-.454-5.701-5.213-10.096-10.932-10.096h-5.537-5.538c-4.016 0-7.552 2.172-9.462 5.437.81 1.384 1.334 2.961 1.469 4.659l21.596 271.222c.804 10.095-7.172 18.731-17.299 18.731h9.234 20.766c10.127 0 18.103-8.635 17.299-18.731z" fill="#95c9a6"/></g></g><path d="m458.652 283.649c4.403-10.527 8.957-21.413 9.073-33.569.103-10.835-3.81-21.155-7.592-31.134-3.078-8.118-5.984-15.785-6.653-23.256-.668-7.467.845-15.538 2.445-24.083 1.96-10.46 3.987-21.277 2.02-31.918-2.17-11.746-8.351-21.597-14.328-31.125l-1.001-1.598c-2.196-3.512-6.825-4.578-10.336-2.381-3.512 2.197-4.577 6.824-2.381 10.336l1.012 1.614c5.229 8.334 10.635 16.951 12.284 25.878 1.459 7.897-.227 16.899-2.014 26.43-1.719 9.17-3.495 18.653-2.642 28.183.852 9.523 4.266 18.527 7.566 27.235 3.442 9.082 6.694 17.661 6.618 25.675-.087 9.22-4.064 18.728-7.911 27.923-3.268 7.812-6.647 15.889-7.856 24.148-.999 6.818 1.628 13.23 3.946 18.888 1.302 3.177 3.084 7.528 2.661 9.139-.713 2.712-4.75 5.735-8.312 8.402-4.464 3.342-9.079 6.798-11.38 11.944-2.647 5.923-2.315 12.471-2.022 18.249.167 3.305.421 8.299-.527 9.517-1.577 2.029-6.585 2.835-11.003 3.546-5.188.835-10.555 1.699-14.944 4.693-4.751 3.241-7.82 8.387-10.527 12.926-2.054 3.443-4.609 7.729-6.588 8.341-2.036.629-7.131-1.43-10.855-2.934-4.259-1.719-8.629-3.48-13.111-3.987l1.305-19.763c4.217-1.899 8.215-4.598 10.745-9.065 3.509-6.192 2.071-13.427.804-19.81-.837-4.215-1.703-8.574-.919-11.354.475-1.681 3.388-4.61 5.728-6.963 4.626-4.651 10.384-10.44 11.276-18.427.744-6.643-2.815-12.657-5.954-17.964-2.237-3.781-4.551-7.692-4.551-10.478 0-6.456 1.849-13.671 3.805-21.309 2.832-11.054 5.761-22.485 4.113-34.53-1.468-10.736-6.834-20.38-12.023-29.706-4.222-7.586-8.208-14.751-9.952-22.045-1.743-7.292-1.417-15.496-1.07-24.183.423-10.634.861-21.631-2.627-31.875-3.849-11.307-11.391-20.158-18.685-28.718-5.214-6.119-10.139-11.898-12.96-17.828-3.513-7.385-5.366-15.868-7.16-24.072-.295-1.352-.589-2.695-.888-4.025.185-.326.356-.664.493-1.025 2.994-7.852 6.059-15.263 10.611-19.655 14.027-13.53 30.213-12.488 44.256-10.455 14.063 2.083 29.866 5.727 39.424 22.71 3.43 6.094 4.072 15.297 4.753 25.041.457 6.534.929 13.291 2.235 20.132.687 3.593 3.831 6.094 7.359 6.094.466 0 .939-.044 1.415-.135 4.068-.777 6.736-4.705 5.96-8.774-1.14-5.963-1.58-12.267-2.006-18.363-.802-11.477-1.559-22.316-6.645-31.353-13.96-24.805-38.502-28.44-50.32-30.19-11.801-1.71-36.354-5.265-56.844 14.5-3.104 2.995-5.579 6.528-7.706 10.384-.945-1.726-2.006-3.379-3.215-4.942-17.41-22.527-42.219-22.566-54.165-22.585-11.923.019-36.733.058-54.143 22.584-1.206 1.561-2.266 3.21-3.21 4.933-2.128-3.858-4.602-7.376-7.711-10.374-20.489-19.765-45.043-16.209-56.867-14.496-11.795 1.746-36.336 5.381-50.299 30.191-5.086 9.037-5.843 19.876-6.645 31.353-.586 8.377-1.19 17.04-3.597 24.856-1.932 6.276-5.968 12.709-10.24 19.519-5.977 9.526-12.156 19.377-14.326 31.122-1.966 10.642.06 21.458 2.021 31.918 1.601 8.545 3.113 16.616 2.445 24.083-.668 7.47-3.575 15.137-6.652 23.255-3.783 9.98-7.695 20.299-7.592 31.135.116 12.157 4.669 23.042 9.073 33.569 3.042 7.274 5.917 14.145 6.852 20.533.404 2.756-1.319 6.961-2.984 11.027-2.337 5.705-4.986 12.172-3.289 18.637 2.041 7.773 8.577 12.667 13.829 16.599 2.657 1.99 5.963 4.465 6.676 6.059 1.178 2.636.954 7.075.736 11.367-.33 6.499-.703 13.867 3.667 19.485 5.203 6.691 13.662 8.053 20.459 9.147 3.399.547 7.251 1.168 8.876 2.276 2.017 1.376 4.092 4.854 6.098 8.219 3.542 5.939 7.557 12.671 15.032 14.985 1.756.544 3.523.775 5.287.775 5.397 0 10.754-2.163 15.622-4.127 2.899-1.17 6.084-2.452 8.488-2.884l4.151 62.835c.456 6.898 3.801 13.347 9.178 17.692 4.44 3.588 9.992 5.521 15.644 5.521 1.191 0 2.388-.086 3.579-.26l32.82-4.807c.539-.079 1.055-.216 1.545-.4 4.237 3.111 9.401 4.842 14.722 4.842h41.532c5.24 0 10.328-1.676 14.528-4.697l34.56 5.062c1.191.174 2.387.26 3.579.26 5.651 0 11.204-1.933 15.645-5.521 5.377-4.345 8.722-10.793 9.178-17.692l4.151-62.832c2.397.435 5.593 1.713 8.488 2.882 4.868 1.965 10.225 4.127 15.622 4.127 1.763 0 3.53-.231 5.286-.775 7.475-2.315 11.49-9.047 15.033-14.986 2.006-3.364 4.081-6.843 6.097-8.218 1.626-1.108 5.478-1.729 8.877-2.276 6.797-1.094 15.256-2.456 20.46-9.147 4.369-5.619 3.995-12.986 3.666-19.485-.218-4.293-.442-8.73.735-11.366.713-1.594 4.02-4.07 6.677-6.06 5.252-3.932 11.787-8.826 13.829-16.599 1.698-6.465-.951-12.932-3.289-18.637-1.666-4.066-3.389-8.271-2.984-11.027.934-6.389 3.808-13.259 6.851-20.533zm-324.264 121.073c-3.725 1.503-8.823 3.561-10.855 2.934-1.978-.613-4.534-4.898-6.587-8.341-2.708-4.54-5.777-9.686-10.529-12.927-4.389-2.994-9.754-3.858-14.943-4.693-4.418-.711-9.425-1.518-11.003-3.546-.948-1.219-.694-6.213-.527-9.518.293-5.777.624-12.326-2.023-18.249-2.301-5.146-6.916-8.602-11.379-11.943-3.562-2.667-7.599-5.69-8.311-8.402-.423-1.612 1.359-5.963 2.661-9.14 2.317-5.657 4.944-12.069 3.946-18.887-1.209-8.259-4.588-16.336-7.856-24.148-3.847-9.195-7.824-18.704-7.912-27.923-.076-8.014 3.176-16.593 6.619-25.675 3.301-8.708 6.714-17.712 7.567-27.235.853-9.53-.924-19.013-2.642-28.183-1.786-9.531-3.473-18.534-2.014-26.431 1.649-8.927 7.055-17.543 12.283-25.876 4.6-7.333 9.357-14.915 11.87-23.078 2.914-9.464 3.61-19.431 4.224-28.224.681-9.744 1.324-18.947 4.754-25.041 9.558-16.983 25.361-20.627 39.4-22.707 14.069-2.038 30.254-3.078 44.28 10.451 4.706 4.539 7.858 12.382 11.065 20.854-.285 1.274-.567 2.557-.849 3.85-1.793 8.205-3.647 16.688-7.161 24.073-2.821 5.93-7.746 11.71-12.96 17.829-7.293 8.56-14.835 17.41-18.684 28.716-3.488 10.244-3.05 21.24-2.626 31.875.346 8.686.673 16.892-1.07 24.183-1.744 7.294-5.731 14.46-9.952 22.046-5.19 9.327-10.556 18.972-12.024 29.708-1.647 12.045 1.281 23.475 4.113 34.53 1.957 7.638 3.805 14.853 3.805 21.309 0 2.785-2.313 6.695-4.551 10.477-3.14 5.306-6.698 11.32-5.955 17.962.894 7.987 6.651 13.777 11.277 18.43 2.341 2.354 5.254 5.284 5.729 6.964.785 2.78-.081 7.139-.918 11.355-1.267 6.384-2.704 13.62.807 19.814 2.53 4.465 6.526 7.164 10.742 9.062l1.306 19.769c-4.488.503-8.858 2.256-13.117 3.976zm44.481 81.971c-2.753.403-5.458-.337-7.621-2.086-2.163-1.748-3.455-4.239-3.638-7.014l-6.008-90.955c.487.268.914.543 1.221.826 1.796 1.653 3.345 5.396 4.842 9.015 2.644 6.389 5.641 13.631 12.702 17.005 6.788 3.243 14.177 1.314 20.698-.388 3.269-.854 6.919-1.807 9.299-1.66l-5.009 62.909c-.225 2.832.051 5.656.77 8.357zm51.262-.523c-2.781 0-5.352-1.125-7.239-3.168s-2.804-4.695-2.584-7.467l12.341-154.985c.329-4.129-2.752-7.743-6.881-8.072-4.133-.33-7.742 2.753-8.071 6.881l-6.142 77.129c-4.896-.354-9.831.932-14.279 2.094-3.832 1-8.604 2.246-10.441 1.367-1.869-.893-3.776-5.502-5.309-9.206-2.021-4.884-4.313-10.42-8.544-14.316-3.909-3.598-9.093-5.229-14.106-6.808-4.268-1.344-9.105-2.867-10.372-5.102-.762-1.344.212-6.251.856-9.498 1.126-5.674 2.403-12.105.642-18.349-1.531-5.425-5.597-9.514-9.529-13.468-3.138-3.155-6.695-6.732-7.006-9.52-.185-1.655 2.209-5.702 3.957-8.656 3.113-5.261 6.642-11.225 6.642-18.115 0-8.348-2.173-16.829-4.274-25.031-2.474-9.656-5.031-19.64-3.782-28.775 1.086-7.941 5.547-15.959 10.27-24.447 4.528-8.138 9.21-16.553 11.434-25.852 2.225-9.306 1.841-18.946 1.47-28.268-.386-9.689-.751-18.841 1.837-26.443 2.926-8.592 9.522-16.334 15.902-23.821 5.614-6.588 11.419-13.401 15.088-21.113 4.254-8.942 6.388-18.703 8.27-27.314 2.086-9.543 4.056-18.557 8.332-24.089 11.915-15.42 28.08-16.735 42.273-16.758 14.216.023 30.38 1.338 42.298 16.757 4.277 5.533 6.247 14.547 8.333 24.09 1.882 8.611 4.015 18.371 8.269 27.313 3.669 7.712 9.474 14.525 15.088 21.113 6.38 7.487 12.977 15.23 15.903 23.823 2.588 7.603 2.224 16.755 1.838 26.445-.371 9.322-.755 18.961 1.47 28.268 2.223 9.299 6.905 17.713 11.434 25.851 4.723 8.487 9.184 16.504 10.27 24.444 1.249 9.135-1.309 19.12-3.782 28.776-2.101 8.202-4.274 16.684-4.274 25.031 0 6.891 3.528 12.854 6.641 18.116 1.749 2.955 4.143 7.001 3.958 8.658-.313 2.786-3.868 6.362-7.006 9.517-3.932 3.954-7.998 8.042-9.528 13.467-1.763 6.244-.485 12.675.642 18.35.646 3.246 1.619 8.15.858 9.493-1.267 2.236-6.104 3.759-10.373 5.103-5.013 1.579-10.197 3.211-14.105 6.81-4.232 3.895-6.522 9.431-8.544 14.315-1.533 3.705-3.441 8.314-5.311 9.208-1.782.852-6.028-.309-9.771-1.335-4.595-1.259-9.727-2.665-14.944-2.034l-15.404-193.457c-.76-9.533-8.846-17.001-18.408-17.001h-11.078c-9.563 0-17.649 7.468-18.409 17.001l-6.756 84.85c-.329 4.129 2.753 7.743 6.881 8.072 4.136.325 7.743-2.753 8.072-6.881l6.755-84.849c.143-1.79 1.661-3.192 3.456-3.192h11.075c1.795 0 3.313 1.402 3.455 3.191l21.596 271.222c.221 2.772-.696 5.424-2.584 7.467-1.887 2.043-4.457 3.168-7.238 3.168zm104.055-8.577c-.184 2.775-1.477 5.267-3.64 7.015-2.162 1.748-4.87 2.488-7.621 2.086l-27.256-3.992c.72-2.7.996-5.525.77-8.357l-4.998-62.766c.021-.005.042-.007.063-.012 2.232-.539 6.041.505 9.723 1.514 3.799 1.04 7.902 2.165 12.066 2.165 2.71 0 5.445-.477 8.137-1.763 7.062-3.374 10.059-10.616 12.702-17.006 1.498-3.619 3.047-7.362 4.843-9.015.307-.283.734-.556 1.219-.825z"/></g></svg>