<?xml version="1.0" encoding="iso-8859-1"?>
<!-- Generator: Adobe Illustrator 19.0.0, SVG Export Plug-In . SVG Version: 6.00 Build 0)  -->
<svg version="1.1" id="Capa_1" xmlns="http://www.w3.org/2000/svg" xmlns:xlink="http://www.w3.org/1999/xlink" x="0px" y="0px"
	 viewBox="0 0 496 496" style="enable-background:new 0 0 496 496;" xml:space="preserve">
<path style="fill:#B6C1CE;" d="M204.88,432v56h112v-56H204.88z"/>
<path style="fill:#92E0C0;" d="M268.88,136v39.408c0,16.288-2.624,32.472-7.776,47.928L252.88,248l-24,40l120,48l-35.712-112
	c-8.096-18.856-12.288-39.192-12.288-59.776V120l-32-32V136z"/>
<path style="fill:#48C397;" d="M313.168,224c-3.944-9.184-6.928-18.736-8.984-28.48c-7.112,14.704-16.904,27.984-29.096,38.92
	l-15.064-7.888L252.88,248l-24,40l120,48L313.168,224z"/>
<path style="fill:#92E0C0;" d="M228.88,138.336V136l-32-24v26.336c0,23.72-3.712,47.224-10.936,69.664l-21.064,64l120,56l-32-88
	C237.096,208.432,228.88,173.624,228.88,138.336z"/>
<path style="fill:#48C397;" d="M252.88,240c-3.624-7.24-6.792-14.672-9.616-22.224l-20.176-10.568
	c-12.8-6.704-23.032-17.04-29.776-29.472c-1.8,10.24-4.184,20.36-7.368,30.264l-21.064,64l120,56L252.88,240z"/>
<path style="fill:#ECECEC;" d="M384.024,294.992c-7.392-25.872-11.144-52.64-11.144-79.544V112h-32v28.856
	c0,17.952-3.232,35.752-9.528,52.56c-9.472,25.256-25.584,47.48-46.648,64.328l-3.536,2.832l-0.592,3.84l-68.616-35.944
	c-24.808-12.992-42.704-36.168-49-63.456L148.88,104h-40l16.728,83.624c4.84,24.192,7.272,48.8,7.272,73.472V328
	c0,67.368,52.08,122.464,118.16,127.504v0.016c0.032,0,0.056-0.008,0.088-0.016c3.224,0.248,6.456,0.496,9.752,0.496h1.688
	c69.76,0,126.312-56.552,126.312-126.312l0,0C388.88,317.952,387.248,306.272,384.024,294.992z"/>
<g>
	<path style="fill:#B6C1CE;" d="M251.04,455.504v0.016c0.032,0,0.056-0.008,0.088-0.016c-0.432-0.032-0.84-0.12-1.264-0.16
		C250.264,455.384,250.624,455.472,251.04,455.504z"/>
	<path style="fill:#B6C1CE;" d="M298.592,246.76l-1.12-0.584c-4.032,4.072-8.264,7.968-12.768,11.576l-3.536,2.832l-0.592,3.84l0,0
		l6.88,3.6c32.84,17.192,53.424,51.208,53.424,88.288c0,51.704-39.36,94.208-89.76,99.192c3.232,0.248,6.464,0.496,9.76,0.496h1.688
		c30.256,0,58-10.664,79.752-28.4c14.208-20.192,22.56-44.76,22.56-71.288C364.88,310.16,339.48,268.168,298.592,246.76z"/>
</g>
<path style="fill:#FFFFFF;" d="M260.88,456c-3.296,0-6.528-0.248-9.76-0.496c-0.032,0-0.056,0.008-0.088,0.016L260.88,456z"/>
<path d="M396.88,329.688c0-12.48-1.736-24.888-5.168-36.888c-7.184-25.168-10.832-51.184-10.832-77.352V104h-48v36.856
	c0,17.056-3.032,33.792-9.024,49.752c-2.272,6.064-4.96,11.944-8.024,17.608c-4.584-14.192-6.952-28.936-6.952-43.992V146.36
	l19.968-11.408l-7.936-13.888l-12.032,6.864V108l28.8-21.6l-9.6-12.8L308.88,88V67.744l14.304-11.92l31.752,7.936l3.88-15.52
	l-20.408-5.104L354,30.144l-10.24-12.288l-18.88,15.728V0h-16v46.92l-16,13.336v40.432l-16-16V59.312l21.656-21.656l-11.312-11.312
	L276.88,36.688V0h-16v12.688L250.536,2.344l-11.312,11.312l21.656,21.656v39.744l-16-8V40h-16v19.056l-20.424-10.208l-7.16,14.312
	l59.584,29.784v23.744l-18.344-18.344l-11.312,11.312l29.656,29.656v36.096c0,15.464-2.48,30.736-7.368,45.392l-0.2,0.6
	c-10.736-26.296-16.432-54.68-16.432-83.064V132l-48-36v42.336c0,17.744-2.2,35.336-6.44,52.496
	c-5.368-8.392-9.392-17.68-11.68-27.624L155.24,96H99.12l18.64,93.192c4.72,23.632,7.12,47.824,7.12,71.904V328
	c0,51.912,29.264,97.088,72.136,120h-0.136v48h128v-47.432C367.624,426.064,396.88,381.256,396.88,329.688z M305.056,225.112
	c-7.256,9.808-15.744,18.704-25.352,26.384l-2.592,2.072l-15.032-7.872l6.608-19.832c5.44-16.296,8.192-33.272,8.192-50.456V164.64
	l16-9.144v8.72C292.88,185.256,297.04,205.712,305.056,225.112z M292.88,123.312v13.76l-16,9.144v-38.904L292.88,123.312z
	 M204.88,128l16.008,12c0.232,32.656,7.472,65.264,20.88,95.048l-26.096-13.672c-7.784-4.08-14.752-9.312-20.88-15.344
	c6.608-21.976,10.088-44.712,10.088-67.696V128z M140.88,328v-66.904c0-25.136-2.496-50.376-7.432-75.04L118.64,112h23.88
	l12.648,54.816c6.832,29.592,26.176,54.648,53.08,68.736l75.496,39.544c30.304,15.88,49.136,47,49.136,81.216
	c0,45.448-32.688,83.296-76.896,90.416c31.232-15.056,52.896-46.936,52.896-83.872c0-13.712-2.936-26.968-8.584-39.04
	c-1.84-4.496-4.304-9.008-7.32-13.4l-13.192,9.048c2.368,3.464,4.296,6.96,5.856,10.768c4.8,10.288,7.232,21.264,7.232,32.624
	c0,34.072-22.224,63-52.92,73.192c6.28-12.752,9.704-26.856,9.704-41.2c0-34.312-18.768-65.736-48.984-82.008l-7.584,14.096
	c25.024,13.48,40.568,39.504,40.568,67.912c0,16.384-5.048,31.832-14.536,44.976c-0.52,0.024-1.04,0.064-1.568,0.08
	C172.736,422.496,140.88,378.896,140.88,328z M308.88,480h-96v-24.912c14.952,5.664,31.088,8.912,48,8.912h1.688
	c16.296,0,31.848-3.064,46.312-8.4V480z M313.176,436.624c22.048-19.76,35.704-48.456,35.704-80.312
	c0-39.672-21.544-75.792-56.336-94.648c20.792-17.44,36.76-40,46.296-65.44c6.664-17.76,10.04-36.392,10.04-55.368V120h16v95.448
	c0,27.656,3.848,55.152,11.448,81.736c3.024,10.584,4.552,21.512,4.552,32.504C380.88,376.832,353.168,417.616,313.176,436.624z"/>
<path d="M269.136,307.168l11.072-11.544c-6.072-5.824-12.904-10.8-20.312-14.784l-59.224-31.888l-7.584,14.088l59.224,31.888
	C258.448,298.232,264.104,302.352,269.136,307.168z"/>
<g>
</g>
<g>
</g>
<g>
</g>
<g>
</g>
<g>
</g>
<g>
</g>
<g>
</g>
<g>
</g>
<g>
</g>
<g>
</g>
<g>
</g>
<g>
</g>
<g>
</g>
<g>
</g>
<g>
</g>
</svg>
