<svg id="Layer_1" height="512" viewBox="0 0 64 64" width="512" xmlns="http://www.w3.org/2000/svg" data-name="Layer 1"><path d="m3 62a1 1 0 0 0 .555-.168l1.371-.914a5.445 5.445 0 0 1 3.032-.918 4.363 4.363 0 0 0 3.875-2.346l1.174-2.244a81.018 81.018 0 0 1 19.976-25.685c10.091-8.637 21.584-17.161 22.542-17.869l.909-.455a1.97 1.97 0 0 0 1.049-2.222 6.045 6.045 0 0 0 2.487-6.422 1 1 0 1 0 -1.94.486 4.132 4.132 0 0 1 -1.54 4.2 2 2 0 0 0 -3.059-.284l-.8.8a7.03 7.03 0 0 0 -3.835.557c-3.975 1.9-7.663 4.825-11.229 7.658-.754.6-1.5 1.19-2.231 1.76-4.431 3.442-8.312 6.694-11.865 9.943-5.871 5.368-13.182 12.05-17.564 19.858a18.2 18.2 0 0 0 -2.576 9.214 5.446 5.446 0 0 1 -.916 3.127l-.247.369a1 1 0 0 0 .832 1.555zm52.282-52.774.256.383-.343.171-.781-.78.431-.43zm-49.951 47.689a16.239 16.239 0 0 1 2.32-8.2c4.225-7.528 11.4-14.089 17.166-19.361 3.513-3.212 7.353-6.431 11.742-9.84.738-.574 1.488-1.169 2.248-1.773 3.479-2.763 7.076-5.621 10.846-7.42a4.267 4.267 0 0 1 1.937-.411c.294 0 .609.019.955.05l.929.929c-3.037 2.268-12.949 9.749-21.792 17.318a82.982 82.982 0 0 0 -20.456 26.293l-1.164 2.226a2.37 2.37 0 0 1 -2.104 1.274 7.438 7.438 0 0 0 -2.775.534 7.473 7.473 0 0 0 .148-1.619z"/><path d="m61.3 10.026a4.033 4.033 0 0 0 -2.936 2.752 2.009 2.009 0 0 0 -1.774.713l-.737.9a1.985 1.985 0 0 0 -1.094.5c-2.625 2.425-5 4.613-7.462 6.822l-2.097 1.877q-1.363 1.218-2.726 2.441c-3.066 2.756-6.337 5.743-9.489 8.907q-1.383 1.387-2.776 2.767c-3.017 3-6.136 6.1-9.041 9.32-3.28 3.639-6.554 7.647-7.89 12.975h-1.85a1 1 0 0 0 0 2h2.619a.956.956 0 0 0 .109-.022c.275.02.6.022.973.022a8.679 8.679 0 0 0 6.424-2.848l38.313-41.373a1 1 0 0 0 .258-.807c-.005-.036-.028-.064-.036-.1l.327-.391a1.989 1.989 0 0 0 -.215-2.781 2.037 2.037 0 0 1 1.553-1.729 1 1 0 1 0 -.453-1.948zm-2.654 5.032.236.141-.3.361-.724-.461.281-.344zm-38.571 42.742a6.681 6.681 0 0 1 -4.757 2.2c1.307-4.661 4.327-8.3 7.333-11.633 2.869-3.182 5.968-6.261 8.966-9.24q1.393-1.386 2.783-2.775c3.118-3.129 6.365-6.094 9.409-8.831q1.359-1.221 2.722-2.437l2.1-1.876c2.474-2.218 4.853-4.411 7.484-6.843l1.472.937z"/></svg>