<svg height="512" viewBox="0 0 74 74" width="512" xmlns="http://www.w3.org/2000/svg"><g id="color_line" data-name="color line"><path d="m55.724 18.04a14.114 14.114 0 0 1 1.255 4.513c1 4.382-3.727 21.79-9.6 37.669-4.448 12.018-12.479 11.185-16.126 10.069a4.643 4.643 0 0 0 -3.858.5 1.317 1.317 0 0 1 -1.429-.011l-.016-.011a1.317 1.317 0 0 1 -.532-1.5l.149-.465a39.985 39.985 0 0 1 1.466-4.364l26.408-48.133z" fill="#6fc666"/><path d="m47.38 60.22c-4.45 12.02-12.48 11.19-16.13 10.07a4.644 4.644 0 0 0 -3.86.5 1.28 1.28 0 0 1 -1.42-.01l-.02-.01a1.305 1.305 0 0 1 -.53-1.5l.15-.46q.18-.66.39-1.32a4.662 4.662 0 0 1 3.55-.34c3.65 1.12 11.68 1.95 16.13-10.06 5.87-15.88 10.6-33.29 9.6-37.67a14.059 14.059 0 0 0 -.37-2.03l.85.65a14.153 14.153 0 0 1 1.26 4.51c1 4.39-3.73 21.79-9.6 37.67z" fill="#65b54e"/><ellipse cx="48.715" cy="30.137" fill="#65b54e" rx="4.452" ry="3.746" transform="matrix(.926 -.377 .377 .926 -7.765 20.58)"/><path d="m48.2 34.49a4.261 4.261 0 0 1 -4.072-2.49 3.944 3.944 0 0 1 .23-3.367 5.561 5.561 0 0 1 6.428-2.615 3.942 3.942 0 0 1 2.515 2.25c.883 2.169-.457 4.771-2.986 5.8a5.608 5.608 0 0 1 -2.115.422zm1.033-7.709a4.646 4.646 0 0 0 -1.744.349 4.375 4.375 0 0 0 -2.246 1.97 2.959 2.959 0 0 0 -.188 2.524c.674 1.658 2.865 2.339 4.883 1.518s3.111-2.838 2.437-4.5a2.962 2.962 0 0 0 -1.9-1.675 4.032 4.032 0 0 0 -1.24-.187z" fill="#323c6b"/><ellipse cx="44.854" cy="40.205" fill="#65b54e" rx="4.452" ry="3.746" transform="matrix(.926 -.377 .377 .926 -11.844 19.867)"/><path d="m44.333 44.561a5.02 5.02 0 0 1 -1.551-.241 3.942 3.942 0 0 1 -2.515-2.25c-.883-2.169.457-4.771 2.986-5.8s5.3-.1 6.187 2.067a3.944 3.944 0 0 1 -.23 3.367 5.377 5.377 0 0 1 -2.756 2.433 5.641 5.641 0 0 1 -2.121.424zm1.042-7.711a4.638 4.638 0 0 0 -1.745.348c-2.018.821-3.111 2.838-2.437 4.5a2.962 2.962 0 0 0 1.9 1.675 4.564 4.564 0 0 0 5.235-2.13 2.958 2.958 0 0 0 .188-2.523 3.259 3.259 0 0 0 -3.141-1.87z" fill="#323c6b"/><ellipse cx="41.038" cy="51.019" fill="#65b54e" rx="4.452" ry="3.746" transform="matrix(.926 -.377 .377 .926 -16.201 19.227)"/><path d="m40.517 55.375a5.02 5.02 0 0 1 -1.551-.241 3.942 3.942 0 0 1 -2.515-2.25c-.882-2.169.458-4.771 2.986-5.8s5.3-.1 6.187 2.067a3.944 3.944 0 0 1 -.23 3.367 5.377 5.377 0 0 1 -2.756 2.433 5.641 5.641 0 0 1 -2.121.424zm1.042-7.711a4.638 4.638 0 0 0 -1.745.348c-2.018.821-3.111 2.838-2.437 4.5a2.959 2.959 0 0 0 1.9 1.675 4.564 4.564 0 0 0 5.235-2.13 2.96 2.96 0 0 0 .188-2.527 3.259 3.259 0 0 0 -3.141-1.866z" fill="#323c6b"/><ellipse cx="36.325" cy="61.833" fill="#65b54e" rx="4.452" ry="3.746" transform="matrix(.926 -.377 .377 .926 -20.624 18.248)"/><g fill="#323c6b"><path d="m35.8 66.189a5.035 5.035 0 0 1 -1.551-.241 3.942 3.942 0 0 1 -2.515-2.25c-.882-2.169.458-4.771 2.986-5.8s5.3-.1 6.187 2.067a3.944 3.944 0 0 1 -.23 3.367 5.376 5.376 0 0 1 -2.756 2.433 5.65 5.65 0 0 1 -2.121.424zm1.042-7.711a4.64 4.64 0 0 0 -1.745.348c-2.018.821-3.111 2.838-2.437 4.5a2.961 2.961 0 0 0 1.902 1.674 4.566 4.566 0 0 0 5.235-2.13 2.959 2.959 0 0 0 .188-2.524 3.259 3.259 0 0 0 -3.138-1.868z"/><path d="m29.513 29.9a.5.5 0 0 1 -.432-.751l.251-.433a.5.5 0 1 1 .864.5l-.25.431a.5.5 0 0 1 -.433.253z"/><path d="m30.962 27.5a.5.5 0 0 1 -.433-.75l.3-.519c.669-1.16 1.339-2.32 2.022-3.494.89-1.654 1.843-3.245 2.825-4.714a.5.5 0 0 1 .831.556c-.964 1.443-1.9 3.006-2.784 4.647-.69 1.187-1.36 2.347-2.029 3.505l-.3.518a.5.5 0 0 1 -.432.251z"/><path d="m40.5 73.283a.5.5 0 0 1 -.2-.96c3.442-1.468 6.23-4.363 8.287-8.605a.5.5 0 0 1 .9.437c-2.165 4.465-5.123 7.523-8.793 9.089a.5.5 0 0 1 -.194.039z"/><path d="m37.332 74.295a.5.5 0 0 1 -.089-.992c.188-.035.381-.074.579-.12a.5.5 0 1 1 .227.974q-.322.075-.627.13a.47.47 0 0 1 -.09.008z"/><path d="m26.688 71.5a1.834 1.834 0 0 1 -1.747-2.382l.149-.465a40.436 40.436 0 0 1 1.478-4.4l26.432-48.187a.5.5 0 0 1 .741-.158l2.283 1.733a.5.5 0 0 1 .151.188 14.627 14.627 0 0 1 1.3 4.673c1.087 4.738-4.147 23.076-9.63 37.894-4.645 12.565-13.254 11.439-16.739 10.373a4.15 4.15 0 0 0 -3.443.448 1.817 1.817 0 0 1 -.975.283zm26.912-54.444-26.129 47.627a40.128 40.128 0 0 0 -1.421 4.253l-.156.487a.831.831 0 0 0 1.232.95 5.151 5.151 0 0 1 4.272-.56c3.992 1.223 11.313 1.579 15.509-9.763 6.283-16.984 10.493-33.4 9.583-37.384a13.853 13.853 0 0 0 -1.169-4.3z"/><path d="m55.335 6.031a.5.5 0 0 1 -.427-.76 6.585 6.585 0 0 1 6.483-2.715.5.5 0 1 1 -.113.993 5.678 5.678 0 0 0 -5.515 2.242.5.5 0 0 1 -.428.24z"/></g><path d="m48.793 14.144a9.674 9.674 0 0 0 -4.851-.531c-2.274 1.989-5.067 5.31-8.039 10.842-5.173 8.886-9.603 17.052-18.603 29.471a44.062 44.062 0 0 0 -4.221 7.013l-.237.414a1.317 1.317 0 0 0 .238 1.611 1.317 1.317 0 0 0 1.394.266l.064-.026a4.635 4.635 0 0 1 3.853.2c3.377 1.744 11.152 4.016 17.673-7.045 8.6-14.587 17.168-30.465 16.967-34.96a15.662 15.662 0 0 0 -.19-3.935" fill="#6fc666"/><path d="m24.1 65.354a13.145 13.145 0 0 1 -5.936-1.505 4.143 4.143 0 0 0 -3.438-.18 1.847 1.847 0 0 1 -1.987-.341 1.812 1.812 0 0 1 -.339-2.228l.237-.414a44.1 44.1 0 0 1 4.249-7.058 266.686 266.686 0 0 0 16.538-25.9c.676-1.171 1.353-2.343 2.042-3.528a39.163 39.163 0 0 1 8.142-10.967.5.5 0 0 1 .234-.114 10.11 10.11 0 0 1 5.127.556.5.5 0 0 1 -.363.932 9.279 9.279 0 0 0 -4.447-.526 38.549 38.549 0 0 0 -7.821 10.608c-.7 1.2-1.374 2.37-2.049 3.54a267.39 267.39 0 0 1 -16.589 25.99 43.3 43.3 0 0 0 -4.172 6.933l-.255.449a.817.817 0 0 0 1.013 1.164 5.179 5.179 0 0 1 4.333.194c3.714 1.918 10.861 3.58 17.013-6.855 11.058-18.756 17.06-31.074 16.9-34.684a15.462 15.462 0 0 0 -.183-3.868.5.5 0 0 1 .984-.179 16.161 16.161 0 0 1 .2 4.061c.218 4.813-9.143 21.792-17.035 35.178-4.078 6.908-8.672 8.742-12.398 8.742z" fill="#323c6b"/><path d="m50.234 8.021s-8.9-2.517-11.05 7.942c0 0 4.723-2.806 9.609-1.819a32.387 32.387 0 0 1 -2.5 9.023s6.042-1.667 7.149-6.86c0 0 5.381 3.551 5.518 9.777 0 0 4.042-10.593-2.628-15.652l.353-.732a3.172 3.172 0 0 0 -1.348-4.169 3.172 3.172 0 0 0 -4.164 1.055z" fill="#65b54e"/><path d="m58.959 26.583a.515.515 0 0 1 -.086-.007.5.5 0 0 1 -.415-.482c-.1-4.7-3.378-7.845-4.724-8.94-1.523 4.845-7.063 6.426-7.31 6.494a.5.5 0 0 1 -.582-.7 31.2 31.2 0 0 0 2.391-8.395c-4.47-.679-8.75 1.814-8.795 1.84a.5.5 0 0 1 -.745-.531c.717-3.487 2.243-5.961 4.536-7.355a9.684 9.684 0 0 1 6.777-1.053l.747-1.142a3.672 3.672 0 0 1 6.38 3.6l-.179.371c6.442 5.306 2.638 15.535 2.471 15.974a.5.5 0 0 1 -.466.326zm-5.518-10.776a.5.5 0 0 1 .275.083 14 14 0 0 1 5.423 7.733c.744-3.31 1.344-9.414-3.111-12.793a.5.5 0 0 1 -.148-.616l.354-.732a2.672 2.672 0 0 0 -4.643-2.623l-.938 1.435a.505.505 0 0 1 -.553.206 8.883 8.883 0 0 0 -6.359.865 9.08 9.08 0 0 0 -3.818 5.652 15.047 15.047 0 0 1 8.97-1.365.5.5 0 0 1 .4.547 34.138 34.138 0 0 1 -2.054 8.086c1.719-.734 4.965-2.559 5.717-6.084a.5.5 0 0 1 .489-.4z" fill="#323c6b"/><path d="m39.123 44.521a.65.65 0 0 1 -.565-.97l.375-.681a.65.65 0 0 1 1.132.64l-.375.681a.65.65 0 0 1 -.567.33z" fill="#fff"/><path d="m40.669 41.857a.65.65 0 0 1 -.566-.969l.294-.521c.656-1.167 1.313-2.336 1.982-3.518a26.668 26.668 0 0 1 1.877-3.225.65.65 0 0 1 1.089.71 25.694 25.694 0 0 0 -1.824 3.136c-.679 1.2-1.335 2.366-1.99 3.533l-.295.522a.649.649 0 0 1 -.567.332z" fill="#fff"/></g></svg>