<svg height="512" viewBox="0 0 74 74" width="512" xmlns="http://www.w3.org/2000/svg"><g id="color_line" data-name="color line"><path d="m3.722 51.238a8.4 8.4 0 0 0 .943 1.762 10.9 10.9 0 0 0 7.591 4.539c3.2.307 6.3-.51 9.334-1.322 3.522-.943 29.561-9.221 36.952-13.31a46.176 46.176 0 0 0 8.558-5.841 11.106 11.106 0 0 0 2.6-3.426c1.369-3.237 1.862-6.031.436-9.32a13.307 13.307 0 0 0 -7.367-7.332 11.1 11.1 0 0 0 -4.247-.566 39.659 39.659 0 0 0 -10.166 1.933c-11.367 3.695-28.681 13.038-35.532 16.722a24.34 24.34 0 0 0 -7.53 5.672 10.9 10.9 0 0 0 -2.151 8.579 8.4 8.4 0 0 0 .579 1.911z" fill="#6fc666"/><path d="m69.71 33.64a11.355 11.355 0 0 1 -2.61 3.43 46 46 0 0 1 -8.56 5.83c-7.39 4.09-33.43 12.37-36.95 13.31-3.03.82-6.13 1.63-9.33 1.33a9.972 9.972 0 0 1 -3.92-1.26c.14.02.28.04.42.05 3.2.31 6.3-.51 9.33-1.32 3.52-.95 29.56-9.22 36.95-13.31a46.552 46.552 0 0 0 8.56-5.84 11.233 11.233 0 0 0 2.61-3.43c1.36-3.23 1.86-6.03.43-9.32a13.15 13.15 0 0 0 -5.84-6.59 9.048 9.048 0 0 1 1.97.47 13.294 13.294 0 0 1 7.37 7.33c1.43 3.29.93 6.08-.43 9.32z" fill="#65b54e"/><path d="m39.417 27.792c-2.063 1.154-4.162 2.222-6.262 3.287s-4.216 2.093-6.331 3.123c-2.125 1.009-4.244 2.029-6.388 3l-3.206 1.478-3.223 1.456c1.954-1.335 4.015-2.491 6.085-3.621s4.18-2.183 6.3-3.214c2.13-1.009 4.266-2 6.441-2.916s4.351-1.816 6.584-2.593z" fill="#65b54e"/><path d="m62.1 25.46c-1.891 1.026-3.817 1.963-5.745 2.9s-3.873 1.824-5.818 2.715c-1.955.87-3.9 1.749-5.881 2.574l-2.96 1.248c-1 .386-1.982.815-2.992 1.19.908-.578 1.849-1.1 2.779-1.632l2.846-1.5c1.9-.991 3.847-1.9 5.8-2.788 1.959-.87 3.922-1.73 5.922-2.506s3.993-1.555 6.049-2.201z" fill="#65b54e"/><path d="m48.877 39.94c-1.926.959-3.884 1.828-5.843 2.691s-3.935 1.686-5.91 2.509c-1.984.8-3.964 1.611-5.968 2.365l-3 1.143c-1.014.351-2.01.744-3.032 1.084.928-.546 1.886-1.029 2.835-1.533l2.9-1.4c1.937-.923 3.911-1.759 5.89-2.582 1.988-.8 3.981-1.59 6.006-2.3s4.045-1.403 6.122-1.977z" fill="#65b54e"/><g fill="#323c6b"><path d="m32.25 56.537a.5.5 0 0 1 -.155-.975l1.249-.41a.5.5 0 0 1 .313.95l-1.251.41a.492.492 0 0 1 -.156.025z"/><path d="m18.917 60.47a.5.5 0 0 1 -.105-.989c1.176-.255 2.291-.548 3.425-.852.972-.26 3.676-1.076 7.527-2.313a.5.5 0 0 1 .307.952c-3.4 1.092-6.376 2.005-7.576 2.327-1.146.307-2.273.6-3.472.864a.491.491 0 0 1 -.106.011z"/><path d="m51.817 14.827-.235-.972c.324-.07.622-.134.918-.19a.5.5 0 1 1 .188.982c-.288.053-.58.117-.871.18z"/><path d="m65.25 15.33a.5.5 0 0 1 -.228-.055c-.493-.252-.912-.445-1.318-.608a13.329 13.329 0 0 0 -4.543-.77c-.3 0-.587.012-.842.033-1.3.109-2.384.224-3.409.36a.5.5 0 1 1 -.133-.991c1.042-.139 2.141-.255 3.457-.365.281-.024.594-.037.927-.037a14.384 14.384 0 0 1 4.914.841c.436.174.881.38 1.4.646a.5.5 0 0 1 -.228.945z"/><path d="m13.678 58.1c-.485 0-.976-.022-1.47-.069a11.341 11.341 0 0 1 -7.946-4.741 8.738 8.738 0 0 1 -1-1.863 9.026 9.026 0 0 1 -.614-2.027 11.347 11.347 0 0 1 2.26-8.973 25.051 25.051 0 0 1 7.679-5.794l.275-.147c7.205-3.875 24.079-12.949 35.345-16.609a40 40 0 0 1 10.278-1.956 11.485 11.485 0 0 1 4.475.6 13.9 13.9 0 0 1 7.646 7.612c1.629 3.757.752 6.883-.439 9.7a11.556 11.556 0 0 1 -2.738 3.612 46.791 46.791 0 0 1 -8.644 5.895c-7.471 4.135-33.707 12.46-37.066 13.36a31.119 31.119 0 0 1 -8.041 1.4zm-9.494-7.054a7.776 7.776 0 0 0 .884 1.654 10.344 10.344 0 0 0 7.232 4.339c3.144.3 6.2-.518 9.157-1.308 3.343-.895 29.443-9.168 36.843-13.264a45.953 45.953 0 0 0 8.481-5.782 10.742 10.742 0 0 0 2.465-3.24c1.276-3.018 1.839-5.691.437-8.927a12.889 12.889 0 0 0 -7.094-7.066 10.706 10.706 0 0 0 -4.02-.532 38.921 38.921 0 0 0 -10.054 1.911c-11.181 3.632-28 12.677-35.18 16.539l-.275.147a24.156 24.156 0 0 0 -7.38 5.549 10.347 10.347 0 0 0 -2.043 8.184 7.755 7.755 0 0 0 .547 1.8z"/></g><path d="m6.56 46.734a.651.651 0 0 1 -.592-.92 10.485 10.485 0 0 1 .576-1.088.65.65 0 0 1 1.111.676 8.991 8.991 0 0 0 -.5.952.651.651 0 0 1 -.595.38z" fill="#fff"/><path d="m9.456 42.958a.65.65 0 0 1 -.439-1.129 29.575 29.575 0 0 1 6.081-4.1l1.343-.729c.757-.412 1.6-.872 2.127-1.152a.65.65 0 1 1 .613 1.146c-.521.28-1.365.739-2.119 1.148l-1.35.732a28.41 28.41 0 0 0 -5.812 3.913.649.649 0 0 1 -.444.171z" fill="#fff"/></g></svg>