<svg height="512" viewBox="0 0 74 74" width="512" xmlns="http://www.w3.org/2000/svg"><g id="color_line" data-name="color line"><path d="m29.5 6.727s.364 5.221.36 6.965c-.008 3.378.091 5.441 1.8 8.521-1.25.309-1.506.756-2.783 1.76s-1.379.973-1.966 2.124c-2.251-2.076-5.286-2.663-8.519-3.394-1.693-.383-6.637-2.042-6.637-2.042a1.289 1.289 0 0 1 -.854-.857l-.157-.517a1.289 1.289 0 0 1 1.155-1.661l6.48-.4-3.879-9.313a1.289 1.289 0 0 1 .393-1.508 1.289 1.289 0 0 1 1.565-.022l8.11 6.019 1.99-6.252a1.289 1.289 0 0 1 1.884-.718l.428.253a1.289 1.289 0 0 1 .63 1.042z" fill="#6fc666"/><path d="m16.45 6.38 8.122 6.139-.63 1.98-9.272-6.989a1.173 1.173 0 0 0 -.27-.15 1.26 1.26 0 0 1 .49-.95 1.279 1.279 0 0 1 .8-.28 1.238 1.238 0 0 1 .76.25z" fill="#65b54e"/><path d="m27.09 25.1c1.15-.91 1.47-1.36 2.43-1.66-.18.16-.4.33-.65.53-1.28 1.02-1.38.98-1.97 2.13a5.382 5.382 0 0 0 -.53-.44c.19-.15.43-.33.72-.56z" fill="#65b54e"/><path d="m31.65 22.21a3.95 3.95 0 0 0 -1.85 1c-1.63-3.01-1.73-5.07-1.72-8.39 0-1.75-.36-6.97-.36-6.97a1.308 1.308 0 0 0 -.63-1.04l-.43-.25a1 1 0 0 0 -.21-.1l.1-.31a1.294 1.294 0 0 1 1.89-.72l.43.25a1.326 1.326 0 0 1 .63 1.05s.36 5.22.36 6.96c-.01 3.38.09 5.44 1.79 8.52z" fill="#65b54e"/><path d="m29.87 23.34c-.13.03-.24.07-.35.1.1-.08.19-.16.28-.23.02.04.05.09.07.13z" fill="#65b54e"/><path d="m47.274 8.644a.5.5 0 0 1 -.072-.995c.448-.066.9-.12 1.355-.145a.5.5 0 0 1 .053 1c-.426.022-.846.074-1.263.135a.471.471 0 0 1 -.073.005z" fill="#323c6b"/><path d="m61.637 14.917a.5.5 0 0 1 -.414-.219 14.031 14.031 0 0 0 -9.347-6.009.5.5 0 0 1 .167-.986 15.021 15.021 0 0 1 10.007 6.434.5.5 0 0 1 -.413.781z" fill="#323c6b"/><path d="m26.9 26.6a.5.5 0 0 1 -.339-.132c-2.025-1.868-4.8-2.492-7.743-3.151l-.547-.123c-1.7-.385-6.483-1.988-6.686-2.056a1.781 1.781 0 0 1 -1.173-1.187l-.157-.516a1.789 1.789 0 0 1 1.6-2.306l5.779-.353-3.599-8.676a1.789 1.789 0 0 1 2.717-2.124l7.548 5.6 1.777-5.576a1.79 1.79 0 0 1 2.615-1l.429.254a1.785 1.785 0 0 1 .879 1.446c.019.267.366 5.265.361 7-.008 3.272.068 5.27 1.734 8.277a.5.5 0 0 1 -.317.728 3.762 3.762 0 0 0 -1.818 1.032c-.218.184-.468.394-.775.636l-.469.365a3.338 3.338 0 0 0 -1.361 1.593.5.5 0 0 1 -.357.265.486.486 0 0 1 -.098.004zm-11.213-19.971a.789.789 0 0 0 -.729 1.092l3.876 9.317a.5.5 0 0 1 -.431.691l-6.48.4a.789.789 0 0 0 -.707 1.017l.157.517a.787.787 0 0 0 .522.525c.062.021 4.951 1.66 6.6 2.033l.546.123c2.856.641 5.566 1.249 7.718 2.976a4.213 4.213 0 0 1 1.341-1.38l.462-.359c.3-.234.538-.437.749-.615a5.14 5.14 0 0 1 1.616-1.054c-1.5-2.932-1.578-5.075-1.57-8.222 0-1.706-.355-6.876-.359-6.929v-.008a.787.787 0 0 0 -.386-.638l-.429-.253a.789.789 0 0 0 -1.152.44l-1.99 6.252a.5.5 0 0 1 -.774.25l-8.11-6.019a.789.789 0 0 0 -.47-.156z" fill="#323c6b"/><path d="m37.6 20.944c-3.637 3.448-6.891 6.032-6.891 6.032s-3.434 2.338-7.808 4.786c-2.139-3.7.534-6.663 4.356-9.476s7.443-4.486 10.343-1.342z" fill="#ea6453"/><path d="m22.9 32.262a.5.5 0 0 1 -.434-.25c-2.437-4.218.9-7.487 4.493-10.129s7.7-4.859 11.006-1.278a.5.5 0 0 1 -.023.7c-3.611 3.424-6.891 6.035-6.924 6.061-.064.045-3.532 2.4-7.875 4.831a.5.5 0 0 1 -.243.065zm11.1-12.518c-1.7 0-3.768.97-6.451 2.945-4.4 3.242-5.731 5.708-4.451 8.386 4.093-2.317 7.292-4.489 7.325-4.511 0 0 3.028-2.413 6.456-5.631a4.091 4.091 0 0 0 -2.872-1.189z" fill="#323c6b"/><path d="m58.9 16.275c6.3 9.26 10.106 24.173 3.3 35.1a13.615 13.615 0 0 0 -1.684 9.734c.594 3.177 1.181 7.729 4.076 12.141-3.319-4.058-7.51-6-10.367-7.511a13.615 13.615 0 0 0 -9.794-1.286c-12.458 3.247-25.577-4.809-32.547-13.574a11.736 11.736 0 0 1 5.216-18.193 77.327 77.327 0 0 0 12.67-6.748 77.144 77.144 0 0 0 10.208-10.088 11.73 11.73 0 0 1 18.922.425z" fill="#fe7058"/><g fill="#ea6453"><path d="m60.52 61.11c.59 3.18 1.18 7.73 4.07 12.14a22.549 22.549 0 0 0 -5.09-4.53 43.436 43.436 0 0 1 -1.82-7.61 13.606 13.606 0 0 1 1.68-9.73c6.81-10.93 3-25.84-3.3-35.1a11.291 11.291 0 0 0 -8.09-4.93 11.431 11.431 0 0 1 10.93 4.93c6.3 9.26 10.11 24.17 3.3 35.1a13.606 13.606 0 0 0 -1.68 9.73z"/><path d="m19.042 49.036a.484.484 0 0 1 -.18-.035.493.493 0 0 1 -.288-.627 2.968 2.968 0 0 1 1.963-1.521.5.5 0 0 1 .329.944c-1.107.386-1.355.927-1.357.933a.512.512 0 0 1 -.467.306z"/><path d="m30.25 55.311a.48.48 0 0 1 -.181-.035.492.492 0 0 1 -.287-.627 2.969 2.969 0 0 1 1.962-1.521.5.5 0 1 1 .33.944c-1.107.387-1.355.927-1.358.933a.513.513 0 0 1 -.466.306z"/><path d="m33.1 32.671a.5.5 0 0 1 -.468-.662 2.97 2.97 0 0 1 1.968-1.521.5.5 0 0 1 .329.944c-1.107.386-1.355.927-1.357.933a.513.513 0 0 1 -.472.306z"/><path d="m40.315 42.481a.5.5 0 0 1 -.4-.8 2.974 2.974 0 0 1 2.036-1.422.5.5 0 0 1 .061 1c-.035 0-.612.1-1.293 1.02a.5.5 0 0 1 -.404.202z"/><path d="m52.885 24.137a.5.5 0 0 1 -.4-.8 2.97 2.97 0 0 1 2.036-1.421.5.5 0 0 1 .06 1c-.035 0-.612.1-1.292 1.019a.5.5 0 0 1 -.404.202z"/><path d="m55.544 36.7a.5.5 0 0 1 -.4-.8 2.973 2.973 0 0 1 2.036-1.422.5.5 0 0 1 .061 1c-.035 0-.612.1-1.293 1.02a.5.5 0 0 1 -.404.202z"/><path d="m42.812 57.9a.48.48 0 0 1 -.181-.035.492.492 0 0 1 -.287-.627 2.969 2.969 0 0 1 1.962-1.521.5.5 0 1 1 .33.944c-1.107.387-1.355.927-1.358.933a.513.513 0 0 1 -.466.306z"/><path d="m54.282 49.467a.5.5 0 0 1 -.4-.8 2.97 2.97 0 0 1 2.036-1.421.5.5 0 0 1 .06 1c-.035 0-.612.1-1.292 1.019a.5.5 0 0 1 -.404.202z"/></g><path d="m36.571 68.921h-.037a34.457 34.457 0 0 1 -13.8-4.2.5.5 0 1 1 .473-.881 33.472 33.472 0 0 0 13.4 4.079.5.5 0 0 1 -.036 1z" fill="#323c6b"/><path d="m20.229 63.178a.494.494 0 0 1 -.268-.078c-.285-.181-.569-.363-.848-.549a.5.5 0 1 1 .555-.832c.273.182.55.36.83.538a.5.5 0 0 1 -.269.922z" fill="#323c6b"/><path d="m64.593 73.751a.5.5 0 0 1 -.388-.184c-2.944-3.6-6.664-5.536-9.379-6.948l-.835-.437a13.059 13.059 0 0 0 -9.433-1.245c-12.593 3.289-25.969-4.822-33.065-13.747a11.836 11.836 0 0 1 -2.169-10.584 12.567 12.567 0 0 1 7.6-8.387 77.39 77.39 0 0 0 12.569-6.7 77.459 77.459 0 0 0 10.094-9.984 12.624 12.624 0 0 1 10.271-4.766 11.839 11.839 0 0 1 9.457 5.221c6.412 9.436 10.185 24.61 3.31 35.651a13.059 13.059 0 0 0 -1.617 9.377l.177.973a28.067 28.067 0 0 0 3.825 10.986.5.5 0 0 1 -.417.774zm-16.971-10.2a14.606 14.606 0 0 1 6.837 1.749l.828.433a34.85 34.85 0 0 1 7.154 4.59 34.692 34.692 0 0 1 -2.241-8.156l-.175-.965a14.054 14.054 0 0 1 1.751-10.091c6.637-10.656 2.947-25.382-3.29-34.555a10.848 10.848 0 0 0 -8.666-4.783 11.432 11.432 0 0 0 -9.45 4.388 78.3 78.3 0 0 1 -10.286 10.167 78.271 78.271 0 0 1 -12.8 6.825 11.562 11.562 0 0 0 -7 7.716 10.845 10.845 0 0 0 1.986 9.7c6.9 8.68 19.868 16.575 32.03 13.4a13.046 13.046 0 0 1 3.322-.422z" fill="#323c6b"/><path d="m14.417 43.839a.635.635 0 0 1 -.1-.007.65.65 0 0 1 -.548-.738 9.793 9.793 0 0 1 6.181-7.685c.956-.371 2-.836 3.1-1.383a.65.65 0 1 1 .577 1.165c-1.138.564-2.218 1.045-3.212 1.43a8.491 8.491 0 0 0 -5.363 6.662.65.65 0 0 1 -.635.556z" fill="#fff"/><path d="m14.573 48.9a.65.65 0 0 1 -.625-.475 9.3 9.3 0 0 1 -.338-2.118.65.65 0 0 1 1.3-.055 8.008 8.008 0 0 0 .291 1.822.651.651 0 0 1 -.451.8.663.663 0 0 1 -.177.026z" fill="#fff"/></g></svg>