<svg height="512" viewBox="0 0 74 74" width="512" xmlns="http://www.w3.org/2000/svg"><g id="color_line" data-name="color line"><path d="m43.841 65.4v3.63a2.925 2.925 0 0 1 -2.925 2.925h-7.293a2.925 2.925 0 0 1 -2.923-2.925v-3.562" fill="#65b54e"/><path d="m40.916 72.455h-7.293a3.428 3.428 0 0 1 -3.423-3.425v-3.562a.5.5 0 0 1 1 0v3.562a2.428 2.428 0 0 0 2.425 2.425h7.293a2.428 2.428 0 0 0 2.425-2.425v-3.63a.5.5 0 0 1 1 0v3.63a3.428 3.428 0 0 1 -3.427 3.425z" fill="#323c6b"/><path d="m48.328 10.206c-1.847-3.838-8.328-5.874-15.304-5.514a29.6 29.6 0 0 0 -12.906 3.447s6.3 20.863 13.8 25.2 9.171 8.75 9.171 8.75l-.671 6.833 1.385.773 1.589 3.52 7.776-8.871 1.044-10.589-1.377-4.175-3.988-7.518 2.338-6.724z" fill="#77d16d"/><path d="m48.284 12.752h1.462l-1.416-2.552c-1.85-3.83-8.33-5.87-15.31-5.51a29.48 29.48 0 0 0 -12.9 3.45s.25.84.72 2.21a30.64 30.64 0 0 1 12.18-3.03c6.93-.365 13.362 1.645 15.264 5.432z" fill="#6fc666"/><path d="m42.17 54.812a2.4 2.4 0 0 1 -.59 1.23c.21-.4.41-.81.59-1.23z" fill="#65b54e"/><path d="m30.04 65.352a14.1 14.1 0 0 0 2.47-.78c-.54.35-1.09.67-1.61.95-.4-.05-.76-.11-1.08-.17l.02-.02c.06.01.13.01.2.02z" fill="#65b54e"/><path d="m69.11 46.585a.5.5 0 0 1 -.478-.648c.067-.217.129-.432.191-.646l.508.044.48.139c-.092.315-.155.536-.225.759a.5.5 0 0 1 -.476.352z" fill="#323c6b"/><path d="m62.906 58.339a.5.5 0 0 1 -.387-.817 33.228 33.228 0 0 0 5.26-9.117.5.5 0 1 1 .932.361 34.208 34.208 0 0 1 -5.418 9.391.5.5 0 0 1 -.387.182z" fill="#323c6b"/><path d="m45.391 53.712a.528.528 0 0 1 -.073-.005.5.5 0 0 1 -.383-.289l-1.521-3.37-1.241-.693a.5.5 0 0 1 -.254-.485l.659-6.705c-.3-.668-2.3-4.576-8.911-8.4-7.584-4.379-13.767-24.622-14.027-25.481a.5.5 0 0 1 .224-.575 30.145 30.145 0 0 1 13.136-3.516c7.575-.385 13.906 1.933 15.773 5.783l2.848 5.116a.5.5 0 0 1 .036.407l-2.267 6.519 3.885 7.325 1.411 4.257a.49.49 0 0 1 .023.206l-1.044 10.584a.508.508 0 0 1 -.122.281l-7.776 8.871a.5.5 0 0 1 -.376.17zm-2.444-5.071 1.1.614a.5.5 0 0 1 .212.231l1.267 2.814 7.159-8.166 1.015-10.326-1.345-4.075-3.955-7.44a.5.5 0 0 1 -.031-.4l2.265-6.512-2.742-4.931-.014-.026c-1.659-3.446-7.745-5.6-14.828-5.231a29.618 29.618 0 0 0 -12.335 3.18c.9 2.832 6.756 20.661 13.452 24.53 7.567 4.372 9.317 8.819 9.389 9.006a.507.507 0 0 1 .03.226z" fill="#323c6b"/><path d="m43.8 49.692a25.443 25.443 0 0 1 -2.977 7.743 17.414 17.414 0 0 1 -10.787 7.921c-.067-.011-.133-.011-.2-.022-18.907-2-23.25-21.784-23.406-25.183-1.03-3.389.435-15.676 5.99-21.53 4.11-5.388 2.933-8.82 2.655-12.942 1.555-.333 4.11 1.433 5.177 2.6.367.4.7.889 1.211 1.022.644.155 1.277-.3 1.933-.333a2.227 2.227 0 0 1 1.977 1.311 9.223 9.223 0 0 1 .667 2.411 2.344 2.344 0 0 0 .844 1.589 2.439 2.439 0 0 0 .833.267c2.266.433 4.9.578 6.343 2.4a4.72 4.72 0 0 1 .289 4.988c-.4.767-.966 1.444-1.355 2.222a2.756 2.756 0 0 0 -.144 2.511 3.735 3.735 0 0 0 1.411 1.211c1.166.7 2.344 1.389 3.51 2.088a12.534 12.534 0 0 1 3.353 2.534 10.086 10.086 0 0 1 1.676 3.117 25.945 25.945 0 0 1 1 14.075z" fill="#6fc666"/><path d="m43.8 49.692a25.545 25.545 0 0 1 -1.63 5.11c.96-4.67-.63-12.42-2.45-18.26a8.9 8.9 0 0 0 -1.68-3.12 12.427 12.427 0 0 0 -3.35-2.53c-1.17-.7-2.35-1.39-3.51-2.09a3.692 3.692 0 0 1 -1.41-1.21 2.728 2.728 0 0 1 .14-2.51c.39-.78.95-1.46 1.35-2.22a4.722 4.722 0 0 0 -.28-4.99c-1.45-1.82-4.08-1.97-6.35-2.4a2.453 2.453 0 0 1 -.83-.27 2.335 2.335 0 0 1 -.84-1.58 9.324 9.324 0 0 0 -.67-2.42 2.252 2.252 0 0 0 -1.98-1.31c-.65.04-1.29.49-1.93.34-.51-.14-.85-.63-1.21-1.03a9.842 9.842 0 0 0 -1.92-1.56c-.07-.64-.14-1.29-.18-1.96 1.56-.34 4.11 1.43 5.18 2.6.37.4.7.89 1.21 1.02.65.15 1.28-.3 1.94-.33a2.2 2.2 0 0 1 1.97 1.31 9.145 9.145 0 0 1 .67 2.41 2.357 2.357 0 0 0 .84 1.59 2.488 2.488 0 0 0 .84.26c2.26.44 4.9.58 6.34 2.4a4.722 4.722 0 0 1 .29 4.99c-.4.77-.97 1.44-1.36 2.22a2.759 2.759 0 0 0 -.14 2.51 3.68 3.68 0 0 0 1.41 1.21c1.17.7 2.34 1.39 3.51 2.09a12.638 12.638 0 0 1 3.35 2.53 9.954 9.954 0 0 1 1.68 3.13 25.82 25.82 0 0 1 1 14.07z" fill="#65b54e"/><path d="m39.469 65.944a50.785 50.785 0 0 1 -9.653-.589l.022-.022c.067.011.133.011.2.022a17.414 17.414 0 0 0 10.787-7.921 25.443 25.443 0 0 0 2.975-7.742 38.719 38.719 0 0 1 3.6-3.21 7.282 7.282 0 0 0 2.8-5.4 15.6 15.6 0 0 1 1.611-5.321 3.943 3.943 0 0 0 .233-1.844 2.819 2.819 0 0 0 -1.777-1.788c-.208-.075-.42-.138-.633-.2a5.712 5.712 0 0 1 -4.134-4.029 12.023 12.023 0 0 1 1.525-8.592 2.164 2.164 0 0 0 .422-.722 2.375 2.375 0 0 0 -.422-1.744 9.613 9.613 0 0 1 -1.155-2.255 2.292 2.292 0 0 1 .589-2.311c.533-.389 1.289-.489 1.655-1.022a2.811 2.811 0 0 0 .2-1.577c0-1.589.722-4.621 2.111-5.421l.267-.256c.955 4.021.855 7.654 6.365 11.586 7.032 3.924 10.858 13.277 10.762 18.554.447 3.39-1.111 30.06-28.35 31.804z" fill="#6fc666"/><path d="m51.09 63.2c13.15-8.13 14.01-24.8 13.66-27.43.1-5.27-3.73-14.63-10.76-18.55-3.94-2.81-5.01-5.47-5.65-8.23.17-1.65.88-4.03 2.09-4.73l.26-.26c.96 4.02.86 7.65 6.37 11.59 7.03 3.92 10.86 13.27 10.76 18.55.37 2.822-.64 21.792-16.73 29.06z" fill="#65b54e"/><g fill="#323c6b"><path d="m20.917 62.632a.5.5 0 0 1 -.179-.967 7.262 7.262 0 0 0 3.762-3.928 12.406 12.406 0 0 0 -.786-11.572c-.344-.541-.741-1.07-1.126-1.581-.283-.376-.566-.753-.835-1.14a15.557 15.557 0 0 1 -2.884-8.755 11.7 11.7 0 0 1 3.526-8.5.5.5 0 0 1 .686.729 10.838 10.838 0 0 0 -3.212 7.777 14.556 14.556 0 0 0 2.706 8.183c.261.376.536.742.812 1.108.4.527.806 1.071 1.171 1.646a13.43 13.43 0 0 1 .851 12.526 8.248 8.248 0 0 1 -4.309 4.442.509.509 0 0 1 -.183.032z"/><path d="m18.849 34.738a5.962 5.962 0 0 1 -3.153-.65 6.174 6.174 0 0 1 -1.922-2.246 9.8 9.8 0 0 0 -.9-1.317.5.5 0 0 1 .758-.652 10.628 10.628 0 0 1 1 1.451 5.362 5.362 0 0 0 1.591 1.913 5.06 5.06 0 0 0 2.632.5.5.5 0 0 1 0 1z"/><path d="m20.982 40.922a1.209 1.209 0 0 1 -.308-.04.5.5 0 0 1 .252-.968c.229.057.548-.305.731-.679.095-.191.181-.388.269-.585a5.1 5.1 0 0 1 1.262-1.964 3.613 3.613 0 0 1 2.666-.746 9.776 9.776 0 0 1 2.488.646.5.5 0 0 1 -.336.941 9.012 9.012 0 0 0 -2.234-.59 2.667 2.667 0 0 0 -1.937.511 4.31 4.31 0 0 0 -.994 1.605c-.092.21-.185.419-.285.623a1.9 1.9 0 0 1 -1.574 1.246z"/><path d="m30.722 48.4a4.3 4.3 0 0 1 -2-.492l-.2-.107c-.1-.056-.2-.113-.307-.159a1.469 1.469 0 0 0 -.677-.124 3.633 3.633 0 0 0 -1.319.446l-.774.373a.5.5 0 0 1 -.436-.9l.775-.374a4.453 4.453 0 0 1 1.7-.544 2.531 2.531 0 0 1 1.126.206c.135.059.266.131.395.2l.173.094a3.351 3.351 0 0 0 1.774.37.5.5 0 1 1 .072 1c-.094.011-.199.011-.302.011z"/><path d="m16.926 45.945a.5.5 0 0 1 -.344-.863l.623-.591a4.443 4.443 0 0 1 1.458-1.038 2.529 2.529 0 0 1 1.135-.148c.147.015.294.044.439.073l.192.037a3.356 3.356 0 0 0 1.8-.189.5.5 0 0 1 .373.928 4.315 4.315 0 0 1 -2.346.247l-.219-.042a3.4 3.4 0 0 0 -.337-.059 1.514 1.514 0 0 0 -.682.088 3.652 3.652 0 0 0 -1.122.828l-.623.592a.5.5 0 0 1 -.347.137z"/><path d="m25.792 55.573h-.055a4.305 4.305 0 0 1 -2.187-.884l-.174-.141c-.09-.073-.179-.147-.274-.212a1.508 1.508 0 0 0 -.644-.241 3.624 3.624 0 0 0 -1.379.2l-.828.229a.5.5 0 0 1 -.268-.964l.828-.229a4.4 4.4 0 0 1 1.775-.231 2.512 2.512 0 0 1 1.07.4c.125.084.24.178.354.272l.152.123a3.353 3.353 0 0 0 1.68.679.5.5 0 0 1 -.053 1z"/><path d="m52.306 63.166a.5.5 0 0 1 -.162-.027 4.166 4.166 0 0 1 -2.49-3.44 4.894 4.894 0 0 1 .55-3.451c.117-.181.251-.354.387-.526a2.473 2.473 0 0 0 .541-.922 2.448 2.448 0 0 0 0-.687l-.269-2.877a.5.5 0 0 1 1-.093l.268 2.873a3.3 3.3 0 0 1 -.015.988 3.261 3.261 0 0 1 -.732 1.335c-.116.148-.232.3-.332.451a3.889 3.889 0 0 0 -.405 2.742 3.307 3.307 0 0 0 1.828 2.662.5.5 0 0 1 -.162.973z"/><path d="m66.378 43.45a.5.5 0 0 1 -.19-.038 5.792 5.792 0 0 1 -2.754-2.8c-.241-.454-.454-.922-.667-1.39a15.951 15.951 0 0 0 -.942-1.861 2.425 2.425 0 0 0 -1.452-1.251 3.111 3.111 0 0 0 -1.1.074 7.043 7.043 0 0 1 -.762.108 1.833 1.833 0 0 1 -2.1-1.357.5.5 0 0 1 .992-.129c.042.328.567.524 1.036.489a6.139 6.139 0 0 0 .661-.095 3.9 3.9 0 0 1 1.464-.073 3.35 3.35 0 0 1 2.113 1.705 17.043 17.043 0 0 1 1 1.976c.2.449.408.9.64 1.333a4.839 4.839 0 0 0 2.252 2.347.5.5 0 0 1 -.19.962z"/><path d="m57.565 41.817a.5.5 0 0 1 -.465-.317 1.324 1.324 0 0 1 .354-1.394 2.534 2.534 0 0 1 1.015-.556 10.187 10.187 0 0 1 4.508-.441.5.5 0 0 1 .433.56.509.509 0 0 1 -.56.433 9.23 9.23 0 0 0 -4.064.4 1.627 1.627 0 0 0 -.63.321.355.355 0 0 0 -.123.317.5.5 0 0 1 -.466.682z"/><path d="m62.938 25.476a5.365 5.365 0 0 1 -.927-.084 4.681 4.681 0 0 1 -3.041-1.992 10.178 10.178 0 0 1 -.539-.962c-.37-.722-.72-1.4-1.338-1.614a2.879 2.879 0 0 0 -1.215-.026 1.44 1.44 0 0 0 -1.2.845.5.5 0 1 1 -.932-.362 2.429 2.429 0 0 1 2.021-1.481 3.772 3.772 0 0 1 1.649.074 3.712 3.712 0 0 1 1.9 2.1 9.116 9.116 0 0 0 .483.867 3.662 3.662 0 0 0 2.379 1.559 3.153 3.153 0 0 0 2.588-.532.5.5 0 1 1 .6.8 3.949 3.949 0 0 1 -2.428.808z"/><path d="m54.955 27.4a.5.5 0 0 1 0-1c.489 0 1.338-.839 1.548-1.251a4.109 4.109 0 0 1 2.991-2.158.506.506 0 0 1 .571.417.5.5 0 0 1 -.417.571 3.1 3.1 0 0 0 -2.253 1.621c-.261.51-1.37 1.8-2.44 1.8z"/><path d="m3.312 34.668h-.052a.5.5 0 0 1 -.446-.549c.028-.279.058-.558.094-.844a.5.5 0 0 1 .992.125c-.034.278-.063.55-.092.822a.5.5 0 0 1 -.496.446z"/><path d="m3.793 31.418a.526.526 0 0 1 -.093-.008.5.5 0 0 1 -.4-.584 37.04 37.04 0 0 1 3.067-9.418.5.5 0 0 1 .9.444 36.041 36.041 0 0 0 -2.981 9.16.5.5 0 0 1 -.493.406z"/><path d="m38.031 66.458a48.327 48.327 0 0 1 -8.3-.61.5.5 0 0 1 -.259-.853.57.57 0 0 1 .451-.155l.1.01c1.884-.39 7.554-2.554 10.368-7.656a24.851 24.851 0 0 0 2.926-7.6.492.492 0 0 1 .138-.253 39.3 39.3 0 0 1 3.645-3.257 6.735 6.735 0 0 0 2.6-5.033 16.023 16.023 0 0 1 1.654-5.5v-.03a3.351 3.351 0 0 0 .2-1.5c-.187-.812-1.1-1.276-1.484-1.438-.171-.061-.369-.12-.569-.174a6.217 6.217 0 0 1 -4.487-4.393 12.562 12.562 0 0 1 1.61-9.013 1.857 1.857 0 0 0 .337-.543 1.975 1.975 0 0 0 -.37-1.374l-.249-.411a7.7 7.7 0 0 1 -.954-1.959 2.8 2.8 0 0 1 .754-2.833 4.117 4.117 0 0 1 .8-.435 1.77 1.77 0 0 0 .758-.482 1.757 1.757 0 0 0 .12-.959c0-.114-.008-.226-.008-.334 0-1.55.677-4.82 2.306-5.822l.226-.216a.5.5 0 0 1 .832.245c.145.608.266 1.208.385 1.8.677 3.362 1.262 6.265 5.784 9.494 7.295 4.064 11.069 13.633 10.972 18.967a34.616 34.616 0 0 1 -7.343 22.1c-5.075 6.176-12.3 9.6-21.474 10.191h-.022q-.749.026-1.447.026zm-5.741-1.268a59.02 59.02 0 0 0 7.158.255c8.881-.57 15.863-3.876 20.754-9.827 6.988-8.5 7.345-19.705 7.119-21.412.087-5.03-3.6-14.328-10.509-18.18-4.893-3.488-5.543-6.719-6.231-10.14-.064-.323-.13-.647-.2-.974-.967.909-1.568 3.312-1.568 4.768 0 .1 0 .2.008.3a2.556 2.556 0 0 1 -.29 1.554 2.582 2.582 0 0 1 -1.181.838 3.348 3.348 0 0 0 -.6.313 1.829 1.829 0 0 0 -.4 1.784 6.881 6.881 0 0 0 .841 1.694l.261.43a2.83 2.83 0 0 1 .473 2.134 2.332 2.332 0 0 1 -.457.824 11.55 11.55 0 0 0 -1.486 8.232 5.213 5.213 0 0 0 3.778 3.671c.226.062.451.128.672.208a3.354 3.354 0 0 1 2.095 2.146 4.1 4.1 0 0 1 -.21 1.989l-.028.1a15.793 15.793 0 0 0 -1.589 5.212 7.829 7.829 0 0 1 -3 5.77 38.05 38.05 0 0 0 -3.444 3.063 25.787 25.787 0 0 1 -3 7.747 17.533 17.533 0 0 1 -8.965 7.5z"/><path d="m30.038 65.855a.519.519 0 0 1 -.083-.007c-.106-.01-.153-.015-.2-.022-18.617-1.968-23.567-20.874-23.819-25.592-1-3.488.321-15.844 6.122-21.957 3.342-4.377 3.035-7.321 2.684-10.727-.062-.6-.125-1.212-.167-1.837a.5.5 0 0 1 .395-.522c1.848-.4 4.595 1.6 5.65 2.751l.212.24a1.834 1.834 0 0 0 .756.636 1.707 1.707 0 0 0 .854-.142 3.66 3.66 0 0 1 .927-.207 2.7 2.7 0 0 1 2.446 1.579 7.111 7.111 0 0 1 .608 2.022q.05.258.1.515a1.977 1.977 0 0 0 .625 1.272 2.06 2.06 0 0 0 .658.2c.354.068.716.128 1.081.189 1.979.331 4.224.706 5.56 2.391a5.2 5.2 0 0 1 .342 5.529 12.491 12.491 0 0 1 -.68 1.107 10.571 10.571 0 0 0 -.673 1.108 2.267 2.267 0 0 0 -.153 2.045 3.361 3.361 0 0 0 1.231 1.024q.872.522 1.751 1.042t1.757 1.045a13.065 13.065 0 0 1 3.479 2.639 10.682 10.682 0 0 1 1.766 3.272 26.624 26.624 0 0 1 1.021 14.347 25.822 25.822 0 0 1 -3.036 7.9c-3.045 5.522-9.062 7.762-11.122 8.158a.518.518 0 0 1 -.092.002zm-14.428-59.714c.037.441.082.876.127 1.307.356 3.466.693 6.741-2.92 11.477-5.407 5.702-6.929 17.727-5.907 21.075a.527.527 0 0 1 .021.123c.011.224 2.664 22.563 22.96 24.709l.129.013c1.884-.39 7.554-2.554 10.367-7.656a24.85 24.85 0 0 0 2.925-7.6 25.608 25.608 0 0 0 -.979-13.8 9.769 9.769 0 0 0 -1.59-2.97 12.3 12.3 0 0 0 -3.227-2.426q-.88-.527-1.757-1.045t-1.759-1.048a4.141 4.141 0 0 1 -1.589-1.392 3.2 3.2 0 0 1 .132-2.981 11.635 11.635 0 0 1 .733-1.213 11.5 11.5 0 0 0 .626-1.017 4.241 4.241 0 0 0 -.238-4.447c-1.1-1.383-3.051-1.709-4.94-2.025-.373-.062-.743-.124-1.1-.193a2.862 2.862 0 0 1 -1-.331 2.807 2.807 0 0 1 -1.074-1.916c-.037-.171-.071-.35-.106-.529a6.3 6.3 0 0 0 -.512-1.747 1.717 1.717 0 0 0 -1.5-1.046 2.8 2.8 0 0 0 -.68.161 2.545 2.545 0 0 1 -1.4.159 2.6 2.6 0 0 1 -1.269-.951l-.193-.219a8.164 8.164 0 0 0 -4.28-2.472z"/></g><path d="m37.747 25.626a.648.648 0 0 1 -.426-.159 2.931 2.931 0 0 1 -.638-.755 2.685 2.685 0 0 1 -.328-1.266.649.649 0 0 1 .638-.661.67.67 0 0 1 .662.639 1.385 1.385 0 0 0 .162.652 1.638 1.638 0 0 0 .355.409.65.65 0 0 1 -.426 1.141z" fill="#fff"/><path d="m38.007 20.46a.642.642 0 0 1 -.3-.073.65.65 0 0 1 -.278-.876 4.087 4.087 0 0 0 -.222-4.286 7.154 7.154 0 0 0 -4.017-2.113.65.65 0 0 1 .307-1.264 8.317 8.317 0 0 1 4.729 2.57 5.347 5.347 0 0 1 .356 5.69.65.65 0 0 1 -.575.352z" fill="#fff"/></g></svg>