<svg height="512" viewBox="0 0 74 74" width="512" xmlns="http://www.w3.org/2000/svg"><g id="color_line" data-name="color line"><path d="m49.328 33.6c-9.588 3.365-12.688 13.5-12.688 13.5-.012.035-.023.058-.035.092l-.046-4.126a22.884 22.884 0 0 0 -10.326-18.896c1.914-10.982 6.131-21.17 11.018-21.17 6.292 0 11.467 16.883 12.077 30.6z" fill="#fcd462"/><path d="m36.6 46.25a23.425 23.425 0 0 1 1.53-2.54 21.358 21.358 0 0 0 -1.49 3.38.941.941 0 0 1 -.03.09z" fill="#f7be56"/><path d="m49.33 33.6c-.52.18-2.714 1.252-3.194 1.482-.936-13.382-4.256-29.762-10.296-29.762-1.7 0-3.32 1.24-4.78 3.31 1.8-3.44 3.92-5.63 6.19-5.63 6.29 0 11.47 16.88 12.08 30.6z" fill="#f7be56"/><path d="m36.3 65.67a30.387 30.387 0 0 1 .3-18.485l-.046-4.126a22.863 22.863 0 0 0 -11.6-19.659c-.519-.288-1.06-.576-1.636-.853 0 0 2.247 5.14-.449 16.526-2.1 8.718-1.319 22.156 9.525 26.6z" fill="#6fc666"/><path d="m35.66 46.14.05 4.11h.032a30.735 30.735 0 0 1 .869-3.07l-.05-4.12a22.858 22.858 0 0 0 -11.611-19.66c-.51-.29-1.06-.58-1.63-.85a13.52 13.52 0 0 1 .78 3.96 22.817 22.817 0 0 1 11.56 19.63z" fill="#65b54e"/><path d="m51.391 33.01c-11.213 2.523-14.751 14.083-14.751 14.083-.012.035-.023.058-.035.092a30.387 30.387 0 0 0 -.3 18.485h3.478c16.474-7.709 11.608-32.66 11.608-32.66z" fill="#6fc666"/><path d="m39.78 65.67h-2.85c14.69-6.87 12.42-27.45 11.75-31.83a19.5 19.5 0 0 1 2.71-.83s4.87 24.95-11.61 32.66z" fill="#65b54e"/><g fill="#323c6b"><path d="m44.027 10.276h-13.541a.5.5 0 0 1 0-1h13.541a.5.5 0 0 1 0 1z"/><path d="m46.136 15.75h-17.759a.5.5 0 0 1 0-1h17.759a.5.5 0 0 1 0 1z"/><path d="m47.588 21.225h-20.675a.5.5 0 0 1 0-1h20.675a.5.5 0 0 1 0 1z"/><path d="m48.6 26.7h-19.713a.5.5 0 0 1 0-1h19.713a.5.5 0 0 1 0 1z"/><path d="m49.213 32.173h-15.731a.5.5 0 0 1 0-1h15.73a.5.5 0 0 1 0 1z"/><path d="m43.276 37.647h-7.562a.5.5 0 0 1 0-1h7.563a.5.5 0 0 1 0 1z"/><path d="m31.569 29.533a.5.5 0 0 1 -.5-.5v-21.333a.5.5 0 0 1 1 0v21.333a.5.5 0 0 1 -.5.5z"/><path d="m37.251 46.012a.5.5 0 0 1 -.5-.5v-42.512a.5.5 0 0 1 1 0v42.512a.5.5 0 0 1 -.5.5z"/><path d="m42.933 37.957a.5.5 0 0 1 -.5-.5v-29.767a.5.5 0 0 1 1 0v29.767a.5.5 0 0 1 -.5.5z"/></g><path d="m32.393 65.67h7.716a0 0 0 0 1 0 0v1.472a3.858 3.858 0 0 1 -3.858 3.858 3.858 3.858 0 0 1 -3.858-3.858v-1.472a0 0 0 0 1 0 0z" fill="#65b54e"/><path d="m36.251 71.5a4.363 4.363 0 0 1 -4.358-4.358v-1.472a.5.5 0 0 1 .5-.5h7.717a.5.5 0 0 1 .5.5v1.472a4.363 4.363 0 0 1 -4.359 4.358zm-3.358-5.33v.972a3.358 3.358 0 0 0 6.717 0v-.972z" fill="#323c6b"/><path d="m47.183 10.083a.5.5 0 0 1 -.458-.3 21 21 0 0 0 -4.888-7.353.5.5 0 0 1 .66-.752 21.964 21.964 0 0 1 5.144 7.7.5.5 0 0 1 -.256.659.506.506 0 0 1 -.202.046z" fill="#323c6b"/><path d="m48.1 12.375a.5.5 0 0 1 -.469-.327l-.082-.231c-.03-.088-.061-.177-.094-.262a.5.5 0 0 1 .934-.36c.037.1.071.2.106.3l.073.21a.5.5 0 0 1 -.469.673z" fill="#323c6b"/><path d="m22.368 60.849a.5.5 0 0 1 -.439-.262l-.1-.192c-.149-.274-.3-.548-.433-.832a.5.5 0 1 1 .9-.429c.127.266.268.524.408.782l.105.195a.5.5 0 0 1 -.439.738z" fill="#323c6b"/><path d="m20.881 57.667a.5.5 0 0 1 -.473-.336 33.258 33.258 0 0 1 -1.982-10.8.5.5 0 0 1 .5-.493h.008a.5.5 0 0 1 .492.507 32.227 32.227 0 0 0 1.928 10.455.5.5 0 0 1 -.309.636.5.5 0 0 1 -.164.031z" fill="#323c6b"/><path d="m39.782 66.17h-3.482a.5.5 0 0 1 -.482-.37c-1.854-6.9-1.759-12.692.31-18.776.066-.2 3.784-11.943 15.15-14.5a.491.491 0 0 1 .383.069.5.5 0 0 1 .218.323c.049.253 4.747 25.424-11.889 33.208a.5.5 0 0 1 -.208.046zm-3.093-1h2.98c14.524-6.9 11.881-27.975 11.318-31.549-10.405 2.664-13.837 13.507-13.87 13.618l-.04.107a29.487 29.487 0 0 0 -.388 17.824z" fill="#323c6b"/><path d="m36.3 66.17h-3.907a.5.5 0 0 1 -.189-.037c-11.764-4.82-11.704-19.352-9.822-27.179 2.616-11.042.5-16.159.477-16.209a.5.5 0 0 1 .676-.65c.585.281 1.136.574 1.663.867a23.431 23.431 0 0 1 11.862 20.091l.046 4.126a.508.508 0 0 1 -.026.167c-2 5.885-2.091 11.5-.292 18.194a.5.5 0 0 1 -.482.63zm-3.812-1h3.165a30.333 30.333 0 0 1 .447-18.07l-.045-4.041a22.424 22.424 0 0 0 -11.351-19.23c-.185-.1-.371-.205-.562-.307.527 2.13 1.216 7.184-.792 15.659-1.803 7.505-1.904 21.389 9.142 25.989z" fill="#323c6b"/><path d="m36.605 47.685a.48.48 0 0 1 -.079-.006.5.5 0 0 1 -.421-.488l-.046-4.125a22.335 22.335 0 0 0 -10.1-18.476.5.5 0 0 1 -.219-.5c1.872-10.749 6.16-21.59 11.511-21.59 6.936 0 12 18.1 12.576 31.075a.5.5 0 0 1 -.333.494c-9.229 3.239-12.346 13.072-12.377 13.17 0 .005-.037.1-.039.107a.5.5 0 0 1 -.473.339zm-9.823-23.75a23.338 23.338 0 0 1 10.278 19.118l.018 1.61c1.514-3.234 5.012-8.9 11.734-11.411-.695-13.843-5.846-29.752-11.561-29.752-4.032 0-8.32 8.386-10.469 20.435z" fill="#323c6b"/><path d="m38.588 55.266c-.024 0-.05 0-.074 0a.65.65 0 0 1 -.572-.719c.028-.255.062-.512.1-.769a.65.65 0 1 1 1.287.18q-.051.37-.094.736a.649.649 0 0 1 -.647.572z" fill="#fff"/><path d="m39.25 51.6a.652.652 0 0 1 -.632-.806c.213-.865.472-1.743.767-2.611a23.97 23.97 0 0 1 2.795-5.633.65.65 0 0 1 1.084.718 22.853 22.853 0 0 0 -2.608 5.223c0 .017-.029.084-.036.1-.287.844-.534 1.686-.739 2.515a.65.65 0 0 1 -.631.494z" fill="#fff"/></g></svg>