<svg height="512" viewBox="0 0 74 74" width="512" xmlns="http://www.w3.org/2000/svg"><g id="color_line" data-name="color line"><path d="m7.93 32.343c4.025 12.01 13.383 20.8 29.629 25.685 10.922 3.272 21.566.561 32.133-5.028a1.692 1.692 0 0 0 .831-1.949 1.7 1.7 0 0 0 -2.068-1.184 37.882 37.882 0 0 1 -22.955-1.162 26.494 26.494 0 0 1 -12.652-13.427c-3.041-6.95-5.609-10.726-7.417-12.765-10.402-5.495-16.964-3.613-17.501 9.83z" fill="#fe7058"/><path d="m69.69 53c-10.57 5.59-21.21 8.3-32.13 5.03-16.25-4.89-25.6-13.68-29.63-25.69.03-.74.08-1.44.15-2.11 4.1 11.8 13.42 20.44 29.48 25.26 10.92 3.27 21.56.56 32.13-5.02a1.811 1.811 0 0 0 .32-.22 1.593 1.593 0 0 1 .51.81 1.673 1.673 0 0 1 -.83 1.94z" fill="#ea6453"/><g fill="#323c6b"><path d="m42.623 62.645a.524.524 0 0 1 -.062 0 37 37 0 0 1 -6.006-1.26c-1.561-.469-3.108-1-4.733-1.619a.5.5 0 0 1 .357-.935c1.6.612 3.127 1.134 4.663 1.6a36.029 36.029 0 0 0 5.842 1.226.5.5 0 0 1 -.061 1z"/><path d="m30.017 59a.5.5 0 0 1 -.193-.039l-.754-.317a.5.5 0 1 1 .391-.92l.75.314a.5.5 0 0 1 -.193.961z"/><path d="m34.955 33.167a.5.5 0 0 1 -.455-.292 69.022 69.022 0 0 0 -3.945-7.528.5.5 0 0 1 .852-.525 70.262 70.262 0 0 1 4 7.638.5.5 0 0 1 -.247.663.509.509 0 0 1 -.205.044z"/><path d="m36.316 36a.5.5 0 0 1 -.445-.272l-.148-.281c-.086-.159-.171-.317-.249-.482a.5.5 0 1 1 .9-.43c.071.149.149.293.227.438l.159.3a.5.5 0 0 1 -.445.728z"/><path d="m47.237 59.957a34.01 34.01 0 0 1 -9.822-1.45c-15.9-4.783-25.7-13.289-29.958-26.005a.506.506 0 0 1 -.026-.179c.258-6.472 1.869-10.472 4.916-12.223 3.085-1.776 7.437-1.13 13.317 1.977a.491.491 0 0 1 .141.11c2.435 2.745 4.958 7.083 7.5 12.9a25.974 25.974 0 0 0 12.4 13.176 37.247 37.247 0 0 0 22.618 1.134 2.2 2.2 0 0 1 1.6 4.058c-8.255 4.356-15.661 6.502-22.686 6.502zm-38.803-27.686c4.166 12.338 13.741 20.606 29.266 25.278 9.72 2.909 19.813 1.324 31.756-4.986a1.2 1.2 0 0 0 -.879-2.207 38.254 38.254 0 0 1 -23.262-1.183 26.987 26.987 0 0 1 -12.925-13.694c-3.077-7.033-5.645-10.71-7.273-12.566-5.433-2.855-9.562-3.513-12.271-1.951-2.676 1.538-4.16 5.345-4.412 11.309z"/></g><path d="m45.5 52.864a.651.651 0 0 1 -.188-.028q-.384-.116-.771-.242a18.257 18.257 0 0 1 -3.541-1.567 25.529 25.529 0 0 1 -4.6-3.435.65.65 0 1 1 .889-.948 24.268 24.268 0 0 0 4.364 3.26 16.96 16.96 0 0 0 3.287 1.454q.374.122.746.234a.65.65 0 0 1 -.188 1.272z" fill="#fff"/><path d="m49.494 53.833a.663.663 0 0 1 -.119-.011q-.562-.1-1.132-.228a.65.65 0 0 1 .275-1.271c.366.08.731.153 1.093.22a.65.65 0 0 1 -.117 1.289z" fill="#fff"/><path d="m12.189 24.3c.177 1.159-.542 3.062-1.439 5.246-1.135 2.754-3.213 2.872-3.213 2.872a3.9 3.9 0 0 0 -2.357.625c.1-.154.991-1.616.741-4.743a14.121 14.121 0 0 1 3.213-7.85 7.536 7.536 0 0 1 3.232-2.4c2.28-.856 6.291-1.818 9.86.173 4.512 2.53 5.964 2.819 5.964 2.819s-2.116 2.626-5.974.962-5.9-.423-5.9-.423 4.637 2.645 3.492 5.83l-.731 1.722s-.731-1.809-3.848-2.559c-2.251-.537-2.921-1.499-3.04-2.274z" fill="#6fc666"/><path d="m5.181 33.543a.5.5 0 0 1 -.425-.764 7.482 7.482 0 0 0 .667-4.438 14.534 14.534 0 0 1 3.317-8.2 8.06 8.06 0 0 1 3.447-2.555c2.216-.832 6.494-1.91 10.282.2 4.331 2.428 5.808 2.763 5.822 2.766a.5.5 0 0 1 .288.8 5.521 5.521 0 0 1 -6.562 1.107 7.812 7.812 0 0 0 -4.569-.734c1.378 1.009 3.779 3.219 2.833 5.851l-.741 1.748a.5.5 0 0 1 -.46.3.5.5 0 0 1 -.46-.312c-.025-.06-.709-1.587-3.5-2.26a5.858 5.858 0 0 1 -2.555-1.181 25.936 25.936 0 0 1 -1.349 3.847c-1.241 3.018-3.55 3.18-3.648 3.186a3.506 3.506 0 0 0 -2.07.515.5.5 0 0 1 -.317.124zm12.319-15.98a14.457 14.457 0 0 0 -4.954.961 7.055 7.055 0 0 0 -3.019 2.236 13.546 13.546 0 0 0 -3.106 7.558 10.473 10.473 0 0 1 -.294 3.744 5.121 5.121 0 0 1 1.443-.143c.008-.005 1.728-.159 2.717-2.567.833-2.029 1.567-3.937 1.408-4.981a.5.5 0 0 1 .988-.151c.129.835 1.051 1.481 2.666 1.87a6.771 6.771 0 0 1 3.63 2.01l.373-.879c.981-2.731-3.236-5.176-3.279-5.2a.5.5 0 0 1 -.014-.86c.092-.057 2.309-1.366 6.357.391a4.673 4.673 0 0 0 4.8-.3 41.9 41.9 0 0 1 -5.235-2.587 9.111 9.111 0 0 0 -4.481-1.102z" fill="#323c6b"/><path d="m11.084 19.194a.5.5 0 0 1 -.481-.363c-.058-.2-1.493-4.957-8.142-6.662a.5.5 0 0 1 .248-.969c7.231 1.854 8.793 7.134 8.856 7.358a.5.5 0 0 1 -.345.616.513.513 0 0 1 -.136.02z" fill="#323c6b"/></g></svg>