<svg height="512" viewBox="0 0 74 74" width="512" xmlns="http://www.w3.org/2000/svg"><g id="color_line" data-name="color line"><path d="m31.952 15.074a1.951 1.951 0 0 1 -.048 1.045 2.853 2.853 0 0 1 -.508.741 22.329 22.329 0 0 0 -1.538 2.071c-.348.507-.663 1.03-.96 1.567a3.3 3.3 0 0 1 -3.233 1.729c-.611-.051-1.231-.075-1.837-.072a22.477 22.477 0 0 0 -2.586.134 3 3 0 0 1 -.9.011 2.042 2.042 0 0 1 -.9-.54 4.4 4.4 0 0 1 -1.2-1.983l-.01-.018c-.16-.556-.207-1.138-.336-1.7a6.482 6.482 0 0 0 -.941-2.188 6.11 6.11 0 0 1 -.614-.955 1.322 1.322 0 0 1 -.057-1.115c.081-.169.217-.322.307-.5a1.748 1.748 0 0 0 -.137-1.542 4.371 4.371 0 0 1 -.561-1.5 5.649 5.649 0 0 1 .13-1.159 5.052 5.052 0 0 0 -.883-3.044c-.17-.276-.351-.614-.2-.9.142-.27.51-.353.661-.605.151-.275.02-.606.029-.909.021-.71.35-1.894.988-2.2a2.778 2.778 0 0 1 2.379.4c.257.16.469.448.772.48.3.01.576-.251.88-.218s.5.375.633.67a5.058 5.058 0 0 0 2.05 2.42 6.286 6.286 0 0 1 1.036.546 4.6 4.6 0 0 1 .926 1.3 1.78 1.78 0 0 0 1.206.97c.195.022.4-.006.592.015a1.392 1.392 0 0 1 .895.667 7.112 7.112 0 0 1 .453 1.041 6.27 6.27 0 0 0 1.288 2c.4.414.862.776 1.235 1.218v.009a4.436 4.436 0 0 1 .989 2.114z" fill="#6fc666"/><path d="m31.906 16.114a3.109 3.109 0 0 1 -.51.75 3.009 3.009 0 0 0 -.22.28c-.01-.04-.01-.07-.02-.11a4.6 4.6 0 0 0 -.98-2.12h-.01c-.37-.45-.83-.81-1.23-1.22a6.345 6.345 0 0 1 -1.29-2.01 7.963 7.963 0 0 0 -.45-1.04 1.4 1.4 0 0 0 -.9-.66c-.19-.02-.4 0-.59-.02a1.777 1.777 0 0 1 -1.21-.97 4.7 4.7 0 0 0 -.92-1.3 6.093 6.093 0 0 0 -1.04-.55 5.074 5.074 0 0 1 -2.05-2.42c-.13-.29-.31-.63-.63-.67s-.58.23-.88.22c-.31-.03-.52-.32-.77-.48a2.789 2.789 0 0 0 -2.38-.4.679.679 0 0 0 -.18.13c.05-.71.37-1.8.98-2.09a2.739 2.739 0 0 1 2.37.41c.26.16.47.44.78.48.3.01.57-.25.88-.22s.49.37.63.67a5.121 5.121 0 0 0 2.05 2.42 6.836 6.836 0 0 1 1.04.54 4.75 4.75 0 0 1 .92 1.31 1.8 1.8 0 0 0 1.21.97c.19.02.39-.01.59.01a1.337 1.337 0 0 1 .89.67 6.429 6.429 0 0 1 .46 1.04 6.138 6.138 0 0 0 1.29 2c.4.42.86.78 1.23 1.22l.01.01a4.513 4.513 0 0 1 .98 2.11 2.033 2.033 0 0 1 -.05 1.04z" fill="#65b54e"/><path d="m23.826 22.155a2.3 2.3 0 0 1 .033.555 16.334 16.334 0 0 0 .29 3.178 2.454 2.454 0 0 1 -.125 1.373 2.386 2.386 0 0 1 -.879 1.077 17.489 17.489 0 0 0 -2.42 2.072 1.943 1.943 0 0 1 -.486.42 1.5 1.5 0 0 1 -.752.115 3.241 3.241 0 0 1 -1.6-.553c-.341-.23-.629-.534-.962-.792a4.545 4.545 0 0 0 -1.535-.771 6.316 6.316 0 0 1 -.784-.245.953.953 0 0 1 -.536-.6c-.04-.139-.026-.284-.066-.423a1.268 1.268 0 0 0 -.79-.792 3.289 3.289 0 0 1 -1-.565 4.626 4.626 0 0 1 -.467-.7 3.615 3.615 0 0 0 -1.892-1.29c-.223-.075-.484-.177-.526-.406s.124-.433.082-.639-.267-.35-.4-.518c-.309-.407-.675-1.22-.462-1.677.177-.484 1-.809 1.5-.881.225-.029.471.046.653-.086s.206-.408.383-.526c.2-.127.456-.026.666.068a3.6 3.6 0 0 0 2.257.408 4.36 4.36 0 0 1 .822-.176 3.135 3.135 0 0 1 1.12.295 1.264 1.264 0 0 0 1.111-.021c.12-.076.221-.187.341-.262a.957.957 0 0 1 .794-.035l.055.017a4.4 4.4 0 0 0 1.2 1.983 2.042 2.042 0 0 0 .9.54 3 3 0 0 0 .9-.011 22.477 22.477 0 0 1 2.575-.132z" fill="#6fc666"/><path d="m23.856 22.714c0 .39.01.79.04 1.18-.95.03-2.58.25-3.35.33a3.013 3.013 0 0 1 -.9.02 2.1 2.1 0 0 1 -.89-.54 4.363 4.363 0 0 1 -1.2-1.99c-.01 0-.04-.01-.06-.01a.912.912 0 0 0 -.79.03c-.12.08-.22.19-.34.26a1.237 1.237 0 0 1 -1.11.02 3.257 3.257 0 0 0 -1.12-.29 3.878 3.878 0 0 0 -.82.18 3.661 3.661 0 0 1 -2.26-.41.706.706 0 0 0 -.67-.07c-.17.12-.2.39-.38.53s-.43.05-.65.08a2.91 2.91 0 0 0 -.62.17 1.606 1.606 0 0 1 -.19-1.23c.18-.48 1-.81 1.5-.88.23-.03.47.05.65-.08s.21-.41.39-.53.45-.03.66.07a3.673 3.673 0 0 0 2.26.41 4.02 4.02 0 0 1 .82-.18 3.013 3.013 0 0 1 1.12.3 1.268 1.268 0 0 0 1.11-.03c.12-.07.22-.18.34-.26a.933.933 0 0 1 .8-.03c.01 0 .04.01.05.01a4.451 4.451 0 0 0 1.2 1.99 2.074 2.074 0 0 0 .9.54 2.662 2.662 0 0 0 .89-.02 22.455 22.455 0 0 1 2.59-.13 2.107 2.107 0 0 1 .03.56z" fill="#65b54e"/><path d="m28.474 29.573a.5.5 0 0 1 -.188-.037l-12.353-5.02a.5.5 0 0 1 .377-.927l12.352 5.021a.5.5 0 0 1 -.188.963z" fill="#323c6b"/><path d="m39.331 8.46a3.7 3.7 0 0 0 .013 2.3 3.874 3.874 0 0 1 .324.777 3.1 3.1 0 0 1 -.086 1.146 1.3 1.3 0 0 0 .22 1.1c.1.106.222.179.324.285a1 1 0 0 1 .188.781 4.509 4.509 0 0 1 -.231.788 4.513 4.513 0 0 0 -.2 1.7c.029.419.113.833.115 1.244a3.3 3.3 0 0 1 -.421 1.634 1.572 1.572 0 0 1 -.513.561 1.943 1.943 0 0 1 -.628.175 17.106 17.106 0 0 0 -3.067.861 2.387 2.387 0 0 1 -1.375.128 2.452 2.452 0 0 1 -1.211-.658 17.1 17.1 0 0 0 -2.483-2.015 1.906 1.906 0 0 1 -.443-.336 22.329 22.329 0 0 1 1.543-2.071 2.853 2.853 0 0 0 .508-.741 1.951 1.951 0 0 0 .048-1.045 4.436 4.436 0 0 0 -.979-2.111l.012-.041a1 1 0 0 1 .479-.646c.129-.058.269-.075.4-.133a1.268 1.268 0 0 0 .644-.917 2.994 2.994 0 0 1 .377-1.095 4.149 4.149 0 0 1 .6-.586 3.6 3.6 0 0 0 .914-2.1c.039-.227.09-.5.3-.587s.449.046.65-.027.294-.329.434-.5c.338-.375 1.074-.883 1.566-.757.508.072.981.827 1.139 1.315.064.206.044.469.207.622s.433.124.586.282.099.444.046.667z" fill="#6fc666"/><path d="m40.086 15.624a4.494 4.494 0 0 0 -.21 1.7c.03.42.12.84.12 1.25a3.3 3.3 0 0 1 -.42 1.63 1.536 1.536 0 0 1 -.51.56 1.81 1.81 0 0 1 -.63.18c-.16.03-.32.06-.48.1a3.47 3.47 0 0 0 .25-1.28c-.01-.42-.09-.83-.12-1.25a4.671 4.671 0 0 1 .2-1.7 3.578 3.578 0 0 0 .23-.79 1.02 1.02 0 0 0 -.18-.78c-.11-.1-.23-.18-.33-.28a1.312 1.312 0 0 1 -.22-1.1 2.96 2.96 0 0 0 .09-1.14 3.808 3.808 0 0 0 -.33-.78 3.763 3.763 0 0 1 -.01-2.3c.05-.22.11-.49-.04-.66s-.43-.14-.59-.28c-.16-.16-.14-.42-.21-.62-.15-.49-.63-1.25-1.14-1.32-.02 0-.05-.01-.08-.01.13-.1.2-.29.31-.42.34-.38 1.08-.88 1.57-.76.51.07.98.83 1.14 1.32.06.2.04.47.2.62s.44.12.59.28.1.44.04.67a3.657 3.657 0 0 0 .02 2.29 4.415 4.415 0 0 1 .32.78 3.146 3.146 0 0 1 -.08 1.14 1.279 1.279 0 0 0 .22 1.1c.1.11.22.18.32.29a.967.967 0 0 1 .19.78 5.366 5.366 0 0 1 -.23.78z" fill="#65b54e"/><path d="m32.975 27.176a.5.5 0 0 1 -.49-.6l2.735-13.1a.5.5 0 1 1 .979.2l-2.735 13.1a.5.5 0 0 1 -.489.4z" fill="#323c6b"/><path d="m28.54 32.818-.27-.773a4.126 4.126 0 0 1 2.083-4.918 4.344 4.344 0 0 1 2.88-.451 3.824 3.824 0 0 1 2.374 1.447l.413.553" fill="#ea6453"/><g fill="#323c6b"><path d="m28.539 33.318a.5.5 0 0 1 -.472-.335l-.27-.773a4.648 4.648 0 0 1 2.32-5.524 4.866 4.866 0 0 1 3.211-.5 4.323 4.323 0 0 1 2.677 1.636l.414.555a.5.5 0 1 1 -.8.6l-.412-.553a3.334 3.334 0 0 0 -2.065-1.254 3.853 3.853 0 0 0 -2.553.4 3.642 3.642 0 0 0 -1.847 4.313l.269.773a.5.5 0 0 1 -.472.665z"/><path d="m41.5 66.934a.547.547 0 0 1 -.068 0 38.368 38.368 0 0 1 -9-2.125.5.5 0 0 1 .367-.93 37.446 37.446 0 0 0 8.764 2.063.5.5 0 0 1 -.066 1z"/><path d="m30.036 63.625a.5.5 0 0 1 -.243-.063q-.267-.149-.53-.308a.5.5 0 0 1 .516-.856q.249.15.5.291a.5.5 0 0 1 -.243.937z"/><path d="m48.869 26.536a.5.5 0 0 1 -.218-.05c-.3-.144-.594-.274-.889-.4a.5.5 0 0 1 .381-.925c.313.129.628.267.943.419a.5.5 0 0 1 -.218.95z"/><path d="m58.923 38.185a.5.5 0 0 1 -.471-.333 20.651 20.651 0 0 0 -2.352-4.632 21.21 21.21 0 0 0 -4.293-4.72.5.5 0 0 1 .625-.781 22.223 22.223 0 0 1 4.5 4.945 21.576 21.576 0 0 1 2.467 4.858.5.5 0 0 1 -.3.639.506.506 0 0 1 -.176.024z"/><path d="m30.354 27.627a.5.5 0 0 1 -.441-.264l-7.713-14.431a.5.5 0 0 1 .883-.472l7.71 14.431a.5.5 0 0 1 -.441.736z"/></g><path d="m54.245 54.158c-3.329 4.849-4.772 9.263-2.234 12.51a7.78 7.78 0 0 0 2.767 2.026 3.7 3.7 0 0 1 -3.462.316 4.766 4.766 0 0 1 -1.852-1.45c-3.51-4.274-7.563-4.1-7.563-4.1-8.74-1.18-15.642-3.549-19.263-14.842s8.662-18.09 8.662-18.09a26.3 26.3 0 0 1 8.27-2.988c4.106-.59 9.918.367 14.457 7.08a17.639 17.639 0 0 1 .218 19.538z" fill="#fe7058"/><path d="m54.776 68.694a3.7 3.7 0 0 1 -3.46.32 4.845 4.845 0 0 1 -1.85-1.45l-.33-.39c-1.46-3.1 0-7.05 2.95-11.34a17.616 17.616 0 0 0 -.22-19.53c-4.54-6.72-10.35-7.67-14.45-7.08a26.3 26.3 0 0 0 -8.27 2.98s-.47.26-1.2.77a21.793 21.793 0 0 1 3.36-2.45 26.185 26.185 0 0 1 8.26-2.98c4.11-.59 9.92.36 14.46 7.08a17.616 17.616 0 0 1 .22 19.53c-3.33 4.85-4.77 9.27-2.24 12.51a7.733 7.733 0 0 0 2.77 2.03z" fill="#ea6453"/><path d="m52.774 69.8a4.485 4.485 0 0 1 -1.642-.321 5.219 5.219 0 0 1 -2.053-1.595c-3.3-4.017-7.124-3.918-7.16-3.921-8.24-1.1-15.88-3.095-19.759-15.189-3.7-11.542 8.773-18.61 8.9-18.681a26.506 26.506 0 0 1 8.44-3.049c3.411-.486 9.879-.191 14.942 7.295a18.237 18.237 0 0 1 .216 20.1c-3.641 5.3-4.377 9.2-2.253 11.919a7.271 7.271 0 0 0 2.588 1.883.5.5 0 0 1 .069.862 4.1 4.1 0 0 1 -2.288.697zm-10.71-6.834c.655 0 4.45.219 7.786 4.28a4.245 4.245 0 0 0 1.648 1.3 3.285 3.285 0 0 0 2.163.125 7.3 7.3 0 0 1 -2.042-1.69c-2.432-3.111-1.707-7.4 2.213-13.105a17.216 17.216 0 0 0 -.22-18.975c-4.758-7.036-10.8-7.322-13.972-6.865a25.96 25.96 0 0 0 -8.085 2.924c-.13.072-11.89 6.751-8.442 17.506 3.7 11.539 11.029 13.443 18.854 14.5.008-.002.041-.004.097-.004z" fill="#323c6b"/><path d="m20.675 22.831a2.159 2.159 0 0 1 -.432-.04 2.491 2.491 0 0 1 -1.141-.668 4.881 4.881 0 0 1 -1.325-2.172c-.007-.018-.014-.035-.019-.053a9.269 9.269 0 0 1 -.217-1.045c-.037-.229-.075-.457-.126-.681a5.926 5.926 0 0 0 -.869-2.021l-.162-.229a4.408 4.408 0 0 1 -.5-.807 1.8 1.8 0 0 1 -.051-1.527 2.552 2.552 0 0 1 .2-.327 1.652 1.652 0 0 0 .118-.186 1.364 1.364 0 0 0 -.142-1.094l-.147-.3a3.614 3.614 0 0 1 -.462-1.381 3.386 3.386 0 0 1 .071-.9c.02-.116.04-.231.053-.348a4.515 4.515 0 0 0 -.815-2.733 1.407 1.407 0 0 1 -.207-1.4 1.392 1.392 0 0 1 .5-.5.953.953 0 0 0 .169-.128 1.193 1.193 0 0 0 -.017-.283 2.574 2.574 0 0 1 -.025-.384c.024-.793.391-2.211 1.271-2.635.821-.486 2.2 0 2.866.43a2.8 2.8 0 0 1 .3.227.915.915 0 0 0 .257.178s.107-.046.178-.075a1.42 1.42 0 0 1 .7-.143c.629.072.913.693 1.035.958a4.492 4.492 0 0 0 1.826 2.185c.1.053.208.1.313.148a3.775 3.775 0 0 1 .8.445 3.732 3.732 0 0 1 .874 1.144l.172.295c.279.457.56.7.833.733a1.977 1.977 0 0 0 .234 0 3.076 3.076 0 0 1 .36.011 1.873 1.873 0 0 1 1.26.894 5.209 5.209 0 0 1 .4.874l.1.25a5.735 5.735 0 0 0 1.187 1.845c.147.151.307.3.467.446a9.231 9.231 0 0 1 .788.793.717.717 0 0 1 .061.089 4.779 4.779 0 0 1 1.035 2.269 2.429 2.429 0 0 1 -.077 1.312 3.279 3.279 0 0 1 -.592.882 21.848 21.848 0 0 0 -1.5 2.021c-.321.468-.627.968-.94 1.535a3.931 3.931 0 0 1 -1.565 1.565 3.852 3.852 0 0 1 -2.151.429c-.589-.049-1.193-.073-1.793-.07a21.922 21.922 0 0 0 -2.534.131 5.883 5.883 0 0 1 -.619.041zm-1.964-3.242c.008.02.015.039.02.055a3.875 3.875 0 0 0 1.062 1.756 1.538 1.538 0 0 0 .664.415 2.417 2.417 0 0 0 .67-.016 22.907 22.907 0 0 1 2.7-.143c.6 0 1.255.021 1.874.074a2.8 2.8 0 0 0 2.756-1.476c.327-.592.649-1.118.983-1.6a22.894 22.894 0 0 1 1.567-2.108 2.471 2.471 0 0 0 .429-.611 1.519 1.519 0 0 0 .019-.771 3.955 3.955 0 0 0 -.869-1.874.627.627 0 0 1 -.06-.087c-.159-.174-.4-.4-.648-.625-.172-.159-.344-.319-.507-.486a6.743 6.743 0 0 1 -1.4-2.168l-.1-.264a4.476 4.476 0 0 0 -.313-.7.9.9 0 0 0 -.549-.433c-.052 0-.129 0-.207 0a2.787 2.787 0 0 1 -.36-.011 2.2 2.2 0 0 1 -1.571-1.216c-.063-.1-.125-.212-.187-.32a2.911 2.911 0 0 0 -.622-.852 2.985 2.985 0 0 0 -.594-.322c-.122-.055-.243-.11-.362-.171a5.434 5.434 0 0 1 -2.271-2.65c-.146-.317-.22-.377-.245-.389a1.414 1.414 0 0 0 -.2.074 1.386 1.386 0 0 1 -.631.148 1.468 1.468 0 0 1 -.829-.408 1.778 1.778 0 0 0 -.19-.147 2.4 2.4 0 0 0 -1.861-.395c-.41.2-.722 1.116-.742 1.785a1.6 1.6 0 0 0 .018.235 1.429 1.429 0 0 1 -.108.9 1.429 1.429 0 0 1 -.48.462.92.92 0 0 0 -.177.136c-.006.027 0 .12.18.408a5.458 5.458 0 0 1 .954 3.36c-.016.138-.038.274-.062.41a2.574 2.574 0 0 0 -.06.655 2.759 2.759 0 0 0 .361 1.015l.155.319a2.176 2.176 0 0 1 .127 1.984 2.974 2.974 0 0 1 -.181.29 1.466 1.466 0 0 0 -.119.19.87.87 0 0 0 .06.687 3.527 3.527 0 0 0 .395.632l.179.253a6.934 6.934 0 0 1 1.017 2.36c.055.243.1.49.138.738a8.3 8.3 0 0 0 .177.902z" fill="#323c6b"/><path d="m34.468 22.48a2.862 2.862 0 0 1 -.576-.059 2.952 2.952 0 0 1 -1.459-.79 16.685 16.685 0 0 0 -2.409-1.948 2.26 2.26 0 0 1 -.545-.425.5.5 0 0 1 -.04-.6 22.955 22.955 0 0 1 1.573-2.117 2.471 2.471 0 0 0 .429-.611 1.521 1.521 0 0 0 .019-.772 3.958 3.958 0 0 0 -.869-1.873.5.5 0 0 1 -.095-.469 1.5 1.5 0 0 1 .751-.988 1.935 1.935 0 0 1 .285-.1.963.963 0 0 0 .129-.041c.2-.08.3-.363.363-.588l.045-.194a2.72 2.72 0 0 1 .411-1.067 2.311 2.311 0 0 1 .463-.477c.065-.055.132-.11.192-.17a3.078 3.078 0 0 0 .771-1.821 1.157 1.157 0 0 1 .6-.973 1.136 1.136 0 0 1 .595-.054.894.894 0 0 0 .1.01c-.029 0 .012-.067.039-.11a2 2 0 0 1 .161-.229c.3-.338 1.255-1.131 2.073-.919.72.1 1.293 1.04 1.489 1.645a2.278 2.278 0 0 1 .063.28 1.069 1.069 0 0 0 .033.159c-.012-.028.026-.021.063-.009a1.135 1.135 0 0 1 .518.281 1.164 1.164 0 0 1 .172 1.126v.008a3.148 3.148 0 0 0 -.008 1.983l.09.187a2.724 2.724 0 0 1 .261.68 2.6 2.6 0 0 1 -.039 1.076l-.043.244a.868.868 0 0 0 .09.68 1.337 1.337 0 0 0 .112.1 2.142 2.142 0 0 1 .207.184 1.479 1.479 0 0 1 .324 1.2 3.56 3.56 0 0 1 -.193.705l-.059.171a3.986 3.986 0 0 0 -.178 1.5c.011.164.031.323.051.482a6.892 6.892 0 0 1 .065.8 3.81 3.81 0 0 1 -.485 1.881 2.088 2.088 0 0 1 -.694.747 2.429 2.429 0 0 1 -.8.239 16.564 16.564 0 0 0 -2.966.833 2.889 2.889 0 0 1 -1.079.203zm-3.937-3.657a17.744 17.744 0 0 1 2.6 2.093 1.963 1.963 0 0 0 .963.526 1.894 1.894 0 0 0 1.088-.1 17.619 17.619 0 0 1 3.164-.889 1.6 1.6 0 0 0 .482-.125 1.118 1.118 0 0 0 .32-.379 2.783 2.783 0 0 0 .349-1.369 5.739 5.739 0 0 0 -.059-.683c-.021-.176-.043-.354-.056-.532a5 5 0 0 1 .225-1.886l.066-.194a2.634 2.634 0 0 0 .146-.512.523.523 0 0 0 -.069-.383c-.021-.02-.061-.051-.1-.083a2.142 2.142 0 0 1 -.207-.184 1.736 1.736 0 0 1 -.354-1.518l.047-.277a1.758 1.758 0 0 0 .046-.682 1.885 1.885 0 0 0 -.182-.446c-.039-.079-.078-.158-.114-.238a4.064 4.064 0 0 1 -.042-2.617c.011-.048.031-.136.039-.2l-.047-.015a1.154 1.154 0 0 1 -.477-.243 1.154 1.154 0 0 1 -.316-.7 1.067 1.067 0 0 0 -.029-.143c-.15-.465-.54-.943-.731-.97a1.618 1.618 0 0 0 -1.123.6c-.02.023-.044.066-.071.108a.983.983 0 0 1 -1.105.559l-.05-.006a1.9 1.9 0 0 0 -.041.2 3.989 3.989 0 0 1 -1.061 2.378c-.074.074-.16.147-.245.219a1.536 1.536 0 0 0 -.286.281 1.886 1.886 0 0 0 -.258.716l-.052.223a1.716 1.716 0 0 1 -.939 1.26 1.8 1.8 0 0 1 -.253.085.873.873 0 0 0 -.13.042.344.344 0 0 0 -.13.143 4.96 4.96 0 0 1 .905 2.114 2.432 2.432 0 0 1 -.077 1.313 3.279 3.279 0 0 1 -.592.882c-.446.529-.864 1.079-1.244 1.632z" fill="#323c6b"/><path d="m19.638 31.45c-.059 0-.118 0-.18-.006a3.721 3.721 0 0 1 -1.853-.639 6.056 6.056 0 0 1 -.605-.491c-.123-.108-.245-.216-.376-.317a4.009 4.009 0 0 0 -1.368-.687l-.229-.064a4.1 4.1 0 0 1 -.62-.205 1.443 1.443 0 0 1 -.818-.939 1.5 1.5 0 0 1 -.043-.28.688.688 0 0 0 -.016-.118c-.038-.181-.217-.333-.523-.479l-.218-.1a2.824 2.824 0 0 1 -.925-.567 2.542 2.542 0 0 1 -.388-.547c-.043-.075-.087-.151-.136-.224a3.079 3.079 0 0 0 -1.646-1.1.984.984 0 0 1 -.8-1.348.537.537 0 0 0 .027-.1c0 .033-.064-.027-.1-.064a2.05 2.05 0 0 1 -.2-.2 2.473 2.473 0 0 1 -.525-2.2c.247-.68 1.263-1.075 1.881-1.164a1.888 1.888 0 0 1 .313-.011h.135c-.012-.007.008-.045.022-.072a1.07 1.07 0 0 1 .36-.45 1.185 1.185 0 0 1 1.146.028 3.1 3.1 0 0 0 1.947.376c.089-.018.171-.042.253-.065a2.482 2.482 0 0 1 .67-.122 2.969 2.969 0 0 1 1.122.259l.175.066a.828.828 0 0 0 .658.035 1.019 1.019 0 0 0 .129-.1 2.1 2.1 0 0 1 .227-.172 1.441 1.441 0 0 1 1.23-.083.609.609 0 0 1 .367.354 3.875 3.875 0 0 0 1.062 1.746 1.538 1.538 0 0 0 .664.415 2.417 2.417 0 0 0 .67-.016 24.581 24.581 0 0 1 2.7-.143.5.5 0 0 1 .483.391 2.783 2.783 0 0 1 .045.674 15.97 15.97 0 0 0 .281 3.072 2.963 2.963 0 0 1 -.152 1.656 2.883 2.883 0 0 1 -1.062 1.3 17.128 17.128 0 0 0 -2.344 2.008 2.318 2.318 0 0 1 -.607.512 1.862 1.862 0 0 1 -.833.181zm-9.8-7.76a.956.956 0 0 1 .176.053 4.011 4.011 0 0 1 2.151 1.49c.059.087.115.185.172.282a1.674 1.674 0 0 0 .232.343 1.962 1.962 0 0 0 .614.354l.244.109a1.775 1.775 0 0 1 1.073 1.145 1.455 1.455 0 0 1 .04.267.682.682 0 0 0 .016.117.487.487 0 0 0 .274.285 3.14 3.14 0 0 0 .455.145l.255.071a5 5 0 0 1 1.7.856c.145.112.284.234.423.356a5.175 5.175 0 0 0 .51.414 2.754 2.754 0 0 0 1.356.468.972.972 0 0 0 .5-.066 1.65 1.65 0 0 0 .336-.309 18.149 18.149 0 0 1 2.5-2.143 1.9 1.9 0 0 0 .705-.856 1.97 1.97 0 0 0 .1-1.093 16.988 16.988 0 0 1 -.3-3.271v-.052c-.657.01-1.35.053-2.066.129a3.387 3.387 0 0 1 -1.051 0 2.491 2.491 0 0 1 -1.141-.668 4.918 4.918 0 0 1 -1.257-1.916.344.344 0 0 0 -.2.03 1.06 1.06 0 0 0 -.1.082 2.1 2.1 0 0 1 -.227.172 1.689 1.689 0 0 1 -1.54.071l-.2-.074a2.1 2.1 0 0 0 -.746-.194 1.648 1.648 0 0 0 -.415.083c-.105.03-.211.06-.319.083a4.021 4.021 0 0 1 -2.573-.453 1.37 1.37 0 0 0 -.181-.069l-.018.036a1.14 1.14 0 0 1 -.344.444 1.126 1.126 0 0 1 -.729.175 1.075 1.075 0 0 0 -.153 0 1.707 1.707 0 0 0 -1.093.557 1.646 1.646 0 0 0 .39 1.2 1.206 1.206 0 0 0 .093.09 1.156 1.156 0 0 1 .405.645 1.092 1.092 0 0 1 -.055.537c-.006.02-.014.044-.02.066z" fill="#323c6b"/><path d="m29.889 54.15a.648.648 0 0 1 -.514-.252c-.194-.25-.385-.511-.57-.784a.65.65 0 0 1 1.078-.728c.168.25.343.487.52.716a.65.65 0 0 1 -.514 1.048z" fill="#fff"/><path d="m27.827 50.588a.651.651 0 0 1 -.6-.393 23.843 23.843 0 0 1 -.846-2.231 10.319 10.319 0 0 1 .6-8 .65.65 0 0 1 1.164.58 9.061 9.061 0 0 0 -.525 7.028 22.543 22.543 0 0 0 .8 2.111.651.651 0 0 1 -.6.908z" fill="#fff"/></g></svg>