<svg height="512" viewBox="0 0 74 74" width="512" xmlns="http://www.w3.org/2000/svg"><g id="color_line" data-name="color line"><path d="m45.254 40.74 8.282-2.41a59.791 59.791 0 0 0 10.217-4.569 1.818 1.818 0 0 0 .768-2.13 33.929 33.929 0 0 0 -2.227-5.218c-1.481-.257-3.482-.458-4.072-.566l-3.367-.614c.381-1.8 2.073-3.006 3.74-3.789a66.241 66.241 0 0 0 6.737-3.735 1.528 1.528 0 0 0 .4-2.153 35.837 35.837 0 0 0 -6.011-6.674c-1.49.321-4.453 2.179-5.926 2.893-1.528-1.668-2.3-3.191-4.556-5.288a2.246 2.246 0 0 0 -2.973-.058c-1.172.988-2.31 2.015-3.517 2.953a2.193 2.193 0 0 0 -.808 2.182c.311 1.486.752 3.2 1.116 5.043a1.2 1.2 0 0 1 -.535 1.343.935.935 0 0 1 -.471.044 4.319 4.319 0 0 1 -2.739-1.943 1.608 1.608 0 0 0 -1.69-.69l-4.47 1.034a1.581 1.581 0 0 0 -1.225 1.616c.251 5.335.753 13.417-.511 15.453a2.732 2.732 0 0 1 -.726.846 3.11 3.11 0 0 1 -2.185.244.7.7 0 0 1 -.477-.194.69.69 0 0 1 -.067-.544c.381-2.374 1.291-4.7.779-7.13a4.7 4.7 0 0 0 -1.452-2.543c-1.654-1.468-3.3-.826-4.809-.2a11.192 11.192 0 0 0 -4.1-4.653c-1.241.189-2.279 1.77-3.379 2.519-.792.54-1.567 1.1-2.336 1.678a1.066 1.066 0 0 0 -.386 1.147v.008a13.163 13.163 0 0 0 2.73 5.565 1.516 1.516 0 0 1 .389 1.257 1.181 1.181 0 0 1 -.869.884 3.967 3.967 0 0 1 -1.615-.013h-.011a1.429 1.429 0 0 0 -1.477.9c-.319.784-1.188 3.2-1.683 4.714a1.856 1.856 0 0 0 .515 1.945 26.328 26.328 0 0 0 2.319 1.814 15.189 15.189 0 0 1 3.47 3.19 5.824 5.824 0 0 1 1.181 4.446c-.1.51-4.38 6.864-6.708 10.049a29.474 29.474 0 0 1 6.994 3.523c1.99 1.456 2.536 3.919 3.726 5.949 2.17-2.383 7.988-7.96 10.54-8.857a10.961 10.961 0 0 1 5.342-.108 40.71 40.71 0 0 0 15.392-.549 13.8 13.8 0 0 0 5.712-2.443 8.681 8.681 0 0 0 2.175-2.684c-.62-2.922-1.2-5.854-1.92-8.754a2.329 2.329 0 0 0 -2.39-1.789c-.671.045-1.349.159-2.014.25a26.59 26.59 0 0 1 -7.859-.1c-1.047-.17-2.35-.707-2.146-1.857a1.631 1.631 0 0 1 1.183-1.234z" fill="#fcd462"/><path d="m59.707 50.923a8.919 8.919 0 0 1 -2.676 3.806 13.693 13.693 0 0 1 -5.712 2.444 40.638 40.638 0 0 1 -15.387.553 11.015 11.015 0 0 0 -5.34.1c-2.544.9-5.159 3.2-7.362 5.6a7.4 7.4 0 0 1 -2.986 1.974c.725.822.433 2.5 1 3.468.012-.013.024-.022.035-.035 2.2-2.4 7.973-7.926 10.507-8.821a11.015 11.015 0 0 1 5.34-.111 40.686 40.686 0 0 0 15.4-.543 13.88 13.88 0 0 0 5.712-2.444 8.665 8.665 0 0 0 2.162-2.691q-.347-1.649-.693-3.3z" fill="#f7be56"/><path d="m64.1 30.418c-1.958 2.023-10.07 5.237-11.764 5.735l-7.482 2.172c-.905.271-2 .764-2 1.71.01.754.7 1.207 1.468 1.448a3.359 3.359 0 0 1 1.73-.975q3.741-1.086 7.492-2.182a59.637 59.637 0 0 0 10.211-4.561 1.821 1.821 0 0 0 .776-2.125q-.209-.615-.431-1.222z" fill="#f7be56"/><path d="m65.723 15.536q-.267-.378-.54-.769a53.762 53.762 0 0 1 -7.791 4.5c-1.669.784-3.359 1.981-3.741 3.781.714.131 1.418.261 2.122.392a8.554 8.554 0 0 1 2.826-2 65.17 65.17 0 0 0 6.726-3.726 1.545 1.545 0 0 0 .398-2.178z" fill="#f7be56"/><path d="m54.187 62.542a.5.5 0 0 1 -.128-.983l.156-.042c.18-.047.359-.095.545-.149a.5.5 0 1 1 .281.96c-.194.057-.382.106-.571.156l-.153.041a.494.494 0 0 1 -.13.017z" fill="#323c6b"/><path d="m43.4 63.906a.5.5 0 0 1 0-1 43.333 43.333 0 0 0 8.18-.8.5.5 0 1 1 .189.981 44.282 44.282 0 0 1 -8.369.819z" fill="#323c6b"/><g fill="#f7be56"><path d="m18.025 30.462a2.98 2.98 0 0 1 1.418-1.143 4.3 4.3 0 0 1 1.838-.305 5.237 5.237 0 0 1 1.786.441 7.975 7.975 0 0 1 .8.434c.237.194.483.362.7.573l-1.692-.415a10.441 10.441 0 0 0 -1.631-.235 6.605 6.605 0 0 0 -1.611.1 5.921 5.921 0 0 0 -1.608.55z"/><path d="m18.025 39.848a2.98 2.98 0 0 1 1.418-1.143 4.3 4.3 0 0 1 1.838-.305 5.237 5.237 0 0 1 1.786.441 7.981 7.981 0 0 1 .8.434c.237.194.483.362.7.573l-1.692-.415a10.439 10.439 0 0 0 -1.631-.235 6.6 6.6 0 0 0 -1.611.1 5.922 5.922 0 0 0 -1.608.55z"/><path d="m34.191 22.964a2.981 2.981 0 0 1 1.128-1.43 4.3 4.3 0 0 1 1.724-.708 5.237 5.237 0 0 1 1.839.032 7.977 7.977 0 0 1 .873.246c.274.136.551.245.809.4l-1.742-.027a10.441 10.441 0 0 0 -1.642.135 6.6 6.6 0 0 0 -1.548.457 5.921 5.921 0 0 0 -1.441.895z"/><path d="m45.053 14.682a2.14 2.14 0 0 1 .818-1.15 3.15 3.15 0 0 1 1.33-.567 3.749 3.749 0 0 1 1.42.044 5.174 5.174 0 0 1 .664.215 6.08 6.08 0 0 1 .6.352c-.47.033-.907.043-1.329.054a9.893 9.893 0 0 0 -1.223.122 5.729 5.729 0 0 0 -1.154.317 5.3 5.3 0 0 0 -1.126.613z"/><path d="m55.385 14.036a2.14 2.14 0 0 1 1.4.163 3.15 3.15 0 0 1 1.137.892 3.749 3.749 0 0 1 .645 1.265 5.171 5.171 0 0 1 .131.686 6.081 6.081 0 0 1 -.017.7c-.255-.4-.475-.774-.688-1.139a9.893 9.893 0 0 0 -.7-1.013 5.729 5.729 0 0 0 -.833-.858 5.3 5.3 0 0 0 -1.075-.696z"/><path d="m54.946 28.519a2.14 2.14 0 0 1 .972 1.023 3.15 3.15 0 0 1 .3 1.414 3.749 3.749 0 0 1 -.315 1.385 5.171 5.171 0 0 1 -.338.611 6.082 6.082 0 0 1 -.461.526c.058-.468.131-.9.2-1.315a9.89 9.89 0 0 0 .114-1.223 5.729 5.729 0 0 0 -.09-1.193 5.3 5.3 0 0 0 -.382-1.228z"/><path d="m47.749 28.773a3.4 3.4 0 0 1 1.294 1.556 4.864 4.864 0 0 1 .395 2.031 5.982 5.982 0 0 1 -.417 2 9.473 9.473 0 0 1 -.443.907c-.2.274-.376.556-.594.81.151-.656.308-1.278.438-1.9a10.975 10.975 0 0 0 .216-1.841 7.109 7.109 0 0 0 -.183-1.81 6.286 6.286 0 0 0 -.706-1.753z"/><path d="m54.155 48.491a2.659 2.659 0 0 1 1.106 1.246 3.86 3.86 0 0 1 .341 1.671 4.669 4.669 0 0 1 -.358 1.643 6.87 6.87 0 0 1 -.382.734c-.175.219-.324.446-.517.645.1-.546.205-1.057.3-1.557a10.112 10.112 0 0 0 .157-1.481 6.24 6.24 0 0 0 -.129-1.451 5.662 5.662 0 0 0 -.518-1.45z"/><path d="m46.518 47.982a3.773 3.773 0 0 1 1.382 1.706 5.357 5.357 0 0 1 .421 2.205 6.628 6.628 0 0 1 -.446 2.177 10.821 10.821 0 0 1 -.472.99c-.213.3-.4.61-.631.891.069-.363.183-.7.269-1.041l.236-1.019a11.5 11.5 0 0 0 .245-2.015 7.562 7.562 0 0 0 -.209-1.985 6.616 6.616 0 0 0 -.795-1.909z"/><path d="m38.334 47.441a4.38 4.38 0 0 1 1.532 1.952 6.163 6.163 0 0 1 .464 2.49 7.691 7.691 0 0 1 -.493 2.461c-.145.389-.342.758-.52 1.127-.233.345-.441.7-.692 1.022.09-.407.223-.785.33-1.172l.284-1.155a12.42 12.42 0 0 0 .292-2.3 8.323 8.323 0 0 0 -.252-2.269 7.179 7.179 0 0 0 -.945-2.156z"/><path d="m49.25 17.971a2.373 2.373 0 0 1 1.514.2 3.47 3.47 0 0 1 1.23.966 4.163 4.163 0 0 1 .706 1.363 5.921 5.921 0 0 1 .155.741 7.145 7.145 0 0 1 0 .757c-.266-.434-.5-.848-.729-1.249a9.917 9.917 0 0 0 -.761-1.112 5.942 5.942 0 0 0 -.926-.933 5.452 5.452 0 0 0 -1.189-.733z"/><path d="m39.136 27.044a2.756 2.756 0 0 1 1.708-.14 3.992 3.992 0 0 1 1.587.746 4.841 4.841 0 0 1 1.138 1.3 7.2 7.2 0 0 1 .375.765c.075.278.172.54.221.82-.388-.418-.741-.823-1.1-1.211a10.2 10.2 0 0 0 -1.129-1.044 6.348 6.348 0 0 0 -1.284-.785 5.739 5.739 0 0 0 -1.516-.451z"/><path d="m35.26 32.781a4.108 4.108 0 0 1 2.353-.077 5.8 5.8 0 0 1 2.161 1.053 7.214 7.214 0 0 1 1.592 1.771c.213.331.38.69.558 1.036.127.374.276.732.376 1.108-.263-.3-.477-.61-.713-.907l-.721-.863a12 12 0 0 0 -1.582-1.513 7.98 7.98 0 0 0 -1.857-1.089 6.925 6.925 0 0 0 -2.167-.519z"/><path d="m19.965 54.417a3.425 3.425 0 0 1 2.035-.109 4.892 4.892 0 0 1 1.874.9 6.019 6.019 0 0 1 1.365 1.536 9.557 9.557 0 0 1 .466.9c.1.326.224.636.3.964-.438-.515-.845-1.015-1.265-1.491a11 11 0 0 0 -1.355-1.279 7.135 7.135 0 0 0 -1.571-.938 6.3 6.3 0 0 0 -1.849-.483z"/><path d="m30.427 41.421a3.425 3.425 0 0 1 2.031-.109 4.892 4.892 0 0 1 1.874.9 6.018 6.018 0 0 1 1.368 1.536 9.544 9.544 0 0 1 .466.9c.1.326.224.636.3.964-.438-.515-.845-1.015-1.265-1.491a11.006 11.006 0 0 0 -1.355-1.279 7.135 7.135 0 0 0 -1.571-.938 6.3 6.3 0 0 0 -1.848-.483z"/><path d="m44 22.912a2.756 2.756 0 0 1 1.708-.14 3.992 3.992 0 0 1 1.587.746 4.841 4.841 0 0 1 1.138 1.3 7.2 7.2 0 0 1 .375.765c.075.278.172.54.221.82-.388-.418-.741-.823-1.1-1.211a10.2 10.2 0 0 0 -1.129-1.044 6.349 6.349 0 0 0 -1.284-.785 5.738 5.738 0 0 0 -1.516-.451z"/><path d="m18.025 59.752a1.492 1.492 0 0 1 1.062-.2 2.239 2.239 0 0 1 1.013.44 2.583 2.583 0 0 1 .685.833 2.28 2.28 0 0 1 .257 1.026c-.57-.45-.978-.877-1.433-1.227a5.253 5.253 0 0 0 -1.584-.872z"/><path d="m23.612 47.684a4.8 4.8 0 0 1 2.676-.046 6.717 6.717 0 0 1 2.448 1.206 8.422 8.422 0 0 1 1.818 2.006c.246.375.441.781.649 1.172.153.422.328.828.454 1.252-.289-.344-.528-.706-.79-1.051l-.813-1a13.084 13.084 0 0 0 -1.809-1.748 8.856 8.856 0 0 0 -2.145-1.244 7.577 7.577 0 0 0 -2.488-.547z"/></g><path d="m21.249 69.368a.506.506 0 0 1 -.434-.248c-.377-.644-.692-1.329-1-1.992a8.986 8.986 0 0 0 -2.594-3.807 29.082 29.082 0 0 0 -6.877-3.459.5.5 0 0 1 -.226-.762c2.375-3.25 6.4-9.256 6.63-9.886a5.314 5.314 0 0 0 -1.1-4.021 14.813 14.813 0 0 0 -3.36-3.08l-.165-.12a22.212 22.212 0 0 1 -2.423-1.947 1.91 1.91 0 0 1 -.459-2l1.728-4.934a1.91 1.91 0 0 1 2-1.275l.218.027a2.975 2.975 0 0 0 1.206 0 .7.7 0 0 0 .518-.49 1.017 1.017 0 0 0 -.26-.829c-1.253-1.326-2.329-4.332-2.734-5.562a1.773 1.773 0 0 1 .545-1.917l4.59-3.879a1.791 1.791 0 0 1 2.1-.152 10.19 10.19 0 0 1 3.623 4.24c1.384-.542 3.141-1.025 4.847.488a5.213 5.213 0 0 1 1.609 2.813 12.578 12.578 0 0 1 -.391 5.413c-.141.632-.281 1.264-.383 1.9a.83.83 0 0 0 -.016.18c0-.033.1-.021.133-.017a2.708 2.708 0 0 0 1.835-.16 2.272 2.272 0 0 0 .584-.7c1.088-1.753.731-9.09.5-13.945l-.059-1.22a2.081 2.081 0 0 1 1.611-2.126l4.47-1.034a2.1 2.1 0 0 1 2.217.9 3.816 3.816 0 0 0 2.419 1.733.425.425 0 0 0 .183-.016c.189-.078.3-.452.235-.784-.209-1.064-.446-2.085-.667-3.044-.163-.705-.318-1.377-.45-2.008a2.771 2.771 0 0 1 .968-2.726l3.548-2.889a2.785 2.785 0 0 1 3.642.109 25.175 25.175 0 0 1 3.039 3.438c.414.54.809 1.054 1.268 1.578 1.021-.506 2.9-1.469 4.26-2.169l.525-.27a2.042 2.042 0 0 1 2.515.536l4.708 5.852a2.113 2.113 0 0 1 -.5 3.138 68.311 68.311 0 0 1 -6.618 3.655 6.05 6.05 0 0 0 -3.314 2.944l2.819.515c.235.043.7.1 1.266.171.587.073 1.28.16 1.944.257a2 2 0 0 1 1.553 1.223l1.885 4.638a1.991 1.991 0 0 1 -.77 2.432 59.038 59.038 0 0 1 -10.515 4.73l-7.486 2.179c-1.2.35-1.745.824-1.614 1.408a1.085 1.085 0 0 0 .863.786 25.957 25.957 0 0 0 8.573.254l.473-.067c.488-.07.98-.141 1.47-.179a2.786 2.786 0 0 1 2.963 2.167l1.772 7.866a2.736 2.736 0 0 1 -.372 2.117 8.88 8.88 0 0 1 -1.766 1.959 14.493 14.493 0 0 1 -5.916 2.543 41.534 41.534 0 0 1 -15.582.555 10.576 10.576 0 0 0 -5.1.085c-2.311.812-7.957 6.11-10.336 8.722a.5.5 0 0 1 -.368.163zm-9.937-10.206a28.366 28.366 0 0 1 6.5 3.353 9.873 9.873 0 0 1 2.912 4.2c.2.436.4.881.626 1.311 2.219-2.336 7.65-7.563 10.269-8.483a11.409 11.409 0 0 1 5.585-.13 40.484 40.484 0 0 0 15.2-.542 13.36 13.36 0 0 0 5.509-2.344 7.9 7.9 0 0 0 1.568-1.739 1.732 1.732 0 0 0 .227-1.341l-1.772-7.866a1.789 1.789 0 0 0 -1.912-1.39c-.468.036-.937.1-1.4.171l-.48.068a26.98 26.98 0 0 1 -8.9-.264 2.072 2.072 0 0 1 -1.644-1.55c-.151-.671-.052-1.9 2.31-2.587l7.49-2.179a58.888 58.888 0 0 0 10.257-4.617.991.991 0 0 0 .38-1.212l-1.884-4.637a1 1 0 0 0 -.772-.61c-.657-.1-1.342-.182-1.922-.254s-1.076-.135-1.322-.18l-3.367-.614a.5.5 0 0 1 -.4-.6c.351-1.659 1.7-3.051 4.017-4.138a66.906 66.906 0 0 0 6.5-3.584 1.113 1.113 0 0 0 .265-1.673l-4.714-5.848a1.04 1.04 0 0 0 -1.279-.273l-.525.27c-1.538.79-3.729 1.914-4.619 2.345a.5.5 0 0 1 -.586-.112c-.6-.654-1.072-1.27-1.573-1.922a24.237 24.237 0 0 0 -2.927-3.313 1.781 1.781 0 0 0 -2.329-.066l-3.548 2.888a1.775 1.775 0 0 0 -.622 1.746c.13.625.284 1.29.446 1.987.224.969.462 2 .674 3.076a1.691 1.691 0 0 1 -.834 1.9 1.412 1.412 0 0 1 -.724.079 4.788 4.788 0 0 1 -3.092-2.157 1.107 1.107 0 0 0 -1.164-.483l-4.47 1.034a1.081 1.081 0 0 0 -.838 1.1l.059 1.218c.333 6.841.514 12.656-.645 14.521a3.2 3.2 0 0 1 -.867.995 3.578 3.578 0 0 1 -2.535.328 1 1 0 0 1 -.972-1.312c.1-.655.25-1.307.395-1.959a11.655 11.655 0 0 0 .389-4.988 4.205 4.205 0 0 0 -1.294-2.272c-1.343-1.191-2.624-.8-4.288-.116a.506.506 0 0 1 -.421-.019.5.5 0 0 1 -.257-.335 8.9 8.9 0 0 0 -3.364-4.155.8.8 0 0 0 -.931.064l-4.59 3.879a.776.776 0 0 0 -.24.84c.3.911 1.365 3.976 2.51 5.188a2 2 0 0 1 .519 1.686 1.666 1.666 0 0 1 -1.22 1.278 3.84 3.84 0 0 1 -1.618.029l-.2-.025a.9.9 0 0 0 -.951.611l-1.727 4.939a.908.908 0 0 0 .212.952 21.443 21.443 0 0 0 2.321 1.857l.165.12a15.625 15.625 0 0 1 3.58 3.3 6.3 6.3 0 0 1 1.267 4.837c-.135.677-4.365 6.867-6.413 9.719z" fill="#323c6b"/><path d="m20.419 52.109a.654.654 0 0 1 -.564-.984c.153-.261.287-.5.411-.72a.654.654 0 0 1 1.143.634c-.128.23-.268.476-.425.746a.653.653 0 0 1 -.565.324z" fill="#fff"/><path d="m21.557 48.673a.653.653 0 0 1 -.65-.593 5.8 5.8 0 0 0 -1.116-2.8 14.621 14.621 0 0 0 -3.325-3.046l-.194-.142c-.31-.225-.621-.452-.928-.685a.654.654 0 0 1 .79-1.042c.3.228.6.449.907.67l.2.142a15.734 15.734 0 0 1 3.613 3.333 7.018 7.018 0 0 1 1.359 3.443.653.653 0 0 1 -.59.712z" fill="#fff"/><ellipse cx="15.871" cy="64.161" fill="#fcd462" rx="5.597" ry="7.171" transform="matrix(.622 -.783 .783 .622 -44.234 36.666)"/><path d="m17.438 70.915h-.064a8.749 8.749 0 0 1 -5.3-1.98c-3.312-2.632-4.3-6.915-2.212-9.546a5.549 5.549 0 0 1 4.5-1.981 8.749 8.749 0 0 1 5.3 1.98c3.312 2.632 4.3 6.915 2.212 9.546a5.5 5.5 0 0 1 -4.436 1.981zm-3.138-12.508a4.525 4.525 0 0 0 -3.656 1.6c-1.749 2.2-.829 5.853 2.051 8.141a7.747 7.747 0 0 0 4.683 1.763 4.6 4.6 0 0 0 3.711-1.6c1.749-2.2.829-5.853-2.051-8.141a7.747 7.747 0 0 0 -4.683-1.763z" fill="#323c6b"/><ellipse cx="15.871" cy="64.161" fill="#f7be56" rx="2.558" ry="3.679" transform="matrix(.622 -.783 .783 .622 -44.234 36.666)"/><path d="m41.4 7.012a.5.5 0 0 1 -.316-.888l.51-.415a.5.5 0 0 1 .631.775l-.51.415a.5.5 0 0 1 -.315.113z" fill="#323c6b"/><path d="m43.508 5.293a.5.5 0 0 1 -.316-.888l4.25-3.46a.5.5 0 0 1 .629 0l1.9 1.531a.5.5 0 1 1 -.627.779l-1.585-1.278-3.936 3.2a.5.5 0 0 1 -.315.116z" fill="#323c6b"/></g></svg>