<svg height="512" viewBox="0 0 74 74" width="512" xmlns="http://www.w3.org/2000/svg"><g id="color_line" data-name="color line"><path d="m44.7 21.3v-.012a10.934 10.934 0 0 0 -10.1-12.795 51.883 51.883 0 0 0 -24.059 4.469 10.929 10.929 0 0 0 -4.926 15.513l.062.106a11.072 11.072 0 0 0 13.942 4.473 32.819 32.819 0 0 1 13.809-2.662 11.013 11.013 0 0 0 11.272-9.092z" fill="#985b3f"/><path d="m66.571 60.421.01-.005a9.872 9.872 0 0 0 3.962-14.175 46.846 46.846 0 0 0 -16.057-15.176 9.868 9.868 0 0 0 -13.939 4.656l-.044.1a10 10 0 0 0 4.152 12.551 29.633 29.633 0 0 1 9.287 8.659 9.943 9.943 0 0 0 12.629 3.39z" fill="#985b3f"/><path d="m44.7 21.3v-.012a10.934 10.934 0 0 0 -10.1-12.795 51.883 51.883 0 0 0 -24.059 4.469 10.929 10.929 0 0 0 -4.926 15.513l.062.106a11.072 11.072 0 0 0 13.942 4.473 32.819 32.819 0 0 1 13.809-2.662 11.013 11.013 0 0 0 11.272-9.092z" fill="#985b3f"/><path d="m66.571 60.421.01-.005a9.872 9.872 0 0 0 3.962-14.175 46.846 46.846 0 0 0 -16.057-15.176 9.868 9.868 0 0 0 -13.939 4.656l-.044.1a10 10 0 0 0 4.152 12.551 29.633 29.633 0 0 1 9.287 8.659 9.943 9.943 0 0 0 12.629 3.39z" fill="#985b3f"/><path d="m44.7 21.3v-.012a10.934 10.934 0 0 0 -10.1-12.795 51.883 51.883 0 0 0 -24.059 4.469 10.929 10.929 0 0 0 -4.926 15.513l.062.106a11.072 11.072 0 0 0 13.942 4.473 32.819 32.819 0 0 1 13.809-2.662 11.013 11.013 0 0 0 11.272-9.092z" fill="#b98c6c"/><path d="m66.571 60.421.01-.005a9.872 9.872 0 0 0 3.962-14.175 46.846 46.846 0 0 0 -16.057-15.176 9.868 9.868 0 0 0 -13.939 4.656l-.044.1a10 10 0 0 0 4.152 12.551 29.633 29.633 0 0 1 9.287 8.659 9.943 9.943 0 0 0 12.629 3.39z" fill="#b98c6c"/><path d="m14.715 43.4h-.007a7.731 7.731 0 0 0 -1.66 11.406 36.685 36.685 0 0 0 13.988 10.185 7.727 7.727 0 0 0 10.364-5.009l.024-.083a7.829 7.829 0 0 0 -4.479-9.334 23.205 23.205 0 0 1 -8.079-5.8 7.787 7.787 0 0 0 -10.151-1.365z" fill="#b98c6c"/><path d="m44.7 21.29v.01a10.832 10.832 0 0 1 -3.13 5.96 10.787 10.787 0 0 0 1.29-3.58v-.02a10.93 10.93 0 0 0 -10.1-12.79 51.779 51.779 0 0 0 -24.06 4.47 10.578 10.578 0 0 0 -3.13 2.11 10.634 10.634 0 0 1 4.97-4.49 52.034 52.034 0 0 1 24.06-4.47 10.939 10.939 0 0 1 10.1 12.8z" fill="#9b715b"/><path d="m22.323 26.769a8.383 8.383 0 0 1 3.258-1.324 8.213 8.213 0 0 1 3.518.018 16.07 16.07 0 0 1 -3.328.964 15.955 15.955 0 0 1 -3.448.342z" fill="#323c6b"/><path d="m66.579 60.42h-.01a9.649 9.649 0 0 1 -4.21 1.01 9.169 9.169 0 0 0 1.27-.52h.01a9.877 9.877 0 0 0 3.97-14.18 46.826 46.826 0 0 0 -16.06-15.17 9.631 9.631 0 0 0 -4.96-1.31 9.647 9.647 0 0 1 7.9.82 46.707 46.707 0 0 1 16.05 15.17 9.867 9.867 0 0 1 -3.96 14.18z" fill="#9b715b"/><path d="m50.679 47a7.059 7.059 0 0 1 2.732 1.638 6.921 6.921 0 0 1 1.825 2.611 14.691 14.691 0 0 1 -4.557-4.249z" fill="#323c6b"/><path d="m37.419 59.9-.02.08a7.727 7.727 0 0 1 -10.36 5.01 36.69 36.69 0 0 1 -13.99-10.18 7.546 7.546 0 0 1 -1.72-6.04 7.491 7.491 0 0 0 1.72 3.82 36.689 36.689 0 0 0 13.99 10.18 7.727 7.727 0 0 0 10.361-5.01l.02-.08a6.435 6.435 0 0 0 .22-1.04 7.55 7.55 0 0 1 -.221 3.26z" fill="#9b715b"/><path d="m28.014 53.047a4.68 4.68 0 0 1 -2.349-.911 4.6 4.6 0 0 1 -1.615-1.936 7.272 7.272 0 0 1 2.2 1.121 7.273 7.273 0 0 1 1.764 1.726z" fill="#323c6b"/><path d="m2.021 28.292a.5.5 0 0 1 -.469-.328l-.093-.246c-.073-.189-.146-.379-.2-.572a.5.5 0 0 1 .957-.291c.052.17.116.337.181.5l.1.261a.5.5 0 0 1 -.469.672z" fill="#323c6b"/><path d="m1.238 25.208a.5.5 0 0 1 -.5-.436 14.359 14.359 0 0 1 2.262-9.824.5.5 0 0 1 .834.552 13.354 13.354 0 0 0 -2.1 9.145.5.5 0 0 1 -.432.56.585.585 0 0 1 -.064.003z" fill="#323c6b"/><path d="m65.421 35.989a.5.5 0 0 1 -.342-.135 50.6 50.6 0 0 0 -6.521-5.187.5.5 0 1 1 .555-.832 51.623 51.623 0 0 1 6.651 5.29.5.5 0 0 1 -.342.865z" fill="#323c6b"/><path d="m67.922 38.531a.5.5 0 0 1 -.367-.161l-.227-.251c-.1-.114-.2-.227-.309-.337a.5.5 0 0 1 .725-.689c.112.118.22.238.329.359l.217.24a.5.5 0 0 1 -.367.839z" fill="#323c6b"/><g fill="none"><path d="m44.7 21.3v-.012a10.934 10.934 0 0 0 -10.1-12.795 51.883 51.883 0 0 0 -24.059 4.469 10.929 10.929 0 0 0 -4.926 15.513l.062.106a11.072 11.072 0 0 0 13.942 4.473 32.819 32.819 0 0 1 13.809-2.662 11.013 11.013 0 0 0 11.272-9.092z"/><path d="m66.571 60.421.01-.005a9.872 9.872 0 0 0 3.962-14.175 46.846 46.846 0 0 0 -16.057-15.176 9.868 9.868 0 0 0 -13.939 4.656l-.044.1a10 10 0 0 0 4.152 12.551 29.633 29.633 0 0 1 9.287 8.659 9.943 9.943 0 0 0 12.629 3.39z"/><path d="m44.7 21.3v-.012a10.934 10.934 0 0 0 -10.1-12.795 51.883 51.883 0 0 0 -24.059 4.469 10.929 10.929 0 0 0 -4.926 15.513l.062.106a11.072 11.072 0 0 0 13.942 4.473 32.819 32.819 0 0 1 13.809-2.662 11.013 11.013 0 0 0 11.272-9.092z"/><path d="m66.571 60.421.01-.005a9.872 9.872 0 0 0 3.962-14.175 46.846 46.846 0 0 0 -16.057-15.176 9.868 9.868 0 0 0 -13.939 4.656l-.044.1a10 10 0 0 0 4.152 12.551 29.633 29.633 0 0 1 9.287 8.659 9.943 9.943 0 0 0 12.629 3.39z"/><path d="m44.7 21.3v-.012a10.934 10.934 0 0 0 -10.1-12.795 51.883 51.883 0 0 0 -24.059 4.469 10.929 10.929 0 0 0 -4.926 15.513l.062.106a11.072 11.072 0 0 0 13.942 4.473 32.819 32.819 0 0 1 13.809-2.662 11.013 11.013 0 0 0 11.272-9.092z"/><path d="m66.571 60.421.01-.005a9.872 9.872 0 0 0 3.962-14.175 46.846 46.846 0 0 0 -16.057-15.176 9.868 9.868 0 0 0 -13.939 4.656l-.044.1a10 10 0 0 0 4.152 12.551 29.633 29.633 0 0 1 9.287 8.659 9.943 9.943 0 0 0 12.629 3.39z"/></g><path d="m15.105 34.475a11.337 11.337 0 0 1 -9.86-5.642l-.062-.106a11.534 11.534 0 0 1 -1.011-9.364 11.3 11.3 0 0 1 6.169-6.863 52.573 52.573 0 0 1 24.287-4.506 11.31 11.31 0 0 1 8.215 4.249 11.529 11.529 0 0 1 2.352 9.129l-.495-.072.493.084a11.465 11.465 0 0 1 -11.78 9.507 32.3 32.3 0 0 0 -13.6 2.623 12.162 12.162 0 0 1 -4.708.961zm16.678-25.558a51.8 51.8 0 0 0 -21.038 4.5 10.3 10.3 0 0 0 -5.622 6.251 10.532 10.532 0 0 0 .924 8.551l.062.106a10.513 10.513 0 0 0 13.316 4.264 33.522 33.522 0 0 1 14.018-2.7 10.438 10.438 0 0 0 10.764-8.669v-.008a10.532 10.532 0 0 0 -2.146-8.345 10.309 10.309 0 0 0 -7.487-3.875q-1.398-.075-2.791-.075z" fill="#323c6b"/><path d="m62.184 61.958a10.479 10.479 0 0 1 -8.654-4.643 29.271 29.271 0 0 0 -9.13-8.515 10.436 10.436 0 0 1 -4.352-13.179l.045-.1a10.462 10.462 0 0 1 6.323-5.745 10.25 10.25 0 0 1 8.324.857 47.573 47.573 0 0 1 16.223 15.336 10.263 10.263 0 0 1 1.275 8.293 10.457 10.457 0 0 1 -5.435 6.6h-.01a10.349 10.349 0 0 1 -4.609 1.096zm-12.561-31.7a9.307 9.307 0 0 0 -2.9.463 9.464 9.464 0 0 0 -5.723 5.2l-.045.1a9.446 9.446 0 0 0 3.954 11.922 30.254 30.254 0 0 1 9.441 8.805 9.392 9.392 0 0 0 11.995 3.223h.007.01a9.454 9.454 0 0 0 4.912-5.971 9.261 9.261 0 0 0 -1.15-7.484 46.576 46.576 0 0 0 -15.889-15.016 9.192 9.192 0 0 0 -4.612-1.238z" fill="#323c6b"/><path d="m29.967 66.08a8.067 8.067 0 0 1 -3.125-.627 37.359 37.359 0 0 1 -14.176-10.32 8.145 8.145 0 0 1 -1.844-6.4 8.3 8.3 0 0 1 3.609-5.747l.285.411-.277-.416a8.239 8.239 0 0 1 10.8 1.453 22.813 22.813 0 0 0 7.908 5.672 8.327 8.327 0 0 1 .338 15.176 8.175 8.175 0 0 1 -3.518.798zm-10.976-23.486a7.183 7.183 0 0 0 -4 1.221h-.007a7.3 7.3 0 0 0 -3.173 5.054 7.144 7.144 0 0 0 1.617 5.612 36.361 36.361 0 0 0 13.8 10.045 7.136 7.136 0 0 0 5.823-.149 7.327 7.327 0 0 0 -.312-13.358 23.82 23.82 0 0 1 -8.25-5.922 7.355 7.355 0 0 0 -5.498-2.503z" fill="#323c6b"/><path d="m46.471 46.082a.647.647 0 0 1 -.387-.128 7.858 7.858 0 0 1 -2.8-9.062.65.65 0 1 1 1.22.448 6.569 6.569 0 0 0 2.354 7.57.65.65 0 0 1 -.388 1.172z" fill="#fff"/><path d="m45.485 35.34a.65.65 0 0 1 -.57-.961 3.581 3.581 0 0 1 .874-.983.65.65 0 1 1 .807 1.02 2.309 2.309 0 0 0 -.54.586.649.649 0 0 1 -.571.338z" fill="#fff"/></g></svg>