<svg height="512" viewBox="0 0 74 74" width="512" xmlns="http://www.w3.org/2000/svg"><g id="color_line" data-name="color line"><path d="m21.289 26.847-2.645-.792-5.041 3.661-4.862-.674-1.477-1.332 1.32-1.889 2.671-1.837 3.066-.813-.088-2.087-2.734-.744-4.279-2.778-2.241-6.601.799-2.244 2.141-1.016 6.449 1.403 3.552 4.115 1.031 2.632 2.076-.118.501-3.143 1.553-2.847 1.733-1.497 1.477 1.331 1.172 4.768-3.111 5.381 1.198 2.395" fill="#6fc666"/><path d="m13.6 30.216a.466.466 0 0 1 -.069 0l-4.863-.674a.5.5 0 0 1 -.266-.124l-1.473-1.336a.5.5 0 0 1 -.075-.658l1.32-1.889a.506.506 0 0 1 .126-.125l2.671-1.838a.5.5 0 0 1 .155-.071l2.677-.709-.056-1.321-2.381-.647a.5.5 0 0 1 -.141-.063l-4.277-2.779a.5.5 0 0 1 -.2-.259l-2.241-6.6a.5.5 0 0 1 0-.328l.8-2.244a.5.5 0 0 1 .257-.284l2.136-1.017a.5.5 0 0 1 .321-.037l6.449 1.4a.5.5 0 0 1 .272.162l3.558 4.117a.5.5 0 0 1 .087.144l.9 2.3 1.313-.075.438-2.746a.493.493 0 0 1 .055-.161l1.549-2.854a.514.514 0 0 1 .112-.139l1.733-1.5a.5.5 0 0 1 .662.007l1.477 1.332a.5.5 0 0 1 .15.252l1.172 4.768a.5.5 0 0 1 -.053.37l-2.976 5.147 1.081 2.163a.5.5 0 1 1 -.895.447l-1.2-2.4a.5.5 0 0 1 .015-.474l3.01-5.207-1.088-4.42-1.035-.933-1.331 1.149-1.468 2.691-.487 3.059a.5.5 0 0 1 -.465.42l-2.076.118a.5.5 0 0 1 -.494-.316l-1-2.553-3.386-3.923-6.121-1.332-1.8.854-.671 1.885 2.129 6.272 4.068 2.641 2.659.723a.5.5 0 0 1 .368.461l.088 2.088a.5.5 0 0 1 -.372.5l-2.982.79-2.524 1.742-1.015 1.453 1.035.933 4.511.625 4.877-3.542a.506.506 0 0 1 .438-.074l2.645.792a.5.5 0 0 1 -.287.958l-2.408-.721-4.838 3.515a.5.5 0 0 1 -.3.095z" fill="#323c6b"/><path d="m14.917 6.654a.5.5 0 0 1 -.107-.011l-7.193-1.566-2.048.972a.5.5 0 1 1 -.429-.9l2.202-1.049a.5.5 0 0 1 .321-.037l7.36 1.6a.5.5 0 0 1 -.106.989z" fill="#323c6b"/><path d="m22.557 25.55-5.073-5.3a.935.935 0 0 1 1.2-1.4l6.219 4.514" fill="#65b54e"/><path d="m22.557 26.05a.5.5 0 0 1 -.357-.15l-5.073-5.3a1.435 1.435 0 0 1 1.824-2.172l6.249 4.534a.5.5 0 1 1 -.588.81l-6.219-4.514a.4.4 0 0 0 -.521.111.413.413 0 0 0 0 .563l5.05 5.273a.5.5 0 0 1 -.361.846z" fill="#323c6b"/><path d="m29.436 48.253c-12.458-11.232-11.125-18.241-6.088-23.828s11.872-7.635 24.329 3.6c12.659 11.414 28.842 34.216 23.805 39.8s-29.388-8.158-42.046-19.572z" fill="#e1e6e9"/><path d="m71.48 67.82c-5.03 5.59-29.39-8.15-42.04-19.57-7.56-6.81-10.04-12.07-9.69-16.4.89 3.64 3.7 7.89 9.39 13.02 12.66 11.42 37.01 25.16 42.05 19.57a3.788 3.788 0 0 0 .89-2.12c.58 2.41.45 4.33-.6 5.5z" fill="#d5d6db"/><g fill="#323c6b"><path d="m32.981 43.94a.493.493 0 0 1 -.168-.029.5.5 0 0 1 -.3-.639c.086-.243.881-2.354 2.271-2.354h.035a.5.5 0 0 1 .487.513.477.477 0 0 1 -.513.487c-.477-.011-1.126 1.094-1.34 1.69a.5.5 0 0 1 -.472.332z"/><path d="m39.541 33.836a.5.5 0 0 1 -.471-.668c.087-.244.872-2.351 2.307-2.354a.5.5 0 0 1 .487.513.49.49 0 0 1 -.513.487c-.524.026-1.127 1.094-1.34 1.69a.5.5 0 0 1 -.47.332z"/><path d="m43.244 49.527a.493.493 0 0 1 -.168-.029.5.5 0 0 1 -.3-.639c.087-.245.911-2.372 2.307-2.354a.5.5 0 0 1 .487.513.521.521 0 0 1 -.513.487c-.494 0-1.126 1.094-1.34 1.69a.5.5 0 0 1 -.473.332z"/><path d="m54.2 48.886a.493.493 0 0 1 -.168-.029.5.5 0 0 1 -.3-.639c.087-.245.94-2.373 2.307-2.354a.5.5 0 0 1 .487.513.529.529 0 0 1 -.513.487c-.515.037-1.126 1.094-1.34 1.69a.5.5 0 0 1 -.473.332z"/><path d="m59.886 60.867a.5.5 0 0 1 -.471-.668c.086-.242.882-2.354 2.272-2.354h.035a.5.5 0 0 1 .487.513.493.493 0 0 1 -.513.487c-.483.006-1.126 1.094-1.34 1.69a.5.5 0 0 1 -.47.332z"/><path d="m56.3 69.62a.5.5 0 0 1 -.2-.04 89.128 89.128 0 0 1 -9.24-4.661.5.5 0 0 1 .5-.867 88.081 88.081 0 0 0 9.14 4.608.5.5 0 0 1 -.2.96z"/><path d="m43.319 62.8-.678-.419a.5.5 0 0 1 .531-.848l.612.378-.2.462z"/><path d="m67.768 69.6c-4.413 0-10.653-2.719-14.675-4.738a118.192 118.192 0 0 1 -23.993-16.237c-10.774-9.715-12.662-17.282-6.123-24.535s14.261-6.154 25.036 3.56c11.695 10.55 29.397 34.35 23.841 40.51a5.288 5.288 0 0 1 -4.086 1.44zm-38-21.717a117.088 117.088 0 0 0 23.774 16.084c9.079 4.555 15.482 5.838 17.569 3.522 4.765-5.285-11.21-27.773-23.769-39.1-13.151-11.853-19.533-8.167-23.622-3.629s-7.1 11.265 6.051 23.122z"/></g><path d="m65.143 55.531a.649.649 0 0 1 -.556-.313q-.305-.5-.625-1.012a.65.65 0 1 1 1.1-.691q.325.517.635 1.029a.65.65 0 0 1 -.555.987z" fill="#fff"/><path d="m62.65 51.664a.649.649 0 0 1 -.537-.283c-1.571-2.3-3.944-5.553-5.518-7.57a.65.65 0 0 1 1.024-.8c1.589 2.036 3.982 5.319 5.567 7.637a.65.65 0 0 1 -.536 1.017z" fill="#fff"/></g></svg>