<svg height="512" viewBox="0 0 74 74" width="512" xmlns="http://www.w3.org/2000/svg"><g id="color_line" data-name="color line"><path d="m42.324 9.749a10.506 10.506 0 0 0 7.608-7.342 1.38 1.38 0 0 1 1.875-.873l2.106.932a1.371 1.371 0 0 1 .73 1.744 18.024 18.024 0 0 0 -.679 10.69" fill="#65b54e"/><path d="m53.965 15.4a.5.5 0 0 1 -.485-.379 18.493 18.493 0 0 1 .7-10.991.87.87 0 0 0 -.466-1.107l-2.114-.932a.847.847 0 0 0 -.707 0 .909.909 0 0 0 -.488.56 10.916 10.916 0 0 1 -8 7.687.5.5 0 0 1 -.178-.984 9.922 9.922 0 0 0 7.219-7 1.909 1.909 0 0 1 1.029-1.176 1.859 1.859 0 0 1 1.525-.008l2.106.932a1.869 1.869 0 0 1 1 2.381 17.472 17.472 0 0 0 -.66 10.39.5.5 0 0 1 -.365.606.511.511 0 0 1 -.116.021z" fill="#323c6b"/><path d="m54.879 18.219-11.363 23.6a41.778 41.778 0 0 1 -6.094 9.351l-15.154 17.574a1.932 1.932 0 0 1 -2.252.5 2.239 2.239 0 0 1 -.293-.16 1.934 1.934 0 0 1 -.683-2.409c.6-1.325 1.718-3.841 3.749-8.609a75.723 75.723 0 0 0 4.569-16.644 41.866 41.866 0 0 1 3.012-10.061l8.909-20.13a2.639 2.639 0 0 1 3.482-1.331c.539.245 1.094.5 1.579.729a2.022 2.022 0 0 1 .945 1.012 2.268 2.268 0 0 1 2.1-.138l1.888.836a2.241 2.241 0 0 1 1.306 1.674.358.358 0 0 1 .064-.02 2.586 2.586 0 0 1 1.687.141l1.24.549a2.637 2.637 0 0 1 1.309 3.536z" fill="#6fc666"/><path d="m54.879 18.219-11.363 23.6a41.778 41.778 0 0 1 -6.094 9.351l-15.154 17.574a1.932 1.932 0 0 1 -2.252.5 2.239 2.239 0 0 1 -.293-.16 1.934 1.934 0 0 1 -.683-2.409c.6-1.325 1.718-3.841 3.749-8.609a75.723 75.723 0 0 0 4.569-16.644 41.866 41.866 0 0 1 3.012-10.061l8.909-20.13a2.639 2.639 0 0 1 3.482-1.331c.539.245 1.094.5 1.579.729a2.022 2.022 0 0 1 .945 1.012 2.268 2.268 0 0 1 2.1-.138l1.888.836a2.241 2.241 0 0 1 1.306 1.674.358.358 0 0 1 .064-.02 2.586 2.586 0 0 1 1.687.141l1.24.549a2.637 2.637 0 0 1 1.309 3.536z" fill="#6fc666"/><path d="m54.88 18.216-11.36 23.6a41.914 41.914 0 0 1 -6.1 9.35l-15.15 17.58a1.928 1.928 0 0 1 -2.25.5 2.184 2.184 0 0 1 -.3-.16 1.935 1.935 0 0 1 -.85-1.64 1.947 1.947 0 0 0 1.52-.68l15.16-17.58a41.525 41.525 0 0 0 6.09-9.35l11.36-23.59a2.577 2.577 0 0 0 .18-1.74l.38.17a2.639 2.639 0 0 1 1.32 3.54z" fill="#65b54e"/><path d="m51.066 13.919a2.708 2.708 0 0 1 -.143 1.426c-.192.435-.364.728-.547 1.1l-1.082 2.115-2.165 4.232-4.329 8.464-8.655 16.924 8.2-17.14 4.1-8.568 2.055-4.284 1.025-2.142c.16-.343.367-.746.488-1.039a1.719 1.719 0 0 0 .066-.911.5.5 0 0 1 .981-.193z" fill="#5fa348"/><path d="m45.592 11.766-15.527 34.97 14.608-35.364a.5.5 0 1 1 .924.382z" fill="#5fa348"/><g fill="#323c6b"><path d="m28.344 66.791a.5.5 0 0 1 -.379-.827l.539-.625a.5.5 0 0 1 .758.653l-.539.625a.5.5 0 0 1 -.379.174z"/><path d="m20.806 72.916a5.42 5.42 0 0 1 -2.126-.439.5.5 0 0 1 .391-.921 4.444 4.444 0 0 0 5.09-1.178l2.026-2.351a.5.5 0 0 1 .758.653l-2.025 2.35a5.4 5.4 0 0 1 -4.114 1.886z"/><path d="m27.32 31.416a.494.494 0 0 1 -.193-.039.5.5 0 0 1 -.268-.654l.106-.269c.048-.122.095-.243.147-.363a.5.5 0 1 1 .916.4c-.047.107-.089.216-.131.325l-.117.293a.5.5 0 0 1 -.46.307z"/><path d="m28.479 28.729a.5.5 0 0 1 -.457-.7l4.032-9.112a.5.5 0 1 1 .914.4l-4.032 9.112a.5.5 0 0 1 -.457.3z"/><path d="m20.812 69.919a2.459 2.459 0 0 1 -1-.212 2.771 2.771 0 0 1 -.358-.2 2.432 2.432 0 0 1 -.871-3.039c.565-1.239 1.675-3.737 3.745-8.6a74.969 74.969 0 0 0 4.535-16.529 42.369 42.369 0 0 1 3.049-10.183l8.908-20.129a3.139 3.139 0 0 1 4.141-1.6c.548.249 1.1.5 1.592.735a2.376 2.376 0 0 1 .933.81 2.761 2.761 0 0 1 2.095.057l1.888.835a2.738 2.738 0 0 1 1.463 1.547 3.044 3.044 0 0 1 1.594.248l1.24.549a3.136 3.136 0 0 1 1.564 4.213l-11.363 23.6a42.284 42.284 0 0 1 -6.165 9.46l-15.156 17.59a2.409 2.409 0 0 1 -1.834.848zm20.882-59.75a2.158 2.158 0 0 0 -.772.144 2.119 2.119 0 0 0 -1.185 1.126l-8.909 20.129a41.407 41.407 0 0 0 -2.977 9.941 75.962 75.962 0 0 1 -4.6 16.757c-2.074 4.87-3.187 7.376-3.755 8.621a1.431 1.431 0 0 0 .504 1.787 1.706 1.706 0 0 0 .216.118 1.423 1.423 0 0 0 1.669-.374l15.158-17.578a41.267 41.267 0 0 0 6.02-9.24l11.365-23.6a2.137 2.137 0 0 0 -1.065-2.87l-1.24-.549a2.077 2.077 0 0 0 -1.363-.114.516.516 0 0 1 -.43-.034.5.5 0 0 1 -.249-.347 1.737 1.737 0 0 0 -1.015-1.3l-1.888-.835a1.779 1.779 0 0 0 -1.635.109.505.505 0 0 1 -.4.051.5.5 0 0 1 -.308-.268 1.514 1.514 0 0 0 -.71-.772c-.479-.23-1.03-.48-1.567-.724a2.127 2.127 0 0 0 -.865-.179z"/></g><path d="m30.265 44.707a.679.679 0 0 1 -.117-.01.65.65 0 0 1 -.523-.756q.12-.656.219-1.259a.65.65 0 0 1 1.283.214c-.068.408-.143.834-.223 1.277a.651.651 0 0 1 -.639.534z" fill="#fff"/><path d="m26.469 58.046a.651.651 0 0 1 -.607-.882 79.924 79.924 0 0 0 3.227-10.333.65.65 0 0 1 1.27.28 81.2 81.2 0 0 1 -3.281 10.516.65.65 0 0 1 -.609.419z" fill="#fff"/></g></svg>