<svg height="512" viewBox="0 0 74 74" width="512" xmlns="http://www.w3.org/2000/svg"><g id="color_line" data-name="color line"><path d="m43.879 66.348c9.434-.189 12-7.756 11.876-13.105-.426-5.344-2.825-9.05-6.944-11.325-6.463-3.252-5.75-10.314-5.505-12.727a9.322 9.322 0 0 0 -3.265 4.574l-3.041-10.406-3.041 10.405a9.322 9.322 0 0 0 -3.265-4.574c.245 2.413.958 9.474-5.505 12.727-4.119 2.276-6.518 5.981-6.944 11.325-.119 5.349 2.442 12.916 11.876 13.105 2.351 1.962 8.865 2.086 13.758.001z" fill="#e1e6e9"/><path d="m55.76 53.24c.09 4.59-1.78 10.82-8.27 12.6 4.49-2.5 5.85-7.63 5.77-11.57-.43-5.35-2.83-9.05-6.95-11.33-5.08-2.56-5.73-7.48-5.64-10.63a8.931 8.931 0 0 1 2.64-3.12c-.25 2.41-.96 9.48 5.5 12.73 4.12 2.27 6.52 5.98 6.95 11.32z" fill="#d5d6db"/><path d="m44.009 66.318c-2.412-4.69-11.556-4.469-14.018.056l.13-.025c2.351 1.961 8.865 2.085 13.758 0" fill="#cacbce"/><path d="m36.159 68.355c-2.558 0-4.85-.5-6.179-1.482a.5.5 0 0 1 -.429-.739c1.243-2.284 4.214-3.746 7.594-3.746h.137c3.27.038 6.018 1.455 7.171 3.7a.5.5 0 0 1 -.395.726 20.876 20.876 0 0 1 -7.899 1.541zm-5.449-2.191c2.21 1.484 7.868 1.744 12.562-.107a7.263 7.263 0 0 0 -6-2.667c-2.828-.041-5.34 1.042-6.562 2.774z" fill="#323c6b"/><path d="m31.867 70.587a.5.5 0 0 1 -.467-.687l.961-2.395a.5.5 0 1 1 .928.372l-.961 2.395a.5.5 0 0 1 -.461.315z" fill="#323c6b"/><path d="m42.133 70.587a.5.5 0 0 1 -.464-.314l-.961-2.395a.5.5 0 1 1 .928-.372l.964 2.394a.5.5 0 0 1 -.464.686z" fill="#323c6b"/><path d="m37 71.5a.5.5 0 0 1 -.5-.5v-3a.5.5 0 0 1 1 0v3a.5.5 0 0 1 -.5.5z" fill="#323c6b"/><path d="m35.645 27.994a66.825 66.825 0 0 1 2.76-24.994c.914 9.49 1.246 18.227-.114 24.776l-1.291-4.417z" fill="#6fc666"/><path d="m35.646 28.494a.377.377 0 0 1 -.047 0 .5.5 0 0 1 -.451-.449 67.138 67.138 0 0 1 2.777-25.185.5.5 0 0 1 .979.092c1.107 11.5 1.069 19.187-.123 24.926a.5.5 0 0 1 -.47.4h-.02a.5.5 0 0 1 -.479-.36l-.812-2.776-.875 2.993a.5.5 0 0 1 -.479.359zm1.354-5.635a.5.5 0 0 1 .479.36l.69 2.362c.72-4.893.714-11.175-.013-19.782a66.381 66.381 0 0 0 -2.209 19.375l.572-1.956a.5.5 0 0 1 .481-.359z" fill="#323c6b"/><path d="m34.27 32.7c-3.391-5.633-4.067-11.907-4.216-18.3 1.854 5.91 3.924 11.016 5.591 13.6z" fill="#6fc666"/><path d="m34.271 33.2a.5.5 0 0 1 -.429-.242c-3.526-5.858-4.142-12.377-4.287-18.551a.5.5 0 0 1 .419-.5.5.5 0 0 1 .559.343c1.874 5.975 3.943 11.014 5.533 13.478a.5.5 0 0 1 .06.411l-1.376 4.701a.5.5 0 0 1 -.415.356.571.571 0 0 1 -.064.004zm-3.563-15.223a32.551 32.551 0 0 0 3.413 13.451l.981-3.356a54.66 54.66 0 0 1 -4.394-10.095z" fill="#323c6b"/><path d="m39.73 32.7c3.391-5.633 4.067-11.907 4.216-18.3a61.208 61.208 0 0 1 -5.655 13.381z" fill="#6fc666"/><g fill="#323c6b"><path d="m39.729 33.2a.571.571 0 0 1 -.064 0 .5.5 0 0 1 -.415-.356l-1.438-4.923a.5.5 0 0 1 .06-.411 60.846 60.846 0 0 0 5.6-13.26.5.5 0 0 1 .978.162c-.144 6.174-.762 12.695-4.287 18.55a.5.5 0 0 1 -.434.238zm-.895-5.346 1.044 3.573a32.591 32.591 0 0 0 3.416-13.5 54.151 54.151 0 0 1 -4.459 9.927z"/><path d="m27.017 47.629a13.728 13.728 0 0 0 -.559 5.707 8.6 8.6 0 0 0 .8 2.683 16.486 16.486 0 0 0 1.517 2.508 6.951 6.951 0 0 1 -2.2-2.126 7.273 7.273 0 0 1 -.729-1.393 8.524 8.524 0 0 1 -.378-1.533 7.887 7.887 0 0 1 .2-3.109 7.287 7.287 0 0 1 1.349-2.737z"/><path d="m46.983 47.629a7.287 7.287 0 0 1 1.352 2.736 7.89 7.89 0 0 1 .2 3.109 8.529 8.529 0 0 1 -.379 1.533 7.273 7.273 0 0 1 -.729 1.393 6.951 6.951 0 0 1 -2.2 2.126 16.487 16.487 0 0 0 1.517-2.508 8.6 8.6 0 0 0 .8-2.683 13.73 13.73 0 0 0 -.561-5.706z"/><path d="m36.754 42.5a38.182 38.182 0 0 1 .5 6.542 37.756 37.756 0 0 1 -.5 6.542 37.744 37.744 0 0 1 -.5-6.542 38.194 38.194 0 0 1 .5-6.542z"/><path d="m55.121 64.875a.5.5 0 0 1 -.384-.821 16.017 16.017 0 0 0 3.463-9.091.5.5 0 0 1 1 .074 17.015 17.015 0 0 1 -3.7 9.663.5.5 0 0 1 -.379.175z"/><path d="m17.289 46.25a.5.5 0 0 1 -.441-.735l.151-.3c.1-.206.208-.412.327-.606a.5.5 0 1 1 .852.524c-.1.17-.194.35-.284.53l-.163.318a.5.5 0 0 1 -.442.269z"/><path d="m19.313 43.318a.5.5 0 0 1 -.374-.832 17.1 17.1 0 0 1 4.561-3.632l.112-.059a6.188 6.188 0 0 0 2.821-2.714.5.5 0 0 1 .887.464 7.252 7.252 0 0 1 -3.251 3.14l-.095.05a16.105 16.105 0 0 0 -4.283 3.416.5.5 0 0 1 -.378.167z"/><path d="m58.7 53.077a.5.5 0 0 1 -.5-.438c-.022-.183-.05-.363-.078-.543l-.022-.146a.5.5 0 0 1 .42-.569.506.506 0 0 1 .568.42l.022.144c.028.189.058.378.081.571a.5.5 0 0 1 -.435.558.448.448 0 0 1 -.056.003z"/></g><path d="m24.938 62.244a.649.649 0 0 1 -.466-.2 11.277 11.277 0 0 1 -3.306-8.286.63.63 0 0 1 .677-.622.65.65 0 0 1 .622.677 9.97 9.97 0 0 0 2.935 7.327.65.65 0 0 1 -.466 1.1z" fill="#fff"/><path d="m21.817 52.005a.592.592 0 0 1 -.083-.005.649.649 0 0 1 -.562-.727c.03-.24.117-.821.153-1.057a.65.65 0 0 1 1.285.193c-.034.23-.119.795-.149 1.029a.65.65 0 0 1 -.644.567z" fill="#fff"/><path d="m36.159 68.355c-2.583 0-4.895-.5-6.218-1.512a12 12 0 0 1 -8.663-3.5c-3.315-3.458-3.575-8.225-3.533-10.114.43-5.4 2.853-9.349 7.2-11.751 6.178-3.109 5.5-9.742 5.251-12.238a.5.5 0 0 1 .8-.452 9.472 9.472 0 0 1 2.882 3.479l2.646-9.051a.519.519 0 0 1 .959 0l2.646 9.051a9.472 9.472 0 0 1 2.882-3.479.5.5 0 0 1 .8.452c-.253 2.5-.927 9.129 5.233 12.229 4.366 2.412 6.789 6.356 7.217 11.732.044 1.917-.216 6.684-3.531 10.143a12.03 12.03 0 0 1 -8.736 3.5 20.913 20.913 0 0 1 -7.835 1.511zm-4.859-37.989c.205 3.115-.021 9.046-5.886 12-4.077 2.253-6.264 5.827-6.67 10.918-.037 1.736.2 6.183 3.257 9.372a11.107 11.107 0 0 0 8.131 3.194.5.5 0 0 1 .311.116c2.041 1.7 8.271 2.042 13.241-.076a.511.511 0 0 1 .187-.04 11.107 11.107 0 0 0 8.129-3.196c3.056-3.188 3.294-7.636 3.255-9.4-.4-5.062-2.591-8.637-6.686-10.9-5.849-2.943-6.069-8.873-5.869-11.988a9.125 9.125 0 0 0 -2.188 3.563.543.543 0 0 1 -.484.335.5.5 0 0 1 -.467-.36l-2.561-8.762-2.562 8.758a.5.5 0 0 1 -.467.36.517.517 0 0 1 -.484-.335 9.125 9.125 0 0 0 -2.187-3.559z" fill="#323c6b"/></g></svg>