<svg height="512" viewBox="0 0 74 74" width="512" xmlns="http://www.w3.org/2000/svg"><g id="color_line" data-name="color line"><path d="m51.119 9.643a29.96 29.96 0 0 0 5.275-5.669 1.863 1.863 0 0 1 2.182-.708l1.283.471a1.847 1.847 0 0 1 1.1 2.4c-.951 2.348-1.618 6.365-1.053 7.6" fill="#65b54e"/><path d="m59.909 14.239a.5.5 0 0 1 -.455-.292c-.7-1.529.166-5.824 1.045-7.995a1.275 1.275 0 0 0 -.021-1 1.394 1.394 0 0 0 -.791-.741l-1.287-.475a1.367 1.367 0 0 0 -1.6.521 30.209 30.209 0 0 1 -5.366 5.77.5.5 0 1 1 -.641-.768 29.213 29.213 0 0 0 5.183-5.568 2.367 2.367 0 0 1 2.773-.891l1.282.471a2.4 2.4 0 0 1 1.36 1.274 2.274 2.274 0 0 1 .035 1.786c-.957 2.361-1.522 6.2-1.062 7.2a.5.5 0 0 1 -.455.708z" fill="#323c6b"/><path d="m59.541 13.128c-1.73-2.93-5.714-4.063-9.116-3.37-12.532 2.23-19.764 25.042-31.043 41.203a38.944 38.944 0 0 1 -4.643 5.59c-2.242 2.194-3.553 4.994-2.811 8.163a8.5 8.5 0 0 0 7.505 6.216c3.829.388 7.6-.923 11.171-2.311 2.833-1.1 9.521-5.594 13.551-9.276a47.972 47.972 0 0 0 6.522-7.6 77.986 77.986 0 0 0 5.227-8.5c2.389-4.444 3.954-6.982 5.015-11.889 1.468-6.954 1.734-13.369-1.378-18.226z" fill="#6fc666"/><path d="m60.92 31.36c-1.06 4.91-2.63 7.45-5.01 11.89a78.74 78.74 0 0 1 -5.23 8.5 48.654 48.654 0 0 1 -6.52 7.59c-4.03 3.69-10.72 8.18-13.55 9.28-3.58 1.39-7.35 2.7-11.18 2.31a8.613 8.613 0 0 1 -7.19-5.24 8.9 8.9 0 0 0 5.44 2.58c3.83.39 7.6-.92 11.18-2.31 2.83-1.1 9.52-5.6 13.55-9.28a48.651 48.651 0 0 0 6.52-7.59 78.734 78.734 0 0 0 5.23-8.5c2.38-4.45 3.95-6.98 5.01-11.89 1.33-6.31 1.67-12.16-.59-16.81a6.139 6.139 0 0 1 .96 1.24c3.11 4.85 2.85 11.27 1.38 18.23z" fill="#65b54e"/><path d="m45.871 17.654c-1.471 3.673-2.935 7.346-4.724 10.895a103.6 103.6 0 0 1 -5.962 10.3c-1.1 1.638-2.286 3.277-3.438 4.826-1.115 1.649-2.26 3.268-3.488 4.823-2.43 3.128-4.959 6.173-7.635 9.09l3.528-4.766c1.181-1.582 2.352-3.171 3.49-4.782s2.284-3.212 3.344-4.864c1.18-1.641 2.285-3.223 3.368-4.88 2.214-3.254 4.216-6.646 6.115-10.1.952-1.726 1.865-3.469 2.72-5.252.895-1.764 1.759-3.544 2.682-5.29z" fill="#5fa348"/><path d="m52.581 18c-.579 1.952-1.129 3.915-1.755 5.858-.645 1.936-1.343 3.857-2.121 5.749a51.549 51.549 0 0 1 -5.912 10.771c-2.488 3.235-4.881 6.557-7.672 9.544q-2.063 2.261-4.184 4.462c-1.439 1.445-2.868 2.9-4.351 4.3 2.651-3.1 5.347-6.146 7.955-9.263 1.279-1.58 2.623-3.1 3.822-4.739l3.626-4.893a55.288 55.288 0 0 0 6.011-10.489c1.715-3.674 3.073-7.51 4.581-11.3z" fill="#5fa348"/><path d="m57 23.375a62.122 62.122 0 0 1 -3.527 12.76 49.328 49.328 0 0 1 -6.707 11.471 52.975 52.975 0 0 1 -4.473 4.935 57.7 57.7 0 0 1 -4.95 4.426c-1.736 1.37-3.512 2.68-5.305 3.963l-5.454 3.737c3.4-2.8 6.937-5.438 10.269-8.293.826-.72 1.647-1.445 2.447-2.184.781-.748 1.587-1.523 2.353-2.3a52.724 52.724 0 0 0 4.327-4.905 52 52 0 0 0 6.79-11.153 56.165 56.165 0 0 0 2.347-6.132c.707-2.08 1.293-4.2 1.883-6.325z" fill="#5fa348"/><g fill="#323c6b"><path d="m43.076 64.667a.5.5 0 0 1 -.309-.893c1.175-.924 2.209-1.793 3.075-2.583a44.485 44.485 0 0 0 5.019-5.511.5.5 0 1 1 .787.616 45.428 45.428 0 0 1 -5.132 5.633c-.884.807-1.937 1.693-3.132 2.631a.494.494 0 0 1 -.308.107z"/><path d="m40.5 66.888a.5.5 0 0 1 -.281-.914l.455-.309a.5.5 0 1 1 .566.824l-.459.312a.5.5 0 0 1 -.281.087z"/><path d="m31.72 24.353a.5.5 0 0 1 -.429-.757l.312-.52a.5.5 0 1 1 .857.514l-.312.52a.5.5 0 0 1 -.428.243z"/><path d="m33.494 21.458a.5.5 0 0 1 -.421-.77 53.3 53.3 0 0 1 6.146-8.1.5.5 0 0 1 .725.69 52.219 52.219 0 0 0 -6.029 7.944.5.5 0 0 1 -.421.236z"/><path d="m20.817 71.5a14.31 14.31 0 0 1 -1.435-.071 9.018 9.018 0 0 1 -7.941-6.6c-.716-3.061.3-6.046 2.948-8.634a38.276 38.276 0 0 0 4.582-5.519 179.8 179.8 0 0 0 9.774-16.459c6.58-12.026 12.795-23.385 21.59-24.951 3.324-.679 7.7.343 9.631 3.6 2.788 4.358 3.233 10.1 1.442 18.6-.964 4.461-2.378 7.068-4.335 10.675l-.729 1.348a78.086 78.086 0 0 1 -5.261 8.552 48.121 48.121 0 0 1 -6.592 7.675c-3.888 3.553-10.678 8.2-13.707 9.373-3.17 1.23-6.531 2.411-9.967 2.411zm31.563-61.435a9.359 9.359 0 0 0 -1.856.182c-8.335 1.484-14.438 12.639-20.9 24.449a180.226 180.226 0 0 1 -9.831 16.552 39.224 39.224 0 0 1 -4.7 5.661c-1.661 1.625-3.473 4.278-2.673 7.692a8 8 0 0 0 7.068 5.833c3.714.377 7.44-.92 10.94-2.28 2.64-1.026 9.2-5.349 13.395-9.179a47.207 47.207 0 0 0 6.453-7.519 77.092 77.092 0 0 0 5.192-8.443l.73-1.351c1.988-3.666 3.3-6.088 4.236-10.407 1.73-8.229 1.326-13.737-1.314-17.855l-.01-.015c-1.355-2.299-4.139-3.32-6.73-3.32z"/></g><path d="m15.768 62.316a.649.649 0 0 1 -.581-.939 10.231 10.231 0 0 1 .813-1.356.65.65 0 1 1 1.061.751 8.957 8.957 0 0 0 -.711 1.183.651.651 0 0 1 -.582.361z" fill="#fff"/><path d="m18.472 58.874a.65.65 0 0 1 -.466-1.1 39.372 39.372 0 0 0 4.044-4.976c.915-1.311 1.833-2.708 2.808-4.273a.65.65 0 1 1 1.1.688c-.986 1.584-1.917 3-2.845 4.329a40.627 40.627 0 0 1 -4.179 5.139.648.648 0 0 1 -.462.193z" fill="#fff"/></g></svg>