<?xml version="1.0"?>
<svg xmlns="http://www.w3.org/2000/svg" viewBox="0 0 74 74" width="512" height="512"><g id="color_line" data-name="color line"><path d="M28.565,29.968A4.482,4.482,0,0,1,27.376,32.4a1.99,1.99,0,0,1-.122-.178c-1.151-1.769-2.424-3.649-4.361-4.548a15.777,15.777,0,0,0,1.759,5.175c.29.636.58,1.273.852,1.918a9.443,9.443,0,0,1-6.316-.15,1.246,1.246,0,0,1-.8-.655c-.15-.468.262-.945.271-1.441.019-1.02-1.525-1.507-1.563-2.526-.028-.7.674-1.179.992-1.806A2.916,2.916,0,0,0,18,25.916a10.65,10.65,0,0,1-.786-2.2,1.912,1.912,0,0,1,.861-2.012,2.047,2.047,0,0,1,1.768.187c.533.29,1.011.7,1.563.973a20.085,20.085,0,0,0,3.266.814,1.6,1.6,0,0,1,.281.084,1.78,1.78,0,0,1,1.114.87,5.621,5.621,0,0,1,.15,1.263c.178,1.216,1.45,2.031,2.04,3.069A2,2,0,0,1,28.565,29.968Z" fill="#6fc666"/><path d="M22.567,35.745a9.946,9.946,0,0,1-3.558-.659,1.426,1.426,0,0,1-.978-2.115,1.61,1.61,0,0,0,.124-.457c.005-.28-.232-.53-.624-.911a2.393,2.393,0,0,1-.938-1.588,2.268,2.268,0,0,1,.664-1.5,3.478,3.478,0,0,0,.382-.546,2.41,2.41,0,0,0-.107-1.873c-.076-.2-.164-.4-.251-.6a6.743,6.743,0,0,1-.561-1.7,2.418,2.418,0,0,1,1.144-2.537,2.506,2.506,0,0,1,2.209.2c.266.145.511.311.756.478a6.659,6.659,0,0,0,.8.492,6.772,6.772,0,0,0,1.839.494,12.012,12.012,0,0,1,1.347.289,1.784,1.784,0,0,1,.324.1,2.2,2.2,0,0,1,1.387,1.134,2.686,2.686,0,0,1,.157.968,3.325,3.325,0,0,0,.028.419,3.612,3.612,0,0,0,1.054,1.7,7.287,7.287,0,0,1,.927,1.2,2.468,2.468,0,0,1,.374,1.235v0a3.822,3.822,0,0,1-.982,2.311c-.1.136-.2.273-.292.413a.5.5,0,0,1-.8.04,1.717,1.717,0,0,1-.127-.18,13.69,13.69,0,0,0-3.317-3.914,19.053,19.053,0,0,0,1.48,3.845l.078.165c.294.646.586,1.287.86,1.937a.5.5,0,0,1-.3.668A9.751,9.751,0,0,1,22.567,35.745ZM18.693,22.075a.952.952,0,0,0-.407.083,1.443,1.443,0,0,0-.577,1.493,5.9,5.9,0,0,0,.488,1.44c.093.214.186.429.269.646a3.338,3.338,0,0,1,.066,2.674,4.256,4.256,0,0,1-.492.719,1.5,1.5,0,0,0-.449.845c.011.3.314.6.635.909a2.283,2.283,0,0,1,.928,1.647,2.368,2.368,0,0,1-.186.784,1,1,0,0,0-.11.5c.036.107.208.224.51.341a9.017,9.017,0,0,0,5.455.3c-.2-.467-.415-.93-.626-1.393l-.075-.16A15.605,15.605,0,0,1,22.4,27.719a.5.5,0,0,1,.708-.5,11.123,11.123,0,0,1,4.287,4.3,2.674,2.674,0,0,0,.673-1.539,1.491,1.491,0,0,0-.236-.753,6.447,6.447,0,0,0-.812-1.042,4.383,4.383,0,0,1-1.3-2.213,4.415,4.415,0,0,1-.04-.539,1.887,1.887,0,0,0-.079-.609,1.3,1.3,0,0,0-.814-.586,1.219,1.219,0,0,0-.214-.065,11.366,11.366,0,0,0-1.28-.274,7.626,7.626,0,0,1-2.109-.582,7.512,7.512,0,0,1-.919-.562c-.218-.148-.434-.3-.662-.421A2.122,2.122,0,0,0,18.693,22.075Z" fill="#323c6b"/><path d="M35.349,20.864l-.29,6.251a7.115,7.115,0,0,1-.636.664c-.028-.14-.066-.29-.1-.43-.814-2.91-3.163-5.118-5.427-7.149a23.85,23.85,0,0,1,2.031,9.1l-.234.009a8.357,8.357,0,0,0-2.433-.346c-.59-1.039-1.862-1.853-2.04-3.069a5.621,5.621,0,0,0-.15-1.263,1.78,1.78,0,0,0-1.114-.87,1.6,1.6,0,0,0-.281-.084,2.12,2.12,0,0,0-.271-.374c-.328-.356-.786-.608-1.011-1.039a2.031,2.031,0,0,1,.028-1.619c.468-1.319,1.46-2.424,1.769-3.79.159-.683.14-1.4.271-2.087a2.325,2.325,0,0,1,1.114-1.7,2.161,2.161,0,0,1,2.4.692,4.734,4.734,0,0,1,.58.786.881.881,0,0,0-.159.29,1.442,1.442,0,0,0,.477,1.469,3.388,3.388,0,0,0,1.16.655,2.488,2.488,0,0,0,1.282.8,6.036,6.036,0,0,0,1.095.075h.009a1.8,1.8,0,0,1,1.216.346,1.28,1.28,0,0,1,.393.664C35.208,19.479,35.124,20.274,35.349,20.864Z" fill="#6fc666"/><path d="M30.689,29.813a.5.5,0,0,1-.186-.036,5.66,5.66,0,0,0-1.754-.277c-.178-.01-.356-.021-.533-.035a.5.5,0,0,1-.4-.252,6.435,6.435,0,0,0-.8-1.03,4.383,4.383,0,0,1-1.3-2.213,4.415,4.415,0,0,1-.04-.539,1.887,1.887,0,0,0-.079-.609,1.3,1.3,0,0,0-.814-.586,1.219,1.219,0,0,0-.214-.065.5.5,0,0,1-.337-.244,1.63,1.63,0,0,0-.206-.285,3.951,3.951,0,0,0-.345-.315,2.823,2.823,0,0,1-.74-.829,2.467,2.467,0,0,1,0-2.018,10.877,10.877,0,0,1,.849-1.726,7.519,7.519,0,0,0,.9-2.006,7.717,7.717,0,0,0,.144-1.066c.03-.338.061-.675.124-1a2.778,2.778,0,0,1,1.386-2.059,2.66,2.66,0,0,1,2.983.8,5.194,5.194,0,0,1,.64.866.5.5,0,0,1-.056.591.412.412,0,0,0-.062.126.97.97,0,0,0,.343.93,2.96,2.96,0,0,0,1,.557.5.5,0,0,1,.194.133,1.978,1.978,0,0,0,1.02.651,4.2,4.2,0,0,0,.787.06l.212,0a2.267,2.267,0,0,1,1.544.472,1.759,1.759,0,0,1,.545.913,5.162,5.162,0,0,1,.158,1.034,3.648,3.648,0,0,0,.153.925.506.506,0,0,1,.032.2l-.29,6.251a.5.5,0,0,1-.117.3,7.566,7.566,0,0,1-.681.712.5.5,0,0,1-.828-.27c-.026-.13-.061-.27-.1-.4a12.44,12.44,0,0,0-3.688-5.436,24.317,24.317,0,0,1,1.274,7.25.5.5,0,0,1-.48.512l-.234.009Zm-2.143-1.327.26.016A8.437,8.437,0,0,1,30.4,28.7,23.152,23.152,0,0,0,28.435,20.4a.5.5,0,0,1,.791-.575c2.277,2.042,4.4,4.1,5.358,6.717l.26-5.607a4.859,4.859,0,0,1-.178-1.092,4.45,4.45,0,0,0-.125-.85.8.8,0,0,0-.241-.429,1.359,1.359,0,0,0-.9-.225l-.215,0a5.011,5.011,0,0,1-.985-.082,2.9,2.9,0,0,1-1.464-.868,3.715,3.715,0,0,1-1.215-.716,1.941,1.941,0,0,1-.607-2c.013-.035.028-.075.045-.116A3.887,3.887,0,0,0,28.6,14.1a1.689,1.689,0,0,0-1.813-.581,1.9,1.9,0,0,0-.838,1.351c-.056.291-.082.6-.109.9a8.638,8.638,0,0,1-.166,1.2,8.368,8.368,0,0,1-1.007,2.277,10,10,0,0,0-.777,1.567,1.549,1.549,0,0,0-.057,1.218,2.022,2.022,0,0,0,.5.532,4.862,4.862,0,0,1,.435.4,2.6,2.6,0,0,1,.221.28c.049.016.1.034.148.053a2.2,2.2,0,0,1,1.387,1.134,2.686,2.686,0,0,1,.157.968,3.325,3.325,0,0,0,.028.419,3.612,3.612,0,0,0,1.054,1.7A9,9,0,0,1,28.546,28.486Z" fill="#323c6b"/><path d="M50.6,22.267c-.225.43-.674.683-1.011,1.039a2.121,2.121,0,0,0-.271.374,1.6,1.6,0,0,0-.281.084,1.738,1.738,0,0,0-1.1.87,4.719,4.719,0,0,0-.15,1.263c-.178,1.216-1.46,2.031-2.04,3.069a8.421,8.421,0,0,0-2.442.346l-.234-.009A23.985,23.985,0,0,1,45.1,20.2c-2.265,2.031-4.6,4.239-5.427,7.149-.037.14-.075.281-.1.43a10.567,10.567,0,0,1-1.806-2.264c-.178-1.273-.327-2.555-.384-3.724a3.241,3.241,0,0,0,.88-.393c.7-.543.468-1.694.711-2.545a1.418,1.418,0,0,1,.393-.664,1.84,1.84,0,0,1,1.226-.346H40.6a6.036,6.036,0,0,0,1.095-.075,2.47,2.47,0,0,0,1.291-.814,3.482,3.482,0,0,0,1.151-.646,1.442,1.442,0,0,0,.477-1.469,1.091,1.091,0,0,0-.159-.29,5.269,5.269,0,0,1,.571-.786,2.179,2.179,0,0,1,2.4-.692,2.288,2.288,0,0,1,1.1,1.7c.131.683.112,1.4.271,2.087.318,1.366,1.3,2.47,1.778,3.79A2.03,2.03,0,0,1,50.6,22.267Z" fill="#6fc666"/><path d="M43.3,29.813h-.02l-.234-.009a.5.5,0,0,1-.48-.511,24.712,24.712,0,0,1,1.281-7.253,12.7,12.7,0,0,0-3.7,5.445c-.032.121-.067.249-.092.386a.5.5,0,0,1-.835.271,11.049,11.049,0,0,1-1.892-2.372.5.5,0,0,1-.065-.187c-.215-1.538-.338-2.735-.388-3.77a.5.5,0,0,1,.324-.492l.207-.074A1.994,1.994,0,0,0,37.952,21c.293-.227.334-.708.382-1.265a5.419,5.419,0,0,1,.155-1.023,1.918,1.918,0,0,1,.539-.9,2.308,2.308,0,0,1,1.551-.476l.219,0a4.2,4.2,0,0,0,.79-.06,1.969,1.969,0,0,0,1.027-.661.5.5,0,0,1,.194-.132,3.068,3.068,0,0,0,.99-.547A.969.969,0,0,0,44.14,15a.569.569,0,0,0-.08-.145.5.5,0,0,1-.035-.566,5.71,5.71,0,0,1,.625-.86,2.687,2.687,0,0,1,3-.812,2.732,2.732,0,0,1,1.38,2.062,10.09,10.09,0,0,1,.124,1,7.765,7.765,0,0,0,.143,1.063,7.739,7.739,0,0,0,.912,2.016,11.278,11.278,0,0,1,.85,1.717,2.465,2.465,0,0,1-.008,2.021,2.878,2.878,0,0,1-.75.841,4.279,4.279,0,0,0-.341.31,1.62,1.62,0,0,0-.2.278.5.5,0,0,1-.337.244,1.1,1.1,0,0,0-.193.058,1.284,1.284,0,0,0-.828.6,1.772,1.772,0,0,0-.084.633,4.771,4.771,0,0,1-.031.5,4.362,4.362,0,0,1-1.292,2.21,6.315,6.315,0,0,0-.807,1.037.5.5,0,0,1-.4.255c-.177.014-.356.024-.536.035a5.691,5.691,0,0,0-1.76.277A.5.5,0,0,1,43.3,29.813ZM45.1,19.7a.5.5,0,0,1,.457.7A23.621,23.621,0,0,0,43.591,28.7a8.473,8.473,0,0,1,1.6-.194l.262-.015a8.635,8.635,0,0,1,.789-.977,3.6,3.6,0,0,0,1.049-1.684,3.7,3.7,0,0,0,.021-.389,2.6,2.6,0,0,1,.163-1,2.174,2.174,0,0,1,1.4-1.146c.04-.016.082-.031.127-.045a2.546,2.546,0,0,1,.22-.278,5.115,5.115,0,0,1,.426-.391,2.036,2.036,0,0,0,.511-.542v0a1.535,1.535,0,0,0-.047-1.217,10.33,10.33,0,0,0-.778-1.561,8.6,8.6,0,0,1-1.016-2.284,8.638,8.638,0,0,1-.166-1.2,9.055,9.055,0,0,0-.11-.9,1.9,1.9,0,0,0-.831-1.348,1.71,1.71,0,0,0-1.821.583,4.413,4.413,0,0,0-.352.457c.016.036.031.072.044.109a1.946,1.946,0,0,1-.611,2.009,3.8,3.8,0,0,1-1.2.7,2.865,2.865,0,0,1-1.472.877,4.983,4.983,0,0,1-.985.083l-.2,0a1.416,1.416,0,0,0-.922.225.929.929,0,0,0-.24.428,4.679,4.679,0,0,0-.118.83,2.551,2.551,0,0,1-.766,1.969,2.382,2.382,0,0,1-.666.343c.057.9.167,1.93.344,3.208A10.151,10.151,0,0,0,39.318,26.8c.926-2.754,3.1-4.873,5.447-6.974A.5.5,0,0,1,45.1,19.7Zm4.22,3.981h0Z" fill="#323c6b"/><path d="M56.908,30c-.037,1.02-1.591,1.507-1.563,2.526.009.5.421.973.262,1.441a1.251,1.251,0,0,1-.8.655,9.474,9.474,0,0,1-6.307.159c.262-.646.543-1.291.833-1.928A15.562,15.562,0,0,0,51.1,27.676c-1.937.9-3.2,2.779-4.351,4.548a2,2,0,0,1-.122.178,4.328,4.328,0,0,1-1.188-2.433,2,2,0,0,1,.309-1c.58-1.039,1.862-1.853,2.04-3.069a4.719,4.719,0,0,1,.15-1.263,1.738,1.738,0,0,1,1.1-.87,1.6,1.6,0,0,1,.281-.084,20.44,20.44,0,0,0,3.275-.814c.552-.271,1.02-.683,1.563-.973a2.03,2.03,0,0,1,1.759-.187,1.883,1.883,0,0,1,.861,2.012,10.617,10.617,0,0,1-.777,2.2,2.878,2.878,0,0,0-.094,2.274C56.225,28.817,56.927,29.294,56.908,30Z" fill="#6fc666"/><path d="M51.424,35.745a9.8,9.8,0,0,1-3.076-.493.5.5,0,0,1-.307-.663c.265-.652.548-1.3.841-1.947a19.453,19.453,0,0,0,1.56-4.011A13.717,13.717,0,0,0,47.165,32.5a2.2,2.2,0,0,1-.157.225.5.5,0,0,1-.793-.034c-.087-.124-.177-.247-.267-.369a3.874,3.874,0,0,1-1.012-2.365,2.483,2.483,0,0,1,.381-1.245,7.089,7.089,0,0,1,.924-1.2,3.6,3.6,0,0,0,1.049-1.684,3.7,3.7,0,0,0,.021-.389,2.6,2.6,0,0,1,.163-1,2.174,2.174,0,0,1,1.4-1.146,1.992,1.992,0,0,1,.348-.1,11.505,11.505,0,0,1,1.306-.278,6.877,6.877,0,0,0,1.847-.495,6.472,6.472,0,0,0,.774-.479,8.522,8.522,0,0,1,.771-.486,2.5,2.5,0,0,1,2.209-.2,2.383,2.383,0,0,1,1.141,2.535,6.909,6.909,0,0,1-.562,1.721c-.083.194-.167.389-.242.586a2.367,2.367,0,0,0-.112,1.873,3.5,3.5,0,0,0,.383.544,2.3,2.3,0,0,1,.67,1.5v0a2.388,2.388,0,0,1-.939,1.587c-.393.379-.63.63-.623.908a1.59,1.59,0,0,0,.122.457,1.687,1.687,0,0,1,.114,1.159A1.72,1.72,0,0,1,55,35.083,9.99,9.99,0,0,1,51.424,35.745Zm-2.245-1.289a8.929,8.929,0,0,0,5.454-.3c.292-.117.463-.234.5-.346a.972.972,0,0,0-.106-.5,2.378,2.378,0,0,1-.182-.776,2.26,2.26,0,0,1,.927-1.649c.321-.31.624-.6.636-.9a1.535,1.535,0,0,0-.453-.844,4.213,4.213,0,0,1-.494-.719,3.291,3.291,0,0,1,.072-2.679c.08-.209.168-.415.257-.621a6.078,6.078,0,0,0,.492-1.471,1.412,1.412,0,0,0-.576-1.485,1.614,1.614,0,0,0-1.32.177,7.486,7.486,0,0,0-.672.426,7.337,7.337,0,0,1-.9.552A7.748,7.748,0,0,1,50.7,23.9a11.063,11.063,0,0,0-1.238.263,1.433,1.433,0,0,0-.238.069,1.284,1.284,0,0,0-.828.6,1.772,1.772,0,0,0-.084.633,4.771,4.771,0,0,1-.031.5,4.362,4.362,0,0,1-1.292,2.21,6.315,6.315,0,0,0-.807,1.037,1.513,1.513,0,0,0-.245.771,2.649,2.649,0,0,0,.669,1.542,11.15,11.15,0,0,1,4.281-4.3.5.5,0,0,1,.708.5,15.807,15.807,0,0,1-1.787,5.3C49.586,33.511,49.377,33.985,49.179,34.456ZM56.908,30h0Z" fill="#323c6b"/><path d="M25.538,34.847c-.778-.027-1.107.393-2.709.395.208.839-.134.938-.652,1.631a8.629,8.629,0,0,1-.881.814,2.225,2.225,0,0,0,1.165,3.754c.727.138,1.52-.085,2.2.218,1.13.508,1.214,2.07,1.926,3.084a4.432,4.432,0,0,0,1.234,1.215A27.013,27.013,0,0,0,25.538,34.847Z" fill="#6fc666"/><path d="M27.815,46.458a.5.5,0,0,1-.277-.084,4.894,4.894,0,0,1-1.365-1.343,6.464,6.464,0,0,1-.667-1.358c-.281-.708-.523-1.319-1.055-1.558a2.686,2.686,0,0,0-1.076-.125,4.926,4.926,0,0,1-1.008-.058,2.726,2.726,0,0,1-1.426-4.6,5.091,5.091,0,0,1,.4-.351,2.56,2.56,0,0,0,.435-.41c.12-.161.231-.292.33-.408.306-.359.338-.4.237-.8a.5.5,0,0,1,.485-.62,5.533,5.533,0,0,0,1.694-.235,3.017,3.017,0,0,1,1.033-.16.5.5,0,0,1,.437.291,27.305,27.305,0,0,1,2.323,11.314.5.5,0,0,1-.5.505Zm-4.227-5.47a3.039,3.039,0,0,1,1.272.215,3.4,3.4,0,0,1,1.575,2.1,5.68,5.68,0,0,0,.556,1.152c.1.139.195.265.294.381a25.805,25.805,0,0,0-2.062-9.471,3.941,3.941,0,0,0-.433.1,6.4,6.4,0,0,1-1.4.253,1.646,1.646,0,0,1-.521,1.09c-.086.1-.185.216-.291.358a3.386,3.386,0,0,1-.6.587,4.088,4.088,0,0,0-.322.28,1.725,1.725,0,0,0,.9,2.911,4.183,4.183,0,0,0,.81.04Z" fill="#323c6b"/><path d="M48.453,34.847c.778-.027,1.107.393,2.709.395-.208.839.134.938.652,1.631a8.629,8.629,0,0,0,.881.814,2.225,2.225,0,0,1-1.165,3.754c-.727.138-1.52-.085-2.2.218-1.13.508-1.214,2.07-1.926,3.084a4.432,4.432,0,0,1-1.234,1.215A27.013,27.013,0,0,1,48.453,34.847Z" fill="#6fc666"/><path d="M46.176,46.458a.5.5,0,0,1-.5-.505A27.305,27.305,0,0,1,48,34.638a.5.5,0,0,1,.437-.291,2.987,2.987,0,0,1,1.033.16,5.532,5.532,0,0,0,1.694.235.5.5,0,0,1,.485.62c-.1.407-.069.444.237.8.1.116.21.247.33.408a2.558,2.558,0,0,0,.435.409,5.012,5.012,0,0,1,.4.352,2.725,2.725,0,0,1-1.427,4.6,4.957,4.957,0,0,1-1.008.058,2.671,2.671,0,0,0-1.075.125c-.532.239-.775.85-1.056,1.558a6.462,6.462,0,0,1-.667,1.358,4.894,4.894,0,0,1-1.365,1.343A.5.5,0,0,1,46.176,46.458Zm2.592-11.092a25.805,25.805,0,0,0-2.062,9.471c.1-.116.2-.242.294-.381a5.68,5.68,0,0,0,.556-1.152,3.4,3.4,0,0,1,1.575-2.1,3.455,3.455,0,0,1,1.5-.213,4.11,4.11,0,0,0,.809-.04,1.725,1.725,0,0,0,.9-2.91,3.835,3.835,0,0,0-.322-.281,3.4,3.4,0,0,1-.6-.586c-.106-.142-.2-.257-.291-.358a1.646,1.646,0,0,1-.521-1.09,6.393,6.393,0,0,1-1.4-.253A3.941,3.941,0,0,0,48.768,35.366Z" fill="#323c6b"/><path d="M44.135,16.307a3.482,3.482,0,0,1-1.151.646,2.47,2.47,0,0,1-1.291.814,6.036,6.036,0,0,1-1.095.075h-.009a1.84,1.84,0,0,0-1.226.346,1.418,1.418,0,0,0-.393.664c-.243.852-.009,2-.711,2.545a3.241,3.241,0,0,1-.88.393c-.019-.234-.028-.458-.037-.674-.019-.683-.066-1.357-.131-2a41.558,41.558,0,0,0-1.432-7.551l-.346,7.551-.084,1.75c-.225-.59-.14-1.385-.327-2.012a1.28,1.28,0,0,0-.393-.664,1.8,1.8,0,0,0-1.216-.346H33.4a6.036,6.036,0,0,1-1.095-.075,2.488,2.488,0,0,1-1.282-.8,3.388,3.388,0,0,1-1.16-.655,1.442,1.442,0,0,1-.477-1.469.881.881,0,0,1,.159-.29c.552-.8,2.059-.8,2.564-1.7.421-.758-.075-1.759.253-2.564a3.254,3.254,0,0,1,.926-1.067,6.384,6.384,0,0,0,1.881-3.49,7.6,7.6,0,0,1,.384-1.787,1.591,1.591,0,0,1,2.882,0,6.768,6.768,0,0,1,.384,1.787,6.338,6.338,0,0,0,1.89,3.49,3.225,3.225,0,0,1,.917,1.067c.337.8-.168,1.806.253,2.564.505.908,2.012.908,2.573,1.7a1.091,1.091,0,0,1,.159.29A1.442,1.442,0,0,1,44.135,16.307Z" fill="#6fc666"/><path d="M37.379,22.29a.5.5,0,0,1-.5-.459c-.019-.231-.028-.453-.038-.667-.019-.667-.062-1.328-.13-2a40.436,40.436,0,0,0-.6-4.066l-.27,5.79a.5.5,0,0,1-.967.154,4.4,4.4,0,0,1-.214-1.2,4.45,4.45,0,0,0-.125-.85.8.8,0,0,0-.241-.429,1.359,1.359,0,0,0-.9-.225l-.215,0a5.011,5.011,0,0,1-.985-.082,2.9,2.9,0,0,1-1.464-.868,3.715,3.715,0,0,1-1.215-.716,1.941,1.941,0,0,1-.607-2,1.373,1.373,0,0,1,.259-.46,3.005,3.005,0,0,1,1.4-.9,2.171,2.171,0,0,0,1.1-.708,1.967,1.967,0,0,0,.095-1.057,3.173,3.173,0,0,1,.132-1.452,3.078,3.078,0,0,1,.9-1.107l.154-.139a5.875,5.875,0,0,0,1.727-3.209c.032-.17.055-.337.079-.5a4.918,4.918,0,0,1,.343-1.4,2.086,2.086,0,0,1,3.792,0,4.772,4.772,0,0,1,.354,1.454c.02.152.041.3.066.453A5.843,5.843,0,0,0,41.054,8.85l.134.121a3.133,3.133,0,0,1,.9,1.122,3.11,3.11,0,0,1,.134,1.461,1.955,1.955,0,0,0,.092,1.048,2.178,2.178,0,0,0,1.1.709,3.065,3.065,0,0,1,1.442.949,1.492,1.492,0,0,1,.221.409,1.947,1.947,0,0,1-.61,2.008h0a3.805,3.805,0,0,1-1.2.7,2.865,2.865,0,0,1-1.472.877,4.983,4.983,0,0,1-.985.083l-.2,0a1.416,1.416,0,0,0-.922.225.929.929,0,0,0-.24.428,4.679,4.679,0,0,0-.118.83,2.551,2.551,0,0,1-.766,1.969,2.78,2.78,0,0,1-.826.4l-.184.066A.51.51,0,0,1,37.379,22.29Zm-1.6-11.228a.5.5,0,0,1,.477.353,41.647,41.647,0,0,1,1.452,7.653c.069.682.113,1.358.132,2.006A.849.849,0,0,0,37.952,21c.293-.227.334-.708.382-1.265a5.419,5.419,0,0,1,.155-1.023,1.921,1.921,0,0,1,.539-.9,2.308,2.308,0,0,1,1.551-.476l.219,0a4.2,4.2,0,0,0,.79-.06,1.971,1.971,0,0,0,1.027-.661.5.5,0,0,1,.194-.132,3.068,3.068,0,0,0,.99-.547h0A.969.969,0,0,0,44.14,15a.569.569,0,0,0-.08-.145,2.349,2.349,0,0,0-1.023-.622,2.938,2.938,0,0,1-1.593-1.146,2.763,2.763,0,0,1-.215-1.605,2.322,2.322,0,0,0-.062-1.009,2.322,2.322,0,0,0-.646-.758l-.147-.133A6.857,6.857,0,0,1,38.328,5.81c-.028-.164-.05-.328-.072-.493a3.977,3.977,0,0,0-.271-1.167c-.166-.367-.547-.716-.89-.641a.526.526,0,0,1-.2,0c-.338-.074-.717.271-.888.638a4.115,4.115,0,0,0-.261,1.124c-.025.183-.051.365-.085.544a6.888,6.888,0,0,1-2.027,3.761l-.172.155a2.288,2.288,0,0,0-.636.737,2.37,2.37,0,0,0-.061,1.007,2.789,2.789,0,0,1-.219,1.613,2.933,2.933,0,0,1-1.589,1.146,2.339,2.339,0,0,0-1,.6.5.5,0,0,0-.1.174.97.97,0,0,0,.343.93,2.96,2.96,0,0,0,1,.557.5.5,0,0,1,.194.133,1.978,1.978,0,0,0,1.02.651,4.2,4.2,0,0,0,.787.06l.212,0a2.267,2.267,0,0,1,1.544.472l.031.028.289-6.3a.5.5,0,0,1,.437-.473A.554.554,0,0,1,35.78,11.063Z" fill="#323c6b"/><path d="M51.1,27.676a15.562,15.562,0,0,1-1.759,5.175c-.29.636-.571,1.282-.833,1.928a27.532,27.532,0,0,0-1.918,6.241c-.215,1.329-.271,2.676-.356,4Q45.8,52.468,45.4,59.9a64.1,64.1,0,0,1-.926,7.8A4.066,4.066,0,0,1,40.458,71H33.533A4.118,4.118,0,0,1,29.5,67.613a62.337,62.337,0,0,1-.9-7.71q-.407-7.439-.842-14.888a38.631,38.631,0,0,0-.356-4,28.043,28.043,0,0,0-1.9-6.251c-.271-.646-.561-1.282-.852-1.918a15.777,15.777,0,0,1-1.759-5.175c1.937.9,3.21,2.779,4.361,4.548a1.99,1.99,0,0,0,.122.178c.767,1.179,1.535,2.339,2.3,3.537.112.178.215.356.328.543a23.523,23.523,0,0,0,.917-7.177,23.85,23.85,0,0,0-2.031-9.1c2.264,2.031,4.613,4.239,5.427,7.149.037.14.075.29.1.43.449,1.974.206,4.042.328,6.064l.309-6.728.29-6.251.084-1.75.346-7.551a41.558,41.558,0,0,1,1.432,7.551c.066.646.112,1.319.131,2,.009.215.019.44.037.674.056,1.17.206,2.452.384,3.724.6,4.136,1.6,8.178,1.6,8.178l.028.112a17.447,17.447,0,0,1,.178-6.026c.028-.15.066-.29.1-.43.823-2.91,3.163-5.118,5.427-7.149a23.985,23.985,0,0,0-2.031,9.1,23.73,23.73,0,0,0,.917,7.158v.019c.122-.187.215-.365.337-.543.758-1.2,1.525-2.358,2.3-3.537a2,2,0,0,0,.122-.178C47.9,30.455,49.16,28.574,51.1,27.676Z" fill="#e1e6e9"/><path d="M51.1,27.68a15.768,15.768,0,0,1-1.76,5.17c-.29.64-.57,1.28-.83,1.93a26.828,26.828,0,0,0-1.92,6.24c-.22,1.33-.27,2.68-.36,3.99Q45.8,52.465,45.4,59.9a64,64,0,0,1-.93,7.81A4.067,4.067,0,0,1,40.46,71H33.53a4.123,4.123,0,0,1-4-3.24,3.9,3.9,0,0,0,1.57.32h6.92a4.068,4.068,0,0,0,4.02-3.29,65.6,65.6,0,0,0,.92-7.8q.4-7.44.83-14.89c.09-1.32.15-2.67.36-4a21.376,21.376,0,0,1,.74-3.04c.57-.89,1.15-1.77,1.73-2.66a2.026,2.026,0,0,0,.13-.18C47.9,30.45,49.16,28.57,51.1,27.68Z" fill="#d5d6db"/><path d="M39.93,60.571a.541.541,0,0,1-.074-.005A.5.5,0,0,1,39.435,60c1.483-10-.168-24.454-.531-26.064a.5.5,0,1,1,.976-.22c.369,1.636,2.047,16.3.545,26.431A.5.5,0,0,1,39.93,60.571Z" fill="#323c6b"/><path d="M35.124,60.571a.5.5,0,0,1-.5-.443c-.543-4.7-.771-9.5-.993-14.144a47.357,47.357,0,0,1,.057-7.935c.111-.928.283-1.863.45-2.767l.06-.324.048-1.131a.492.492,0,0,1,.523-.476.5.5,0,0,1,.476.523l-.124,1.59c-.164.889-.334,1.807-.44,2.7a46.3,46.3,0,0,0-.053,7.729c.222,4.665.45,9.448.989,14.116a.5.5,0,0,1-.439.554A.456.456,0,0,1,35.124,60.571Z" fill="#323c6b"/><path d="M31.243,52.883a.65.65,0,0,1-.649-.625c-.007-.171-.01-.369-.013-.542l-.006-.28a.651.651,0,0,1,.629-.67.667.667,0,0,1,.67.629l.006.3c0,.163.006.352.012.514a.65.65,0,0,1-.625.674Z" fill="#fff"/><path d="M31.9,64.206a.651.651,0,0,1-.648-.6c-.185-2.525-.383-5.836-.518-8.64a.65.65,0,0,1,.618-.681.642.642,0,0,1,.681.618c.134,2.794.331,6.092.516,8.608a.65.65,0,0,1-.6.7Z" fill="#fff"/><path d="M29.922,9a.5.5,0,0,1-.424-.764,5.772,5.772,0,0,1,.751-.958.5.5,0,1,1,.719.7,4.74,4.74,0,0,0-.62.792A.5.5,0,0,1,29.922,9Z" fill="#323c6b"/><path d="M32.282,5.285a.484.484,0,0,1-.07,0,.5.5,0,0,1-.426-.564,7.627,7.627,0,0,1,.586-2.237A4.991,4.991,0,0,1,36.805-.5l.213,0,.167,0A4.746,4.746,0,0,1,40.61,1.009a.5.5,0,1,1-.72.694,3.755,3.755,0,0,0-2.7-1.2l-.167,0-.213,0A3.989,3.989,0,0,0,33.28,2.9a6.784,6.784,0,0,0-.5,1.956A.5.5,0,0,1,32.282,5.285Z" fill="#323c6b"/><path d="M48.992,49.893h-.029a.5.5,0,0,1-.471-.527l.022-.4.5-.052.5.027-.026.477A.5.5,0,0,1,48.992,49.893Z" fill="#323c6b"/><path d="M48.376,61h-.028a.5.5,0,0,1-.472-.526c.063-1.16.138-2.789.212-4.428.078-1.716.157-3.444.225-4.658a.486.486,0,0,1,.527-.471.5.5,0,0,1,.471.527c-.067,1.211-.146,2.935-.224,4.647-.075,1.643-.149,3.275-.213,4.438A.5.5,0,0,1,48.376,61Z" fill="#323c6b"/><path d="M40.458,71.5H33.533a4.623,4.623,0,0,1-4.524-3.8,62.267,62.267,0,0,1-.906-7.773q-.407-7.441-.842-14.887l-.015-.267a35.509,35.509,0,0,0-.335-3.678,27.2,27.2,0,0,0-1.867-6.138c-.269-.64-.557-1.272-.845-1.9l-.075-.16A15.605,15.605,0,0,1,22.4,27.719a.5.5,0,0,1,.708-.5c2.137.991,3.485,3.063,4.569,4.728.013.016.111.162.122.178l.784,1.2c.413.631.826,1.262,1.239,1.9a22.974,22.974,0,0,0,.6-5.914A23.2,23.2,0,0,0,28.435,20.4a.5.5,0,0,1,.791-.575c2.277,2.042,4.4,4.1,5.358,6.717l.7-15a.5.5,0,0,1,.977-.125,41.647,41.647,0,0,1,1.452,7.653c.07.691.115,1.377.133,2.035.009.22.018.429.036.647.049,1.02.169,2.189.38,3.7.174,1.2.383,2.4.592,3.493a12.758,12.758,0,0,1,.232-1.274c.025-.139.065-.292.106-.445.837-2.961,3.116-5.186,5.576-7.392a.5.5,0,0,1,.791.574,23.612,23.612,0,0,0-1.988,8.914,23.314,23.314,0,0,0,.61,5.917c.59-.923,1.192-1.837,1.8-2.76L46.294,32c1.119-1.719,2.47-3.795,4.593-4.779a.5.5,0,0,1,.708.5,15.807,15.807,0,0,1-1.787,5.3c-.3.664-.581,1.3-.84,1.942A26.792,26.792,0,0,0,47.08,41.1c-.177,1.1-.246,2.23-.312,3.327l-.038.619q-.425,7.262-.812,14.511l-.021.373a64.183,64.183,0,0,1-.934,7.868A4.562,4.562,0,0,1,40.458,71.5ZM23.548,28.628a19.053,19.053,0,0,0,1.48,3.845l.078.165c.294.646.586,1.287.86,1.937A28.183,28.183,0,0,1,27.9,40.938a36.21,36.21,0,0,1,.347,3.783l.015.265q.435,7.453.842,14.889a61.365,61.365,0,0,0,.891,7.647A3.622,3.622,0,0,0,33.533,70.5h6.924a3.562,3.562,0,0,0,3.523-2.885,63.176,63.176,0,0,0,.919-7.743l.02-.37q.4-7.254.813-14.517l.038-.618c.068-1.121.138-2.281.323-3.428a27.713,27.713,0,0,1,1.951-6.356c.262-.646.545-1.3.838-1.94a19.453,19.453,0,0,0,1.56-4.011A13.717,13.717,0,0,0,47.165,32.5a2.2,2.2,0,0,1-.157.225l-.194.3c-.7,1.058-1.387,2.1-2.069,3.183-.071.1-.125.2-.179.287s-.1.173-.161.262a.5.5,0,0,1-.915-.205,24.188,24.188,0,0,1-.921-7.256,24.712,24.712,0,0,1,1.281-7.253,12.7,12.7,0,0,0-3.7,5.445c-.032.121-.067.249-.092.386a16.852,16.852,0,0,0-.173,5.874.5.5,0,0,1-.981.182l-.027-.107c-.012-.046-1.015-4.119-1.611-8.232-.215-1.54-.338-2.738-.388-3.772-.018-.214-.027-.437-.037-.65-.019-.667-.062-1.328-.13-2a40.436,40.436,0,0,0-.6-4.066L35.25,33.865a.5.5,0,0,1-.5.477h0a.5.5,0,0,1-.5-.47c-.043-.709-.042-1.423-.04-2.137a17.109,17.109,0,0,0-.276-3.846c-.029-.143-.064-.282-.1-.412a12.44,12.44,0,0,0-3.688-5.436,24.317,24.317,0,0,1,1.274,7.25,23.948,23.948,0,0,1-.937,7.329.5.5,0,0,1-.909.118l-.1-.167c-.074-.124-.146-.245-.222-.366-.5-.786-1.008-1.558-1.513-2.33l-.785-1.2a.993.993,0,0,1-.092-.132A13.69,13.69,0,0,0,23.548,28.628Z" fill="#323c6b"/></g></svg>
