<svg height="512" viewBox="0 0 74 74" width="512" xmlns="http://www.w3.org/2000/svg"><g id="color_line" data-name="color line"><path d="m2.451 37.657a1.99 1.99 0 0 0 .944 1.973 39.576 39.576 0 0 1 3.905 3.347c1.555 1.26 3.745 1.264 5.746 1.208 2.84-.08 4.854 3.519 7.21 5.108a25.094 25.094 0 0 0 6.726 2.946 29.193 29.193 0 0 0 7.112 1.444 29.973 29.973 0 0 0 11.84-2.521 19.987 19.987 0 0 0 7.794-6 11.582 11.582 0 0 1 .948-1.055 13.826 13.826 0 0 1 5.819-3.037 10.435 10.435 0 0 0 4.288-1.9 12.848 12.848 0 0 1 .977-.93 5.977 5.977 0 0 1 2.849-.879 2.111 2.111 0 0 0 1.402-3.361c-.3-.411-.59-.836-.9-1.232a16.348 16.348 0 0 0 -2.771-2.724 27.607 27.607 0 0 0 -16.758-6.606c-1.845-2.005-10.41-3.686-15.729-.9-5.053-.568-8.214.623-12.6 3.2-2.974 1.746-5.526 4.114-8.284 6.185a24.128 24.128 0 0 1 -8.947 4.058 1.988 1.988 0 0 0 -1.576 1.675z" fill="#e7aa6c"/><g opacity=".4"><path d="m68.61 37.36a6.126 6.126 0 0 0 -2.85.88c-.36.27-.65.63-.98.93a10.429 10.429 0 0 1 -4.29 1.9 13.821 13.821 0 0 0 -5.81 3.04 11.984 11.984 0 0 0 -.95 1.06 19.942 19.942 0 0 1 -7.8 5.99 29.828 29.828 0 0 1 -11.84 2.52 29.44 29.44 0 0 1 -7.11-1.44 24.632 24.632 0 0 1 -6.72-2.95c-2.36-1.59-4.37-5.18-7.21-5.1-2 .05-4.19.05-5.75-1.21a38.457 38.457 0 0 0 -3.91-3.35 1.993 1.993 0 0 1 -.94-1.97 2.167 2.167 0 0 1 .17-.58c1.11.86 2.16 2.02 3.1 2.77 1.55 1.26 3.74 1.27 5.74 1.21 2.84-.08 4.86 3.52 7.21 5.11a25.461 25.461 0 0 0 6.73 2.95 29.442 29.442 0 0 0 7.11 1.44 29.9 29.9 0 0 0 11.84-2.52 19.935 19.935 0 0 0 7.79-6 11.837 11.837 0 0 1 .95-1.05 13.857 13.857 0 0 1 5.82-3.04 10.429 10.429 0 0 0 4.29-1.9 12.269 12.269 0 0 1 .98-.93 5.87 5.87 0 0 1 2.85-.88 2.079 2.079 0 0 0 1.8-1.82c.1.11.2.23.29.35.3.4.59.82.89 1.23a2.109 2.109 0 0 1 -1.4 3.36z" fill="#d09865"/></g><g fill="#d09865"><path d="m31.123 29.4h-.023a.5.5 0 0 1 -.477-.522c.212-4.778 2.837-6.668 2.949-6.747a.5.5 0 0 1 .575.818c-.1.069-2.336 1.718-2.525 5.974a.5.5 0 0 1 -.499.477z"/><path d="m47.184 31.772a.5.5 0 0 1 -.5-.442 9.752 9.752 0 0 1 2.564-8.261.5.5 0 0 1 .671.741 8.769 8.769 0 0 0 -2.242 7.4.5.5 0 0 1 -.438.555.483.483 0 0 1 -.055.007z"/><path d="m18.566 48.344a.5.5 0 0 1 -.474-.344 13.72 13.72 0 0 1 .277-8.279.5.5 0 0 1 .936.354 12.93 12.93 0 0 0 -.265 7.608.5.5 0 0 1 -.474.658z"/><path d="m32.94 54.09a.5.5 0 0 1 -.4-.193c-2.925-3.768-1.956-8.84-1.913-9.054a.5.5 0 0 1 .98.195c-.009.048-.918 4.845 1.722 8.246a.5.5 0 0 1 -.395.807z"/><path d="m47.105 51.121a.5.5 0 0 1 -.333-.127 7.285 7.285 0 0 1 -2.083-6.788.5.5 0 0 1 .973.229 6.275 6.275 0 0 0 1.774 5.813.5.5 0 0 1 -.333.873z"/><path d="m22.5 35.192a.5.5 0 0 1 -.5-.442.54.54 0 0 0 -.154-.38.365.365 0 0 0 -.237-.03.5.5 0 1 1 -.274-.962 1.361 1.361 0 0 1 1.065.16 1.435 1.435 0 0 1 .593 1.1.5.5 0 0 1 -.438.555.472.472 0 0 1 -.055-.001z"/><path d="m39.09 42.413a.5.5 0 0 1 -.5-.442.54.54 0 0 0 -.154-.38.365.365 0 0 0 -.237-.03.5.5 0 0 1 -.274-.962 1.366 1.366 0 0 1 1.065.16 1.435 1.435 0 0 1 .593 1.1.5.5 0 0 1 -.438.555.472.472 0 0 1 -.055-.001z"/><path d="m40.179 32.667a.5.5 0 0 1 -.5-.441.539.539 0 0 0 -.155-.38.368.368 0 0 0 -.237-.03.5.5 0 0 1 -.274-.962 1.361 1.361 0 0 1 1.065.16 1.437 1.437 0 0 1 .594 1.1.5.5 0 0 1 -.438.555.485.485 0 0 1 -.055-.002z"/><path d="m55.876 35.622a.5.5 0 0 1 -.5-.441.539.539 0 0 0 -.155-.38.365.365 0 0 0 -.237-.03.5.5 0 1 1 -.274-.962 1.361 1.361 0 0 1 1.065.16 1.437 1.437 0 0 1 .594 1.1.5.5 0 0 1 -.438.555.485.485 0 0 1 -.055-.002z"/></g><path d="m57.96 45.87a.5.5 0 0 1 -.262-.926 14.688 14.688 0 0 1 3.506-1.473l.463-.135a11.419 11.419 0 0 0 4.811-2.326.5.5 0 0 1 .679.734 12.239 12.239 0 0 1 -5.21 2.552l-.46.134a13.726 13.726 0 0 0 -3.266 1.37.5.5 0 0 1 -.261.07z" fill="#323c6b"/><path d="m55.76 47.9a.5.5 0 0 1 -.383-.821l.238-.276a.5.5 0 1 1 .775.631l-.246.287a.5.5 0 0 1 -.384.179z" fill="#323c6b"/><path d="m14.949 27.047a.5.5 0 0 1 -.31-.893l.679-.538a.5.5 0 0 1 .614.789l-.674.534a.5.5 0 0 1 -.309.108z" fill="#323c6b"/><path d="m18.327 24.547a.5.5 0 0 1 -.278-.916c.469-.313.944-.62 1.438-.909a25.475 25.475 0 0 1 8.37-3.465.5.5 0 1 1 .188.982 24.568 24.568 0 0 0 -8.051 3.345c-.477.28-.937.577-1.39.879a.5.5 0 0 1 -.277.084z" fill="#323c6b"/><path d="m34.793 54.2q-.371 0-.724-.017a29.859 29.859 0 0 1 -7.235-1.466 25.492 25.492 0 0 1 -6.858-3.01 16.872 16.872 0 0 1 -2.427-2.179c-1.4-1.42-2.831-2.883-4.489-2.844-2.265.063-4.433.011-6.075-1.319-.439-.356-.892-.786-1.372-1.242a16.069 16.069 0 0 0 -2.48-2.068 2.494 2.494 0 0 1 -1.178-2.468 2.5 2.5 0 0 1 1.97-2.1 23.465 23.465 0 0 0 8.749-3.968c.89-.668 1.759-1.368 2.627-2.068a48.115 48.115 0 0 1 5.7-4.148c4.426-2.6 7.627-3.829 12.757-3.28 5.453-2.759 13.835-1.118 16.039.92 6.154.289 11.515 2.424 16.855 6.707a16.671 16.671 0 0 1 2.854 2.81c.191.248.375.507.561.767l.341.475a2.62 2.62 0 0 1 .305 2.6 2.563 2.563 0 0 1 -2.046 1.547 5.546 5.546 0 0 0 -2.614.785 4.883 4.883 0 0 0 -.562.524c-.123.126-.246.252-.375.372a9.552 9.552 0 0 1 -4.01 1.875l-.476.139a13.007 13.007 0 0 0 -5.613 2.917 10.858 10.858 0 0 0 -.906 1.009 20.593 20.593 0 0 1 -7.991 6.146 31.635 31.635 0 0 1 -11.327 2.584zm-21.651-10.516c2.031 0 3.6 1.6 5.121 3.145a15.933 15.933 0 0 0 2.273 2.05 24.581 24.581 0 0 0 6.593 2.883 28.914 28.914 0 0 0 6.99 1.423 29.8 29.8 0 0 0 11.622-2.485 19.586 19.586 0 0 0 7.6-5.85 11.9 11.9 0 0 1 .989-1.1 14.351 14.351 0 0 1 6.025-3.158l.481-.141a8.823 8.823 0 0 0 3.609-1.648c.116-.107.226-.22.335-.333a5.666 5.666 0 0 1 .684-.63 6.308 6.308 0 0 1 3.083-.974 1.574 1.574 0 0 0 1.255-.949 1.631 1.631 0 0 0 -.191-1.62l-.35-.486c-.178-.25-.355-.5-.539-.737a15.715 15.715 0 0 0 -2.688-2.64c-5.222-4.188-10.454-6.253-16.465-6.5a.5.5 0 0 1 -.348-.161c-1.737-1.887-10.011-3.477-15.128-.794a.494.494 0 0 1 -.288.054c-4.933-.555-8.011.619-12.291 3.132a47.432 47.432 0 0 0 -5.583 4.064c-.877.707-1.755 1.414-2.654 2.089a24.542 24.542 0 0 1 -9.146 4.148 1.485 1.485 0 0 0 -.476 2.734 16.762 16.762 0 0 1 2.645 2.2c.465.441.9.858 1.313 1.189 1.376 1.115 3.345 1.155 5.417 1.1z" fill="#323c6b"/><path d="m44.808 25.863a.648.648 0 0 1 -.157-.02c-.453-.112-.931-.212-1.427-.295a.65.65 0 0 1 .215-1.282c.531.089 1.042.2 1.526.315a.65.65 0 0 1 -.156 1.281z" fill="#fff"/><path d="m59.562 30.15a.648.648 0 0 1 -.308-.078 25.694 25.694 0 0 0 -9.649-2.6.65.65 0 1 1 .088-1.3 26.909 26.909 0 0 1 10.178 2.752.65.65 0 0 1 -.309 1.222z" fill="#fff"/></g></svg>