<svg height="512" viewBox="0 0 74 74" width="512" xmlns="http://www.w3.org/2000/svg"><g id="color_line" data-name="color line"><path d="m33.55 15.01v-.01c.66-2.49 2.7-7.72 8.58-9.59l3.2.92c-4.76 2.9-5.77 6.27-5.92 8.21" fill="#6fc666"/><path d="m33.55 15.5a.5.5 0 0 1 -.5-.5.489.489 0 0 1 .017-.128c.768-2.9 2.947-8.042 8.912-9.938a.5.5 0 0 1 .29 0l3.2.92a.5.5 0 0 1 .122.908c-4.4 2.683-5.521 5.734-5.682 7.821a.5.5 0 0 1 -1-.077c.137-1.775 1.016-5.075 5.227-7.994l-2-.575c-5.394 1.786-7.39 6.5-8.1 9.183a.5.5 0 0 1 -.486.38z" fill="#323c6b"/><path d="m61.114 41.38c0 9.5-3.089 17.8-7.008 22.39-2.065 2.4-4.342 3.782-6.5 3.782a6.671 6.671 0 0 1 -4.016-1.575 7.392 7.392 0 0 0 1.15-1.457c3.561-4.982 5.886-13.311 5.886-22.751 0-10.625-2.943-19.839-7.268-24.476a5.7 5.7 0 0 1 4.242-2.071c2.471 0 5.073 1.786 7.333 4.832 3.514 4.746 6.181 12.516 6.181 21.326z" fill="#fcd462"/><path d="m61.11 41.38c0 9.5-3.09 17.8-7 22.39-2.07 2.4-4.35 3.78-6.51 3.78a6.636 6.636 0 0 1 -4.01-1.57 7.574 7.574 0 0 0 1.15-1.46c.06-.09.12-.17.17-.26a6.21 6.21 0 0 0 2.69.71c2.16 0 4.44-1.38 6.51-3.78 3.75-4.41 6.75-12.22 6.97-21.24.02.47.03.95.03 1.43z" fill="#f7be56"/><path d="m54.106 63.77a6.679 6.679 0 0 0 5.008 2.491c6.569 0 11.886-10.715 11.886-23.936s-5.317-23.951-11.886-23.951a6.2 6.2 0 0 0 -4.179 1.681c3.512 4.745 6.179 12.515 6.179 21.325 0 9.499-3.09 17.798-7.008 22.39z" fill="#fcd462"/><path d="m71 42.32c0 13.23-5.32 23.94-11.89 23.94a6.667 6.667 0 0 1 -5-2.49l.12-.15a5.817 5.817 0 0 0 3.01.84c6.57 0 11.89-10.71 11.89-23.94 0-8.79-2.35-16.48-5.87-20.65 4.52 3.39 7.74 12.17 7.74 22.45z" fill="#f7be56"/><path d="m12.886 41.38c0 9.5 3.089 17.8 7.008 22.39 2.065 2.4 4.342 3.782 6.5 3.782a6.671 6.671 0 0 0 4.016-1.575 7.392 7.392 0 0 1 -1.15-1.457c-3.56-4.982-5.886-13.311-5.886-22.75 0-10.625 2.943-19.839 7.268-24.476a5.7 5.7 0 0 0 -4.242-2.072c-2.471 0-5.073 1.786-7.333 4.832-3.514 4.746-6.181 12.516-6.181 21.326z" fill="#fcd462"/><path d="m26.4 68.052c-2.277 0-4.658-1.368-6.883-3.956-4.4-5.154-7.129-13.858-7.129-22.717 0-8.232 2.347-16.315 6.277-21.622 2.409-3.247 5.156-5.035 7.735-5.035a6.147 6.147 0 0 1 4.613 2.234.5.5 0 0 1 0 .678c-4.4 4.717-7.134 13.965-7.134 24.135 0 8.989 2.166 17.385 5.793 22.46a.481.481 0 0 1 .058.105 3.157 3.157 0 0 0 .654.848 5.3 5.3 0 0 1 .44.5.5.5 0 0 1 -.077.672 7.166 7.166 0 0 1 -4.347 1.698zm0-52.33c-2.255 0-4.716 1.645-6.932 4.63-3.807 5.141-6.08 13-6.08 21.027 0 8.631 2.639 17.087 6.888 22.066 2 2.325 4.175 3.606 6.124 3.606a6.149 6.149 0 0 0 3.29-1.141l-.034-.035a4.023 4.023 0 0 1 -.835-1.109c-3.724-5.243-5.947-13.833-5.947-23 0-10.169 2.7-19.476 7.084-24.465a5.021 5.021 0 0 0 -3.558-1.579z" fill="#323c6b"/><path d="m19.894 63.77a6.679 6.679 0 0 1 -5.008 2.491c-6.569 0-11.886-10.715-11.886-23.936s5.317-23.951 11.886-23.951a6.2 6.2 0 0 1 4.179 1.681c-3.512 4.745-6.179 12.515-6.179 21.325 0 9.499 3.09 17.798 7.008 22.39z" fill="#fcd462"/><path d="m14.886 66.761c-6.829 0-12.386-10.961-12.386-24.436s5.557-24.451 12.386-24.451a6.676 6.676 0 0 1 4.51 1.807.5.5 0 0 1 .07.671c-3.808 5.141-6.081 13-6.081 21.027 0 8.631 2.639 17.086 6.888 22.066a.5.5 0 0 1 -.009.659 7.141 7.141 0 0 1 -5.378 2.657zm0-47.888c-6.278.001-11.386 10.521-11.386 23.452s5.108 23.436 11.386 23.436a6.015 6.015 0 0 0 4.34-2.011c-4.228-5.19-6.84-13.707-6.84-22.371 0-8.037 2.237-15.932 6-21.24a5.583 5.583 0 0 0 -3.5-1.265z" fill="#323c6b"/><path d="m37 69.413c-2.878 0-5.545-1.8-7.74-4.892-3.56-4.983-5.886-13.312-5.886-22.751 0-10.625 2.943-19.839 7.268-24.476a8.772 8.772 0 0 1 6.358-3.182 8.772 8.772 0 0 1 6.358 3.181c4.325 4.637 7.268 13.851 7.268 24.476 0 9.439-2.325 17.768-5.886 22.751-2.195 3.092-4.862 4.893-7.74 4.893z" fill="#fcd462"/><path d="m50.63 41.77c0 9.44-2.33 17.77-5.89 22.75-2.2 3.09-4.86 4.89-7.74 4.89s-5.54-1.8-7.74-4.89a31 31 0 0 1 -4.58-10.95 28.952 28.952 0 0 0 3.96 8.58c2.19 3.09 4.86 4.89 7.73 4.89s5.55-1.8 7.74-4.89c3.57-4.99 5.89-13.32 5.89-22.76a51.942 51.942 0 0 0 -1.37-12.09 51.1 51.1 0 0 1 2 14.47z" fill="#f7be56"/><g fill="#323c6b"><path d="m68.574 63.891a.5.5 0 0 1 -.4-.8c.111-.146.221-.295.329-.446a.5.5 0 0 1 .813.581c-.114.16-.229.317-.346.47a.5.5 0 0 1 -.396.195z"/><path d="m59.114 69.761a.5.5 0 0 1 0-1 10.487 10.487 0 0 0 7.273-3.668.5.5 0 0 1 .789.614 11.438 11.438 0 0 1 -8.062 4.054z"/><path d="m2.067 28.742a.51.51 0 0 1 -.149-.022.5.5 0 0 1 -.329-.626c.062-.2.125-.4.191-.588a.5.5 0 0 1 .946.323c-.063.185-.123.373-.182.563a.5.5 0 0 1 -.477.35z"/><path d="m3.28 25.583a.5.5 0 0 1 -.456-.7 19.48 19.48 0 0 1 6.01-7.955.5.5 0 1 1 .584.812 18.5 18.5 0 0 0 -5.682 7.552.5.5 0 0 1 -.456.291z"/><path d="m59.114 66.761a7.141 7.141 0 0 1 -5.38-2.661.5.5 0 0 1 -.009-.659c4.249-4.979 6.888-13.435 6.888-22.066 0-8.026-2.273-15.886-6.081-21.027a.5.5 0 0 1 .07-.671 6.676 6.676 0 0 1 4.51-1.807c6.83 0 12.386 10.969 12.386 24.452s-5.555 24.439-12.384 24.439zm-4.34-3.011a6.015 6.015 0 0 0 4.34 2.011c6.278 0 11.386-10.513 11.386-23.436s-5.108-23.451-11.386-23.451a5.583 5.583 0 0 0 -3.5 1.266c3.763 5.308 6 13.2 6 21.24 0 8.663-2.614 17.18-6.841 22.37z"/><path d="m47.6 68.052a7.166 7.166 0 0 1 -4.344-1.7.5.5 0 0 1 -.077-.672 5.3 5.3 0 0 1 .44-.5 3.157 3.157 0 0 0 .654-.848.481.481 0 0 1 .058-.105c3.627-5.076 5.793-13.472 5.793-22.46 0-10.17-2.733-19.418-7.134-24.135a.5.5 0 0 1 0-.678 6.147 6.147 0 0 1 4.61-2.232c2.579 0 5.326 1.788 7.735 5.035 3.931 5.307 6.277 13.39 6.277 21.623 0 8.859-2.731 17.563-7.127 22.715-2.226 2.589-4.606 3.957-6.885 3.957zm-3.29-2.142a6.149 6.149 0 0 0 3.29 1.142c1.949 0 4.125-1.281 6.125-3.608 4.248-4.978 6.887-13.433 6.887-22.064 0-8.026-2.273-15.886-6.081-21.027-2.215-2.985-4.677-4.63-6.932-4.63a5.021 5.021 0 0 0 -3.56 1.583c4.379 4.989 7.084 14.3 7.084 24.465 0 9.163-2.223 17.753-5.947 23a4.023 4.023 0 0 1 -.835 1.109z"/><path d="m37 69.913c-2.96 0-5.777-1.765-8.147-5.1-3.743-5.237-5.979-13.851-5.979-23.041 0-10.413 2.836-19.922 7.4-24.817a9.3 9.3 0 0 1 6.726-3.343 9.3 9.3 0 0 1 6.724 3.341c4.566 4.895 7.4 14.4 7.4 24.817 0 9.189-2.235 17.8-5.979 23.042-2.368 3.336-5.185 5.101-8.145 5.101zm0-55.3a8.226 8.226 0 0 0 -5.992 3.022c-4.4 4.717-7.134 13.965-7.134 24.135 0 8.989 2.166 17.385 5.793 22.46 2.175 3.064 4.711 4.683 7.333 4.683s5.158-1.619 7.332-4.682c3.628-5.077 5.794-13.473 5.794-22.461 0-10.17-2.733-19.418-7.134-24.135a8.226 8.226 0 0 0 -5.992-3.023z"/></g><path d="m27.365 47.189a.65.65 0 0 1 -.647-.6c-.106-1.405-.16-2.84-.16-4.263 0-1.731.087-3.522.26-5.325a.65.65 0 1 1 1.294.124c-.168 1.761-.254 3.511-.254 5.2 0 1.391.053 2.792.156 4.166a.649.649 0 0 1 -.6.7z" fill="#fff"/><path d="m27.833 34.736a.623.623 0 0 1 -.095-.007.65.65 0 0 1 -.549-.737c.044-.307.091-.612.143-.914a.65.65 0 0 1 1.281.218c-.049.291-.094.586-.138.884a.65.65 0 0 1 -.642.556z" fill="#fff"/></g></svg>