<svg height="512" viewBox="0 0 74 74" width="512" xmlns="http://www.w3.org/2000/svg"><g id="color_line" data-name="color line"><path d="m43.438 59.232-2.415 8.6a2.2 2.2 0 0 1 -2.116 1.6h-4.2a2.2 2.2 0 0 1 -2.116-1.6l-2.415-8.6" fill="#65b54e"/><path d="m38.907 69.94h-4.2a2.709 2.709 0 0 1 -2.6-1.969l-2.415-8.6a.5.5 0 0 1 .963-.271l2.415 8.6a1.7 1.7 0 0 0 1.635 1.239h4.2a1.7 1.7 0 0 0 1.637-1.239l2.415-8.6a.5.5 0 1 1 .963.271l-2.415 8.6a2.707 2.707 0 0 1 -2.598 1.969z" fill="#323c6b"/><path d="m36.292 19.727a17.439 17.439 0 0 0 -6.06 5.97l-9.22-9.13 4.06-6.716a1.662 1.662 0 0 1 2.693-.211l1.4 1.657z" fill="#6fc666"/><path d="m30.231 26.2a.5.5 0 0 1 -.352-.145l-9.22-9.13a.5.5 0 0 1 -.076-.614l4.061-6.716a2.162 2.162 0 0 1 3.5-.274l8.529 10.079a.5.5 0 0 1 -.124.751 16.958 16.958 0 0 0 -5.89 5.8.5.5 0 0 1 -.366.239.544.544 0 0 1 -.062.01zm-8.588-9.708 8.5 8.413a17.912 17.912 0 0 1 5.4-5.293l-8.16-9.65a1.162 1.162 0 0 0 -1.883.147z" fill="#323c6b"/><path d="m30.232 25.7a15.729 15.729 0 0 0 -1.15 2.28 11.164 11.164 0 0 1 -.17-1.34 20.5 20.5 0 0 0 -6.45 8.59l-8.08-8.26a28.379 28.379 0 0 1 3.293-10.76 1.666 1.666 0 0 1 2.628-.352l.709.709z" fill="#6fc666"/><path d="m22.461 35.727a.5.5 0 0 1 -.357-.15l-8.08-8.26a.5.5 0 0 1 -.14-.405 29.016 29.016 0 0 1 3.353-10.944 2.126 2.126 0 0 1 1.578-1.077 2.158 2.158 0 0 1 1.841.615l.708.709 9.218 9.128a.5.5 0 0 1 .074.617 15.208 15.208 0 0 0 -1.113 2.208.5.5 0 0 1 -.954-.1c-.03-.157-.057-.314-.08-.473a20.591 20.591 0 0 0 -5.584 7.814.5.5 0 0 1 -.366.306.52.52 0 0 1 -.098.012zm-7.556-8.939 7.386 7.55a20.753 20.753 0 0 1 6.333-8.111.5.5 0 0 1 .676.1c.1-.184.2-.366.3-.545l-9.65-9.57a1.162 1.162 0 0 0 -1-.332 1.134 1.134 0 0 0 -.843.573 27.912 27.912 0 0 0 -3.201 10.335z" fill="#323c6b"/><path d="m21.562 46.817-10.13-7.43a23.1 23.1 0 0 1 -.919-12.7 1.667 1.667 0 0 1 2.816-.8l1.053 1.074 8.08 8.26a19.841 19.841 0 0 0 -.9 11.596z" fill="#6fc666"/><path d="m21.562 47.317a.5.5 0 0 1 -.3-.1l-10.13-7.43a.5.5 0 0 1 -.177-.241 23.7 23.7 0 0 1 -.934-12.966 2.167 2.167 0 0 1 3.661-1.041l9.133 9.334a.5.5 0 0 1 .107.535 19.375 19.375 0 0 0 -.875 11.3.5.5 0 0 1 -.49.6zm-9.708-8.24 8.994 6.6a20.136 20.136 0 0 1 1.031-10.328l-8.907-9.1a1.167 1.167 0 0 0 -1.972.551 22.665 22.665 0 0 0 .854 12.277z" fill="#323c6b"/><path d="m52.572 16.567-9.21 9.13a17.4 17.4 0 0 0 -6.05-5.97l7.11-8.43 1.4-1.661a1.662 1.662 0 0 1 2.692.214z" fill="#6fc666"/><path d="m59.212 26.967-8.07 8.25a20.6 20.6 0 0 0 -6.45-8.58 11.889 11.889 0 0 1 -.17 1.37 15.588 15.588 0 0 0 -1.16-2.31l9.21-9.13.719-.716a1.666 1.666 0 0 1 2.626.354 28.376 28.376 0 0 1 3.295 10.762z" fill="#6fc666"/><path d="m62.162 39.377-.02.01-10.11 7.44a19.9 19.9 0 0 0 -.89-11.61l8.07-8.25 1.05-1.067a1.667 1.667 0 0 1 2.816.8 23.107 23.107 0 0 1 -.916 12.677z" fill="#6fc666"/><path d="m52.57 16.57-1.59 1.58-4-6.62a1.65 1.65 0 0 0 -2.27-.57l1.12-1.32a1.661 1.661 0 0 1 2.69.21z" fill="#65b54e"/><path d="m55.92 16.21a1.672 1.672 0 0 0 -2.63-.36l-.72.72-1.695 1.68h.145l.01-.01.72-.71a1.654 1.654 0 0 1 2.62.35 28.039 28.039 0 0 1 3.29 10.68l1.55-1.59a28.321 28.321 0 0 0 -3.29-10.76z" fill="#65b54e"/><path d="m63.08 26.7a1.67 1.67 0 0 0 -2.82-.8l-1.05 1.07-1.585 1.62v.1l.045-.046 1.05-1.07a1.67 1.67 0 0 1 2.82.8 22.857 22.857 0 0 1 -.69 11.97l1.29-.95.02-.01a23.185 23.185 0 0 0 .92-12.684z" fill="#65b54e"/><path d="m44.422 11.3-7.11 8.43c-.16-.1-.33-.2-.5-.29-.18.09-.36.19-.52.29l-7.13-8.43 6.351-7.65a1.662 1.662 0 0 1 2.558 0z" fill="#6fc666"/><path d="m44.42 11.3-1.58 1.88-5.27-6.35a1.665 1.665 0 0 0 -2.56 0l-4.77 5.75-1.08-1.28 6.35-7.65a1.665 1.665 0 0 1 2.56 0z" fill="#65b54e"/><path d="m45.072 50.947a7.472 7.472 0 0 1 -.36 1.25 17.46 17.46 0 0 1 -7.9 8.56c-2-.85-6.43-4.37-7.95-8.57a9.384 9.384 0 0 1 -.34-1.24c-.83-4.16 3.31-8.57 6.33-11.16.75-.65 1.44-1.18 1.96-1.56.5.39 1.19.92 1.94 1.56 3.01 2.59 7.148 7 6.32 11.16z" fill="#6fc666"/><path d="m36.812 61.257a.5.5 0 0 1 -.2-.04c-2-.851-6.623-4.435-8.224-8.86a9.775 9.775 0 0 1 -.359-1.307c-.855-4.288 3.06-8.7 6.494-11.643.634-.55 1.3-1.083 1.991-1.584a.5.5 0 0 1 .6.01l.178.139c.484.377 1.108.862 1.779 1.435 3.43 2.951 7.339 7.365 6.486 11.638v.005a7.957 7.957 0 0 1 -.385 1.333c-1.588 4.417-6.172 7.991-8.165 8.835a.5.5 0 0 1 -.195.039zm-.008-22.4c-.558.418-1.1.858-1.625 1.31-2.648 2.271-6.967 6.675-6.167 10.685a8.774 8.774 0 0 0 .321 1.168c1.383 3.823 5.423 7.214 7.479 8.191 2.04-.97 6.049-4.351 7.43-8.181a7.064 7.064 0 0 0 .341-1.181c.8-4-3.516-8.409-6.157-10.681-.602-.516-1.166-.958-1.626-1.313z" fill="#323c6b"/><path d="m44.522 28.007v.01a24.863 24.863 0 0 1 -5.77 11.77c-.75-.64-1.44-1.17-1.94-1.56-.52.38-1.21.91-1.96 1.56a24.84 24.84 0 0 1 -5.77-11.81 15.729 15.729 0 0 1 1.15-2.28 17.439 17.439 0 0 1 6.06-5.97c.16-.1.34-.2.52-.29.17.09.34.19.5.29a17.4 17.4 0 0 1 6.05 5.97 15.588 15.588 0 0 1 1.16 2.31z" fill="#6fc666"/><path d="m34.852 40.287a.5.5 0 0 1 -.375-.169 25.3 25.3 0 0 1 -5.889-12.064.5.5 0 0 1 .031-.265 16.162 16.162 0 0 1 1.187-2.352 17.938 17.938 0 0 1 6.227-6.137c.166-.1.36-.211.554-.309a.5.5 0 0 1 .459.005c.18.1.361.2.531.308a17.9 17.9 0 0 1 6.213 6.137 16.173 16.173 0 0 1 1.2 2.382.508.508 0 0 1 .035.185v.01a25.368 25.368 0 0 1 -5.9 12.1.5.5 0 0 1 -.7.049c-.6-.515-1.167-.958-1.623-1.312-.558.418-1.1.858-1.625 1.31a.5.5 0 0 1 -.325.122zm1.96-2.56a.5.5 0 0 1 .308.106l.178.139c.392.3.874.68 1.4 1.115a24.37 24.37 0 0 0 5.311-11.02 15.365 15.365 0 0 0 -1.073-2.111 16.931 16.931 0 0 0 -5.881-5.8c-.082-.052-.165-.1-.248-.15-.086.048-.17.1-.249.146a16.97 16.97 0 0 0 -5.9 5.8 15.19 15.19 0 0 0 -1.058 2.086 24.267 24.267 0 0 0 5.309 11.046c.521-.436 1.061-.859 1.611-1.261a.5.5 0 0 1 .292-.096z" fill="#323c6b"/><path d="m28.522 50.947a9.384 9.384 0 0 0 .34 1.24l-7.3-5.37a19.841 19.841 0 0 1 .9-11.59 20.5 20.5 0 0 1 6.45-8.59 11.164 11.164 0 0 0 .17 1.34 24.84 24.84 0 0 0 5.77 11.81c-3.02 2.59-7.16 7-6.33 11.16z" fill="#6fc666"/><path d="m28.862 52.687a.5.5 0 0 1 -.3-.1l-7.3-5.37a.5.5 0 0 1 -.193-.3 20.362 20.362 0 0 1 .931-11.875 20.823 20.823 0 0 1 6.627-8.814.5.5 0 0 1 .786.375 10.666 10.666 0 0 0 .163 1.281 24.264 24.264 0 0 0 5.654 11.573.5.5 0 0 1 -.049.71c-2.646 2.269-6.963 6.672-6.166 10.681a8.848 8.848 0 0 0 .321 1.17.5.5 0 0 1 -.471.669zm-6.849-6.158 6 4.412c-.742-4.093 2.829-8.291 6.137-11.2a25.233 25.233 0 0 1 -5.561-11.683c-.029-.149-.054-.3-.077-.456a20.591 20.591 0 0 0 -5.584 7.814 19.331 19.331 0 0 0 -.915 11.113z" fill="#323c6b"/><path d="m52.032 46.827-7.32 5.37a7.472 7.472 0 0 0 .36-1.25c.83-4.16-3.31-8.57-6.32-11.16a24.863 24.863 0 0 0 5.77-11.77v-.01a11.889 11.889 0 0 0 .17-1.37 20.6 20.6 0 0 1 6.45 8.58 19.9 19.9 0 0 1 .89 11.61z" fill="#6fc666"/><path d="m44.711 52.7a.5.5 0 0 1 -.464-.686 6.927 6.927 0 0 0 .335-1.167c.8-4-3.516-8.405-6.157-10.678a.5.5 0 0 1 -.048-.71 24.343 24.343 0 0 0 5.651-11.518 11.847 11.847 0 0 0 .165-1.335.5.5 0 0 1 .787-.375 20.918 20.918 0 0 1 6.626 8.8 20.39 20.39 0 0 1 .915 11.9.5.5 0 0 1 -.193.3l-7.32 5.37a.5.5 0 0 1 -.297.099zm-5.256-12.96c3.3 2.917 6.866 7.117 6.127 11.2l6-4.4a19.362 19.362 0 0 0 -.9-11.136 20.7 20.7 0 0 0 -5.583-7.8c-.023.166-.05.331-.081.5a25.319 25.319 0 0 1 -5.563 11.633z" fill="#323c6b"/><path d="m36.812 60.757c-32.5-3.9-28.156-23.412-28.156-23.412l20.206 14.842c1.52 4.2 5.95 7.72 7.95 8.57z" fill="#65b54e"/><path d="m36.812 61.257a.5.5 0 0 1 -.06 0c-12.523-1.5-21.136-5.46-25.6-11.762a16.385 16.385 0 0 1 -2.985-12.258.5.5 0 0 1 .784-.294l20.207 14.841a.5.5 0 0 1 .174.233c1.429 3.948 5.691 7.437 7.675 8.28a.5.5 0 0 1 -.2.96zm-27.779-23.014a16 16 0 0 0 2.951 10.69c4.012 5.649 11.578 9.346 22.508 11a17.9 17.9 0 0 1 -6.047-7.433z" fill="#323c6b"/><path d="m36.812 60.757a17.46 17.46 0 0 0 7.9-8.56l17.45-12.82 2.8-2.032s4.33 19.512-28.15 23.412z" fill="#65b54e"/><g fill="#323c6b"><path d="m36.811 61.257a.5.5 0 0 1 -.195-.96 16.981 16.981 0 0 0 7.625-8.269.5.5 0 0 1 .174-.233l20.25-14.854a.507.507 0 0 1 .471-.063.5.5 0 0 1 .311.359 16.4 16.4 0 0 1 -2.992 12.263c-4.463 6.3-13.07 10.255-25.583 11.758a.5.5 0 0 1 -.061-.001zm8.317-8.746a17.837 17.837 0 0 1 -6 7.428c10.924-1.658 18.488-5.354 22.5-11a16.01 16.01 0 0 0 2.956-10.7l-2.125 1.543z"/><path d="m29.691 6.462a.5.5 0 0 1 -.384-.819l3.513-4.231a5.152 5.152 0 0 1 7.432-.525.5.5 0 0 1 -.672.74 4.152 4.152 0 0 0 -5.991.423l-3.512 4.231a.5.5 0 0 1 -.386.181z"/><path d="m41.942 4.114a.5.5 0 0 1 -.385-.181l-.392-.473a.5.5 0 0 1 .77-.639l.392.473a.5.5 0 0 1 -.384.819z"/><path d="m15.239 57.312a.5.5 0 0 1 -.268-.078c-.218-.139-.434-.28-.638-.427a.5.5 0 1 1 .584-.812c.19.137.39.267.591.4a.5.5 0 0 1 -.269.922z"/><path d="m12.015 54.75a.5.5 0 0 1 -.343-.137 22.892 22.892 0 0 1 -2.966-3.388 20.3 20.3 0 0 1 -2.506-4.769.5.5 0 0 1 .939-.343 19.271 19.271 0 0 0 2.382 4.534 21.9 21.9 0 0 0 2.836 3.239.5.5 0 0 1 -.343.863z"/><path d="m37.311 20.227a.5.5 0 0 1 -.265-.076c-.078-.049-.159-.1-.241-.146-.086.048-.17.1-.249.146a.5.5 0 0 1 -.647-.1l-7.13-8.43a.5.5 0 0 1 0-.642l6.351-7.65a2.23 2.23 0 0 1 3.327 0l6.352 7.65a.5.5 0 0 1 0 .642l-7.11 8.43a.5.5 0 0 1 -.388.176zm-7.5-8.933 6.59 7.791c.061-.033.122-.064.183-.1a.5.5 0 0 1 .459.005l.156.085 6.567-7.786-6.08-7.322a1.2 1.2 0 0 0 -1.788 0z"/><path d="m43.362 26.2a.544.544 0 0 1 -.062 0 .5.5 0 0 1 -.366-.239 16.931 16.931 0 0 0 -5.88-5.8.5.5 0 0 1 -.124-.75l8.514-10.098a2.162 2.162 0 0 1 3.5.279l4.056 6.717a.5.5 0 0 1 -.076.613l-9.21 9.13a.5.5 0 0 1 -.352.148zm-5.3-6.589a17.885 17.885 0 0 1 5.392 5.289l8.486-8.412-3.85-6.381a1.163 1.163 0 0 0 -1.882-.15z"/><path d="m51.142 35.717a.515.515 0 0 1 -.1-.01.5.5 0 0 1 -.366-.3 20.7 20.7 0 0 0 -5.583-7.8c-.023.166-.05.331-.081.5a.5.5 0 0 1 -.443.407.51.51 0 0 1 -.514-.313 15.2 15.2 0 0 0 -1.123-2.236.5.5 0 0 1 .076-.614l9.93-9.851a2.167 2.167 0 0 1 1.838-.611 2.128 2.128 0 0 1 1.577 1.077 29.015 29.015 0 0 1 3.355 10.949.5.5 0 0 1 -.14.405l-8.07 8.25a.5.5 0 0 1 -.356.147zm-6.45-9.58a.5.5 0 0 1 .288.091 20.842 20.842 0 0 1 6.331 8.1l7.377-7.542a27.908 27.908 0 0 0 -3.208-10.336 1.137 1.137 0 0 0 -.843-.574 1.16 1.16 0 0 0 -.994.33l-9.653 9.572c.106.185.208.37.306.554a.5.5 0 0 1 .4-.195z"/><path d="m52.032 47.327a.5.5 0 0 1 -.489-.6 19.407 19.407 0 0 0 -.866-11.327.5.5 0 0 1 .107-.534l9.121-9.322a2.167 2.167 0 0 1 3.661 1.042 23.727 23.727 0 0 1 -.931 12.952.5.5 0 0 1 -.245.283l-.02.01-10.042 7.4a.5.5 0 0 1 -.296.096zm-.308-11.991a20.173 20.173 0 0 1 1.024 10.343l8.993-6.618a22.38 22.38 0 0 0 .848-12.261 1.167 1.167 0 0 0 -1.97-.557z"/></g><path d="m46.949 35.089a.649.649 0 0 1 -.58-.355c-.079-.155-.158-.307-.241-.45a.65.65 0 0 1 1.125-.65c.094.163.185.335.274.51a.65.65 0 0 1 -.579.945z" fill="#fff"/><path d="m49.279 45.171h-.027a.65.65 0 0 1 -.623-.676 18.682 18.682 0 0 0 -.95-6.814.65.65 0 1 1 1.23-.42 19.967 19.967 0 0 1 1.019 7.287.65.65 0 0 1 -.649.623z" fill="#fff"/></g></svg>