<svg height="512" viewBox="0 0 74 74" width="512" xmlns="http://www.w3.org/2000/svg"><g id="color_line" data-name="color line"><path d="m26.545 69.538a23 23 0 0 0 9.087 2.06h.061a12 12 0 0 0 2.95-.316 12.063 12.063 0 0 0 3.428-1.626 42.6 42.6 0 0 0 8.324-7.11 15.272 15.272 0 0 0 2.316-3.04c3.924-6.2 7.513-18.1 8.669-22.959.229-.963.453-1.928.6-2.911.152-1.029.218-2.074.283-3.117l.29-4.627a28.707 28.707 0 0 0 .08-3.272c-.222-4.349-2.367-8.528-4.468-12.559a11.194 11.194 0 0 0 -1.231-2 8.645 8.645 0 0 0 -1.704-1.521 16.639 16.639 0 0 0 -6.33-2.73 8.645 8.645 0 0 0 -2.276-.2 11.194 11.194 0 0 0 -2.3.478c-4.374 1.236-8.886 2.543-12.2 5.364a28.707 28.707 0 0 0 -2.325 2.3l-3.167 3.385c-.714.763-1.429 1.528-2.074 2.345-.615.78-1.164 1.605-1.707 2.432-2.743 4.176-8.939 14.95-10.758 22.058a15.272 15.272 0 0 0 -.623 3.771 42.6 42.6 0 0 0 .538 10.934 12.063 12.063 0 0 0 1.169 3.61 12 12 0 0 0 1.794 2.363l.042.044a23 23 0 0 0 7.733 5.2z" fill="#e7aa6c"/><path d="m62.55 25.888c-.09 1.55-.19 3.09-.29 4.63-.06 1.04-.13 2.09-.28 3.12-.15.98-.37 1.95-.6 2.91-1.15 4.86-4.74 16.76-8.67 22.96a15.348 15.348 0 0 1 -2.31 3.04 42.8 42.8 0 0 1 -8.33 7.11 12.01 12.01 0 0 1 -3.43 1.62 11.507 11.507 0 0 1 -2.95.32h-.06a23.049 23.049 0 0 1 -9.08-2.06l-3.8-1.64a23.051 23.051 0 0 1 -7.74-5.2l-.04-.04a12 12 0 0 1 -1.79-2.37 10.331 10.331 0 0 1 -.98-2.67 13.662 13.662 0 0 0 1.2 1.44c.01.02.03.03.04.05a23.261 23.261 0 0 0 7.73 5.2l3.8 1.64a23.135 23.135 0 0 0 9.09 2.06h.06a12.523 12.523 0 0 0 2.95-.32 12.035 12.035 0 0 0 3.43-1.63 42.394 42.394 0 0 0 8.32-7.11 14.755 14.755 0 0 0 2.32-3.04c3.93-6.2 7.51-18.1 8.67-22.96.23-.96.45-1.92.6-2.91.15-1.03.22-2.07.28-3.11.1-1.55.2-3.09.29-4.63a27.466 27.466 0 0 0 .08-3.27 19.379 19.379 0 0 0 -1.37-5.98 25.291 25.291 0 0 1 2.94 9.57 27.362 27.362 0 0 1 -.08 3.27z" fill="#d09865"/><g fill="#323c6b"><path d="m50.073 15.171a.5.5 0 0 1 -.465-.317c-.2-.5-1.449-.506-1.986-.431a.5.5 0 0 1 -.139-.99c.257-.036 2.519-.312 3.055 1.055a.5.5 0 0 1 -.465.683z"/><path d="m39.171 22.449a.5.5 0 0 1 -.489-.4c-.1-.525-1.333-.755-1.878-.779a.5.5 0 0 1 -.478-.521.491.491 0 0 1 .52-.478c.259.011 2.533.146 2.816 1.584a.5.5 0 0 1 -.394.587.509.509 0 0 1 -.097.007z"/><path d="m52.042 28.1a.5.5 0 0 1 -.489-.4c-.1-.525-1.333-.755-1.878-.779a.5.5 0 0 1 -.475-.521.485.485 0 0 1 .52-.478c.259.011 2.533.146 2.816 1.584a.5.5 0 0 1 -.394.587.509.509 0 0 1 -.1.007z"/><path d="m28.541 29.963a.5.5 0 0 1 -.483-.371c-.139-.521-1.4-.663-1.924-.653h-.013a.5.5 0 0 1 -.013-1c.263-.008 2.537-.024 2.916 1.4a.5.5 0 0 1 -.354.612.493.493 0 0 1 -.129.012z"/><path d="m41.591 33.854a.5.5 0 0 1 -.483-.371c-.139-.522-1.393-.667-1.923-.653a.487.487 0 0 1 -.513-.487.5.5 0 0 1 .487-.513c.265 0 2.536-.023 2.915 1.4a.5.5 0 0 1 -.354.612.493.493 0 0 1 -.129.012z"/><path d="m35.429 46.321a.5.5 0 0 1 -.483-.371c-.139-.521-1.389-.659-1.924-.653a.471.471 0 0 1 -.513-.487.5.5 0 0 1 .491-.51c.261-.005 2.537-.024 2.916 1.4a.5.5 0 0 1 -.354.612.493.493 0 0 1 -.133.009z"/><path d="m50.906 41.532a.5.5 0 0 1 -.483-.371c-.138-.517-1.354-.664-1.925-.653a.494.494 0 0 1 -.512-.488.5.5 0 0 1 .487-.512c.263-.006 2.536-.024 2.916 1.395a.5.5 0 0 1 -.354.612.493.493 0 0 1 -.129.017z"/><path d="m22.729 42.714a.5.5 0 0 1 -.479-.359c-.151-.514-1.391-.632-1.94-.6a.526.526 0 0 1 -.523-.475.5.5 0 0 1 .474-.524c.26-.009 2.536-.085 2.949 1.32a.5.5 0 0 1 -.339.621.483.483 0 0 1 -.142.017z"/><path d="m46.354 52.143a.5.5 0 0 1 -.479-.358c-.152-.518-1.393-.628-1.94-.6a.482.482 0 0 1 -.524-.474.5.5 0 0 1 .474-.525c.257-.012 2.535-.087 2.95 1.32a.5.5 0 0 1 -.338.621.494.494 0 0 1 -.143.016z"/><path d="m22.662 56.585a.5.5 0 0 1 -.492-.417c-.09-.531-1.312-.792-1.854-.829a.5.5 0 0 1 -.465-.533.507.507 0 0 1 .533-.465c.258.018 2.528.215 2.772 1.661a.5.5 0 0 1 -.41.576.541.541 0 0 1 -.084.007z"/><path d="m35.374 62.588a.5.5 0 0 1 -.492-.417c-.09-.532-1.311-.792-1.854-.829a.5.5 0 0 1 .068-1c.258.018 2.528.214 2.772 1.661a.5.5 0 0 1 -.41.576.541.541 0 0 1 -.084.009z"/><path d="m53.26 64.348a.5.5 0 0 1 -.376-.829c.234-.269.461-.559.688-.847l.448.239.394.309c-.292.373-.53.676-.777.958a.5.5 0 0 1 -.377.17z"/><path d="m44.728 71.973a.5.5 0 0 1 -.282-.913 44.2 44.2 0 0 0 6.7-5.67.5.5 0 1 1 .715.7 45.082 45.082 0 0 1 -6.848 5.8.5.5 0 0 1 -.285.083z"/><path d="m28.5 9.28a.5.5 0 0 1 -.355-.852c.309-.312.631-.629.966-.944a.5.5 0 1 1 .686.728c-.325.307-.64.616-.94.92a.5.5 0 0 1 -.357.148z"/><path d="m33 5.694a.5.5 0 0 1 -.253-.931 44.65 44.65 0 0 1 10.629-4.042.5.5 0 1 1 .271.962 43.922 43.922 0 0 0 -10.394 3.942.5.5 0 0 1 -.253.069z"/><path d="m35.666 72.1a23.528 23.528 0 0 1 -9.318-2.1l-3.8-1.64a23.458 23.458 0 0 1 -7.9-5.315 12.541 12.541 0 0 1 -1.91-2.509 12.638 12.638 0 0 1 -1.221-3.757 42.838 42.838 0 0 1 -.546-11.062 15.51 15.51 0 0 1 .647-3.894c1.95-7.628 8.629-18.848 10.814-22.174.56-.852 1.112-1.682 1.732-2.467.66-.836 1.393-1.619 2.1-2.377l3.168-3.386a29.075 29.075 0 0 1 2.368-2.346c3.456-2.94 8.2-4.281 12.391-5.465a11.63 11.63 0 0 1 2.4-.5 9.091 9.091 0 0 1 2.409.212 17.214 17.214 0 0 1 6.52 2.813 9.01 9.01 0 0 1 1.8 1.609 11.481 11.481 0 0 1 1.289 2.088c2.012 3.859 4.293 8.233 4.524 12.764a29.2 29.2 0 0 1 -.079 3.307l-.292 4.649c-.065 1.038-.132 2.11-.288 3.159-.146.993-.37 1.964-.606 2.953-.921 3.871-4.5 16.426-8.732 23.111a15.8 15.8 0 0 1 -2.372 3.112 42.775 42.775 0 0 1 -8.423 7.192 12.624 12.624 0 0 1 -3.572 1.689 12.354 12.354 0 0 1 -3.069.334zm11.373-68q-.193 0-.378.012a10.749 10.749 0 0 0 -2.2.459c-4.09 1.156-8.726 2.466-12.014 5.265a28.083 28.083 0 0 0 -2.282 2.264l-3.165 3.384c-.694.742-1.412 1.51-2.046 2.313-.595.754-1.135 1.564-1.682 2.4-2.721 4.135-8.911 14.934-10.694 21.903a14.689 14.689 0 0 0 -.608 3.682 41.776 41.776 0 0 0 .53 10.806 11.7 11.7 0 0 0 1.115 3.463 11.4 11.4 0 0 0 1.721 2.263 22.524 22.524 0 0 0 7.607 5.125l3.8 1.64a22.85 22.85 0 0 0 8.889 2.021 11.611 11.611 0 0 0 2.887-.3 11.75 11.75 0 0 0 3.281-1.566 41.8 41.8 0 0 0 8.226-7.028 14.587 14.587 0 0 0 2.243-2.938c3.871-6.111 7.481-18.022 8.631-22.837.23-.968.449-1.915.591-2.868.148-1.008.215-2.058.278-3.073l.291-4.629a28.779 28.779 0 0 0 .08-3.215c-.221-4.313-2.448-8.584-4.413-12.353a10.758 10.758 0 0 0 -1.177-1.915 8.049 8.049 0 0 0 -1.608-1.429 16.209 16.209 0 0 0 -6.142-2.649 8.954 8.954 0 0 0 -1.761-.2z"/></g><path d="m20.06 36.07a55.027 55.027 0 0 0 -2.76 7.03 11.039 11.039 0 0 0 -.46 2.13.822.822 0 0 1 -.82.72c-.03 0-.07-.01-.1-.01a.831.831 0 0 1 -.55-.31.8.8 0 0 1 -.17-.61 13.1 13.1 0 0 1 .52-2.39 55.972 55.972 0 0 1 2.84-7.24.827.827 0 0 1 1.09-.41.843.843 0 0 1 .43.46.81.81 0 0 1 -.02.63z" fill="#fff"/><path d="m16.18 48.05a.806.806 0 0 1 .22.59c-.01.35-.01.7-.01 1.06a.825.825 0 0 1 -1.65-.01c0-.36 0-.73.01-1.09a.846.846 0 0 1 .84-.81.868.868 0 0 1 .59.26z" fill="#fff"/></g></svg>