<svg height="512" viewBox="0 0 74 74" width="512" xmlns="http://www.w3.org/2000/svg"><g id="color_line" data-name="color line"><path d="m38.36 31.33a4.724 4.724 0 0 1 1.57 3.61 4.339 4.339 0 0 1 -2.8 4.28c.48 1.03.62 2.84-.37 5.54-1.73 4.71-3.95 7.52-6.1 9.23-3.32 2.66-6.47 2.7-7.34 3.06-1.45-.59-9.06-.31-13.45-12.29-.98-2.7-.84-4.51-.37-5.54a4.332 4.332 0 0 1 -2.79-4.28 4.717 4.717 0 0 1 1.56-3.61 3.927 3.927 0 0 1 -1.64-3.27 4.219 4.219 0 0 1 .46-1.95 4.555 4.555 0 0 1 -1.14-3.06 4.1 4.1 0 0 1 2.69-4.04 3.849 3.849 0 0 1 -.39-1.75 3.478 3.478 0 0 1 2.53-3.51 4.387 4.387 0 0 1 -.04-.53 3.341 3.341 0 0 1 3.07-3.57 3.364 3.364 0 0 1 3.08-3.58 2.811 2.811 0 0 1 1.69.56 5.132 5.132 0 0 1 4.74-3.63 5.13 5.13 0 0 1 4.73 3.63 2.855 2.855 0 0 1 1.69-.56 3.365 3.365 0 0 1 3.08 3.58 3.341 3.341 0 0 1 3.07 3.57c0 .19-.02.36-.03.53a3.106 3.106 0 0 1 1.93 1.42 3.931 3.931 0 0 1 .59 2.09 3.849 3.849 0 0 1 -.39 1.75 4.1 4.1 0 0 1 2.69 4.04 4.555 4.555 0 0 1 -1.14 3.06 4.219 4.219 0 0 1 .46 1.95 3.926 3.926 0 0 1 -1.64 3.27z" fill="#6fc666"/><path d="m26.18 8.35a2.826 2.826 0 0 1 1.68-.56 3.372 3.372 0 0 1 3.09 3.58 3.341 3.341 0 0 1 3.07 3.57c0 .19-.03.36-.04.53a3.1 3.1 0 0 1 1.94 1.42 4.051 4.051 0 0 1 .487 1.235h1.882a4.288 4.288 0 0 0 .091-.865 3.931 3.931 0 0 0 -.59-2.09 3.106 3.106 0 0 0 -1.93-1.42c.01-.17.03-.34.03-.53a3.341 3.341 0 0 0 -3.07-3.57 3.365 3.365 0 0 0 -3.08-3.58 2.855 2.855 0 0 0 -1.69.56 5.13 5.13 0 0 0 -4.73-3.63 5.3 5.3 0 0 0 -4.17 2.35 5.451 5.451 0 0 1 2.3-.63 5.147 5.147 0 0 1 4.73 3.63z" fill="#65b54e"/><path d="m23.315 71.5a.5.5 0 0 1 -.5-.5v-53.925a.5.5 0 0 1 1 0v53.925a.5.5 0 0 1 -.5.5z" fill="#323c6b"/><path d="m23.315 26.336a.5.5 0 0 1 -.358-.151l-4.8-4.923a.5.5 0 0 1 .717-.7l4.8 4.923a.5.5 0 0 1 -.358.849z" fill="#323c6b"/><path d="m23.315 38.217a.5.5 0 0 1 -.348-.141l-6.177-5.976a.5.5 0 1 1 .7-.719l6.178 5.973a.5.5 0 0 1 -.348.859z" fill="#323c6b"/><path d="m23.315 32.645a.5.5 0 0 1 -.358-.849l4.8-4.923a.5.5 0 0 1 .717.7l-4.8 4.923a.5.5 0 0 1 -.359.149z" fill="#323c6b"/><path d="m23.315 44.526a.5.5 0 0 1 -.348-.859l3.7-3.576a.5.5 0 0 1 .7.719l-3.7 3.576a.5.5 0 0 1 -.352.14z" fill="#323c6b"/><path d="m23.315 50.1a.5.5 0 0 1 -.358-.151l-4.8-4.923a.5.5 0 0 1 .717-.7l4.8 4.923a.5.5 0 0 1 -.358.849z" fill="#323c6b"/><path d="m38.36 31.33a4.724 4.724 0 0 1 1.57 3.61 4.339 4.339 0 0 1 -2.8 4.28c.48 1.03.62 2.84-.37 5.54-1.73 4.71-3.95 7.52-6.1 9.23-1.89-2.44-3.59-6.44-3.02-13.17.25-2.87 1.14-4.45 2.01-5.18a4.342 4.342 0 0 1 -.74-5.06 4.744 4.744 0 0 1 2.94-2.62 3.932 3.932 0 0 1 -.1-3.65 4.191 4.191 0 0 1 1.24-1.57 4.6 4.6 0 0 1 .25-3.26 4.107 4.107 0 0 1 4.14-2.53 4 4 0 0 1 .39-1.75c0-.01.01-.02.02-.03a3.931 3.931 0 0 1 .59 2.09 3.849 3.849 0 0 1 -.39 1.75 4.1 4.1 0 0 1 2.69 4.04 4.555 4.555 0 0 1 -1.14 3.06 4.219 4.219 0 0 1 .46 1.95 3.926 3.926 0 0 1 -1.64 3.27z" fill="#65b54e"/><path d="m8.144 11.375a.491.491 0 0 1 -.17-.03.5.5 0 0 1 -.3-.64 7.665 7.665 0 0 1 .41-.936.5.5 0 1 1 .887.461 6.992 6.992 0 0 0 -.357.814.5.5 0 0 1 -.47.331z" fill="#323c6b"/><path d="m11.223 7.773a.5.5 0 0 1 -.471-.669 6.657 6.657 0 0 1 6.076-4.529 8.352 8.352 0 0 1 3.189-2.349.5.5 0 1 1 .393.919 7.33 7.33 0 0 0 -2.948 2.239.478.478 0 0 1 -.407.193h-.165a5.65 5.65 0 0 0 -5.2 3.868.5.5 0 0 1 -.467.328z" fill="#323c6b"/><path d="m23.32 57.55a.5.5 0 0 1 -.188-.037 6.322 6.322 0 0 0 -.862-.207c-2.693-.543-9-1.816-12.869-12.375a8.673 8.673 0 0 1 -.54-5.422 4.967 4.967 0 0 1 -2.65-4.57 5.381 5.381 0 0 1 1.306-3.573 4.551 4.551 0 0 1 -1.387-3.306 4.755 4.755 0 0 1 .37-1.873 5.143 5.143 0 0 1 -1.05-3.137 4.7 4.7 0 0 1 2.529-4.325 4.636 4.636 0 0 1 -.229-1.465 4.05 4.05 0 0 1 2.494-3.876c0-.053 0-.108 0-.164a3.937 3.937 0 0 1 3.094-4.034 3.791 3.791 0 0 1 3.552-3.616 3.26 3.26 0 0 1 1.421.318 5.679 5.679 0 0 1 5.009-3.388 5.667 5.667 0 0 1 5 3.39 3.268 3.268 0 0 1 1.42-.32 3.791 3.791 0 0 1 3.56 3.616 3.936 3.936 0 0 1 3.09 4.034v.165a3.718 3.718 0 0 1 1.823 1.515 4.422 4.422 0 0 1 .667 2.356 4.636 4.636 0 0 1 -.229 1.465 4.7 4.7 0 0 1 2.529 4.329 5.143 5.143 0 0 1 -1.051 3.137 4.755 4.755 0 0 1 .371 1.873 4.55 4.55 0 0 1 -1.386 3.306 5.366 5.366 0 0 1 1.316 3.574 4.968 4.968 0 0 1 -2.656 4.568c.3.977.449 2.715-.544 5.424a21.034 21.034 0 0 1 -6.258 9.449 14.537 14.537 0 0 1 -6.6 2.922 6.227 6.227 0 0 0 -.86.208.5.5 0 0 1 -.192.039zm-6.43-50.98a2.867 2.867 0 0 0 -2.579 3.08.5.5 0 0 1 -.5.5 2.857 2.857 0 0 0 -2.57 3.07 3.913 3.913 0 0 0 .036.47.5.5 0 0 1 -.393.549 3.006 3.006 0 0 0 -2.134 3.021 3.378 3.378 0 0 0 .335 1.523.5.5 0 0 1 -.306.707 3.585 3.585 0 0 0 -2.329 3.56 4.078 4.078 0 0 0 1.01 2.724.5.5 0 0 1 .074.566 3.7 3.7 0 0 0 -.4 1.72 3.444 3.444 0 0 0 1.419 2.855.5.5 0 0 1 .043.8 4.233 4.233 0 0 0 -1.386 3.225 3.843 3.843 0 0 0 2.435 3.8.5.5 0 0 1 .312.272.5.5 0 0 1 0 .414c-.31.679-.672 2.253.385 5.162 3.676 10.032 9.6 11.227 12.128 11.737.353.071.63.127.852.195.222-.068.5-.125.853-.2a13.439 13.439 0 0 0 6.173-2.72 20.052 20.052 0 0 0 5.942-9.013c1.069-2.915.7-4.482.387-5.156a.5.5 0 0 1 .309-.69 3.845 3.845 0 0 0 2.444-3.8 4.232 4.232 0 0 0 -1.392-3.228.5.5 0 0 1 .043-.8 3.444 3.444 0 0 0 1.419-2.853 3.7 3.7 0 0 0 -.4-1.72.5.5 0 0 1 .074-.566 4.078 4.078 0 0 0 1.01-2.724 3.585 3.585 0 0 0 -2.329-3.56.5.5 0 0 1 -.306-.707 3.378 3.378 0 0 0 .335-1.523 3.423 3.423 0 0 0 -.514-1.824 2.623 2.623 0 0 0 -1.612-1.2.5.5 0 0 1 -.393-.517l.012-.171c.008-.105.017-.214.017-.331a2.856 2.856 0 0 0 -2.569-3.07.5.5 0 0 1 -.5-.5 2.867 2.867 0 0 0 -2.58-3.08 2.359 2.359 0 0 0 -1.4.466.5.5 0 0 1 -.772-.266 4.661 4.661 0 0 0 -4.253-3.267 4.671 4.671 0 0 0 -4.26 3.27.5.5 0 0 1 -.776.263 2.314 2.314 0 0 0 -1.394-.463z" fill="#323c6b"/><path d="m16.032 48.423a.651.651 0 0 1 -.55-.3 27.269 27.269 0 0 1 -2.528-5.229 13.009 13.009 0 0 1 -.707-2.812.65.65 0 0 1 1.291-.159 11.673 11.673 0 0 0 .638 2.525 25.888 25.888 0 0 0 2.4 4.977.65.65 0 0 1 -.548 1z" fill="#fff"/><path d="m18.212 51.23a.648.648 0 0 1 -.47-.2q-.268-.28-.535-.586a.65.65 0 1 1 .979-.855q.249.284.5.543a.65.65 0 0 1 -.47 1.1z" fill="#fff"/><path d="m60.028 9.3a5.117 5.117 0 0 1 2.76 5.287 2.821 2.821 0 0 1 1.771.21 3.356 3.356 0 0 1 1.282 4.535 3.344 3.344 0 0 1 1.282 4.535 4.822 4.822 0 0 1 -.259.469 3.476 3.476 0 0 1 .808 4.244 3.9 3.9 0 0 1 -1.09 1.42 4.1 4.1 0 0 1 .733 4.8 4.557 4.557 0 0 1 -2.325 2.291 4.142 4.142 0 0 1 -.4 1.959 3.943 3.943 0 0 1 -2.866 2.275 4.733 4.733 0 0 1 -.1 3.937 4.342 4.342 0 0 1 -4.342 2.7c0 1.133-.637 2.837-2.67 4.867-9.028 9.016-15.815 5.552-17.372 5.473-1.063-1.14-8.085-4.1-7.006-16.812.243-2.862 1.135-4.449 2-5.177a4.342 4.342 0 0 1 -.734-5.058 4.733 4.733 0 0 1 2.944-2.617 3.943 3.943 0 0 1 -.106-3.658 4.142 4.142 0 0 1 1.238-1.57 4.557 4.557 0 0 1 .255-3.254 4.1 4.1 0 0 1 4.142-2.531 3.9 3.9 0 0 1 .389-1.753 3.476 3.476 0 0 1 3.767-2.116 4.822 4.822 0 0 1 .192-.5 3.344 3.344 0 0 1 4.295-1.941 3.356 3.356 0 0 1 4.284-1.942 2.821 2.821 0 0 1 1.3 1.219 5.117 5.117 0 0 1 5.828-1.292z" fill="#6fc666"/><path d="m66.58 30a4.09 4.09 0 0 1 .73 4.8 4.5 4.5 0 0 1 -2.32 2.29 4.258 4.258 0 0 1 -.4 1.96 3.955 3.955 0 0 1 -2.87 2.28 4.707 4.707 0 0 1 -.1 3.93 4.34 4.34 0 0 1 -4.35 2.7c.01 1.13-.63 2.84-2.67 4.87-9.02 9.01-15.81 5.55-17.37 5.47a24.264 24.264 0 0 1 -3.74-3.34c.68.53 1.21.88 1.45 1.13 1.55.08 8.34 3.54 17.37-5.47 2.03-2.03 2.67-3.74 2.67-4.87a4.335 4.335 0 0 0 4.34-2.7 4.708 4.708 0 0 0 .1-3.93 3.955 3.955 0 0 0 2.87-2.28 4.017 4.017 0 0 0 .4-1.96 4.551 4.551 0 0 0 2.33-2.29 4.092 4.092 0 0 0 -.74-4.8 3.827 3.827 0 0 0 1.09-1.42 3.482 3.482 0 0 0 -.8-4.25 5.016 5.016 0 0 0 .26-.47 3.344 3.344 0 0 0 -1.29-4.53 3.923 3.923 0 0 0 .28-2.56 2.879 2.879 0 0 1 .74.23 3.362 3.362 0 0 1 1.28 4.54 3.332 3.332 0 0 1 1.28 4.53 3.421 3.421 0 0 1 -.26.47 3.484 3.484 0 0 1 .81 4.25 3.826 3.826 0 0 1 -1.09 1.42z" fill="#65b54e"/><g fill="#323c6b"><path d="m31.348 71.453a.5.5 0 0 1 -.453-.711l22.744-48.9a.5.5 0 1 1 .906.422l-22.745 48.9a.5.5 0 0 1 -.452.289z"/><path d="m50.4 30.5a.5.5 0 0 1 -.472-.334l-2.276-6.488a.5.5 0 0 1 .943-.331l2.276 6.488a.5.5 0 0 1 -.472.666z"/><path d="m45.385 41.274a.5.5 0 0 1 -.467-.321l-3.082-8.021a.5.5 0 1 1 .934-.358l3.082 8.026a.5.5 0 0 1 -.287.646.508.508 0 0 1 -.18.028z"/><path d="m47.735 36.223a.5.5 0 0 1 -.178-.967l6.429-2.44a.5.5 0 1 1 .355.935l-6.429 2.44a.5.5 0 0 1 -.177.032z"/><path d="m42.725 47a.5.5 0 0 1 -.163-.973l8.12-2.81a.5.5 0 1 1 .326.945l-8.12 2.81a.5.5 0 0 1 -.163.028z"/><path d="m40.374 52.047a.5.5 0 0 1 -.472-.334l-2.275-6.488a.5.5 0 0 1 .943-.331l2.275 6.488a.5.5 0 0 1 -.307.637.489.489 0 0 1 -.164.028z"/><path d="m51.2 59.81a.5.5 0 0 1 -.256-.93 27.99 27.99 0 0 0 5.427-4.28 15.169 15.169 0 0 0 1.905-2.291.5.5 0 0 1 .832.555 16.184 16.184 0 0 1 -2.03 2.444 29.079 29.079 0 0 1 -5.62 4.434.5.5 0 0 1 -.258.068z"/><path d="m48.17 61.291a.5.5 0 0 1 -.171-.97c.185-.067.369-.136.553-.215a.5.5 0 1 1 .4.918c-.2.087-.405.164-.607.237a.5.5 0 0 1 -.175.03z"/><path d="m42.073 59.529a16.264 16.264 0 0 1 -4-.553 6.291 6.291 0 0 0 -.862-.175.5.5 0 0 1 -.34-.159 6.37 6.37 0 0 0 -.69-.546c-2.214-1.627-7.4-5.438-6.448-16.649a8.584 8.584 0 0 1 1.79-5.147 4.969 4.969 0 0 1 -.482-5.259 5.392 5.392 0 0 1 2.7-2.69 4.56 4.56 0 0 1 .138-3.584 4.763 4.763 0 0 1 1.121-1.538 5.132 5.132 0 0 1 .368-3.285 4.7 4.7 0 0 1 4.109-2.857h.009a4.59 4.59 0 0 1 .414-1.427 4.04 4.04 0 0 1 3.894-2.46c.021-.05.043-.1.067-.153a3.935 3.935 0 0 1 4.511-2.352 4.284 4.284 0 0 1 1.928-1.749 3.346 3.346 0 0 1 2.816-.026 3.291 3.291 0 0 1 1.158.885 5.665 5.665 0 0 1 5.966-.962 5.659 5.659 0 0 1 3.107 5.182 3.51 3.51 0 0 1 1.424.315 3.788 3.788 0 0 1 1.7 4.769 3.4 3.4 0 0 1 1.385 1.942 4.354 4.354 0 0 1 -.277 3.024c-.024.052-.05.1-.074.15a4.044 4.044 0 0 1 .623 4.563 4.6 4.6 0 0 1 -.825 1.235 4.705 4.705 0 0 1 .469 4.991 5.145 5.145 0 0 1 -2.275 2.4 4.769 4.769 0 0 1 -.453 1.853 4.559 4.559 0 0 1 -2.652 2.415 5.391 5.391 0 0 1 -.318 3.8 4.97 4.97 0 0 1 -4.334 3.018c-.142 1.01-.737 2.649-2.777 4.688-5.2 5.182-9.669 6.341-12.89 6.341zm-4.618-1.707c.229.032.5.1.849.182 2.509.607 8.384 2.025 15.947-5.53 2.279-2.276 2.524-3.914 2.523-4.512a.5.5 0 0 1 .172-.378.506.506 0 0 1 .4-.118 3.846 3.846 0 0 0 3.818-2.413 4.252 4.252 0 0 0 .1-3.518.5.5 0 0 1 .374-.7 3.459 3.459 0 0 0 2.493-1.993 3.675 3.675 0 0 0 .357-1.722.5.5 0 0 1 .306-.486 4.079 4.079 0 0 0 2.065-2.041 3.586 3.586 0 0 0 -.609-4.211.5.5 0 0 1 .019-.768 3.383 3.383 0 0 0 .947-1.247 3 3 0 0 0 -.655-3.632.5.5 0 0 1 -.129-.659 4.395 4.395 0 0 0 .236-.424 3.358 3.358 0 0 0 .221-2.326 2.365 2.365 0 0 0 -1.262-1.542.5.5 0 0 1 -.242-.665 2.862 2.862 0 0 0 -1.04-3.871 2.328 2.328 0 0 0 -1.462-.173.489.489 0 0 1 -.443-.129.5.5 0 0 1 -.148-.437 4.656 4.656 0 0 0 -2.476-4.759 4.657 4.657 0 0 0 -5.234 1.171.486.486 0 0 1 -.431.168.5.5 0 0 1 -.385-.256 2.31 2.31 0 0 0 -1.074-1.006 2.369 2.369 0 0 0 -1.987.032 3.352 3.352 0 0 0 -1.643 1.667.5.5 0 0 1 -.664.243 2.857 2.857 0 0 0 -3.631 1.7 4.388 4.388 0 0 0 -.171.449.5.5 0 0 1 -.586.328 3 3 0 0 0 -3.2 1.839 3.378 3.378 0 0 0 -.343 1.527.5.5 0 0 1 -.167.388.494.494 0 0 1 -.407.119 3.59 3.59 0 0 0 -3.612 2.248 4.072 4.072 0 0 0 -.23 2.895.5.5 0 0 1 -.176.548 3.666 3.666 0 0 0 -1.087 1.382 3.461 3.461 0 0 0 .082 3.19.5.5 0 0 1 -.3.738 4.256 4.256 0 0 0 -2.624 2.346 3.847 3.847 0 0 0 .614 4.475.5.5 0 0 1 -.012.755c-.458.385-1.553 1.627-1.825 4.837-.9 10.652 3.966 14.23 6.045 15.758.29.209.516.378.687.531z"/></g></g></svg>