<svg height="512" viewBox="0 0 74 74" width="512" xmlns="http://www.w3.org/2000/svg"><g id="color_line" data-name="color line"><path d="m37.538 37.975h-7.248l-1.242 20.347s-6.437 7.72.9 8.69a40.455 40.455 0 0 0 7.929 0c7.338-.969.9-8.69.9-8.69z" fill="#e1e6e9"/><path d="m37.88 67.01a40.416 40.416 0 0 1 -7.93 0 4.209 4.209 0 0 1 -3-1.39c.02 0 .04.01.06.01a40.407 40.407 0 0 0 7.93 0c7.34-.97.95-7.84.95-7.84l-1.21-19.82h2.86l1.24 20.35s6.44 7.72-.9 8.69z" fill="#d5d6db"/><path d="m36.19 37.971h-5.901l-2.446-13.28-5.646-13.698 6.247-.601 5.239 17.937.02.092.214.713.663 2.569z" fill="#6fc666"/><path d="m36.19 38.471h-5.9a.5.5 0 0 1 -.492-.409l-2.438-13.229-5.626-13.649a.5.5 0 0 1 .415-.688l6.248-.6a.5.5 0 0 1 .528.357l5.238 17.938c0 .01.026.112.028.122l.205.679 2.278 8.855a.5.5 0 0 1 -.484.625zm-5.484-1h4.84l-2.321-8.906c0-.011-.027-.114-.029-.125l-5.115-17.51-5.165.5 5.389 13.07a.507.507 0 0 1 .029.1z" fill="#323c6b"/><path d="m30.86 28.2a.65.65 0 0 1 -.638-.532l-.515-2.8-1.862-4.508a.65.65 0 1 1 1.2-.5l1.887 4.578a.661.661 0 0 1 .038.13l.527 2.863a.65.65 0 0 1 -.64.768z" fill="#fff"/><path d="m31.409 31.185a.65.65 0 0 1 -.638-.533l-.1-.519a.65.65 0 0 1 1.278-.234l.1.519a.65.65 0 0 1 -.64.767z" fill="#fff"/><path d="m37.2 23.325v.01l-.092.153-2.528 8.212-.662-2.568-.214-.713-.02-.092-4.21-18.587 3.842.652s1.111 3.689 2.324 7.674v.02z" fill="#6fc666"/><path d="m35.87 25.08v.01l-.09.15-1.56 5.06.36 1.4 2.53-8.21.09-.15v-.01l-1.56-5.24v-.02c-1.21-3.99-2.32-7.68-2.32-7.68l-1.94-.33z" fill="#65b54e"/><path d="m38.38 21.396 5.171-13.389-3.761-1.007-4.156 11.083 1.564 5.25z" fill="#6fc666"/><path d="m43.55 8.01-5.17 13.39-1.18 1.93-.69-2.3.12-.19 5.14-13.31z" fill="#65b54e"/><path d="m51.803 10.932-9.967 17.489-4.291 9.55h-1.355l-1.61-6.268 2.619-8.368v-.01l.02-.01 10.182-14.421z" fill="#6fc666"/><path d="m51.8 10.93-9.96 17.49-4.29 9.55h-1.36l-.32-1.25 4.17-9.27 9.9-17.38z" fill="#65b54e"/><g fill="#323c6b"><path d="m29.375 70.736a.5.5 0 0 1 -.482-.635l.849-3.029a.5.5 0 0 1 .963.27l-.849 3.029a.5.5 0 0 1 -.481.365z"/><path d="m38.453 70.736a.5.5 0 0 1 -.481-.365l-.85-3.029a.5.5 0 0 1 .963-.271l.85 3.029a.5.5 0 0 1 -.482.635z"/><path d="m33.914 71.5a.5.5 0 0 1 -.5-.5v-3.312a.5.5 0 0 1 1 0v3.312a.5.5 0 0 1 -.5.5z"/><path d="m24.3 60.833a.5.5 0 0 1 -.458-.7 17.348 17.348 0 0 1 1.762-3.075l.329-5.878a.493.493 0 0 1 .527-.471.5.5 0 0 1 .471.527l-.331 6.024a.5.5 0 0 1 -.094.266 16.372 16.372 0 0 0 -1.741 3.007.5.5 0 0 1 -.465.3z"/><path d="m26.5 49.542h-.026a.5.5 0 0 1 -.474-.526l.028-.542a.489.489 0 0 1 .53-.474.5.5 0 0 1 .474.525l-.032.542a.5.5 0 0 1 -.5.475z"/><path d="m47.277 25.432a.5.5 0 0 1 -.434-.748l4.426-7.766a.5.5 0 1 1 .869.5l-4.426 7.762a.5.5 0 0 1 -.435.252z"/><path d="m45.775 28.068a.5.5 0 0 1 -.434-.748l.267-.469a.5.5 0 1 1 .869.5l-.267.469a.5.5 0 0 1 -.435.248z"/><path d="m37.545 38.471h-1.355a.5.5 0 0 1 -.484-.375l-1.606-6.269a.5.5 0 0 1 .007-.274l2.613-8.348a.525.525 0 0 1 .14-.242l10.132-14.358a.5.5 0 0 1 .619-.165l4.4 2.038a.5.5 0 0 1 .225.7l-9.965 17.49-4.271 9.508a.5.5 0 0 1 -.455.295zm-.968-1h.644l4.158-9.255 9.721-17.059-3.532-1.634-9.921 14.052-2.547 8.141z"/><path d="m37.2 23.833a.477.477 0 0 1 -.064 0 .5.5 0 0 1 -.415-.353l-1.564-5.25a.5.5 0 0 1 .011-.318l4.154-11.088a.5.5 0 0 1 .6-.307l3.758 1.007a.5.5 0 0 1 .337.663l-5.171 13.389a.488.488 0 0 1 -.04.08l-1.182 1.938a.5.5 0 0 1 -.424.239zm-1.038-5.733 1.195 4.013.573-.94 4.954-12.827-2.784-.746z"/><path d="m34.58 32.2h-.012a.5.5 0 0 1 -.473-.375l-.871-3.263c0-.011-.027-.114-.029-.125l-4.209-18.587a.5.5 0 0 1 .124-.45.512.512 0 0 1 .447-.149l3.843.649a.5.5 0 0 1 .4.349s1.11 3.689 2.323 7.673a.594.594 0 0 1 .017.078l1.542 5.184a.487.487 0 0 1 .021.143v.01a.5.5 0 0 1 -.071.257l-.061.1-2.513 8.156a.5.5 0 0 1 -.478.35zm-4.454-21.842 4.5 19.507 2.007-6.524a.532.532 0 0 1 .03-.076l-1.5-5.036a.467.467 0 0 1 -.016-.072c-1-3.295-1.933-6.377-2.218-7.324z"/><path d="m33.914 67.706a34.158 34.158 0 0 1 -4.03-.2c-1.983-.262-3.237-1.029-3.726-2.281-1.015-2.6 1.8-6.34 2.4-7.1l1.232-20.187a.5.5 0 0 1 .5-.47h7.248a.5.5 0 0 1 .5.47l1.231 20.187c.6.755 3.416 4.5 2.4 7.1-.488 1.251-1.742 2.019-3.726 2.281a34.27 34.27 0 0 1 -4.029.2zm-3.154-29.231-1.213 19.878a.5.5 0 0 1 -.115.29c-.9 1.086-3.086 4.32-2.342 6.222.346.886 1.331 1.442 2.925 1.653a39.781 39.781 0 0 0 7.8 0c1.594-.21 2.579-.767 2.925-1.653.744-1.9-1.439-5.136-2.343-6.222a.5.5 0 0 1 -.115-.29l-1.214-19.878z"/></g></g></svg>