<svg height="512" viewBox="0 0 74 74" width="512" xmlns="http://www.w3.org/2000/svg"><g id="color_line" data-name="color line"><path d="m39.88 68.87c-1.27 4.51-6.43 3.47-6.74 0-18.67-3.83-19.74-18.67-16.47-33.88a21.565 21.565 0 0 1 14.28-16.4 2.286 2.286 0 0 0 1.35-1.2l.18-.37a4.361 4.361 0 0 1 1.64-1.86 4.477 4.477 0 0 1 2.39-.69 4.379 4.379 0 0 1 3.31 1.49h.01a4.755 4.755 0 0 1 .7 1.06l.18.37a2.315 2.315 0 0 0 1.35 1.2 21.576 21.576 0 0 1 10.45 7.64 22.783 22.783 0 0 1 3.84 8.76c3.26 15.21 2.2 30.05-16.47 33.88z" fill="#fcd462"/><path d="m39.88 68.87c-1.08 3.84-4.99 3.66-6.31 1.37a3.647 3.647 0 0 0 3.46-3.01c18.67-3.83 19.73-18.67 16.47-33.88a20.976 20.976 0 0 0 -3.26-7.3c-2-2.86-3.685-5.049-5.78-6.48a21.571 21.571 0 0 1 11.89 15.42c3.26 15.21 2.2 30.05-16.47 33.88z" fill="#f7be56"/><path d="m36.075 14.987a.534.534 0 0 1 -.088-.007.5.5 0 0 1 -.405-.579c.7-4-.521-8.2-1.312-10.355a.5.5 0 0 1 .94-.346c.825 2.247 2.1 6.647 1.356 10.873a.5.5 0 0 1 -.491.414z" fill="#323c6b"/><path d="m28.469 62.632a.642.642 0 0 1 -.283-.065c-.549-.266-1.063-.546-1.532-.833a.65.65 0 0 1 .68-1.108c.432.265.909.525 1.419.772a.65.65 0 0 1 -.283 1.235z" fill="#fff"/><path d="m22.8 57.77a.65.65 0 0 1 -.551-.3c-1.962-3.1-2.772-7.215-2.48-12.571a.659.659 0 0 1 .685-.613.651.651 0 0 1 .614.685c-.278 5.077.469 8.938 2.281 11.806a.65.65 0 0 1 -.549 1z" fill="#fff"/><path d="m16.839 26.875a.5.5 0 0 1 -.43-.755c.127-.215.256-.43.388-.638a.5.5 0 1 1 .844.536c-.126.2-.249.406-.372.612a.5.5 0 0 1 -.43.245z" fill="#323c6b"/><path d="m19.036 23.75a.5.5 0 0 1 -.384-.821 25.514 25.514 0 0 1 9.194-6.887.5.5 0 0 1 .4.915 24.507 24.507 0 0 0 -8.831 6.613.5.5 0 0 1 -.379.18z" fill="#323c6b"/><path d="m60.731 49.083h-.02a.5.5 0 0 1 -.48-.52c.007-.166.01-.336.012-.505v-.234a.517.517 0 0 1 .51-.49.5.5 0 0 1 .49.51v.229c0 .178 0 .356-.012.531a.5.5 0 0 1 -.5.479z" fill="#323c6b"/><path d="m56.926 62.229a.5.5 0 0 1 -.419-.773 23.611 23.611 0 0 0 3.493-10.101.5.5 0 0 1 .992.123 24.6 24.6 0 0 1 -3.647 10.522.5.5 0 0 1 -.419.229z" fill="#323c6b"/><path d="m52.51 26.23a17.225 17.225 0 0 0 -2.27-.18 16.479 16.479 0 0 1 -6.47-1.24 6.049 6.049 0 0 1 -1.64-1.55 9.538 9.538 0 0 1 -2.31-7.28v-.02h.01a4.755 4.755 0 0 1 .7 1.06l.18.37a2.315 2.315 0 0 0 1.35 1.2 21.576 21.576 0 0 1 10.45 7.64z" fill="#f7be56"/><path d="m36.412 72.372c-.111 0-.22 0-.326-.015a3.757 3.757 0 0 1 -3.4-3.073c-6.7-1.439-11.584-4.44-14.512-8.922-3.783-5.792-4.437-14.126-2-25.479a22.19 22.19 0 0 1 14.616-16.77 1.777 1.777 0 0 0 1.059-.936l.176-.372a4.956 4.956 0 0 1 8.962 0l.176.372a1.779 1.779 0 0 0 1.06.936 22.189 22.189 0 0 1 14.612 16.77c2.437 11.352 1.782 19.686-2 25.479-2.935 4.494-7.835 7.499-14.568 8.938a4.072 4.072 0 0 1 -3.855 3.072zm.094-57.406a3.974 3.974 0 0 0 -3.577 2.266l-.176.372a2.769 2.769 0 0 1 -1.653 1.459 21.19 21.19 0 0 0 -13.945 16.03c-2.379 11.078-1.771 19.165 1.859 24.722 2.827 4.328 7.611 7.208 14.222 8.563a.5.5 0 0 1 .4.445 2.779 2.779 0 0 0 2.544 2.539c1.157.113 2.625-.527 3.216-2.629a.5.5 0 0 1 .381-.354c6.61-1.354 11.395-4.235 14.222-8.562 3.63-5.557 4.238-13.644 1.859-24.722a21.189 21.189 0 0 0 -13.947-16.03 2.771 2.771 0 0 1 -1.65-1.458l-.176-.373a3.972 3.972 0 0 0 -3.579-2.268z" fill="#323c6b"/><path d="m43.053 21.359a5.945 5.945 0 0 0 1.636 1.541 16.29 16.29 0 0 0 6.476 1.246 20.538 20.538 0 0 1 6.026 1.043 6.159 6.159 0 0 0 1.58.3c0-.955-3.113-11.132-8.486-14.179a8.853 8.853 0 0 0 -5.228-1.445 4.659 4.659 0 0 0 -2.888 1.435 4.968 4.968 0 0 0 -1.425 2.781 9.542 9.542 0 0 0 2.309 7.278z" fill="#6fc666"/><path d="m58.77 25.5a6.5 6.5 0 0 1 -1.58-.31c-.23-.07-.46-.14-.68-.2-.98-3.21-3.83-10.14-8.1-12.57a8.791 8.791 0 0 0 -5.23-1.44 3.765 3.765 0 0 0 -.87.19 4.662 4.662 0 0 1 2.75-1.3 8.891 8.891 0 0 1 5.23 1.45c5.36 3.04 8.48 13.19 8.48 14.18z" fill="#65b54e"/><g fill="#323c6b"><path d="m52.458 21.083a.5.5 0 0 1 -.384-.18c-2.368-2.835-7.882-7.558-10.494-8.687a.484.484 0 0 1 -.114-.069 29.373 29.373 0 0 0 -5.685-3.592.5.5 0 0 1 .432-.9 30.377 30.377 0 0 1 5.826 3.672c2.82 1.255 8.363 6.016 10.8 8.938a.5.5 0 0 1 -.384.82z"/><path d="m44.957 16.375a.5.5 0 0 1 -.491-.412l-.439-2.463a.5.5 0 0 1 .984-.176l.438 2.458a.5.5 0 0 1 -.493.588z"/><path d="m47.54 18.813a.5.5 0 0 1 -.5-.5v-2.42a.5.5 0 0 1 1 0v2.42a.5.5 0 0 1 -.5.5z"/><path d="m50.373 21.626a.5.5 0 0 1 -.5-.488l-.062-2.647a.5.5 0 1 1 1-.023l.063 2.647a.5.5 0 0 1 -.488.512z"/><path d="m46.147 15.023a.5.5 0 0 1 -.066-1l2.644-.357a.5.5 0 0 1 .135.991l-2.644.357a.547.547 0 0 1 -.069.009z"/><path d="m49.06 17.5a.5.5 0 0 1 -.063-1l2.085-.271a.5.5 0 1 1 .129.991l-2.085.271a.491.491 0 0 1 -.066.009z"/><path d="m58.771 26h-.021a6.626 6.626 0 0 1 -1.71-.325 19.91 19.91 0 0 0 -5.88-1.02 16.6 16.6 0 0 1 -6.726-1.315 6.369 6.369 0 0 1 -1.779-1.671c-1.975-2.569-2.785-5.148-2.405-7.661a5.475 5.475 0 0 1 1.55-3.045 5.152 5.152 0 0 1 3.2-1.588 9.184 9.184 0 0 1 5.53 1.508c5.657 3.208 8.742 13.7 8.737 14.615a.5.5 0 0 1 -.5.5zm-15.322-4.946a5.4 5.4 0 0 0 1.494 1.42 15.9 15.9 0 0 0 6.226 1.177 20.866 20.866 0 0 1 6.173 1.067 6.77 6.77 0 0 0 .82.207c-.593-2.339-3.554-10.581-8.124-13.172a8.265 8.265 0 0 0 -4.927-1.382 4.141 4.141 0 0 0 -2.575 1.271 4.486 4.486 0 0 0 -1.3 2.517c-.342 2.265.381 4.521 2.211 6.9z"/></g></g></svg>